G04 Aether Orb Rev A; independently CAM-review before ordering*
%FSLAX46Y46*%
%MOMM*%
%TF.FileFunction,Soldermask,Bot*%
%TF.FilePolarity,Positive*%
%LPD*%
%ADD10R,1.900000X1.900000*%
%ADD11C,1.900000*%
%ADD12R,2.900000X2.900000*%
%ADD13C,2.900000*%
%ADD14C,2.500000*%
%ADD15R,2.500000X2.500000*%
%ADD16R,1.950000X1.950000*%
%ADD17C,1.950000*%
%ADD18C,2.100000*%
D10*
X14000000Y74000000D03*
D11*
X14000000Y71460000D03*
D11*
X14000000Y68920000D03*
D11*
X14000000Y66380000D03*
D11*
X14000000Y63840000D03*
D11*
X14000000Y61300000D03*
D11*
X14000000Y58760000D03*
D11*
X14000000Y56220000D03*
D11*
X14000000Y53680000D03*
D11*
X14000000Y51140000D03*
D11*
X14000000Y48600000D03*
D11*
X14000000Y46060000D03*
D11*
X14000000Y43520000D03*
D11*
X14000000Y40980000D03*
D11*
X14000000Y38440000D03*
D11*
X14000000Y35900000D03*
D11*
X14000000Y33360000D03*
D11*
X14000000Y30820000D03*
D11*
X14000000Y28280000D03*
D11*
X14000000Y25740000D03*
D11*
X14000000Y23200000D03*
D11*
X14000000Y20660000D03*
D10*
X36860000Y74000000D03*
D11*
X36860000Y71460000D03*
D11*
X36860000Y68920000D03*
D11*
X36860000Y66380000D03*
D11*
X36860000Y63840000D03*
D11*
X36860000Y61300000D03*
D11*
X36860000Y58760000D03*
D11*
X36860000Y56220000D03*
D11*
X36860000Y53680000D03*
D11*
X36860000Y51140000D03*
D11*
X36860000Y48600000D03*
D11*
X36860000Y46060000D03*
D11*
X36860000Y43520000D03*
D11*
X36860000Y40980000D03*
D11*
X36860000Y38440000D03*
D11*
X36860000Y35900000D03*
D11*
X36860000Y33360000D03*
D11*
X36860000Y30820000D03*
D11*
X36860000Y28280000D03*
D11*
X36860000Y25740000D03*
D11*
X36860000Y23200000D03*
D11*
X36860000Y20660000D03*
D12*
X68000000Y12000000D03*
D13*
X73080000Y12000000D03*
D14*
X57000000Y12000000D03*
D14*
X62080000Y12000000D03*
D15*
X80000000Y20000000D03*
D14*
X85000000Y20000000D03*
D11*
X42000000Y13000000D03*
D11*
X44540000Y13000000D03*
D16*
X92000000Y75000000D03*
D17*
X92000000Y72500000D03*
D17*
X92000000Y70000000D03*
D17*
X92000000Y67500000D03*
D17*
X92000000Y65000000D03*
D17*
X92000000Y62500000D03*
D17*
X92000000Y60000000D03*
D17*
X92000000Y57500000D03*
D16*
X53000000Y74000000D03*
D17*
X53000000Y71500000D03*
D17*
X53000000Y69000000D03*
D17*
X53000000Y66500000D03*
D17*
X53000000Y64000000D03*
D17*
X53000000Y61500000D03*
D16*
X92000000Y46000000D03*
D17*
X92000000Y43500000D03*
D17*
X92000000Y41000000D03*
D17*
X92000000Y38500000D03*
D17*
X92000000Y36000000D03*
D17*
X92000000Y33500000D03*
D16*
X77000000Y50000000D03*
D17*
X77000000Y47500000D03*
D17*
X77000000Y45000000D03*
D16*
X9000000Y13000000D03*
D17*
X9000000Y10500000D03*
D16*
X20000000Y13000000D03*
D17*
X20000000Y10500000D03*
D16*
X31000000Y13000000D03*
D17*
X31000000Y10500000D03*
D18*
X69000000Y29000000D03*
D18*
X76000000Y29000000D03*
D18*
X46000000Y54000000D03*
D18*
X71000000Y41000000D03*
M02*
