G04 Aether Orb Rev B; independently CAM-review before ordering*
%FSLAX46Y46*%
%MOMM*%
%TF.FileFunction,Copper,L2,Bot*%
%TF.FilePolarity,Positive*%
%LPD*%
%ADD10R,1.800000X1.800000*%
%ADD11C,1.800000*%
%ADD12R,2.800000X2.800000*%
%ADD13C,2.800000*%
%ADD14C,2.400000*%
%ADD15R,2.400000X2.400000*%
%ADD16R,1.850000X1.850000*%
%ADD17C,1.850000*%
%ADD18C,2.000000*%
%ADD19C,0.700000*%
%ADD20C,0.300000*%
%ADD21C,0.800000*%
%ADD22C,0.600000*%
%ADD23C,0.500000*%
D10*
X14000000Y74000000D03*
D11*
X14000000Y71460000D03*
D11*
X14000000Y68920000D03*
D11*
X14000000Y66380000D03*
D11*
X14000000Y63840000D03*
D11*
X14000000Y61300000D03*
D11*
X14000000Y58760000D03*
D11*
X14000000Y56220000D03*
D11*
X14000000Y53680000D03*
D11*
X14000000Y51140000D03*
D11*
X14000000Y48600000D03*
D11*
X14000000Y46060000D03*
D11*
X14000000Y43520000D03*
D11*
X14000000Y40980000D03*
D11*
X14000000Y38440000D03*
D11*
X14000000Y35900000D03*
D11*
X14000000Y33360000D03*
D11*
X14000000Y30820000D03*
D11*
X14000000Y28280000D03*
D11*
X14000000Y25740000D03*
D11*
X14000000Y23200000D03*
D11*
X14000000Y20660000D03*
D10*
X36860000Y74000000D03*
D11*
X36860000Y71460000D03*
D11*
X36860000Y68920000D03*
D11*
X36860000Y66380000D03*
D11*
X36860000Y63840000D03*
D11*
X36860000Y61300000D03*
D11*
X36860000Y58760000D03*
D11*
X36860000Y56220000D03*
D11*
X36860000Y53680000D03*
D11*
X36860000Y51140000D03*
D11*
X36860000Y48600000D03*
D11*
X36860000Y46060000D03*
D11*
X36860000Y43520000D03*
D11*
X36860000Y40980000D03*
D11*
X36860000Y38440000D03*
D11*
X36860000Y35900000D03*
D11*
X36860000Y33360000D03*
D11*
X36860000Y30820000D03*
D11*
X36860000Y28280000D03*
D11*
X36860000Y25740000D03*
D11*
X36860000Y23200000D03*
D11*
X36860000Y20660000D03*
D12*
X72000000Y8000000D03*
D13*
X77080000Y8000000D03*
D14*
X57000000Y12000000D03*
D14*
X62080000Y12000000D03*
D15*
X80000000Y20000000D03*
D14*
X85000000Y20000000D03*
D11*
X42000000Y13000000D03*
D11*
X44540000Y13000000D03*
D16*
X92000000Y75000000D03*
D17*
X92000000Y72500000D03*
D17*
X92000000Y70000000D03*
D17*
X92000000Y67500000D03*
D17*
X92000000Y65000000D03*
D17*
X92000000Y62500000D03*
D17*
X92000000Y60000000D03*
D17*
X92000000Y57500000D03*
D16*
X53000000Y74000000D03*
D17*
X53000000Y71500000D03*
D17*
X53000000Y69000000D03*
D17*
X53000000Y66500000D03*
D17*
X53000000Y64000000D03*
D17*
X53000000Y61500000D03*
D16*
X92000000Y46000000D03*
D17*
X92000000Y43500000D03*
D17*
X92000000Y41000000D03*
D17*
X92000000Y38500000D03*
D17*
X92000000Y36000000D03*
D17*
X92000000Y33500000D03*
D16*
X77000000Y50000000D03*
D17*
X77000000Y47500000D03*
D17*
X77000000Y45000000D03*
D16*
X9000000Y13000000D03*
D17*
X9000000Y10500000D03*
D16*
X20000000Y13000000D03*
D17*
X20000000Y10500000D03*
D16*
X31000000Y13000000D03*
D17*
X31000000Y10500000D03*
D18*
X69000000Y29000000D03*
D18*
X76000000Y29000000D03*
D18*
X46000000Y54000000D03*
D18*
X71000000Y41000000D03*
D19*
X38400000Y35600000D03*
D19*
X80800000Y35600000D03*
D19*
X11800000Y58800000D03*
D19*
X34600000Y30800000D03*
D19*
X43000000Y34000000D03*
D19*
X43000000Y36600000D03*
D19*
X33800000Y36800000D03*
D19*
X33800000Y35200000D03*
D19*
X15400000Y35200000D03*
D19*
X32200000Y39200000D03*
D19*
X32200000Y34400000D03*
D19*
X33000000Y18400000D03*
D19*
X31400000Y17600000D03*
D19*
X40000000Y36600000D03*
D19*
X41000000Y36600000D03*
D19*
X55200000Y62200000D03*
D19*
X42000000Y36600000D03*
D19*
X56000000Y61600000D03*
D19*
X41400000Y28800000D03*
D19*
X41400000Y31600000D03*
D19*
X14600000Y15600000D03*
D19*
X44000000Y36600000D03*
D19*
X29800000Y27400000D03*
D19*
X30200000Y14800000D03*
D19*
X42800000Y27600000D03*
D19*
X60000000Y22000000D03*
D19*
X69000000Y36800000D03*
D19*
X64800000Y46000000D03*
D19*
X63000000Y46200000D03*
D19*
X16200000Y23200000D03*
D19*
X17200000Y20000000D03*
D19*
X17200000Y17200000D03*
D19*
X29200000Y14800000D03*
D19*
X29200000Y20000000D03*
D19*
X55000000Y23000000D03*
D19*
X58000000Y38800000D03*
D19*
X58000000Y42000000D03*
D19*
X62000000Y44800000D03*
D19*
X64000000Y44800000D03*
D19*
X56600000Y60800000D03*
D19*
X51400000Y69800000D03*
D19*
X82000000Y41800000D03*
D19*
X82000000Y36000000D03*
D19*
X94600000Y72400000D03*
D19*
X56000000Y36800000D03*
D19*
X57000000Y40800000D03*
D19*
X57000000Y52400000D03*
D19*
X57800000Y60800000D03*
D19*
X56000000Y57800000D03*
D19*
X54000000Y57800000D03*
D19*
X46000000Y41200000D03*
D19*
X47000000Y36600000D03*
D19*
X47000000Y34000000D03*
D20*
X14000000Y46060000D02*
X14000000Y46000000D01*
D20*
X14000000Y46000000D02*
X14000000Y47200000D01*
D20*
X14000000Y47200000D02*
X14600000Y47200000D01*
D20*
X14600000Y47200000D02*
X14600000Y47400000D01*
D20*
X14600000Y47400000D02*
X15000000Y47400000D01*
D20*
X15000000Y47400000D02*
X15000000Y47600000D01*
D20*
X15000000Y47600000D02*
X15200000Y47600000D01*
D20*
X15200000Y47600000D02*
X15200000Y48000000D01*
D20*
X15200000Y48000000D02*
X15400000Y48000000D01*
D20*
X15400000Y48000000D02*
X15400000Y60000000D01*
D20*
X15400000Y60000000D02*
X35400000Y60000000D01*
D20*
X35400000Y60000000D02*
X35400000Y75200000D01*
D20*
X35400000Y75200000D02*
X35600000Y75200000D01*
D20*
X35600000Y75200000D02*
X35600000Y75400000D01*
D20*
X35600000Y75400000D02*
X38000000Y75400000D01*
D20*
X38000000Y75400000D02*
X38000000Y75200000D01*
D20*
X38000000Y75200000D02*
X38200000Y75200000D01*
D20*
X38200000Y75200000D02*
X38200000Y60000000D01*
D20*
X38200000Y60000000D02*
X92000000Y60000000D01*
D20*
X14000000Y56220000D02*
X14000000Y56200000D01*
D20*
X14000000Y56200000D02*
X14000000Y55000000D01*
D20*
X14000000Y55000000D02*
X13200000Y55000000D01*
D20*
X13200000Y55000000D02*
X13200000Y54800000D01*
D20*
X13200000Y54800000D02*
X13000000Y54800000D01*
D20*
X13000000Y54800000D02*
X13000000Y54600000D01*
D20*
X13000000Y54600000D02*
X12800000Y54600000D01*
D20*
X12800000Y54600000D02*
X12800000Y54200000D01*
D20*
X12800000Y54200000D02*
X12600000Y54200000D01*
D20*
X12600000Y54200000D02*
X12600000Y20200000D01*
D20*
X12600000Y20200000D02*
X12800000Y20200000D01*
D20*
X12800000Y20200000D02*
X12800000Y19800000D01*
D20*
X12800000Y19800000D02*
X13000000Y19800000D01*
D20*
X13000000Y19800000D02*
X13000000Y19600000D01*
D20*
X13000000Y19600000D02*
X13200000Y19600000D01*
D20*
X13200000Y19600000D02*
X13200000Y19400000D01*
D20*
X13200000Y19400000D02*
X13600000Y19400000D01*
D20*
X13600000Y19400000D02*
X13600000Y19200000D01*
D20*
X13600000Y19200000D02*
X37200000Y19200000D01*
D20*
X37200000Y19200000D02*
X37200000Y19400000D01*
D20*
X37200000Y19400000D02*
X37600000Y19400000D01*
D20*
X37600000Y19400000D02*
X37600000Y19600000D01*
D20*
X37600000Y19600000D02*
X38000000Y19600000D01*
D20*
X38000000Y19600000D02*
X38000000Y20000000D01*
D20*
X38000000Y20000000D02*
X38200000Y20000000D01*
D20*
X38200000Y20000000D02*
X38200000Y35600000D01*
D20*
X38200000Y35600000D02*
X38400000Y35600000D01*
D20*
X80800000Y35600000D02*
X80800000Y33600000D01*
D20*
X80800000Y33600000D02*
X92000000Y33600000D01*
D20*
X92000000Y33600000D02*
X92000000Y33500000D01*
D20*
X14000000Y66380000D02*
X14000000Y66400000D01*
D20*
X14000000Y66400000D02*
X14000000Y67600000D01*
D20*
X14000000Y67600000D02*
X14800000Y67600000D01*
D20*
X14800000Y67600000D02*
X14800000Y67800000D01*
D20*
X14800000Y67800000D02*
X15000000Y67800000D01*
D20*
X15000000Y67800000D02*
X15000000Y68000000D01*
D20*
X15000000Y68000000D02*
X15200000Y68000000D01*
D20*
X15200000Y68000000D02*
X15200000Y68400000D01*
D20*
X15200000Y68400000D02*
X15400000Y68400000D01*
D20*
X15400000Y68400000D02*
X15400000Y69000000D01*
D20*
X15400000Y69000000D02*
X34800000Y69000000D01*
D20*
X34800000Y69000000D02*
X34800000Y75600000D01*
D20*
X34800000Y75600000D02*
X35000000Y75600000D01*
D20*
X35000000Y75600000D02*
X35000000Y75800000D01*
D20*
X35000000Y75800000D02*
X35200000Y75800000D01*
D20*
X35200000Y75800000D02*
X35200000Y76000000D01*
D20*
X35200000Y76000000D02*
X38400000Y76000000D01*
D20*
X38400000Y76000000D02*
X38400000Y75800000D01*
D20*
X38400000Y75800000D02*
X38600000Y75800000D01*
D20*
X38600000Y75800000D02*
X38600000Y75600000D01*
D20*
X38600000Y75600000D02*
X38800000Y75600000D01*
D20*
X38800000Y75600000D02*
X38800000Y69000000D01*
D20*
X38800000Y69000000D02*
X53000000Y69000000D01*
D20*
X14000000Y58760000D02*
X14000000Y58800000D01*
D20*
X14000000Y58800000D02*
X11800000Y58800000D01*
D20*
X36860000Y30820000D02*
X36800000Y30800000D01*
D20*
X36800000Y30800000D02*
X34600000Y30800000D01*
D20*
X43000000Y34000000D02*
X43000000Y36600000D01*
D20*
X33800000Y36800000D02*
X33800000Y35200000D01*
D20*
X14000000Y38440000D02*
X14000000Y38400000D01*
D20*
X14000000Y38400000D02*
X15400000Y38400000D01*
D20*
X15400000Y38400000D02*
X15400000Y35200000D01*
D20*
X32200000Y39200000D02*
X32200000Y34400000D01*
D20*
X33000000Y18400000D02*
X33000000Y18600000D01*
D20*
X33000000Y18600000D02*
X37600000Y18600000D01*
D20*
X37600000Y18600000D02*
X37600000Y18800000D01*
D20*
X37600000Y18800000D02*
X38000000Y18800000D01*
D20*
X38000000Y18800000D02*
X38000000Y19000000D01*
D20*
X38000000Y19000000D02*
X38400000Y19000000D01*
D20*
X38400000Y19000000D02*
X38400000Y19200000D01*
D20*
X38400000Y19200000D02*
X38600000Y19200000D01*
D20*
X38600000Y19200000D02*
X38600000Y19600000D01*
D20*
X38600000Y19600000D02*
X38800000Y19600000D01*
D20*
X38800000Y19600000D02*
X38800000Y34800000D01*
D20*
X38800000Y34800000D02*
X39000000Y34800000D01*
D20*
X39000000Y34800000D02*
X39000000Y35000000D01*
D20*
X39000000Y35000000D02*
X39200000Y35000000D01*
D20*
X39200000Y35000000D02*
X39200000Y39600000D01*
D20*
X39200000Y39600000D02*
X71800000Y39600000D01*
D20*
X71800000Y39600000D02*
X71800000Y39800000D01*
D20*
X71800000Y39800000D02*
X72000000Y39800000D01*
D20*
X72000000Y39800000D02*
X72000000Y40000000D01*
D20*
X72000000Y40000000D02*
X72200000Y40000000D01*
D20*
X72200000Y40000000D02*
X72200000Y40200000D01*
D20*
X72200000Y40200000D02*
X72400000Y40200000D01*
D20*
X72400000Y40200000D02*
X72400000Y41000000D01*
D20*
X72400000Y41000000D02*
X92000000Y41000000D01*
D20*
X31400000Y17600000D02*
X33600000Y17600000D01*
D20*
X33600000Y17600000D02*
X33600000Y17800000D01*
D20*
X33600000Y17800000D02*
X33800000Y17800000D01*
D20*
X33800000Y17800000D02*
X33800000Y18000000D01*
D20*
X33800000Y18000000D02*
X38000000Y18000000D01*
D20*
X38000000Y18000000D02*
X38000000Y18200000D01*
D20*
X38000000Y18200000D02*
X38400000Y18200000D01*
D20*
X38400000Y18200000D02*
X38400000Y18400000D01*
D20*
X38400000Y18400000D02*
X38800000Y18400000D01*
D20*
X38800000Y18400000D02*
X38800000Y18600000D01*
D20*
X38800000Y18600000D02*
X39000000Y18600000D01*
D20*
X39000000Y18600000D02*
X39000000Y18800000D01*
D20*
X39000000Y18800000D02*
X39200000Y18800000D01*
D20*
X39200000Y18800000D02*
X39200000Y19200000D01*
D20*
X39200000Y19200000D02*
X39400000Y19200000D01*
D20*
X39400000Y19200000D02*
X39400000Y34400000D01*
D20*
X39400000Y34400000D02*
X39600000Y34400000D01*
D20*
X39600000Y34400000D02*
X39600000Y34600000D01*
D20*
X39600000Y34600000D02*
X39800000Y34600000D01*
D20*
X39800000Y34600000D02*
X39800000Y36600000D01*
D20*
X39800000Y36600000D02*
X40000000Y36600000D01*
D20*
X14000000Y61300000D02*
X14000000Y61200000D01*
D20*
X14000000Y61200000D02*
X11000000Y61200000D01*
D20*
X11000000Y61200000D02*
X11000000Y58200000D01*
D20*
X11000000Y58200000D02*
X11200000Y58200000D01*
D20*
X11200000Y58200000D02*
X11200000Y58000000D01*
D20*
X11200000Y58000000D02*
X12000000Y58000000D01*
D20*
X12000000Y58000000D02*
X12000000Y19800000D01*
D20*
X12000000Y19800000D02*
X12200000Y19800000D01*
D20*
X12200000Y19800000D02*
X12200000Y19400000D01*
D20*
X12200000Y19400000D02*
X12400000Y19400000D01*
D20*
X12400000Y19400000D02*
X12400000Y19200000D01*
D20*
X12400000Y19200000D02*
X12600000Y19200000D01*
D20*
X12600000Y19200000D02*
X12600000Y19000000D01*
D20*
X12600000Y19000000D02*
X12800000Y19000000D01*
D20*
X12800000Y19000000D02*
X12800000Y18800000D01*
D20*
X12800000Y18800000D02*
X13200000Y18800000D01*
D20*
X13200000Y18800000D02*
X13200000Y18600000D01*
D20*
X13200000Y18600000D02*
X30600000Y18600000D01*
D20*
X30600000Y18600000D02*
X30600000Y17000000D01*
D20*
X30600000Y17000000D02*
X30800000Y17000000D01*
D20*
X30800000Y17000000D02*
X30800000Y16800000D01*
D20*
X30800000Y16800000D02*
X32000000Y16800000D01*
D20*
X32000000Y16800000D02*
X32000000Y17000000D01*
D20*
X32000000Y17000000D02*
X34000000Y17000000D01*
D20*
X34000000Y17000000D02*
X34000000Y17200000D01*
D20*
X34000000Y17200000D02*
X34200000Y17200000D01*
D20*
X34200000Y17200000D02*
X34200000Y17400000D01*
D20*
X34200000Y17400000D02*
X38400000Y17400000D01*
D20*
X38400000Y17400000D02*
X38400000Y17600000D01*
D20*
X38400000Y17600000D02*
X38800000Y17600000D01*
D20*
X38800000Y17600000D02*
X38800000Y17800000D01*
D20*
X38800000Y17800000D02*
X39200000Y17800000D01*
D20*
X39200000Y17800000D02*
X39200000Y18000000D01*
D20*
X39200000Y18000000D02*
X39400000Y18000000D01*
D20*
X39400000Y18000000D02*
X39400000Y18200000D01*
D20*
X39400000Y18200000D02*
X39600000Y18200000D01*
D20*
X39600000Y18200000D02*
X39600000Y18400000D01*
D20*
X39600000Y18400000D02*
X39800000Y18400000D01*
D20*
X39800000Y18400000D02*
X39800000Y18800000D01*
D20*
X39800000Y18800000D02*
X40000000Y18800000D01*
D20*
X40000000Y18800000D02*
X40000000Y34000000D01*
D20*
X40000000Y34000000D02*
X40200000Y34000000D01*
D20*
X40200000Y34000000D02*
X40200000Y34200000D01*
D20*
X40200000Y34200000D02*
X40400000Y34200000D01*
D20*
X40400000Y34200000D02*
X40400000Y35800000D01*
D20*
X40400000Y35800000D02*
X40600000Y35800000D01*
D20*
X40600000Y35800000D02*
X40600000Y36000000D01*
D20*
X40600000Y36000000D02*
X40800000Y36000000D01*
D20*
X40800000Y36000000D02*
X40800000Y36600000D01*
D20*
X40800000Y36600000D02*
X41000000Y36600000D01*
D20*
X55200000Y62200000D02*
X54200000Y62200000D01*
D20*
X54200000Y62200000D02*
X54200000Y62400000D01*
D20*
X54200000Y62400000D02*
X54000000Y62400000D01*
D20*
X54000000Y62400000D02*
X54000000Y62600000D01*
D20*
X54000000Y62600000D02*
X53800000Y62600000D01*
D20*
X53800000Y62600000D02*
X53800000Y62800000D01*
D20*
X53800000Y62800000D02*
X53200000Y62800000D01*
D20*
X53200000Y62800000D02*
X53200000Y63000000D01*
D20*
X53200000Y63000000D02*
X53000000Y63000000D01*
D20*
X53000000Y63000000D02*
X53000000Y64000000D01*
D20*
X14000000Y63840000D02*
X14000000Y63800000D01*
D20*
X14000000Y63800000D02*
X10400000Y63800000D01*
D20*
X10400000Y63800000D02*
X10400000Y57800000D01*
D20*
X10400000Y57800000D02*
X10600000Y57800000D01*
D20*
X10600000Y57800000D02*
X10600000Y57600000D01*
D20*
X10600000Y57600000D02*
X10800000Y57600000D01*
D20*
X10800000Y57600000D02*
X10800000Y57400000D01*
D20*
X10800000Y57400000D02*
X11400000Y57400000D01*
D20*
X11400000Y57400000D02*
X11400000Y19400000D01*
D20*
X11400000Y19400000D02*
X11600000Y19400000D01*
D20*
X11600000Y19400000D02*
X11600000Y19000000D01*
D20*
X11600000Y19000000D02*
X11800000Y19000000D01*
D20*
X11800000Y19000000D02*
X11800000Y18800000D01*
D20*
X11800000Y18800000D02*
X12000000Y18800000D01*
D20*
X12000000Y18800000D02*
X12000000Y18600000D01*
D20*
X12000000Y18600000D02*
X12200000Y18600000D01*
D20*
X12200000Y18600000D02*
X12200000Y18400000D01*
D20*
X12200000Y18400000D02*
X12400000Y18400000D01*
D20*
X12400000Y18400000D02*
X12400000Y18200000D01*
D20*
X12400000Y18200000D02*
X12800000Y18200000D01*
D20*
X12800000Y18200000D02*
X12800000Y18000000D01*
D20*
X12800000Y18000000D02*
X30000000Y18000000D01*
D20*
X30000000Y18000000D02*
X30000000Y16600000D01*
D20*
X30000000Y16600000D02*
X30200000Y16600000D01*
D20*
X30200000Y16600000D02*
X30200000Y16400000D01*
D20*
X30200000Y16400000D02*
X30400000Y16400000D01*
D20*
X30400000Y16400000D02*
X30400000Y16200000D01*
D20*
X30400000Y16200000D02*
X32400000Y16200000D01*
D20*
X32400000Y16200000D02*
X32400000Y16400000D01*
D20*
X32400000Y16400000D02*
X34400000Y16400000D01*
D20*
X34400000Y16400000D02*
X34400000Y16600000D01*
D20*
X34400000Y16600000D02*
X34600000Y16600000D01*
D20*
X34600000Y16600000D02*
X34600000Y16800000D01*
D20*
X34600000Y16800000D02*
X38800000Y16800000D01*
D20*
X38800000Y16800000D02*
X38800000Y17000000D01*
D20*
X38800000Y17000000D02*
X39200000Y17000000D01*
D20*
X39200000Y17000000D02*
X39200000Y17200000D01*
D20*
X39200000Y17200000D02*
X39600000Y17200000D01*
D20*
X39600000Y17200000D02*
X39600000Y17400000D01*
D20*
X39600000Y17400000D02*
X39800000Y17400000D01*
D20*
X39800000Y17400000D02*
X39800000Y17600000D01*
D20*
X39800000Y17600000D02*
X40000000Y17600000D01*
D20*
X40000000Y17600000D02*
X40000000Y17800000D01*
D20*
X40000000Y17800000D02*
X40200000Y17800000D01*
D20*
X40200000Y17800000D02*
X40200000Y18000000D01*
D20*
X40200000Y18000000D02*
X40400000Y18000000D01*
D20*
X40400000Y18000000D02*
X40400000Y18400000D01*
D20*
X40400000Y18400000D02*
X40600000Y18400000D01*
D20*
X40600000Y18400000D02*
X40600000Y33600000D01*
D20*
X40600000Y33600000D02*
X40800000Y33600000D01*
D20*
X40800000Y33600000D02*
X40800000Y33800000D01*
D20*
X40800000Y33800000D02*
X41000000Y33800000D01*
D20*
X41000000Y33800000D02*
X41000000Y35400000D01*
D20*
X41000000Y35400000D02*
X41200000Y35400000D01*
D20*
X41200000Y35400000D02*
X41200000Y35600000D01*
D20*
X41200000Y35600000D02*
X41400000Y35600000D01*
D20*
X41400000Y35600000D02*
X41400000Y35800000D01*
D20*
X41400000Y35800000D02*
X41600000Y35800000D01*
D20*
X41600000Y35800000D02*
X41600000Y36000000D01*
D20*
X41600000Y36000000D02*
X41800000Y36000000D01*
D20*
X41800000Y36000000D02*
X41800000Y36600000D01*
D20*
X41800000Y36600000D02*
X42000000Y36600000D01*
D20*
X56000000Y61600000D02*
X56000000Y62800000D01*
D20*
X56000000Y62800000D02*
X55800000Y62800000D01*
D20*
X55800000Y62800000D02*
X55800000Y63000000D01*
D20*
X55800000Y63000000D02*
X54400000Y63000000D01*
D20*
X54400000Y63000000D02*
X54400000Y64600000D01*
D20*
X54400000Y64600000D02*
X54200000Y64600000D01*
D20*
X54200000Y64600000D02*
X54200000Y65000000D01*
D20*
X54200000Y65000000D02*
X54000000Y65000000D01*
D20*
X54000000Y65000000D02*
X54000000Y65200000D01*
D20*
X54000000Y65200000D02*
X53600000Y65200000D01*
D20*
X53600000Y65200000D02*
X53600000Y65400000D01*
D20*
X53600000Y65400000D02*
X53000000Y65400000D01*
D20*
X53000000Y65400000D02*
X53000000Y66400000D01*
D20*
X53000000Y66400000D02*
X53000000Y66500000D01*
D20*
X41400000Y28800000D02*
X41400000Y31600000D01*
D20*
X14600000Y15600000D02*
X32800000Y15600000D01*
D20*
X32800000Y15600000D02*
X32800000Y15800000D01*
D20*
X32800000Y15800000D02*
X34800000Y15800000D01*
D20*
X34800000Y15800000D02*
X34800000Y16000000D01*
D20*
X34800000Y16000000D02*
X35000000Y16000000D01*
D20*
X35000000Y16000000D02*
X35000000Y16200000D01*
D20*
X35000000Y16200000D02*
X39200000Y16200000D01*
D20*
X39200000Y16200000D02*
X39200000Y16400000D01*
D20*
X39200000Y16400000D02*
X39600000Y16400000D01*
D20*
X39600000Y16400000D02*
X39600000Y16600000D01*
D20*
X39600000Y16600000D02*
X40000000Y16600000D01*
D20*
X40000000Y16600000D02*
X40000000Y16800000D01*
D20*
X40000000Y16800000D02*
X40200000Y16800000D01*
D20*
X40200000Y16800000D02*
X40200000Y17000000D01*
D20*
X40200000Y17000000D02*
X40400000Y17000000D01*
D20*
X40400000Y17000000D02*
X40400000Y17200000D01*
D20*
X40400000Y17200000D02*
X40600000Y17200000D01*
D20*
X40600000Y17200000D02*
X40600000Y17400000D01*
D20*
X40600000Y17400000D02*
X40800000Y17400000D01*
D20*
X40800000Y17400000D02*
X40800000Y17600000D01*
D20*
X40800000Y17600000D02*
X41000000Y17600000D01*
D20*
X41000000Y17600000D02*
X41000000Y18000000D01*
D20*
X41000000Y18000000D02*
X41200000Y18000000D01*
D20*
X41200000Y18000000D02*
X41200000Y28000000D01*
D20*
X41200000Y28000000D02*
X42000000Y28000000D01*
D20*
X42000000Y28000000D02*
X42000000Y28200000D01*
D20*
X42000000Y28200000D02*
X42200000Y28200000D01*
D20*
X42200000Y28200000D02*
X42200000Y33200000D01*
D20*
X42200000Y33200000D02*
X43600000Y33200000D01*
D20*
X43600000Y33200000D02*
X43600000Y33400000D01*
D20*
X43600000Y33400000D02*
X43800000Y33400000D01*
D20*
X43800000Y33400000D02*
X43800000Y36600000D01*
D20*
X43800000Y36600000D02*
X44000000Y36600000D01*
D20*
X36860000Y33360000D02*
X36800000Y33400000D01*
D20*
X36800000Y33400000D02*
X36800000Y32200000D01*
D20*
X36800000Y32200000D02*
X36200000Y32200000D01*
D20*
X36200000Y32200000D02*
X36200000Y32000000D01*
D20*
X36200000Y32000000D02*
X36000000Y32000000D01*
D20*
X36000000Y32000000D02*
X36000000Y31800000D01*
D20*
X36000000Y31800000D02*
X35800000Y31800000D01*
D20*
X35800000Y31800000D02*
X35800000Y31600000D01*
D20*
X35800000Y31600000D02*
X34000000Y31600000D01*
D20*
X34000000Y31600000D02*
X34000000Y31400000D01*
D20*
X34000000Y31400000D02*
X33800000Y31400000D01*
D20*
X33800000Y31400000D02*
X33800000Y28000000D01*
D20*
X33800000Y28000000D02*
X29800000Y28000000D01*
D20*
X29800000Y28000000D02*
X29800000Y27400000D01*
D20*
X30200000Y14800000D02*
X30200000Y15000000D01*
D20*
X30200000Y15000000D02*
X33200000Y15000000D01*
D20*
X33200000Y15000000D02*
X33200000Y15200000D01*
D20*
X33200000Y15200000D02*
X35200000Y15200000D01*
D20*
X35200000Y15200000D02*
X35200000Y15400000D01*
D20*
X35200000Y15400000D02*
X35400000Y15400000D01*
D20*
X35400000Y15400000D02*
X35400000Y15600000D01*
D20*
X35400000Y15600000D02*
X39600000Y15600000D01*
D20*
X39600000Y15600000D02*
X39600000Y15800000D01*
D20*
X39600000Y15800000D02*
X40000000Y15800000D01*
D20*
X40000000Y15800000D02*
X40000000Y16000000D01*
D20*
X40000000Y16000000D02*
X40400000Y16000000D01*
D20*
X40400000Y16000000D02*
X40400000Y16200000D01*
D20*
X40400000Y16200000D02*
X40600000Y16200000D01*
D20*
X40600000Y16200000D02*
X40600000Y16400000D01*
D20*
X40600000Y16400000D02*
X40800000Y16400000D01*
D20*
X40800000Y16400000D02*
X40800000Y16600000D01*
D20*
X40800000Y16600000D02*
X41000000Y16600000D01*
D20*
X41000000Y16600000D02*
X41000000Y16800000D01*
D20*
X41000000Y16800000D02*
X41200000Y16800000D01*
D20*
X41200000Y16800000D02*
X41200000Y17000000D01*
D20*
X41200000Y17000000D02*
X41400000Y17000000D01*
D20*
X41400000Y17000000D02*
X41400000Y17200000D01*
D20*
X41400000Y17200000D02*
X41600000Y17200000D01*
D20*
X41600000Y17200000D02*
X41600000Y17600000D01*
D20*
X41600000Y17600000D02*
X41800000Y17600000D01*
D20*
X41800000Y17600000D02*
X41800000Y27400000D01*
D20*
X41800000Y27400000D02*
X42400000Y27400000D01*
D20*
X42400000Y27400000D02*
X42400000Y27600000D01*
D20*
X42400000Y27600000D02*
X42800000Y27600000D01*
D21*
X60000000Y22000000D02*
X60000000Y29000000D01*
D21*
X60000000Y29000000D02*
X69000000Y29000000D01*
D21*
X69000000Y29000000D02*
X69000000Y36800000D01*
D21*
X64800000Y46000000D02*
X63000000Y46000000D01*
D21*
X63000000Y46000000D02*
X63000000Y46200000D01*
D21*
X92000000Y46000000D02*
X92000000Y55800000D01*
D21*
X92000000Y55800000D02*
X92600000Y55800000D01*
D21*
X92600000Y55800000D02*
X92600000Y56000000D01*
D21*
X92600000Y56000000D02*
X93000000Y56000000D01*
D21*
X93000000Y56000000D02*
X93000000Y56200000D01*
D21*
X93000000Y56200000D02*
X93200000Y56200000D01*
D21*
X93200000Y56200000D02*
X93200000Y56400000D01*
D21*
X93200000Y56400000D02*
X93400000Y56400000D01*
D21*
X93400000Y56400000D02*
X93400000Y56800000D01*
D21*
X93400000Y56800000D02*
X93600000Y56800000D01*
D21*
X93600000Y56800000D02*
X93600000Y73200000D01*
D21*
X93600000Y73200000D02*
X93400000Y73200000D01*
D21*
X93400000Y73200000D02*
X93400000Y73600000D01*
D21*
X93400000Y73600000D02*
X93200000Y73600000D01*
D21*
X93200000Y73600000D02*
X93200000Y73800000D01*
D21*
X93200000Y73800000D02*
X93000000Y73800000D01*
D21*
X93000000Y73800000D02*
X93000000Y74000000D01*
D21*
X93000000Y74000000D02*
X92600000Y74000000D01*
D21*
X92600000Y74000000D02*
X92600000Y74200000D01*
D21*
X92600000Y74200000D02*
X92000000Y74200000D01*
D21*
X92000000Y74200000D02*
X92000000Y75000000D01*
D21*
X14000000Y23200000D02*
X16200000Y23200000D01*
D22*
X14000000Y20660000D02*
X14000000Y20600000D01*
D22*
X14000000Y20600000D02*
X14000000Y20000000D01*
D22*
X14000000Y20000000D02*
X17200000Y20000000D01*
D22*
X17200000Y17200000D02*
X10600000Y17200000D01*
D22*
X10600000Y17200000D02*
X10600000Y11800000D01*
D22*
X10600000Y11800000D02*
X10400000Y11800000D01*
D22*
X10400000Y11800000D02*
X10400000Y11600000D01*
D22*
X10400000Y11600000D02*
X10200000Y11600000D01*
D22*
X10200000Y11600000D02*
X10200000Y11400000D01*
D22*
X10200000Y11400000D02*
X9000000Y11400000D01*
D22*
X9000000Y11400000D02*
X9000000Y10400000D01*
D22*
X9000000Y10400000D02*
X9000000Y10500000D01*
D22*
X9000000Y10500000D02*
X9000000Y10400000D01*
D22*
X9000000Y10400000D02*
X20000000Y10400000D01*
D22*
X20000000Y10400000D02*
X20000000Y10500000D01*
D22*
X20000000Y10500000D02*
X20000000Y10400000D01*
D22*
X20000000Y10400000D02*
X31000000Y10400000D01*
D22*
X31000000Y10400000D02*
X31000000Y10500000D01*
D22*
X31000000Y10500000D02*
X31000000Y10400000D01*
D22*
X31000000Y10400000D02*
X31000000Y11400000D01*
D22*
X31000000Y11400000D02*
X29800000Y11400000D01*
D22*
X29800000Y11400000D02*
X29800000Y11600000D01*
D22*
X29800000Y11600000D02*
X29600000Y11600000D01*
D22*
X29600000Y11600000D02*
X29600000Y11800000D01*
D22*
X29600000Y11800000D02*
X29400000Y11800000D01*
D22*
X29400000Y11800000D02*
X29400000Y14400000D01*
D22*
X29400000Y14400000D02*
X29200000Y14400000D01*
D22*
X29200000Y14400000D02*
X29200000Y14800000D01*
D22*
X29200000Y20000000D02*
X29200000Y20600000D01*
D22*
X29200000Y20600000D02*
X36800000Y20600000D01*
D22*
X36800000Y20600000D02*
X36860000Y20660000D01*
D22*
X36860000Y20660000D02*
X36800000Y20600000D01*
D22*
X36800000Y20600000D02*
X36800000Y23200000D01*
D22*
X36800000Y23200000D02*
X36860000Y23200000D01*
D22*
X36860000Y23200000D02*
X36800000Y23200000D01*
D22*
X36800000Y23200000D02*
X36800000Y23000000D01*
D22*
X36800000Y23000000D02*
X29200000Y23000000D01*
D22*
X29200000Y23000000D02*
X29200000Y20000000D01*
D22*
X29200000Y14800000D02*
X29200000Y14400000D01*
D22*
X29200000Y14400000D02*
X29400000Y14400000D01*
D22*
X29400000Y14400000D02*
X29400000Y11800000D01*
D22*
X29400000Y11800000D02*
X29600000Y11800000D01*
D22*
X29600000Y11800000D02*
X29600000Y11600000D01*
D22*
X29600000Y11600000D02*
X29800000Y11600000D01*
D22*
X29800000Y11600000D02*
X29800000Y11400000D01*
D22*
X29800000Y11400000D02*
X32200000Y11400000D01*
D22*
X32200000Y11400000D02*
X32200000Y11600000D01*
D22*
X32200000Y11600000D02*
X32400000Y11600000D01*
D22*
X32400000Y11600000D02*
X32400000Y11800000D01*
D22*
X32400000Y11800000D02*
X32600000Y11800000D01*
D22*
X32600000Y11800000D02*
X32600000Y14200000D01*
D22*
X32600000Y14200000D02*
X33600000Y14200000D01*
D22*
X33600000Y14200000D02*
X33600000Y14400000D01*
D22*
X33600000Y14400000D02*
X35600000Y14400000D01*
D22*
X35600000Y14400000D02*
X35600000Y14600000D01*
D22*
X35600000Y14600000D02*
X35800000Y14600000D01*
D22*
X35800000Y14600000D02*
X35800000Y14800000D01*
D22*
X35800000Y14800000D02*
X40000000Y14800000D01*
D22*
X40000000Y14800000D02*
X40000000Y15000000D01*
D22*
X40000000Y15000000D02*
X40400000Y15000000D01*
D22*
X40400000Y15000000D02*
X40400000Y15200000D01*
D22*
X40400000Y15200000D02*
X40800000Y15200000D01*
D22*
X40800000Y15200000D02*
X40800000Y15400000D01*
D22*
X40800000Y15400000D02*
X41000000Y15400000D01*
D22*
X41000000Y15400000D02*
X41000000Y15600000D01*
D22*
X41000000Y15600000D02*
X41200000Y15600000D01*
D22*
X41200000Y15600000D02*
X41200000Y15800000D01*
D22*
X41200000Y15800000D02*
X41400000Y15800000D01*
D22*
X41400000Y15800000D02*
X41400000Y16000000D01*
D22*
X41400000Y16000000D02*
X41600000Y16000000D01*
D22*
X41600000Y16000000D02*
X41600000Y16200000D01*
D22*
X41600000Y16200000D02*
X41800000Y16200000D01*
D22*
X41800000Y16200000D02*
X41800000Y16400000D01*
D22*
X41800000Y16400000D02*
X42000000Y16400000D01*
D22*
X42000000Y16400000D02*
X42000000Y16600000D01*
D22*
X42000000Y16600000D02*
X42200000Y16600000D01*
D22*
X42200000Y16600000D02*
X42200000Y16800000D01*
D22*
X42200000Y16800000D02*
X42400000Y16800000D01*
D22*
X42400000Y16800000D02*
X42400000Y17200000D01*
D22*
X42400000Y17200000D02*
X42600000Y17200000D01*
D22*
X42600000Y17200000D02*
X42600000Y23000000D01*
D22*
X42600000Y23000000D02*
X55000000Y23000000D01*
D22*
X55000000Y23000000D02*
X55000000Y38800000D01*
D22*
X55000000Y38800000D02*
X58000000Y38800000D01*
D22*
X58000000Y42000000D02*
X58000000Y44800000D01*
D22*
X58000000Y44800000D02*
X62000000Y44800000D01*
D22*
X62000000Y44800000D02*
X64000000Y44800000D01*
D22*
X56600000Y60800000D02*
X56800000Y60800000D01*
D22*
X56800000Y60800000D02*
X56800000Y61200000D01*
D22*
X56800000Y61200000D02*
X57000000Y61200000D01*
D22*
X57000000Y61200000D02*
X57000000Y62000000D01*
D22*
X57000000Y62000000D02*
X56800000Y62000000D01*
D22*
X56800000Y62000000D02*
X56800000Y63200000D01*
D22*
X56800000Y63200000D02*
X56600000Y63200000D01*
D22*
X56600000Y63200000D02*
X56600000Y63400000D01*
D22*
X56600000Y63400000D02*
X56400000Y63400000D01*
D22*
X56400000Y63400000D02*
X56400000Y63600000D01*
D22*
X56400000Y63600000D02*
X56200000Y63600000D01*
D22*
X56200000Y63600000D02*
X56200000Y63800000D01*
D22*
X56200000Y63800000D02*
X55200000Y63800000D01*
D22*
X55200000Y63800000D02*
X55200000Y65000000D01*
D22*
X55200000Y65000000D02*
X55000000Y65000000D01*
D22*
X55000000Y65000000D02*
X55000000Y65400000D01*
D22*
X55000000Y65400000D02*
X54800000Y65400000D01*
D22*
X54800000Y65400000D02*
X54800000Y65600000D01*
D22*
X54800000Y65600000D02*
X54600000Y65600000D01*
D22*
X54600000Y65600000D02*
X54600000Y69600000D01*
D22*
X54600000Y69600000D02*
X54400000Y69600000D01*
D22*
X54400000Y69600000D02*
X54400000Y70000000D01*
D22*
X54400000Y70000000D02*
X54200000Y70000000D01*
D22*
X54200000Y70000000D02*
X54200000Y70200000D01*
D22*
X54200000Y70200000D02*
X54000000Y70200000D01*
D22*
X54000000Y70200000D02*
X54000000Y70400000D01*
D22*
X54000000Y70400000D02*
X53600000Y70400000D01*
D22*
X53600000Y70400000D02*
X53600000Y70600000D01*
D22*
X53600000Y70600000D02*
X52400000Y70600000D01*
D22*
X52400000Y70600000D02*
X52400000Y70400000D01*
D22*
X52400000Y70400000D02*
X52000000Y70400000D01*
D22*
X52000000Y70400000D02*
X52000000Y70200000D01*
D22*
X52000000Y70200000D02*
X51800000Y70200000D01*
D22*
X51800000Y70200000D02*
X51800000Y70000000D01*
D22*
X51800000Y70000000D02*
X51600000Y70000000D01*
D22*
X51600000Y70000000D02*
X51600000Y69800000D01*
D22*
X51600000Y69800000D02*
X51400000Y69800000D01*
D22*
X64000000Y44800000D02*
X64000000Y45000000D01*
D22*
X64000000Y45000000D02*
X65400000Y45000000D01*
D22*
X65400000Y45000000D02*
X65400000Y45200000D01*
D22*
X65400000Y45200000D02*
X65600000Y45200000D01*
D22*
X65600000Y45200000D02*
X65600000Y45400000D01*
D22*
X65600000Y45400000D02*
X65800000Y45400000D01*
D22*
X65800000Y45400000D02*
X65800000Y47600000D01*
D22*
X65800000Y47600000D02*
X77000000Y47600000D01*
D22*
X77000000Y47600000D02*
X77000000Y47500000D01*
D22*
X77000000Y47500000D02*
X77000000Y47600000D01*
D22*
X77000000Y47600000D02*
X77000000Y46600000D01*
D22*
X77000000Y46600000D02*
X77600000Y46600000D01*
D22*
X77600000Y46600000D02*
X77600000Y46400000D01*
D22*
X77600000Y46400000D02*
X78000000Y46400000D01*
D22*
X78000000Y46400000D02*
X78000000Y46200000D01*
D22*
X78000000Y46200000D02*
X78200000Y46200000D01*
D22*
X78200000Y46200000D02*
X78200000Y46000000D01*
D22*
X78200000Y46000000D02*
X78400000Y46000000D01*
D22*
X78400000Y46000000D02*
X78400000Y45600000D01*
D22*
X78400000Y45600000D02*
X78600000Y45600000D01*
D22*
X78600000Y45600000D02*
X78600000Y41800000D01*
D22*
X78600000Y41800000D02*
X82000000Y41800000D01*
D22*
X82000000Y36000000D02*
X81600000Y36000000D01*
D22*
X81600000Y36000000D02*
X81600000Y36400000D01*
D22*
X81600000Y36400000D02*
X81200000Y36400000D01*
D22*
X81200000Y36400000D02*
X81200000Y36600000D01*
D22*
X81200000Y36600000D02*
X76000000Y36600000D01*
D22*
X76000000Y36600000D02*
X76000000Y29000000D01*
D22*
X76000000Y29000000D02*
X76000000Y21800000D01*
D22*
X76000000Y21800000D02*
X81600000Y21800000D01*
D22*
X81600000Y21800000D02*
X81600000Y21600000D01*
D22*
X81600000Y21600000D02*
X81800000Y21600000D01*
D22*
X81800000Y21600000D02*
X81800000Y20000000D01*
D22*
X81800000Y20000000D02*
X85000000Y20000000D01*
D22*
X85000000Y20000000D02*
X81800000Y20000000D01*
D22*
X81800000Y20000000D02*
X81800000Y18400000D01*
D22*
X81800000Y18400000D02*
X81600000Y18400000D01*
D22*
X81600000Y18400000D02*
X81600000Y18200000D01*
D22*
X81600000Y18200000D02*
X77000000Y18200000D01*
D22*
X77000000Y18200000D02*
X77000000Y8000000D01*
D22*
X77000000Y8000000D02*
X77080000Y8000000D01*
D22*
X92000000Y43500000D02*
X92000000Y43600000D01*
D22*
X92000000Y43600000D02*
X92000000Y44400000D01*
D22*
X92000000Y44400000D02*
X93200000Y44400000D01*
D22*
X93200000Y44400000D02*
X93200000Y44600000D01*
D22*
X93200000Y44600000D02*
X93400000Y44600000D01*
D22*
X93400000Y44600000D02*
X93400000Y44800000D01*
D22*
X93400000Y44800000D02*
X93600000Y44800000D01*
D22*
X93600000Y44800000D02*
X93600000Y55200000D01*
D22*
X93600000Y55200000D02*
X93800000Y55200000D01*
D22*
X93800000Y55200000D02*
X93800000Y55400000D01*
D22*
X93800000Y55400000D02*
X94000000Y55400000D01*
D22*
X94000000Y55400000D02*
X94000000Y55600000D01*
D22*
X94000000Y55600000D02*
X94200000Y55600000D01*
D22*
X94200000Y55600000D02*
X94200000Y55800000D01*
D22*
X94200000Y55800000D02*
X94400000Y55800000D01*
D22*
X94400000Y55800000D02*
X94400000Y56200000D01*
D22*
X94400000Y56200000D02*
X94600000Y56200000D01*
D22*
X94600000Y56200000D02*
X94600000Y72400000D01*
D23*
X14000000Y74000000D02*
X7400000Y74000000D01*
D23*
X7400000Y74000000D02*
X7400000Y10200000D01*
D23*
X7400000Y10200000D02*
X7600000Y10200000D01*
D23*
X7600000Y10200000D02*
X7600000Y9600000D01*
D23*
X7600000Y9600000D02*
X7800000Y9600000D01*
D23*
X7800000Y9600000D02*
X7800000Y9400000D01*
D23*
X7800000Y9400000D02*
X8000000Y9400000D01*
D23*
X8000000Y9400000D02*
X8000000Y9200000D01*
D23*
X8000000Y9200000D02*
X8400000Y9200000D01*
D23*
X8400000Y9200000D02*
X8400000Y9000000D01*
D23*
X8400000Y9000000D02*
X31600000Y9000000D01*
D23*
X31600000Y9000000D02*
X31600000Y9200000D01*
D23*
X31600000Y9200000D02*
X32000000Y9200000D01*
D23*
X32000000Y9200000D02*
X32000000Y9400000D01*
D23*
X32000000Y9400000D02*
X32200000Y9400000D01*
D23*
X32200000Y9400000D02*
X32200000Y9600000D01*
D23*
X32200000Y9600000D02*
X32400000Y9600000D01*
D23*
X32400000Y9600000D02*
X32400000Y10200000D01*
D23*
X32400000Y10200000D02*
X32600000Y10200000D01*
D23*
X32600000Y10200000D02*
X32600000Y10600000D01*
D23*
X32600000Y10600000D02*
X32800000Y10600000D01*
D23*
X32800000Y10600000D02*
X32800000Y10800000D01*
D23*
X32800000Y10800000D02*
X33000000Y10800000D01*
D23*
X33000000Y10800000D02*
X33000000Y11000000D01*
D23*
X33000000Y11000000D02*
X33200000Y11000000D01*
D23*
X33200000Y11000000D02*
X33200000Y11200000D01*
D23*
X33200000Y11200000D02*
X33400000Y11200000D01*
D23*
X33400000Y11200000D02*
X33400000Y13400000D01*
D23*
X33400000Y13400000D02*
X34200000Y13400000D01*
D23*
X34200000Y13400000D02*
X34200000Y13600000D01*
D23*
X34200000Y13600000D02*
X36200000Y13600000D01*
D23*
X36200000Y13600000D02*
X36200000Y13800000D01*
D23*
X36200000Y13800000D02*
X36400000Y13800000D01*
D23*
X36400000Y13800000D02*
X36400000Y14000000D01*
D23*
X36400000Y14000000D02*
X40600000Y14000000D01*
D23*
X40600000Y14000000D02*
X40600000Y14200000D01*
D23*
X40600000Y14200000D02*
X41000000Y14200000D01*
D23*
X41000000Y14200000D02*
X41000000Y14400000D01*
D23*
X41000000Y14400000D02*
X41400000Y14400000D01*
D23*
X41400000Y14400000D02*
X41400000Y14600000D01*
D23*
X41400000Y14600000D02*
X41600000Y14600000D01*
D23*
X41600000Y14600000D02*
X41600000Y14800000D01*
D23*
X41600000Y14800000D02*
X41800000Y14800000D01*
D23*
X41800000Y14800000D02*
X41800000Y15000000D01*
D23*
X41800000Y15000000D02*
X42000000Y15000000D01*
D23*
X42000000Y15000000D02*
X42000000Y15200000D01*
D23*
X42000000Y15200000D02*
X42200000Y15200000D01*
D23*
X42200000Y15200000D02*
X42200000Y15400000D01*
D23*
X42200000Y15400000D02*
X42400000Y15400000D01*
D23*
X42400000Y15400000D02*
X42400000Y15600000D01*
D23*
X42400000Y15600000D02*
X42600000Y15600000D01*
D23*
X42600000Y15600000D02*
X42600000Y15800000D01*
D23*
X42600000Y15800000D02*
X42800000Y15800000D01*
D23*
X42800000Y15800000D02*
X42800000Y16000000D01*
D23*
X42800000Y16000000D02*
X43000000Y16000000D01*
D23*
X43000000Y16000000D02*
X43000000Y16200000D01*
D23*
X43000000Y16200000D02*
X43200000Y16200000D01*
D23*
X43200000Y16200000D02*
X43200000Y16600000D01*
D23*
X43200000Y16600000D02*
X43400000Y16600000D01*
D23*
X43400000Y16600000D02*
X43400000Y22000000D01*
D23*
X43400000Y22000000D02*
X55400000Y22000000D01*
D23*
X55400000Y22000000D02*
X55400000Y22200000D01*
D23*
X55400000Y22200000D02*
X55600000Y22200000D01*
D23*
X55600000Y22200000D02*
X55600000Y22400000D01*
D23*
X55600000Y22400000D02*
X55800000Y22400000D01*
D23*
X55800000Y22400000D02*
X55800000Y22600000D01*
D23*
X55800000Y22600000D02*
X56000000Y22600000D01*
D23*
X56000000Y22600000D02*
X56000000Y36800000D01*
D23*
X57000000Y40800000D02*
X57000000Y52400000D01*
D23*
X57800000Y60800000D02*
X57800000Y62600000D01*
D23*
X57800000Y62600000D02*
X57600000Y62600000D01*
D23*
X57600000Y62600000D02*
X57600000Y63800000D01*
D23*
X57600000Y63800000D02*
X57400000Y63800000D01*
D23*
X57400000Y63800000D02*
X57400000Y64000000D01*
D23*
X57400000Y64000000D02*
X57200000Y64000000D01*
D23*
X57200000Y64000000D02*
X57200000Y64200000D01*
D23*
X57200000Y64200000D02*
X57000000Y64200000D01*
D23*
X57000000Y64200000D02*
X57000000Y64400000D01*
D23*
X57000000Y64400000D02*
X56800000Y64400000D01*
D23*
X56800000Y64400000D02*
X56800000Y64600000D01*
D23*
X56800000Y64600000D02*
X56000000Y64600000D01*
D23*
X56000000Y64600000D02*
X56000000Y65600000D01*
D23*
X56000000Y65600000D02*
X55800000Y65600000D01*
D23*
X55800000Y65600000D02*
X55800000Y66000000D01*
D23*
X55800000Y66000000D02*
X55600000Y66000000D01*
D23*
X55600000Y66000000D02*
X55600000Y66200000D01*
D23*
X55600000Y66200000D02*
X55400000Y66200000D01*
D23*
X55400000Y66200000D02*
X55400000Y70200000D01*
D23*
X55400000Y70200000D02*
X55200000Y70200000D01*
D23*
X55200000Y70200000D02*
X55200000Y70600000D01*
D23*
X55200000Y70600000D02*
X55000000Y70600000D01*
D23*
X55000000Y70600000D02*
X55000000Y70800000D01*
D23*
X55000000Y70800000D02*
X54800000Y70800000D01*
D23*
X54800000Y70800000D02*
X54800000Y71000000D01*
D23*
X54800000Y71000000D02*
X54600000Y71000000D01*
D23*
X54600000Y71000000D02*
X54600000Y71800000D01*
D23*
X54600000Y71800000D02*
X54400000Y71800000D01*
D23*
X54400000Y71800000D02*
X54400000Y72400000D01*
D23*
X54400000Y72400000D02*
X54200000Y72400000D01*
D23*
X54200000Y72400000D02*
X54200000Y72600000D01*
D23*
X54200000Y72600000D02*
X54000000Y72600000D01*
D23*
X54000000Y72600000D02*
X54000000Y72800000D01*
D23*
X54000000Y72800000D02*
X53600000Y72800000D01*
D23*
X53600000Y72800000D02*
X53600000Y73000000D01*
D23*
X53600000Y73000000D02*
X53000000Y73000000D01*
D23*
X53000000Y73000000D02*
X53000000Y74000000D01*
D23*
X53000000Y74000000D02*
X53000000Y73000000D01*
D23*
X53000000Y73000000D02*
X53600000Y73000000D01*
D23*
X53600000Y73000000D02*
X53600000Y72800000D01*
D23*
X53600000Y72800000D02*
X54000000Y72800000D01*
D23*
X54000000Y72800000D02*
X54000000Y72600000D01*
D23*
X54000000Y72600000D02*
X54200000Y72600000D01*
D23*
X54200000Y72600000D02*
X54200000Y72400000D01*
D23*
X54200000Y72400000D02*
X54400000Y72400000D01*
D23*
X54400000Y72400000D02*
X54400000Y71800000D01*
D23*
X54400000Y71800000D02*
X54600000Y71800000D01*
D23*
X54600000Y71800000D02*
X54600000Y71000000D01*
D23*
X54600000Y71000000D02*
X54800000Y71000000D01*
D23*
X54800000Y71000000D02*
X54800000Y70800000D01*
D23*
X54800000Y70800000D02*
X55000000Y70800000D01*
D23*
X55000000Y70800000D02*
X55000000Y70600000D01*
D23*
X55000000Y70600000D02*
X55200000Y70600000D01*
D23*
X55200000Y70600000D02*
X55200000Y70200000D01*
D23*
X55200000Y70200000D02*
X55400000Y70200000D01*
D23*
X55400000Y70200000D02*
X55400000Y66200000D01*
D23*
X55400000Y66200000D02*
X55600000Y66200000D01*
D23*
X55600000Y66200000D02*
X55600000Y66000000D01*
D23*
X55600000Y66000000D02*
X55800000Y66000000D01*
D23*
X55800000Y66000000D02*
X55800000Y65600000D01*
D23*
X55800000Y65600000D02*
X56000000Y65600000D01*
D23*
X56000000Y65600000D02*
X56000000Y64600000D01*
D23*
X56000000Y64600000D02*
X56800000Y64600000D01*
D23*
X56800000Y64600000D02*
X56800000Y64400000D01*
D23*
X56800000Y64400000D02*
X57000000Y64400000D01*
D23*
X57000000Y64400000D02*
X57000000Y64200000D01*
D23*
X57000000Y64200000D02*
X57200000Y64200000D01*
D23*
X57200000Y64200000D02*
X57200000Y64000000D01*
D23*
X57200000Y64000000D02*
X57400000Y64000000D01*
D23*
X57400000Y64000000D02*
X57400000Y63800000D01*
D23*
X57400000Y63800000D02*
X57600000Y63800000D01*
D23*
X57600000Y63800000D02*
X57600000Y62600000D01*
D23*
X57600000Y62600000D02*
X57800000Y62600000D01*
D23*
X57800000Y62600000D02*
X57800000Y60800000D01*
D23*
X56000000Y57800000D02*
X54000000Y57800000D01*
D23*
X46000000Y54000000D02*
X46000000Y41200000D01*
D23*
X47000000Y36600000D02*
X47000000Y34000000D01*
M02*
