M48
;TYPE=PTH
METRIC,TZ
T01C0.350
T02C1.000
T03C1.300
%
G90
G05
T01
X38.4000Y35.6000
X80.8000Y35.6000
X11.8000Y58.8000
X34.6000Y30.8000
X43.0000Y34.0000
X43.0000Y36.6000
X33.8000Y36.8000
X33.8000Y35.2000
X15.4000Y35.2000
X32.2000Y39.2000
X32.2000Y34.4000
X33.0000Y18.4000
X31.4000Y17.6000
X40.0000Y36.6000
X41.0000Y36.6000
X55.2000Y62.2000
X42.0000Y36.6000
X56.0000Y61.6000
X41.4000Y28.8000
X41.4000Y31.6000
X14.6000Y15.6000
X44.0000Y36.6000
X29.8000Y27.4000
X30.2000Y14.8000
X42.8000Y27.6000
X62.0000Y15.2000
X60.0000Y22.0000
X69.0000Y36.8000
X64.8000Y46.0000
X63.0000Y46.2000
X16.2000Y23.2000
X17.2000Y20.0000
X17.2000Y17.2000
X29.2000Y14.8000
X29.2000Y20.0000
X55.0000Y23.0000
X58.0000Y38.8000
X58.0000Y42.0000
X62.0000Y44.8000
X64.0000Y44.8000
X56.6000Y60.8000
X51.4000Y69.8000
X82.0000Y41.8000
X82.0000Y36.0000
X94.6000Y72.4000
X56.0000Y36.8000
X57.0000Y40.8000
X57.0000Y52.4000
X57.8000Y60.8000
X56.0000Y57.8000
X54.0000Y57.8000
X46.0000Y41.2000
X47.0000Y36.6000
X47.0000Y34.0000
T02
X14.0000Y74.0000
X14.0000Y71.4600
X14.0000Y68.9200
X14.0000Y66.3800
X14.0000Y63.8400
X14.0000Y61.3000
X14.0000Y58.7600
X14.0000Y56.2200
X14.0000Y53.6800
X14.0000Y51.1400
X14.0000Y48.6000
X14.0000Y46.0600
X14.0000Y43.5200
X14.0000Y40.9800
X14.0000Y38.4400
X14.0000Y35.9000
X14.0000Y33.3600
X14.0000Y30.8200
X14.0000Y28.2800
X14.0000Y25.7400
X14.0000Y23.2000
X14.0000Y20.6600
X36.8600Y74.0000
X36.8600Y71.4600
X36.8600Y68.9200
X36.8600Y66.3800
X36.8600Y63.8400
X36.8600Y61.3000
X36.8600Y58.7600
X36.8600Y56.2200
X36.8600Y53.6800
X36.8600Y51.1400
X36.8600Y48.6000
X36.8600Y46.0600
X36.8600Y43.5200
X36.8600Y40.9800
X36.8600Y38.4400
X36.8600Y35.9000
X36.8600Y33.3600
X36.8600Y30.8200
X36.8600Y28.2800
X36.8600Y25.7400
X36.8600Y23.2000
X36.8600Y20.6600
X57.0000Y12.0000
X62.0800Y12.0000
X80.0000Y20.0000
X85.0000Y20.0000
X42.0000Y13.0000
X44.5400Y13.0000
X92.0000Y75.0000
X92.0000Y72.5000
X92.0000Y70.0000
X92.0000Y67.5000
X92.0000Y65.0000
X92.0000Y62.5000
X92.0000Y60.0000
X92.0000Y57.5000
X53.0000Y74.0000
X53.0000Y71.5000
X53.0000Y69.0000
X53.0000Y66.5000
X53.0000Y64.0000
X53.0000Y61.5000
X92.0000Y46.0000
X92.0000Y43.5000
X92.0000Y41.0000
X92.0000Y38.5000
X92.0000Y36.0000
X92.0000Y33.5000
X77.0000Y50.0000
X77.0000Y47.5000
X77.0000Y45.0000
X9.0000Y13.0000
X9.0000Y10.5000
X20.0000Y13.0000
X20.0000Y10.5000
X31.0000Y13.0000
X31.0000Y10.5000
X69.0000Y29.0000
X76.0000Y29.0000
X46.0000Y54.0000
X71.0000Y41.0000
T03
X68.0000Y12.0000
X73.0800Y12.0000
M30
