G04 Aether Orb Rev A; independently CAM-review before ordering*
%FSLAX46Y46*%
%MOMM*%
%TF.FileFunction,Copper,L1,Top*%
%TF.FilePolarity,Positive*%
%LPD*%
%ADD10R,1.800000X1.800000*%
%ADD11C,1.800000*%
%ADD12R,2.800000X2.800000*%
%ADD13C,2.800000*%
%ADD14C,2.400000*%
%ADD15R,0.900000X1.100000*%
%ADD16R,1.200000X1.400000*%
%ADD17R,2.400000X2.400000*%
%ADD18R,1.850000X1.850000*%
%ADD19C,1.850000*%
%ADD20R,0.650000X1.200000*%
%ADD21C,2.000000*%
%ADD22C,0.700000*%
%ADD23C,0.300000*%
%ADD24C,0.800000*%
%ADD25C,0.600000*%
%ADD26C,0.500000*%
D10*
X14000000Y74000000D03*
D11*
X14000000Y71460000D03*
D11*
X14000000Y68920000D03*
D11*
X14000000Y66380000D03*
D11*
X14000000Y63840000D03*
D11*
X14000000Y61300000D03*
D11*
X14000000Y58760000D03*
D11*
X14000000Y56220000D03*
D11*
X14000000Y53680000D03*
D11*
X14000000Y51140000D03*
D11*
X14000000Y48600000D03*
D11*
X14000000Y46060000D03*
D11*
X14000000Y43520000D03*
D11*
X14000000Y40980000D03*
D11*
X14000000Y38440000D03*
D11*
X14000000Y35900000D03*
D11*
X14000000Y33360000D03*
D11*
X14000000Y30820000D03*
D11*
X14000000Y28280000D03*
D11*
X14000000Y25740000D03*
D11*
X14000000Y23200000D03*
D11*
X14000000Y20660000D03*
D10*
X36860000Y74000000D03*
D11*
X36860000Y71460000D03*
D11*
X36860000Y68920000D03*
D11*
X36860000Y66380000D03*
D11*
X36860000Y63840000D03*
D11*
X36860000Y61300000D03*
D11*
X36860000Y58760000D03*
D11*
X36860000Y56220000D03*
D11*
X36860000Y53680000D03*
D11*
X36860000Y51140000D03*
D11*
X36860000Y48600000D03*
D11*
X36860000Y46060000D03*
D11*
X36860000Y43520000D03*
D11*
X36860000Y40980000D03*
D11*
X36860000Y38440000D03*
D11*
X36860000Y35900000D03*
D11*
X36860000Y33360000D03*
D11*
X36860000Y30820000D03*
D11*
X36860000Y28280000D03*
D11*
X36860000Y25740000D03*
D11*
X36860000Y23200000D03*
D11*
X36860000Y20660000D03*
D12*
X68000000Y12000000D03*
D13*
X73080000Y12000000D03*
D14*
X57000000Y12000000D03*
D14*
X62080000Y12000000D03*
D15*
X58050000Y22000000D03*
D15*
X59950000Y22000000D03*
D15*
X59000000Y24000000D03*
D16*
X53000000Y23000000D03*
D16*
X55000000Y23000000D03*
D17*
X80000000Y20000000D03*
D14*
X85000000Y20000000D03*
D11*
X42000000Y13000000D03*
D11*
X44540000Y13000000D03*
D18*
X92000000Y75000000D03*
D19*
X92000000Y72500000D03*
D19*
X92000000Y70000000D03*
D19*
X92000000Y67500000D03*
D19*
X92000000Y65000000D03*
D19*
X92000000Y62500000D03*
D19*
X92000000Y60000000D03*
D19*
X92000000Y57500000D03*
D16*
X71000000Y69000000D03*
D16*
X73000000Y69000000D03*
D16*
X71000000Y63000000D03*
D16*
X73000000Y63000000D03*
D18*
X53000000Y74000000D03*
D19*
X53000000Y71500000D03*
D19*
X53000000Y69000000D03*
D19*
X53000000Y66500000D03*
D19*
X53000000Y64000000D03*
D19*
X53000000Y61500000D03*
D18*
X92000000Y46000000D03*
D19*
X92000000Y43500000D03*
D19*
X92000000Y41000000D03*
D19*
X92000000Y38500000D03*
D19*
X92000000Y36000000D03*
D19*
X92000000Y33500000D03*
D16*
X80000000Y36000000D03*
D16*
X82000000Y36000000D03*
D20*
X62050000Y44900000D03*
D20*
X63000000Y44900000D03*
D20*
X63950000Y44900000D03*
D20*
X63950000Y47100000D03*
D20*
X62050000Y47100000D03*
D16*
X58000000Y50000000D03*
D16*
X60000000Y50000000D03*
D16*
X56000000Y42000000D03*
D16*
X58000000Y42000000D03*
D16*
X69000000Y48000000D03*
D16*
X71000000Y48000000D03*
D18*
X77000000Y50000000D03*
D19*
X77000000Y47500000D03*
D19*
X77000000Y45000000D03*
D18*
X9000000Y13000000D03*
D19*
X9000000Y10500000D03*
D18*
X20000000Y13000000D03*
D19*
X20000000Y10500000D03*
D18*
X31000000Y13000000D03*
D19*
X31000000Y10500000D03*
D16*
X47000000Y28000000D03*
D16*
X49000000Y28000000D03*
D16*
X45000000Y37000000D03*
D16*
X47000000Y37000000D03*
D16*
X45000000Y32000000D03*
D16*
X47000000Y32000000D03*
D16*
X53000000Y55000000D03*
D16*
X55000000Y55000000D03*
D21*
X69000000Y29000000D03*
D21*
X76000000Y29000000D03*
D21*
X46000000Y54000000D03*
D21*
X71000000Y41000000D03*
D22*
X38400000Y35600000D03*
D22*
X80800000Y35600000D03*
D22*
X11800000Y58800000D03*
D22*
X34600000Y30800000D03*
D22*
X43000000Y34000000D03*
D22*
X43000000Y36600000D03*
D22*
X33800000Y36800000D03*
D22*
X33800000Y35200000D03*
D22*
X15400000Y35200000D03*
D22*
X32200000Y39200000D03*
D22*
X32200000Y34400000D03*
D22*
X33000000Y18400000D03*
D22*
X31400000Y17600000D03*
D22*
X40000000Y36600000D03*
D22*
X41000000Y36600000D03*
D22*
X55200000Y62200000D03*
D22*
X42000000Y36600000D03*
D22*
X56000000Y61600000D03*
D22*
X41400000Y28800000D03*
D22*
X41400000Y31600000D03*
D22*
X14600000Y15600000D03*
D22*
X44000000Y36600000D03*
D22*
X29800000Y27400000D03*
D22*
X30200000Y14800000D03*
D22*
X42800000Y27600000D03*
D22*
X62000000Y15200000D03*
D22*
X60000000Y22000000D03*
D22*
X69000000Y36800000D03*
D22*
X64800000Y46000000D03*
D22*
X63000000Y46200000D03*
D22*
X16200000Y23200000D03*
D22*
X17200000Y20000000D03*
D22*
X17200000Y17200000D03*
D22*
X29200000Y14800000D03*
D22*
X29200000Y20000000D03*
D22*
X55000000Y23000000D03*
D22*
X58000000Y38800000D03*
D22*
X58000000Y42000000D03*
D22*
X62000000Y44800000D03*
D22*
X64000000Y44800000D03*
D22*
X56600000Y60800000D03*
D22*
X51400000Y69800000D03*
D22*
X82000000Y41800000D03*
D22*
X82000000Y36000000D03*
D22*
X94600000Y72400000D03*
D22*
X56000000Y36800000D03*
D22*
X57000000Y40800000D03*
D22*
X57000000Y52400000D03*
D22*
X57800000Y60800000D03*
D22*
X56000000Y57800000D03*
D22*
X54000000Y57800000D03*
D22*
X46000000Y41200000D03*
D22*
X47000000Y36600000D03*
D22*
X47000000Y34000000D03*
D23*
X14000000Y48600000D02*
X14000000Y47400000D01*
D23*
X14000000Y47400000D02*
X14600000Y47400000D01*
D23*
X14600000Y47400000D02*
X14600000Y47200000D01*
D23*
X14600000Y47200000D02*
X15000000Y47200000D01*
D23*
X15000000Y47200000D02*
X15000000Y47000000D01*
D23*
X15000000Y47000000D02*
X15200000Y47000000D01*
D23*
X15200000Y47000000D02*
X15200000Y46600000D01*
D23*
X15200000Y46600000D02*
X15400000Y46600000D01*
D23*
X15400000Y46600000D02*
X15400000Y36000000D01*
D23*
X15400000Y36000000D02*
X35400000Y36000000D01*
D23*
X35400000Y36000000D02*
X35400000Y20400000D01*
D23*
X35400000Y20400000D02*
X35600000Y20400000D01*
D23*
X35600000Y20400000D02*
X35600000Y19800000D01*
D23*
X35600000Y19800000D02*
X35800000Y19800000D01*
D23*
X35800000Y19800000D02*
X35800000Y19600000D01*
D23*
X35800000Y19600000D02*
X36000000Y19600000D01*
D23*
X36000000Y19600000D02*
X36000000Y19400000D01*
D23*
X36000000Y19400000D02*
X36600000Y19400000D01*
D23*
X36600000Y19400000D02*
X36600000Y19200000D01*
D23*
X36600000Y19200000D02*
X37200000Y19200000D01*
D23*
X37200000Y19200000D02*
X37200000Y19400000D01*
D23*
X37200000Y19400000D02*
X37600000Y19400000D01*
D23*
X37600000Y19400000D02*
X37600000Y19600000D01*
D23*
X37600000Y19600000D02*
X38000000Y19600000D01*
D23*
X38000000Y19600000D02*
X38000000Y20000000D01*
D23*
X38000000Y20000000D02*
X38200000Y20000000D01*
D23*
X38200000Y20000000D02*
X38200000Y34800000D01*
D23*
X38200000Y34800000D02*
X83000000Y34800000D01*
D23*
X83000000Y34800000D02*
X83000000Y36000000D01*
D23*
X83000000Y36000000D02*
X92000000Y36000000D01*
D23*
X14000000Y30820000D02*
X14000000Y30800000D01*
D23*
X14000000Y30800000D02*
X14000000Y32000000D01*
D23*
X14000000Y32000000D02*
X13400000Y32000000D01*
D23*
X13400000Y32000000D02*
X13400000Y32200000D01*
D23*
X13400000Y32200000D02*
X13000000Y32200000D01*
D23*
X13000000Y32200000D02*
X13000000Y32400000D01*
D23*
X13000000Y32400000D02*
X12800000Y32400000D01*
D23*
X12800000Y32400000D02*
X12800000Y32800000D01*
D23*
X12800000Y32800000D02*
X12600000Y32800000D01*
D23*
X12600000Y32800000D02*
X12600000Y75200000D01*
D23*
X12600000Y75200000D02*
X12800000Y75200000D01*
D23*
X12800000Y75200000D02*
X12800000Y75400000D01*
D23*
X12800000Y75400000D02*
X54200000Y75400000D01*
D23*
X54200000Y75400000D02*
X54200000Y75200000D01*
D23*
X54200000Y75200000D02*
X54400000Y75200000D01*
D23*
X54400000Y75200000D02*
X54400000Y69000000D01*
D23*
X54400000Y69000000D02*
X71000000Y69000000D01*
D23*
X38400000Y35600000D02*
X38400000Y35800000D01*
D23*
X38400000Y35800000D02*
X48000000Y35800000D01*
D23*
X48000000Y35800000D02*
X48000000Y36000000D01*
D23*
X48000000Y36000000D02*
X80000000Y36000000D01*
D23*
X80000000Y36000000D02*
X80000000Y35600000D01*
D23*
X80000000Y35600000D02*
X80800000Y35600000D01*
D23*
X11800000Y58800000D02*
X12000000Y58800000D01*
D23*
X12000000Y58800000D02*
X12000000Y75600000D01*
D23*
X12000000Y75600000D02*
X12200000Y75600000D01*
D23*
X12200000Y75600000D02*
X12200000Y75800000D01*
D23*
X12200000Y75800000D02*
X12400000Y75800000D01*
D23*
X12400000Y75800000D02*
X12400000Y76000000D01*
D23*
X12400000Y76000000D02*
X54600000Y76000000D01*
D23*
X54600000Y76000000D02*
X54600000Y75800000D01*
D23*
X54600000Y75800000D02*
X54800000Y75800000D01*
D23*
X54800000Y75800000D02*
X54800000Y75600000D01*
D23*
X54800000Y75600000D02*
X55000000Y75600000D01*
D23*
X55000000Y75600000D02*
X55000000Y70200000D01*
D23*
X55000000Y70200000D02*
X72000000Y70200000D01*
D23*
X72000000Y70200000D02*
X72000000Y57600000D01*
D23*
X72000000Y57600000D02*
X92000000Y57600000D01*
D23*
X92000000Y57600000D02*
X92000000Y57500000D01*
D23*
X34600000Y30800000D02*
X34800000Y30800000D01*
D23*
X34800000Y30800000D02*
X34800000Y20000000D01*
D23*
X34800000Y20000000D02*
X35000000Y20000000D01*
D23*
X35000000Y20000000D02*
X35000000Y19400000D01*
D23*
X35000000Y19400000D02*
X35200000Y19400000D01*
D23*
X35200000Y19400000D02*
X35200000Y19200000D01*
D23*
X35200000Y19200000D02*
X35400000Y19200000D01*
D23*
X35400000Y19200000D02*
X35400000Y19000000D01*
D23*
X35400000Y19000000D02*
X35600000Y19000000D01*
D23*
X35600000Y19000000D02*
X35600000Y18800000D01*
D23*
X35600000Y18800000D02*
X36200000Y18800000D01*
D23*
X36200000Y18800000D02*
X36200000Y18600000D01*
D23*
X36200000Y18600000D02*
X37600000Y18600000D01*
D23*
X37600000Y18600000D02*
X37600000Y18800000D01*
D23*
X37600000Y18800000D02*
X38000000Y18800000D01*
D23*
X38000000Y18800000D02*
X38000000Y19000000D01*
D23*
X38000000Y19000000D02*
X38400000Y19000000D01*
D23*
X38400000Y19000000D02*
X38400000Y19200000D01*
D23*
X38400000Y19200000D02*
X38600000Y19200000D01*
D23*
X38600000Y19200000D02*
X38600000Y19600000D01*
D23*
X38600000Y19600000D02*
X38800000Y19600000D01*
D23*
X38800000Y19600000D02*
X38800000Y34000000D01*
D23*
X38800000Y34000000D02*
X43000000Y34000000D01*
D23*
X43000000Y36600000D02*
X43000000Y42000000D01*
D23*
X43000000Y42000000D02*
X56000000Y42000000D01*
D23*
X56000000Y42000000D02*
X56000000Y43800000D01*
D23*
X56000000Y43800000D02*
X62800000Y43800000D01*
D23*
X62800000Y43800000D02*
X62800000Y44800000D01*
D23*
X62800000Y44800000D02*
X63000000Y44800000D01*
D23*
X63000000Y44800000D02*
X63000000Y44900000D01*
D23*
X14000000Y51140000D02*
X14000000Y51200000D01*
D23*
X14000000Y51200000D02*
X14000000Y50000000D01*
D23*
X14000000Y50000000D02*
X14600000Y50000000D01*
D23*
X14600000Y50000000D02*
X14600000Y49800000D01*
D23*
X14600000Y49800000D02*
X15000000Y49800000D01*
D23*
X15000000Y49800000D02*
X15000000Y49600000D01*
D23*
X15000000Y49600000D02*
X15200000Y49600000D01*
D23*
X15200000Y49600000D02*
X15200000Y49200000D01*
D23*
X15200000Y49200000D02*
X15400000Y49200000D01*
D23*
X15400000Y49200000D02*
X15400000Y47600000D01*
D23*
X15400000Y47600000D02*
X15600000Y47600000D01*
D23*
X15600000Y47600000D02*
X15600000Y47400000D01*
D23*
X15600000Y47400000D02*
X15800000Y47400000D01*
D23*
X15800000Y47400000D02*
X15800000Y47000000D01*
D23*
X15800000Y47000000D02*
X16000000Y47000000D01*
D23*
X16000000Y47000000D02*
X16000000Y38400000D01*
D23*
X16000000Y38400000D02*
X33800000Y38400000D01*
D23*
X33800000Y38400000D02*
X33800000Y36800000D01*
D23*
X33800000Y35200000D02*
X33800000Y30200000D01*
D23*
X33800000Y30200000D02*
X34000000Y30200000D01*
D23*
X34000000Y30200000D02*
X34000000Y30000000D01*
D23*
X34000000Y30000000D02*
X34200000Y30000000D01*
D23*
X34200000Y30000000D02*
X34200000Y19600000D01*
D23*
X34200000Y19600000D02*
X34400000Y19600000D01*
D23*
X34400000Y19600000D02*
X34400000Y19000000D01*
D23*
X34400000Y19000000D02*
X34600000Y19000000D01*
D23*
X34600000Y19000000D02*
X34600000Y18800000D01*
D23*
X34600000Y18800000D02*
X34800000Y18800000D01*
D23*
X34800000Y18800000D02*
X34800000Y18600000D01*
D23*
X34800000Y18600000D02*
X35000000Y18600000D01*
D23*
X35000000Y18600000D02*
X35000000Y18400000D01*
D23*
X35000000Y18400000D02*
X35200000Y18400000D01*
D23*
X35200000Y18400000D02*
X35200000Y18200000D01*
D23*
X35200000Y18200000D02*
X35800000Y18200000D01*
D23*
X35800000Y18200000D02*
X35800000Y18000000D01*
D23*
X35800000Y18000000D02*
X38000000Y18000000D01*
D23*
X38000000Y18000000D02*
X38000000Y18200000D01*
D23*
X38000000Y18200000D02*
X38400000Y18200000D01*
D23*
X38400000Y18200000D02*
X38400000Y18400000D01*
D23*
X38400000Y18400000D02*
X38800000Y18400000D01*
D23*
X38800000Y18400000D02*
X38800000Y18600000D01*
D23*
X38800000Y18600000D02*
X39000000Y18600000D01*
D23*
X39000000Y18600000D02*
X39000000Y18800000D01*
D23*
X39000000Y18800000D02*
X39200000Y18800000D01*
D23*
X39200000Y18800000D02*
X39200000Y19200000D01*
D23*
X39200000Y19200000D02*
X39400000Y19200000D01*
D23*
X39400000Y19200000D02*
X39400000Y30800000D01*
D23*
X39400000Y30800000D02*
X48000000Y30800000D01*
D23*
X48000000Y30800000D02*
X48000000Y32000000D01*
D23*
X48000000Y32000000D02*
X92200000Y32000000D01*
D23*
X92200000Y32000000D02*
X92200000Y32200000D01*
D23*
X92200000Y32200000D02*
X92800000Y32200000D01*
D23*
X92800000Y32200000D02*
X92800000Y32400000D01*
D23*
X92800000Y32400000D02*
X93000000Y32400000D01*
D23*
X93000000Y32400000D02*
X93000000Y32600000D01*
D23*
X93000000Y32600000D02*
X93200000Y32600000D01*
D23*
X93200000Y32600000D02*
X93200000Y32800000D01*
D23*
X93200000Y32800000D02*
X93400000Y32800000D01*
D23*
X93400000Y32800000D02*
X93400000Y36600000D01*
D23*
X93400000Y36600000D02*
X93200000Y36600000D01*
D23*
X93200000Y36600000D02*
X93200000Y37000000D01*
D23*
X93200000Y37000000D02*
X93000000Y37000000D01*
D23*
X93000000Y37000000D02*
X93000000Y37200000D01*
D23*
X93000000Y37200000D02*
X92600000Y37200000D01*
D23*
X92600000Y37200000D02*
X92600000Y37400000D01*
D23*
X92600000Y37400000D02*
X92000000Y37400000D01*
D23*
X92000000Y37400000D02*
X92000000Y38400000D01*
D23*
X92000000Y38400000D02*
X92000000Y38500000D01*
D23*
X15400000Y35200000D02*
X33000000Y35200000D01*
D23*
X33000000Y35200000D02*
X33000000Y34600000D01*
D23*
X33000000Y34600000D02*
X33200000Y34600000D01*
D23*
X33200000Y34600000D02*
X33200000Y29800000D01*
D23*
X33200000Y29800000D02*
X33400000Y29800000D01*
D23*
X33400000Y29800000D02*
X33400000Y29600000D01*
D23*
X33400000Y29600000D02*
X33600000Y29600000D01*
D23*
X33600000Y29600000D02*
X33600000Y19200000D01*
D23*
X33600000Y19200000D02*
X33800000Y19200000D01*
D23*
X33800000Y19200000D02*
X33800000Y18600000D01*
D23*
X33800000Y18600000D02*
X34000000Y18600000D01*
D23*
X34000000Y18600000D02*
X34000000Y18400000D01*
D23*
X34000000Y18400000D02*
X34200000Y18400000D01*
D23*
X34200000Y18400000D02*
X34200000Y18200000D01*
D23*
X34200000Y18200000D02*
X34400000Y18200000D01*
D23*
X34400000Y18200000D02*
X34400000Y18000000D01*
D23*
X34400000Y18000000D02*
X34600000Y18000000D01*
D23*
X34600000Y18000000D02*
X34600000Y17800000D01*
D23*
X34600000Y17800000D02*
X34800000Y17800000D01*
D23*
X34800000Y17800000D02*
X34800000Y17600000D01*
D23*
X34800000Y17600000D02*
X35400000Y17600000D01*
D23*
X35400000Y17600000D02*
X35400000Y17400000D01*
D23*
X35400000Y17400000D02*
X38400000Y17400000D01*
D23*
X38400000Y17400000D02*
X38400000Y17600000D01*
D23*
X38400000Y17600000D02*
X38800000Y17600000D01*
D23*
X38800000Y17600000D02*
X38800000Y17800000D01*
D23*
X38800000Y17800000D02*
X39200000Y17800000D01*
D23*
X39200000Y17800000D02*
X39200000Y18000000D01*
D23*
X39200000Y18000000D02*
X39400000Y18000000D01*
D23*
X39400000Y18000000D02*
X39400000Y18200000D01*
D23*
X39400000Y18200000D02*
X39600000Y18200000D01*
D23*
X39600000Y18200000D02*
X39600000Y18400000D01*
D23*
X39600000Y18400000D02*
X39800000Y18400000D01*
D23*
X39800000Y18400000D02*
X39800000Y18800000D01*
D23*
X39800000Y18800000D02*
X40000000Y18800000D01*
D23*
X40000000Y18800000D02*
X40000000Y30200000D01*
D23*
X40000000Y30200000D02*
X48400000Y30200000D01*
D23*
X48400000Y30200000D02*
X48400000Y30400000D01*
D23*
X48400000Y30400000D02*
X48600000Y30400000D01*
D23*
X48600000Y30400000D02*
X48600000Y31400000D01*
D23*
X48600000Y31400000D02*
X92600000Y31400000D01*
D23*
X92600000Y31400000D02*
X92600000Y31600000D01*
D23*
X92600000Y31600000D02*
X93200000Y31600000D01*
D23*
X93200000Y31600000D02*
X93200000Y31800000D01*
D23*
X93200000Y31800000D02*
X93400000Y31800000D01*
D23*
X93400000Y31800000D02*
X93400000Y32000000D01*
D23*
X93400000Y32000000D02*
X93600000Y32000000D01*
D23*
X93600000Y32000000D02*
X93600000Y32200000D01*
D23*
X93600000Y32200000D02*
X93800000Y32200000D01*
D23*
X93800000Y32200000D02*
X93800000Y32400000D01*
D23*
X93800000Y32400000D02*
X94000000Y32400000D01*
D23*
X94000000Y32400000D02*
X94000000Y37000000D01*
D23*
X94000000Y37000000D02*
X93800000Y37000000D01*
D23*
X93800000Y37000000D02*
X93800000Y37400000D01*
D23*
X93800000Y37400000D02*
X93600000Y37400000D01*
D23*
X93600000Y37400000D02*
X93600000Y37600000D01*
D23*
X93600000Y37600000D02*
X93400000Y37600000D01*
D23*
X93400000Y37600000D02*
X93400000Y60600000D01*
D23*
X93400000Y60600000D02*
X93200000Y60600000D01*
D23*
X93200000Y60600000D02*
X93200000Y61000000D01*
D23*
X93200000Y61000000D02*
X93000000Y61000000D01*
D23*
X93000000Y61000000D02*
X93000000Y61200000D01*
D23*
X93000000Y61200000D02*
X92600000Y61200000D01*
D23*
X92600000Y61200000D02*
X92600000Y61400000D01*
D23*
X92600000Y61400000D02*
X92000000Y61400000D01*
D23*
X92000000Y61400000D02*
X92000000Y62400000D01*
D23*
X92000000Y62400000D02*
X92000000Y62500000D01*
D23*
X63950000Y47100000D02*
X64000000Y47200000D01*
D23*
X64000000Y47200000D02*
X64000000Y48000000D01*
D23*
X64000000Y48000000D02*
X69000000Y48000000D01*
D23*
X71000000Y48000000D02*
X71000000Y41000000D01*
D23*
X71000000Y48000000D02*
X71000000Y45000000D01*
D23*
X71000000Y45000000D02*
X77000000Y45000000D01*
D23*
X58050000Y22000000D02*
X58000000Y22000000D01*
D23*
X58000000Y22000000D02*
X56000000Y22000000D01*
D23*
X56000000Y22000000D02*
X56000000Y21800000D01*
D23*
X56000000Y21800000D02*
X53000000Y21800000D01*
D23*
X53000000Y21800000D02*
X53000000Y23000000D01*
D23*
X14000000Y53680000D02*
X14000000Y53600000D01*
D23*
X14000000Y53600000D02*
X14000000Y52600000D01*
D23*
X14000000Y52600000D02*
X14400000Y52600000D01*
D23*
X14400000Y52600000D02*
X14400000Y52400000D01*
D23*
X14400000Y52400000D02*
X14800000Y52400000D01*
D23*
X14800000Y52400000D02*
X14800000Y52200000D01*
D23*
X14800000Y52200000D02*
X15000000Y52200000D01*
D23*
X15000000Y52200000D02*
X15000000Y52000000D01*
D23*
X15000000Y52000000D02*
X15200000Y52000000D01*
D23*
X15200000Y52000000D02*
X15200000Y51600000D01*
D23*
X15200000Y51600000D02*
X15400000Y51600000D01*
D23*
X15400000Y51600000D02*
X15400000Y50200000D01*
D23*
X15400000Y50200000D02*
X15600000Y50200000D01*
D23*
X15600000Y50200000D02*
X15600000Y50000000D01*
D23*
X15600000Y50000000D02*
X15800000Y50000000D01*
D23*
X15800000Y50000000D02*
X15800000Y49600000D01*
D23*
X15800000Y49600000D02*
X16000000Y49600000D01*
D23*
X16000000Y49600000D02*
X16000000Y48000000D01*
D23*
X16000000Y48000000D02*
X16200000Y48000000D01*
D23*
X16200000Y48000000D02*
X16200000Y47800000D01*
D23*
X16200000Y47800000D02*
X16400000Y47800000D01*
D23*
X16400000Y47800000D02*
X16400000Y47400000D01*
D23*
X16400000Y47400000D02*
X16600000Y47400000D01*
D23*
X16600000Y47400000D02*
X16600000Y41000000D01*
D23*
X16600000Y41000000D02*
X32200000Y41000000D01*
D23*
X32200000Y41000000D02*
X32200000Y39200000D01*
D23*
X32200000Y34400000D02*
X32400000Y34400000D01*
D23*
X32400000Y34400000D02*
X32400000Y34200000D01*
D23*
X32400000Y34200000D02*
X32600000Y34200000D01*
D23*
X32600000Y34200000D02*
X32600000Y29400000D01*
D23*
X32600000Y29400000D02*
X32800000Y29400000D01*
D23*
X32800000Y29400000D02*
X32800000Y29200000D01*
D23*
X32800000Y29200000D02*
X33000000Y29200000D01*
D23*
X33000000Y29200000D02*
X33000000Y18400000D01*
D23*
X14000000Y35900000D02*
X14000000Y36000000D01*
D23*
X14000000Y36000000D02*
X14600000Y36000000D01*
D23*
X14600000Y36000000D02*
X14600000Y34600000D01*
D23*
X14600000Y34600000D02*
X14800000Y34600000D01*
D23*
X14800000Y34600000D02*
X14800000Y34400000D01*
D23*
X14800000Y34400000D02*
X31400000Y34400000D01*
D23*
X31400000Y34400000D02*
X31400000Y33800000D01*
D23*
X31400000Y33800000D02*
X31600000Y33800000D01*
D23*
X31600000Y33800000D02*
X31600000Y33600000D01*
D23*
X31600000Y33600000D02*
X32000000Y33600000D01*
D23*
X32000000Y33600000D02*
X32000000Y29000000D01*
D23*
X32000000Y29000000D02*
X32200000Y29000000D01*
D23*
X32200000Y29000000D02*
X32200000Y17800000D01*
D23*
X32200000Y17800000D02*
X32400000Y17800000D01*
D23*
X32400000Y17800000D02*
X32400000Y17600000D01*
D23*
X32400000Y17600000D02*
X34000000Y17600000D01*
D23*
X34000000Y17600000D02*
X34000000Y17400000D01*
D23*
X34000000Y17400000D02*
X34200000Y17400000D01*
D23*
X34200000Y17400000D02*
X34200000Y17200000D01*
D23*
X34200000Y17200000D02*
X34400000Y17200000D01*
D23*
X34400000Y17200000D02*
X34400000Y17000000D01*
D23*
X34400000Y17000000D02*
X35000000Y17000000D01*
D23*
X35000000Y17000000D02*
X35000000Y16800000D01*
D23*
X35000000Y16800000D02*
X38800000Y16800000D01*
D23*
X38800000Y16800000D02*
X38800000Y17000000D01*
D23*
X38800000Y17000000D02*
X39200000Y17000000D01*
D23*
X39200000Y17000000D02*
X39200000Y17200000D01*
D23*
X39200000Y17200000D02*
X39600000Y17200000D01*
D23*
X39600000Y17200000D02*
X39600000Y17400000D01*
D23*
X39600000Y17400000D02*
X39800000Y17400000D01*
D23*
X39800000Y17400000D02*
X39800000Y17600000D01*
D23*
X39800000Y17600000D02*
X40000000Y17600000D01*
D23*
X40000000Y17600000D02*
X40000000Y17800000D01*
D23*
X40000000Y17800000D02*
X40200000Y17800000D01*
D23*
X40200000Y17800000D02*
X40200000Y18000000D01*
D23*
X40200000Y18000000D02*
X40400000Y18000000D01*
D23*
X40400000Y18000000D02*
X40400000Y18400000D01*
D23*
X40400000Y18400000D02*
X40600000Y18400000D01*
D23*
X40600000Y18400000D02*
X40600000Y29600000D01*
D23*
X40600000Y29600000D02*
X48800000Y29600000D01*
D23*
X48800000Y29600000D02*
X48800000Y29800000D01*
D23*
X48800000Y29800000D02*
X49000000Y29800000D01*
D23*
X49000000Y29800000D02*
X49000000Y30000000D01*
D23*
X49000000Y30000000D02*
X49200000Y30000000D01*
D23*
X49200000Y30000000D02*
X49200000Y30800000D01*
D23*
X49200000Y30800000D02*
X93000000Y30800000D01*
D23*
X93000000Y30800000D02*
X93000000Y31000000D01*
D23*
X93000000Y31000000D02*
X93600000Y31000000D01*
D23*
X93600000Y31000000D02*
X93600000Y31200000D01*
D23*
X93600000Y31200000D02*
X93800000Y31200000D01*
D23*
X93800000Y31200000D02*
X93800000Y31400000D01*
D23*
X93800000Y31400000D02*
X94000000Y31400000D01*
D23*
X94000000Y31400000D02*
X94000000Y31600000D01*
D23*
X94000000Y31600000D02*
X94200000Y31600000D01*
D23*
X94200000Y31600000D02*
X94200000Y31800000D01*
D23*
X94200000Y31800000D02*
X94400000Y31800000D01*
D23*
X94400000Y31800000D02*
X94400000Y32000000D01*
D23*
X94400000Y32000000D02*
X94600000Y32000000D01*
D23*
X94600000Y32000000D02*
X94600000Y37400000D01*
D23*
X94600000Y37400000D02*
X94400000Y37400000D01*
D23*
X94400000Y37400000D02*
X94400000Y37800000D01*
D23*
X94400000Y37800000D02*
X94200000Y37800000D01*
D23*
X94200000Y37800000D02*
X94200000Y38000000D01*
D23*
X94200000Y38000000D02*
X94000000Y38000000D01*
D23*
X94000000Y38000000D02*
X94000000Y61000000D01*
D23*
X94000000Y61000000D02*
X93800000Y61000000D01*
D23*
X93800000Y61000000D02*
X93800000Y61400000D01*
D23*
X93800000Y61400000D02*
X93600000Y61400000D01*
D23*
X93600000Y61400000D02*
X93600000Y61600000D01*
D23*
X93600000Y61600000D02*
X93400000Y61600000D01*
D23*
X93400000Y61600000D02*
X93400000Y63200000D01*
D23*
X93400000Y63200000D02*
X93200000Y63200000D01*
D23*
X93200000Y63200000D02*
X93200000Y63400000D01*
D23*
X93200000Y63400000D02*
X93000000Y63400000D01*
D23*
X93000000Y63400000D02*
X93000000Y63600000D01*
D23*
X93000000Y63600000D02*
X92800000Y63600000D01*
D23*
X92800000Y63600000D02*
X92800000Y63800000D01*
D23*
X92800000Y63800000D02*
X92200000Y63800000D01*
D23*
X92200000Y63800000D02*
X92200000Y64000000D01*
D23*
X92200000Y64000000D02*
X92000000Y64000000D01*
D23*
X92000000Y64000000D02*
X92000000Y65000000D01*
D23*
X14000000Y33360000D02*
X14000000Y33400000D01*
D23*
X14000000Y33400000D02*
X31000000Y33400000D01*
D23*
X31000000Y33400000D02*
X31000000Y33200000D01*
D23*
X31000000Y33200000D02*
X31200000Y33200000D01*
D23*
X31200000Y33200000D02*
X31200000Y33000000D01*
D23*
X31200000Y33000000D02*
X31400000Y33000000D01*
D23*
X31400000Y33000000D02*
X31400000Y17600000D01*
D23*
X40000000Y36600000D02*
X40000000Y60000000D01*
D23*
X40000000Y60000000D02*
X53200000Y60000000D01*
D23*
X53200000Y60000000D02*
X53200000Y60200000D01*
D23*
X53200000Y60200000D02*
X53800000Y60200000D01*
D23*
X53800000Y60200000D02*
X53800000Y60400000D01*
D23*
X53800000Y60400000D02*
X54000000Y60400000D01*
D23*
X54000000Y60400000D02*
X54000000Y60600000D01*
D23*
X54000000Y60600000D02*
X54200000Y60600000D01*
D23*
X54200000Y60600000D02*
X54200000Y60800000D01*
D23*
X54200000Y60800000D02*
X54400000Y60800000D01*
D23*
X54400000Y60800000D02*
X54400000Y63000000D01*
D23*
X54400000Y63000000D02*
X71000000Y63000000D01*
D23*
X92000000Y67500000D02*
X92000000Y67600000D01*
D23*
X92000000Y67600000D02*
X73000000Y67600000D01*
D23*
X73000000Y67600000D02*
X73000000Y63000000D01*
D23*
X92000000Y70000000D02*
X73000000Y70000000D01*
D23*
X73000000Y70000000D02*
X73000000Y69000000D01*
D23*
X41000000Y36600000D02*
X41000000Y59400000D01*
D23*
X41000000Y59400000D02*
X53600000Y59400000D01*
D23*
X53600000Y59400000D02*
X53600000Y59600000D01*
D23*
X53600000Y59600000D02*
X54200000Y59600000D01*
D23*
X54200000Y59600000D02*
X54200000Y59800000D01*
D23*
X54200000Y59800000D02*
X54400000Y59800000D01*
D23*
X54400000Y59800000D02*
X54400000Y60000000D01*
D23*
X54400000Y60000000D02*
X54600000Y60000000D01*
D23*
X54600000Y60000000D02*
X54600000Y60200000D01*
D23*
X54600000Y60200000D02*
X54800000Y60200000D01*
D23*
X54800000Y60200000D02*
X54800000Y60400000D01*
D23*
X54800000Y60400000D02*
X55000000Y60400000D01*
D23*
X55000000Y60400000D02*
X55000000Y62200000D01*
D23*
X55000000Y62200000D02*
X55200000Y62200000D01*
D23*
X42000000Y36600000D02*
X42000000Y58800000D01*
D23*
X42000000Y58800000D02*
X54000000Y58800000D01*
D23*
X54000000Y58800000D02*
X54000000Y59000000D01*
D23*
X54000000Y59000000D02*
X54600000Y59000000D01*
D23*
X54600000Y59000000D02*
X54600000Y59200000D01*
D23*
X54600000Y59200000D02*
X54800000Y59200000D01*
D23*
X54800000Y59200000D02*
X54800000Y59400000D01*
D23*
X54800000Y59400000D02*
X55000000Y59400000D01*
D23*
X55000000Y59400000D02*
X55000000Y59600000D01*
D23*
X55000000Y59600000D02*
X55200000Y59600000D01*
D23*
X55200000Y59600000D02*
X55200000Y59800000D01*
D23*
X55200000Y59800000D02*
X55400000Y59800000D01*
D23*
X55400000Y59800000D02*
X55400000Y60000000D01*
D23*
X55400000Y60000000D02*
X55600000Y60000000D01*
D23*
X55600000Y60000000D02*
X55600000Y61400000D01*
D23*
X55600000Y61400000D02*
X55800000Y61400000D01*
D23*
X55800000Y61400000D02*
X55800000Y61600000D01*
D23*
X55800000Y61600000D02*
X56000000Y61600000D01*
D23*
X14000000Y28280000D02*
X14000000Y28200000D01*
D23*
X14000000Y28200000D02*
X14000000Y27200000D01*
D23*
X14000000Y27200000D02*
X14400000Y27200000D01*
D23*
X14400000Y27200000D02*
X14400000Y27000000D01*
D23*
X14400000Y27000000D02*
X14800000Y27000000D01*
D23*
X14800000Y27000000D02*
X14800000Y26800000D01*
D23*
X14800000Y26800000D02*
X15000000Y26800000D01*
D23*
X15000000Y26800000D02*
X15000000Y26600000D01*
D23*
X15000000Y26600000D02*
X15200000Y26600000D01*
D23*
X15200000Y26600000D02*
X15200000Y26200000D01*
D23*
X15200000Y26200000D02*
X15400000Y26200000D01*
D23*
X15400000Y26200000D02*
X15400000Y13000000D01*
D23*
X15400000Y13000000D02*
X20000000Y13000000D01*
D23*
X14000000Y28280000D02*
X14000000Y28200000D01*
D23*
X14000000Y28200000D02*
X30600000Y28200000D01*
D23*
X30600000Y28200000D02*
X30600000Y17000000D01*
D23*
X30600000Y17000000D02*
X30800000Y17000000D01*
D23*
X30800000Y17000000D02*
X30800000Y16800000D01*
D23*
X30800000Y16800000D02*
X33800000Y16800000D01*
D23*
X33800000Y16800000D02*
X33800000Y16600000D01*
D23*
X33800000Y16600000D02*
X34000000Y16600000D01*
D23*
X34000000Y16600000D02*
X34000000Y16400000D01*
D23*
X34000000Y16400000D02*
X34600000Y16400000D01*
D23*
X34600000Y16400000D02*
X34600000Y16200000D01*
D23*
X34600000Y16200000D02*
X39200000Y16200000D01*
D23*
X39200000Y16200000D02*
X39200000Y16400000D01*
D23*
X39200000Y16400000D02*
X39600000Y16400000D01*
D23*
X39600000Y16400000D02*
X39600000Y16600000D01*
D23*
X39600000Y16600000D02*
X40000000Y16600000D01*
D23*
X40000000Y16600000D02*
X40000000Y16800000D01*
D23*
X40000000Y16800000D02*
X40200000Y16800000D01*
D23*
X40200000Y16800000D02*
X40200000Y17000000D01*
D23*
X40200000Y17000000D02*
X40400000Y17000000D01*
D23*
X40400000Y17000000D02*
X40400000Y17200000D01*
D23*
X40400000Y17200000D02*
X40600000Y17200000D01*
D23*
X40600000Y17200000D02*
X40600000Y17400000D01*
D23*
X40600000Y17400000D02*
X40800000Y17400000D01*
D23*
X40800000Y17400000D02*
X40800000Y17600000D01*
D23*
X40800000Y17600000D02*
X41000000Y17600000D01*
D23*
X41000000Y17600000D02*
X41000000Y18000000D01*
D23*
X41000000Y18000000D02*
X41200000Y18000000D01*
D23*
X41200000Y18000000D02*
X41200000Y28800000D01*
D23*
X41200000Y28800000D02*
X41400000Y28800000D01*
D23*
X41400000Y31600000D02*
X41400000Y32000000D01*
D23*
X41400000Y32000000D02*
X45000000Y32000000D01*
D23*
X14000000Y25740000D02*
X14000000Y25800000D01*
D23*
X14000000Y25800000D02*
X9000000Y25800000D01*
D23*
X9000000Y25800000D02*
X9000000Y13000000D01*
D23*
X14000000Y25740000D02*
X14000000Y25800000D01*
D23*
X14000000Y25800000D02*
X12600000Y25800000D01*
D23*
X12600000Y25800000D02*
X12600000Y20200000D01*
D23*
X12600000Y20200000D02*
X12800000Y20200000D01*
D23*
X12800000Y20200000D02*
X12800000Y19800000D01*
D23*
X12800000Y19800000D02*
X13000000Y19800000D01*
D23*
X13000000Y19800000D02*
X13000000Y19600000D01*
D23*
X13000000Y19600000D02*
X13200000Y19600000D01*
D23*
X13200000Y19600000D02*
X13200000Y19400000D01*
D23*
X13200000Y19400000D02*
X13600000Y19400000D01*
D23*
X13600000Y19400000D02*
X13600000Y19200000D01*
D23*
X13600000Y19200000D02*
X14600000Y19200000D01*
D23*
X14600000Y19200000D02*
X14600000Y15600000D01*
D23*
X44000000Y36600000D02*
X44000000Y37000000D01*
D23*
X44000000Y37000000D02*
X45000000Y37000000D01*
D23*
X31000000Y13000000D02*
X31000000Y15600000D01*
D23*
X31000000Y15600000D02*
X39600000Y15600000D01*
D23*
X39600000Y15600000D02*
X39600000Y15800000D01*
D23*
X39600000Y15800000D02*
X40000000Y15800000D01*
D23*
X40000000Y15800000D02*
X40000000Y16000000D01*
D23*
X40000000Y16000000D02*
X40400000Y16000000D01*
D23*
X40400000Y16000000D02*
X40400000Y16200000D01*
D23*
X40400000Y16200000D02*
X40600000Y16200000D01*
D23*
X40600000Y16200000D02*
X40600000Y16400000D01*
D23*
X40600000Y16400000D02*
X40800000Y16400000D01*
D23*
X40800000Y16400000D02*
X40800000Y16600000D01*
D23*
X40800000Y16600000D02*
X41000000Y16600000D01*
D23*
X41000000Y16600000D02*
X41000000Y16800000D01*
D23*
X41000000Y16800000D02*
X41200000Y16800000D01*
D23*
X41200000Y16800000D02*
X41200000Y17000000D01*
D23*
X41200000Y17000000D02*
X41400000Y17000000D01*
D23*
X41400000Y17000000D02*
X41400000Y17200000D01*
D23*
X41400000Y17200000D02*
X41600000Y17200000D01*
D23*
X41600000Y17200000D02*
X41600000Y17600000D01*
D23*
X41600000Y17600000D02*
X41800000Y17600000D01*
D23*
X41800000Y17600000D02*
X41800000Y26800000D01*
D23*
X41800000Y26800000D02*
X48000000Y26800000D01*
D23*
X48000000Y26800000D02*
X48000000Y28000000D01*
D23*
X48000000Y28000000D02*
X49000000Y28000000D01*
D23*
X29800000Y27400000D02*
X30000000Y27400000D01*
D23*
X30000000Y27400000D02*
X30000000Y16600000D01*
D23*
X30000000Y16600000D02*
X30200000Y16600000D01*
D23*
X30200000Y16600000D02*
X30200000Y14800000D01*
D23*
X42800000Y27600000D02*
X42800000Y28000000D01*
D23*
X42800000Y28000000D02*
X47000000Y28000000D01*
D24*
X68000000Y12000000D02*
X64000000Y12000000D01*
D24*
X64000000Y12000000D02*
X64000000Y12800000D01*
D24*
X64000000Y12800000D02*
X63800000Y12800000D01*
D24*
X63800000Y12800000D02*
X63800000Y13200000D01*
D24*
X63800000Y13200000D02*
X63600000Y13200000D01*
D24*
X63600000Y13200000D02*
X63600000Y13400000D01*
D24*
X63600000Y13400000D02*
X63400000Y13400000D01*
D24*
X63400000Y13400000D02*
X63400000Y13600000D01*
D24*
X63400000Y13600000D02*
X63000000Y13600000D01*
D24*
X63000000Y13600000D02*
X63000000Y13800000D01*
D24*
X63000000Y13800000D02*
X62600000Y13800000D01*
D24*
X62600000Y13800000D02*
X62600000Y14000000D01*
D24*
X62600000Y14000000D02*
X57000000Y14000000D01*
D24*
X57000000Y14000000D02*
X57000000Y12000000D01*
D24*
X62000000Y15200000D02*
X61200000Y15200000D01*
D24*
X61200000Y15200000D02*
X61200000Y22800000D01*
D24*
X61200000Y22800000D02*
X61000000Y22800000D01*
D24*
X61000000Y22800000D02*
X61000000Y23200000D01*
D24*
X61000000Y23200000D02*
X59000000Y23200000D01*
D24*
X59000000Y23200000D02*
X59000000Y24000000D01*
D24*
X59950000Y22000000D02*
X60000000Y22000000D01*
D24*
X69000000Y29000000D02*
X69000000Y20000000D01*
D24*
X69000000Y20000000D02*
X80000000Y20000000D01*
D24*
X69000000Y36800000D02*
X65000000Y36800000D01*
D24*
X65000000Y36800000D02*
X65000000Y46000000D01*
D24*
X65000000Y46000000D02*
X64800000Y46000000D01*
D24*
X63000000Y46200000D02*
X62000000Y46200000D01*
D24*
X62000000Y46200000D02*
X62000000Y47200000D01*
D24*
X62000000Y47200000D02*
X62050000Y47100000D01*
D24*
X62050000Y47100000D02*
X62000000Y47200000D01*
D24*
X62000000Y47200000D02*
X58000000Y47200000D01*
D24*
X58000000Y47200000D02*
X58000000Y50000000D01*
D24*
X62050000Y47100000D02*
X62000000Y47200000D01*
D24*
X62000000Y47200000D02*
X62000000Y50000000D01*
D24*
X62000000Y50000000D02*
X77000000Y50000000D01*
D24*
X77000000Y50000000D02*
X77000000Y49200000D01*
D24*
X77000000Y49200000D02*
X77600000Y49200000D01*
D24*
X77600000Y49200000D02*
X77600000Y49000000D01*
D24*
X77600000Y49000000D02*
X78000000Y49000000D01*
D24*
X78000000Y49000000D02*
X78000000Y48800000D01*
D24*
X78000000Y48800000D02*
X78200000Y48800000D01*
D24*
X78200000Y48800000D02*
X78200000Y48600000D01*
D24*
X78200000Y48600000D02*
X78400000Y48600000D01*
D24*
X78400000Y48600000D02*
X78400000Y48200000D01*
D24*
X78400000Y48200000D02*
X78600000Y48200000D01*
D24*
X78600000Y48200000D02*
X78600000Y46000000D01*
D24*
X78600000Y46000000D02*
X92000000Y46000000D01*
D24*
X59950000Y22000000D02*
X60000000Y22000000D01*
D24*
X60000000Y22000000D02*
X59200000Y22000000D01*
D24*
X59200000Y22000000D02*
X59200000Y21000000D01*
D24*
X59200000Y21000000D02*
X59000000Y21000000D01*
D24*
X59000000Y21000000D02*
X59000000Y20800000D01*
D24*
X59000000Y20800000D02*
X42600000Y20800000D01*
D24*
X42600000Y20800000D02*
X42600000Y17000000D01*
D24*
X42600000Y17000000D02*
X42400000Y17000000D01*
D24*
X42400000Y17000000D02*
X42400000Y16600000D01*
D24*
X42400000Y16600000D02*
X42200000Y16600000D01*
D24*
X42200000Y16600000D02*
X42200000Y16400000D01*
D24*
X42200000Y16400000D02*
X42000000Y16400000D01*
D24*
X42000000Y16400000D02*
X42000000Y13000000D01*
D24*
X16200000Y23200000D02*
X16200000Y14600000D01*
D24*
X16200000Y14600000D02*
X21400000Y14600000D01*
D24*
X21400000Y14600000D02*
X21400000Y14400000D01*
D24*
X21400000Y14400000D02*
X21600000Y14400000D01*
D24*
X21600000Y14400000D02*
X21600000Y13000000D01*
D24*
X21600000Y13000000D02*
X29400000Y13000000D01*
D24*
X29400000Y13000000D02*
X29400000Y9800000D01*
D24*
X29400000Y9800000D02*
X29600000Y9800000D01*
D24*
X29600000Y9800000D02*
X29600000Y9400000D01*
D24*
X29600000Y9400000D02*
X29800000Y9400000D01*
D24*
X29800000Y9400000D02*
X29800000Y9200000D01*
D24*
X29800000Y9200000D02*
X30000000Y9200000D01*
D24*
X30000000Y9200000D02*
X30000000Y9000000D01*
D24*
X30000000Y9000000D02*
X30400000Y9000000D01*
D24*
X30400000Y9000000D02*
X30400000Y8800000D01*
D24*
X30400000Y8800000D02*
X31600000Y8800000D01*
D24*
X31600000Y8800000D02*
X31600000Y9000000D01*
D24*
X31600000Y9000000D02*
X32000000Y9000000D01*
D24*
X32000000Y9000000D02*
X32000000Y9200000D01*
D24*
X32000000Y9200000D02*
X32200000Y9200000D01*
D24*
X32200000Y9200000D02*
X32200000Y9400000D01*
D24*
X32200000Y9400000D02*
X32400000Y9400000D01*
D24*
X32400000Y9400000D02*
X32400000Y9800000D01*
D24*
X32400000Y9800000D02*
X32600000Y9800000D01*
D24*
X32600000Y9800000D02*
X32600000Y11400000D01*
D24*
X32600000Y11400000D02*
X42800000Y11400000D01*
D24*
X42800000Y11400000D02*
X42800000Y11600000D01*
D24*
X42800000Y11600000D02*
X43000000Y11600000D01*
D24*
X43000000Y11600000D02*
X43000000Y11800000D01*
D24*
X43000000Y11800000D02*
X43200000Y11800000D01*
D24*
X43200000Y11800000D02*
X43200000Y12000000D01*
D24*
X43200000Y12000000D02*
X43400000Y12000000D01*
D24*
X43400000Y12000000D02*
X43400000Y12200000D01*
D24*
X43400000Y12200000D02*
X43600000Y12200000D01*
D24*
X43600000Y12200000D02*
X43600000Y13000000D01*
D24*
X43600000Y13000000D02*
X44600000Y13000000D01*
D24*
X44600000Y13000000D02*
X44540000Y13000000D01*
D25*
X17200000Y20000000D02*
X17200000Y17200000D01*
D25*
X29200000Y14800000D02*
X29200000Y20000000D01*
D25*
X29200000Y20000000D02*
X29200000Y14800000D01*
D25*
X58000000Y38800000D02*
X58000000Y42000000D01*
D25*
X62000000Y44800000D02*
X62050000Y44900000D01*
D25*
X62050000Y44900000D02*
X62000000Y44800000D01*
D25*
X64000000Y44800000D02*
X63950000Y44900000D01*
D25*
X62050000Y44900000D02*
X62000000Y44800000D01*
D25*
X62000000Y44800000D02*
X60000000Y44800000D01*
D25*
X60000000Y44800000D02*
X60000000Y46200000D01*
D25*
X60000000Y46200000D02*
X57400000Y46200000D01*
D25*
X57400000Y46200000D02*
X57400000Y46400000D01*
D25*
X57400000Y46400000D02*
X57200000Y46400000D01*
D25*
X57200000Y46400000D02*
X57200000Y46600000D01*
D25*
X57200000Y46600000D02*
X57000000Y46600000D01*
D25*
X57000000Y46600000D02*
X57000000Y48800000D01*
D25*
X57000000Y48800000D02*
X56800000Y48800000D01*
D25*
X56800000Y48800000D02*
X56800000Y51200000D01*
D25*
X56800000Y51200000D02*
X57200000Y51200000D01*
D25*
X57200000Y51200000D02*
X57200000Y51400000D01*
D25*
X57200000Y51400000D02*
X58800000Y51400000D01*
D25*
X58800000Y51400000D02*
X58800000Y51200000D01*
D25*
X58800000Y51200000D02*
X59200000Y51200000D01*
D25*
X59200000Y51200000D02*
X59200000Y50000000D01*
D25*
X59200000Y50000000D02*
X60000000Y50000000D01*
D25*
X60000000Y50000000D02*
X59200000Y50000000D01*
D25*
X59200000Y50000000D02*
X59200000Y51200000D01*
D25*
X59200000Y51200000D02*
X58800000Y51200000D01*
D25*
X58800000Y51200000D02*
X58800000Y51400000D01*
D25*
X58800000Y51400000D02*
X55000000Y51400000D01*
D25*
X55000000Y51400000D02*
X55000000Y55000000D01*
D25*
X55000000Y55000000D02*
X55000000Y58400000D01*
D25*
X55000000Y58400000D02*
X55200000Y58400000D01*
D25*
X55200000Y58400000D02*
X55200000Y58600000D01*
D25*
X55200000Y58600000D02*
X55400000Y58600000D01*
D25*
X55400000Y58600000D02*
X55400000Y58800000D01*
D25*
X55400000Y58800000D02*
X55600000Y58800000D01*
D25*
X55600000Y58800000D02*
X55600000Y59000000D01*
D25*
X55600000Y59000000D02*
X55800000Y59000000D01*
D25*
X55800000Y59000000D02*
X55800000Y59200000D01*
D25*
X55800000Y59200000D02*
X56000000Y59200000D01*
D25*
X56000000Y59200000D02*
X56000000Y59400000D01*
D25*
X56000000Y59400000D02*
X56200000Y59400000D01*
D25*
X56200000Y59400000D02*
X56200000Y59600000D01*
D25*
X56200000Y59600000D02*
X56400000Y59600000D01*
D25*
X56400000Y59600000D02*
X56400000Y60800000D01*
D25*
X56400000Y60800000D02*
X56600000Y60800000D01*
D25*
X51400000Y69800000D02*
X51400000Y61600000D01*
D25*
X51400000Y61600000D02*
X53000000Y61600000D01*
D25*
X53000000Y61600000D02*
X53000000Y61500000D01*
D25*
X53000000Y61500000D02*
X53000000Y61600000D01*
D25*
X53000000Y61600000D02*
X53000000Y62400000D01*
D25*
X53000000Y62400000D02*
X52400000Y62400000D01*
D25*
X52400000Y62400000D02*
X52400000Y62600000D01*
D25*
X52400000Y62600000D02*
X52000000Y62600000D01*
D25*
X52000000Y62600000D02*
X52000000Y62800000D01*
D25*
X52000000Y62800000D02*
X51800000Y62800000D01*
D25*
X51800000Y62800000D02*
X51800000Y63000000D01*
D25*
X51800000Y63000000D02*
X51600000Y63000000D01*
D25*
X51600000Y63000000D02*
X51600000Y63400000D01*
D25*
X51600000Y63400000D02*
X51400000Y63400000D01*
D25*
X51400000Y63400000D02*
X51400000Y71600000D01*
D25*
X51400000Y71600000D02*
X53000000Y71600000D01*
D25*
X53000000Y71600000D02*
X53000000Y71500000D01*
D25*
X63950000Y44900000D02*
X64000000Y44800000D01*
D25*
X82000000Y41800000D02*
X82000000Y36000000D01*
D25*
X82000000Y36000000D02*
X82000000Y43600000D01*
D25*
X82000000Y43600000D02*
X92000000Y43600000D01*
D25*
X92000000Y43600000D02*
X92000000Y43500000D01*
D25*
X53000000Y71500000D02*
X53000000Y71600000D01*
D25*
X53000000Y71600000D02*
X38400000Y71600000D01*
D25*
X38400000Y71600000D02*
X38400000Y72000000D01*
D25*
X38400000Y72000000D02*
X38200000Y72000000D01*
D25*
X38200000Y72000000D02*
X38200000Y72400000D01*
D25*
X38200000Y72400000D02*
X38000000Y72400000D01*
D25*
X38000000Y72400000D02*
X38000000Y72600000D01*
D25*
X38000000Y72600000D02*
X37800000Y72600000D01*
D25*
X37800000Y72600000D02*
X37800000Y72800000D01*
D25*
X37800000Y72800000D02*
X37400000Y72800000D01*
D25*
X37400000Y72800000D02*
X37400000Y73000000D01*
D25*
X37400000Y73000000D02*
X36800000Y73000000D01*
D25*
X36800000Y73000000D02*
X36800000Y74000000D01*
D25*
X36800000Y74000000D02*
X36860000Y74000000D01*
D25*
X94600000Y72400000D02*
X92000000Y72400000D01*
D25*
X92000000Y72400000D02*
X92000000Y72500000D01*
D26*
X14000000Y74000000D02*
X14000000Y71400000D01*
D26*
X14000000Y71400000D02*
X14000000Y71460000D01*
D26*
X56000000Y36800000D02*
X56000000Y40800000D01*
D26*
X56000000Y40800000D02*
X57000000Y40800000D01*
D26*
X57000000Y52400000D02*
X57000000Y59000000D01*
D26*
X57000000Y59000000D02*
X57200000Y59000000D01*
D26*
X57200000Y59000000D02*
X57200000Y60200000D01*
D26*
X57200000Y60200000D02*
X57400000Y60200000D01*
D26*
X57400000Y60200000D02*
X57400000Y60400000D01*
D26*
X57400000Y60400000D02*
X57600000Y60400000D01*
D26*
X57600000Y60400000D02*
X57600000Y60800000D01*
D26*
X57600000Y60800000D02*
X57800000Y60800000D01*
D26*
X57800000Y60800000D02*
X57600000Y60800000D01*
D26*
X57600000Y60800000D02*
X57600000Y60400000D01*
D26*
X57600000Y60400000D02*
X57400000Y60400000D01*
D26*
X57400000Y60400000D02*
X57400000Y60200000D01*
D26*
X57400000Y60200000D02*
X57200000Y60200000D01*
D26*
X57200000Y60200000D02*
X57200000Y59000000D01*
D26*
X57200000Y59000000D02*
X57000000Y59000000D01*
D26*
X57000000Y59000000D02*
X57000000Y58800000D01*
D26*
X57000000Y58800000D02*
X56800000Y58800000D01*
D26*
X56800000Y58800000D02*
X56800000Y58600000D01*
D26*
X56800000Y58600000D02*
X56600000Y58600000D01*
D26*
X56600000Y58600000D02*
X56600000Y58400000D01*
D26*
X56600000Y58400000D02*
X56400000Y58400000D01*
D26*
X56400000Y58400000D02*
X56400000Y58200000D01*
D26*
X56400000Y58200000D02*
X56200000Y58200000D01*
D26*
X56200000Y58200000D02*
X56200000Y58000000D01*
D26*
X56200000Y58000000D02*
X56000000Y58000000D01*
D26*
X56000000Y58000000D02*
X56000000Y57800000D01*
D26*
X54000000Y57800000D02*
X53000000Y57800000D01*
D26*
X53000000Y57800000D02*
X53000000Y55000000D01*
D26*
X53000000Y55000000D02*
X46000000Y55000000D01*
D26*
X46000000Y55000000D02*
X46000000Y54000000D01*
D26*
X46000000Y41200000D02*
X46000000Y38000000D01*
D26*
X46000000Y38000000D02*
X46200000Y38000000D01*
D26*
X46200000Y38000000D02*
X46200000Y37000000D01*
D26*
X46200000Y37000000D02*
X47000000Y37000000D01*
D26*
X47000000Y37000000D02*
X47000000Y36600000D01*
D26*
X47000000Y34000000D02*
X47000000Y32000000D01*
M02*
