G04 Aether Orb Rev A; independently CAM-review before ordering*
%FSLAX46Y46*%
%MOMM*%
%TF.FileFunction,Legend,Top*%
%TF.FilePolarity,Positive*%
%LPD*%
%ADD10C,0.125714*%
%ADD11C,0.100000*%
D10*
X47157143Y87000000D02*
X47204286Y87000000D01*
D10*
X47314286Y87000000D02*
X47361429Y87000000D01*
D10*
X47471429Y87000000D02*
X47518571Y87000000D01*
D10*
X47000000Y86842857D02*
X47047143Y86842857D01*
D10*
X47628571Y86842857D02*
X47675714Y86842857D01*
D10*
X47000000Y86685714D02*
X47047143Y86685714D01*
D10*
X47628571Y86685714D02*
X47675714Y86685714D01*
D10*
X47000000Y86528571D02*
X47047143Y86528571D01*
D10*
X47157143Y86528571D02*
X47204286Y86528571D01*
D10*
X47314286Y86528571D02*
X47361429Y86528571D01*
D10*
X47471429Y86528571D02*
X47518571Y86528571D01*
D10*
X47628571Y86528571D02*
X47675714Y86528571D01*
D10*
X47000000Y86371429D02*
X47047143Y86371429D01*
D10*
X47628571Y86371429D02*
X47675714Y86371429D01*
D10*
X47000000Y86214286D02*
X47047143Y86214286D01*
D10*
X47628571Y86214286D02*
X47675714Y86214286D01*
D10*
X47000000Y86057143D02*
X47047143Y86057143D01*
D10*
X47628571Y86057143D02*
X47675714Y86057143D01*
D10*
X47942857Y87000000D02*
X47990000Y87000000D01*
D10*
X48100000Y87000000D02*
X48147143Y87000000D01*
D10*
X48257143Y87000000D02*
X48304286Y87000000D01*
D10*
X48414286Y87000000D02*
X48461429Y87000000D01*
D10*
X48571429Y87000000D02*
X48618571Y87000000D01*
D10*
X47942857Y86842857D02*
X47990000Y86842857D01*
D10*
X47942857Y86685714D02*
X47990000Y86685714D01*
D10*
X47942857Y86528571D02*
X47990000Y86528571D01*
D10*
X48100000Y86528571D02*
X48147143Y86528571D01*
D10*
X48257143Y86528571D02*
X48304286Y86528571D01*
D10*
X48414286Y86528571D02*
X48461429Y86528571D01*
D10*
X47942857Y86371429D02*
X47990000Y86371429D01*
D10*
X47942857Y86214286D02*
X47990000Y86214286D01*
D10*
X47942857Y86057143D02*
X47990000Y86057143D01*
D10*
X48100000Y86057143D02*
X48147143Y86057143D01*
D10*
X48257143Y86057143D02*
X48304286Y86057143D01*
D10*
X48414286Y86057143D02*
X48461429Y86057143D01*
D10*
X48571429Y86057143D02*
X48618571Y86057143D01*
D10*
X48885714Y87000000D02*
X48932857Y87000000D01*
D10*
X49042857Y87000000D02*
X49090000Y87000000D01*
D10*
X49200000Y87000000D02*
X49247143Y87000000D01*
D10*
X49357143Y87000000D02*
X49404286Y87000000D01*
D10*
X49514286Y87000000D02*
X49561429Y87000000D01*
D10*
X49200000Y86842857D02*
X49247143Y86842857D01*
D10*
X49200000Y86685714D02*
X49247143Y86685714D01*
D10*
X49200000Y86528571D02*
X49247143Y86528571D01*
D10*
X49200000Y86371429D02*
X49247143Y86371429D01*
D10*
X49200000Y86214286D02*
X49247143Y86214286D01*
D10*
X49200000Y86057143D02*
X49247143Y86057143D01*
D10*
X49828571Y87000000D02*
X49875714Y87000000D01*
D10*
X50457143Y87000000D02*
X50504286Y87000000D01*
D10*
X49828571Y86842857D02*
X49875714Y86842857D01*
D10*
X50457143Y86842857D02*
X50504286Y86842857D01*
D10*
X49828571Y86685714D02*
X49875714Y86685714D01*
D10*
X50457143Y86685714D02*
X50504286Y86685714D01*
D10*
X49828571Y86528571D02*
X49875714Y86528571D01*
D10*
X49985714Y86528571D02*
X50032857Y86528571D01*
D10*
X50142857Y86528571D02*
X50190000Y86528571D01*
D10*
X50300000Y86528571D02*
X50347143Y86528571D01*
D10*
X50457143Y86528571D02*
X50504286Y86528571D01*
D10*
X49828571Y86371429D02*
X49875714Y86371429D01*
D10*
X50457143Y86371429D02*
X50504286Y86371429D01*
D10*
X49828571Y86214286D02*
X49875714Y86214286D01*
D10*
X50457143Y86214286D02*
X50504286Y86214286D01*
D10*
X49828571Y86057143D02*
X49875714Y86057143D01*
D10*
X50457143Y86057143D02*
X50504286Y86057143D01*
D10*
X50771429Y87000000D02*
X50818571Y87000000D01*
D10*
X50928571Y87000000D02*
X50975714Y87000000D01*
D10*
X51085714Y87000000D02*
X51132857Y87000000D01*
D10*
X51242857Y87000000D02*
X51290000Y87000000D01*
D10*
X51400000Y87000000D02*
X51447143Y87000000D01*
D10*
X50771429Y86842857D02*
X50818571Y86842857D01*
D10*
X50771429Y86685714D02*
X50818571Y86685714D01*
D10*
X50771429Y86528571D02*
X50818571Y86528571D01*
D10*
X50928571Y86528571D02*
X50975714Y86528571D01*
D10*
X51085714Y86528571D02*
X51132857Y86528571D01*
D10*
X51242857Y86528571D02*
X51290000Y86528571D01*
D10*
X50771429Y86371429D02*
X50818571Y86371429D01*
D10*
X50771429Y86214286D02*
X50818571Y86214286D01*
D10*
X50771429Y86057143D02*
X50818571Y86057143D01*
D10*
X50928571Y86057143D02*
X50975714Y86057143D01*
D10*
X51085714Y86057143D02*
X51132857Y86057143D01*
D10*
X51242857Y86057143D02*
X51290000Y86057143D01*
D10*
X51400000Y86057143D02*
X51447143Y86057143D01*
D10*
X51714286Y87000000D02*
X51761429Y87000000D01*
D10*
X51871429Y87000000D02*
X51918571Y87000000D01*
D10*
X52028571Y87000000D02*
X52075714Y87000000D01*
D10*
X52185714Y87000000D02*
X52232857Y87000000D01*
D10*
X51714286Y86842857D02*
X51761429Y86842857D01*
D10*
X52342857Y86842857D02*
X52390000Y86842857D01*
D10*
X51714286Y86685714D02*
X51761429Y86685714D01*
D10*
X52342857Y86685714D02*
X52390000Y86685714D01*
D10*
X51714286Y86528571D02*
X51761429Y86528571D01*
D10*
X51871429Y86528571D02*
X51918571Y86528571D01*
D10*
X52028571Y86528571D02*
X52075714Y86528571D01*
D10*
X52185714Y86528571D02*
X52232857Y86528571D01*
D10*
X51714286Y86371429D02*
X51761429Y86371429D01*
D10*
X52028571Y86371429D02*
X52075714Y86371429D01*
D10*
X51714286Y86214286D02*
X51761429Y86214286D01*
D10*
X52185714Y86214286D02*
X52232857Y86214286D01*
D10*
X51714286Y86057143D02*
X51761429Y86057143D01*
D10*
X52342857Y86057143D02*
X52390000Y86057143D01*
D10*
X53757143Y87000000D02*
X53804286Y87000000D01*
D10*
X53914286Y87000000D02*
X53961429Y87000000D01*
D10*
X54071429Y87000000D02*
X54118571Y87000000D01*
D10*
X53600000Y86842857D02*
X53647143Y86842857D01*
D10*
X54228571Y86842857D02*
X54275714Y86842857D01*
D10*
X53600000Y86685714D02*
X53647143Y86685714D01*
D10*
X54228571Y86685714D02*
X54275714Y86685714D01*
D10*
X53600000Y86528571D02*
X53647143Y86528571D01*
D10*
X54228571Y86528571D02*
X54275714Y86528571D01*
D10*
X53600000Y86371429D02*
X53647143Y86371429D01*
D10*
X54228571Y86371429D02*
X54275714Y86371429D01*
D10*
X53600000Y86214286D02*
X53647143Y86214286D01*
D10*
X54228571Y86214286D02*
X54275714Y86214286D01*
D10*
X53757143Y86057143D02*
X53804286Y86057143D01*
D10*
X53914286Y86057143D02*
X53961429Y86057143D01*
D10*
X54071429Y86057143D02*
X54118571Y86057143D01*
D10*
X54542857Y87000000D02*
X54590000Y87000000D01*
D10*
X54700000Y87000000D02*
X54747143Y87000000D01*
D10*
X54857143Y87000000D02*
X54904286Y87000000D01*
D10*
X55014286Y87000000D02*
X55061429Y87000000D01*
D10*
X54542857Y86842857D02*
X54590000Y86842857D01*
D10*
X55171429Y86842857D02*
X55218571Y86842857D01*
D10*
X54542857Y86685714D02*
X54590000Y86685714D01*
D10*
X55171429Y86685714D02*
X55218571Y86685714D01*
D10*
X54542857Y86528571D02*
X54590000Y86528571D01*
D10*
X54700000Y86528571D02*
X54747143Y86528571D01*
D10*
X54857143Y86528571D02*
X54904286Y86528571D01*
D10*
X55014286Y86528571D02*
X55061429Y86528571D01*
D10*
X54542857Y86371429D02*
X54590000Y86371429D01*
D10*
X54857143Y86371429D02*
X54904286Y86371429D01*
D10*
X54542857Y86214286D02*
X54590000Y86214286D01*
D10*
X55014286Y86214286D02*
X55061429Y86214286D01*
D10*
X54542857Y86057143D02*
X54590000Y86057143D01*
D10*
X55171429Y86057143D02*
X55218571Y86057143D01*
D10*
X55485714Y87000000D02*
X55532857Y87000000D01*
D10*
X55642857Y87000000D02*
X55690000Y87000000D01*
D10*
X55800000Y87000000D02*
X55847143Y87000000D01*
D10*
X55957143Y87000000D02*
X56004286Y87000000D01*
D10*
X55485714Y86842857D02*
X55532857Y86842857D01*
D10*
X56114286Y86842857D02*
X56161429Y86842857D01*
D10*
X55485714Y86685714D02*
X55532857Y86685714D01*
D10*
X56114286Y86685714D02*
X56161429Y86685714D01*
D10*
X55485714Y86528571D02*
X55532857Y86528571D01*
D10*
X55642857Y86528571D02*
X55690000Y86528571D01*
D10*
X55800000Y86528571D02*
X55847143Y86528571D01*
D10*
X55957143Y86528571D02*
X56004286Y86528571D01*
D10*
X55485714Y86371429D02*
X55532857Y86371429D01*
D10*
X56114286Y86371429D02*
X56161429Y86371429D01*
D10*
X55485714Y86214286D02*
X55532857Y86214286D01*
D10*
X56114286Y86214286D02*
X56161429Y86214286D01*
D10*
X55485714Y86057143D02*
X55532857Y86057143D01*
D10*
X55642857Y86057143D02*
X55690000Y86057143D01*
D10*
X55800000Y86057143D02*
X55847143Y86057143D01*
D10*
X55957143Y86057143D02*
X56004286Y86057143D01*
D10*
X57371429Y87000000D02*
X57418571Y87000000D01*
D10*
X57528571Y87000000D02*
X57575714Y87000000D01*
D10*
X57685714Y87000000D02*
X57732857Y87000000D01*
D10*
X57842857Y87000000D02*
X57890000Y87000000D01*
D10*
X57371429Y86842857D02*
X57418571Y86842857D01*
D10*
X58000000Y86842857D02*
X58047143Y86842857D01*
D10*
X57371429Y86685714D02*
X57418571Y86685714D01*
D10*
X58000000Y86685714D02*
X58047143Y86685714D01*
D10*
X57371429Y86528571D02*
X57418571Y86528571D01*
D10*
X57528571Y86528571D02*
X57575714Y86528571D01*
D10*
X57685714Y86528571D02*
X57732857Y86528571D01*
D10*
X57842857Y86528571D02*
X57890000Y86528571D01*
D10*
X57371429Y86371429D02*
X57418571Y86371429D01*
D10*
X57685714Y86371429D02*
X57732857Y86371429D01*
D10*
X57371429Y86214286D02*
X57418571Y86214286D01*
D10*
X57842857Y86214286D02*
X57890000Y86214286D01*
D10*
X57371429Y86057143D02*
X57418571Y86057143D01*
D10*
X58000000Y86057143D02*
X58047143Y86057143D01*
D10*
X58314286Y87000000D02*
X58361429Y87000000D01*
D10*
X58471429Y87000000D02*
X58518571Y87000000D01*
D10*
X58628571Y87000000D02*
X58675714Y87000000D01*
D10*
X58785714Y87000000D02*
X58832857Y87000000D01*
D10*
X58942857Y87000000D02*
X58990000Y87000000D01*
D10*
X58314286Y86842857D02*
X58361429Y86842857D01*
D10*
X58314286Y86685714D02*
X58361429Y86685714D01*
D10*
X58314286Y86528571D02*
X58361429Y86528571D01*
D10*
X58471429Y86528571D02*
X58518571Y86528571D01*
D10*
X58628571Y86528571D02*
X58675714Y86528571D01*
D10*
X58785714Y86528571D02*
X58832857Y86528571D01*
D10*
X58314286Y86371429D02*
X58361429Y86371429D01*
D10*
X58314286Y86214286D02*
X58361429Y86214286D01*
D10*
X58314286Y86057143D02*
X58361429Y86057143D01*
D10*
X58471429Y86057143D02*
X58518571Y86057143D01*
D10*
X58628571Y86057143D02*
X58675714Y86057143D01*
D10*
X58785714Y86057143D02*
X58832857Y86057143D01*
D10*
X58942857Y86057143D02*
X58990000Y86057143D01*
D10*
X59257143Y87000000D02*
X59304286Y87000000D01*
D10*
X59885714Y87000000D02*
X59932857Y87000000D01*
D10*
X59257143Y86842857D02*
X59304286Y86842857D01*
D10*
X59885714Y86842857D02*
X59932857Y86842857D01*
D10*
X59257143Y86685714D02*
X59304286Y86685714D01*
D10*
X59885714Y86685714D02*
X59932857Y86685714D01*
D10*
X59257143Y86528571D02*
X59304286Y86528571D01*
D10*
X59885714Y86528571D02*
X59932857Y86528571D01*
D10*
X59257143Y86371429D02*
X59304286Y86371429D01*
D10*
X59885714Y86371429D02*
X59932857Y86371429D01*
D10*
X59414286Y86214286D02*
X59461429Y86214286D01*
D10*
X59728571Y86214286D02*
X59775714Y86214286D01*
D10*
X59571429Y86057143D02*
X59618571Y86057143D01*
D10*
X61300000Y87000000D02*
X61347143Y87000000D01*
D10*
X61457143Y87000000D02*
X61504286Y87000000D01*
D10*
X61614286Y87000000D02*
X61661429Y87000000D01*
D10*
X61142857Y86842857D02*
X61190000Y86842857D01*
D10*
X61771429Y86842857D02*
X61818571Y86842857D01*
D10*
X61142857Y86685714D02*
X61190000Y86685714D01*
D10*
X61771429Y86685714D02*
X61818571Y86685714D01*
D10*
X61142857Y86528571D02*
X61190000Y86528571D01*
D10*
X61300000Y86528571D02*
X61347143Y86528571D01*
D10*
X61457143Y86528571D02*
X61504286Y86528571D01*
D10*
X61614286Y86528571D02*
X61661429Y86528571D01*
D10*
X61771429Y86528571D02*
X61818571Y86528571D01*
D10*
X61142857Y86371429D02*
X61190000Y86371429D01*
D10*
X61771429Y86371429D02*
X61818571Y86371429D01*
D10*
X61142857Y86214286D02*
X61190000Y86214286D01*
D10*
X61771429Y86214286D02*
X61818571Y86214286D01*
D10*
X61142857Y86057143D02*
X61190000Y86057143D01*
D10*
X61771429Y86057143D02*
X61818571Y86057143D01*
D11*
X47000000Y83000000D02*
X47034286Y83000000D01*
D11*
X47114286Y83000000D02*
X47148571Y83000000D01*
D11*
X47228571Y83000000D02*
X47262857Y83000000D01*
D11*
X47342857Y83000000D02*
X47377143Y83000000D01*
D11*
X47457143Y83000000D02*
X47491429Y83000000D01*
D11*
X47000000Y82885714D02*
X47034286Y82885714D01*
D11*
X47000000Y82771429D02*
X47034286Y82771429D01*
D11*
X47000000Y82657143D02*
X47034286Y82657143D01*
D11*
X47114286Y82657143D02*
X47148571Y82657143D01*
D11*
X47228571Y82657143D02*
X47262857Y82657143D01*
D11*
X47342857Y82657143D02*
X47377143Y82657143D01*
D11*
X47457143Y82542857D02*
X47491429Y82542857D01*
D11*
X47457143Y82428571D02*
X47491429Y82428571D01*
D11*
X47000000Y82314286D02*
X47034286Y82314286D01*
D11*
X47114286Y82314286D02*
X47148571Y82314286D01*
D11*
X47228571Y82314286D02*
X47262857Y82314286D01*
D11*
X47342857Y82314286D02*
X47377143Y82314286D01*
D11*
X47685714Y83000000D02*
X47720000Y83000000D01*
D11*
X48142857Y83000000D02*
X48177143Y83000000D01*
D11*
X47685714Y82885714D02*
X47720000Y82885714D01*
D11*
X48142857Y82885714D02*
X48177143Y82885714D01*
D11*
X47685714Y82771429D02*
X47720000Y82771429D01*
D11*
X48142857Y82771429D02*
X48177143Y82771429D01*
D11*
X47685714Y82657143D02*
X47720000Y82657143D01*
D11*
X48142857Y82657143D02*
X48177143Y82657143D01*
D11*
X47685714Y82542857D02*
X47720000Y82542857D01*
D11*
X48142857Y82542857D02*
X48177143Y82542857D01*
D11*
X47800000Y82428571D02*
X47834286Y82428571D01*
D11*
X48028571Y82428571D02*
X48062857Y82428571D01*
D11*
X47914286Y82314286D02*
X47948571Y82314286D01*
D11*
X49171429Y83000000D02*
X49205714Y83000000D01*
D11*
X49285714Y83000000D02*
X49320000Y83000000D01*
D11*
X49400000Y83000000D02*
X49434286Y83000000D01*
D11*
X49057143Y82885714D02*
X49091429Y82885714D01*
D11*
X49514286Y82885714D02*
X49548571Y82885714D01*
D11*
X49057143Y82771429D02*
X49091429Y82771429D01*
D11*
X49514286Y82771429D02*
X49548571Y82771429D01*
D11*
X49057143Y82657143D02*
X49091429Y82657143D01*
D11*
X49514286Y82657143D02*
X49548571Y82657143D01*
D11*
X49057143Y82542857D02*
X49091429Y82542857D01*
D11*
X49514286Y82542857D02*
X49548571Y82542857D01*
D11*
X49057143Y82428571D02*
X49091429Y82428571D01*
D11*
X49514286Y82428571D02*
X49548571Y82428571D01*
D11*
X49171429Y82314286D02*
X49205714Y82314286D01*
D11*
X49285714Y82314286D02*
X49320000Y82314286D01*
D11*
X49400000Y82314286D02*
X49434286Y82314286D01*
D11*
X49742857Y83000000D02*
X49777143Y83000000D01*
D11*
X50200000Y83000000D02*
X50234286Y83000000D01*
D11*
X49742857Y82885714D02*
X49777143Y82885714D01*
D11*
X49857143Y82885714D02*
X49891429Y82885714D01*
D11*
X50200000Y82885714D02*
X50234286Y82885714D01*
D11*
X49742857Y82771429D02*
X49777143Y82771429D01*
D11*
X49971429Y82771429D02*
X50005714Y82771429D01*
D11*
X50200000Y82771429D02*
X50234286Y82771429D01*
D11*
X49742857Y82657143D02*
X49777143Y82657143D01*
D11*
X50085714Y82657143D02*
X50120000Y82657143D01*
D11*
X50200000Y82657143D02*
X50234286Y82657143D01*
D11*
X49742857Y82542857D02*
X49777143Y82542857D01*
D11*
X50200000Y82542857D02*
X50234286Y82542857D01*
D11*
X49742857Y82428571D02*
X49777143Y82428571D01*
D11*
X50200000Y82428571D02*
X50234286Y82428571D01*
D11*
X49742857Y82314286D02*
X49777143Y82314286D01*
D11*
X50200000Y82314286D02*
X50234286Y82314286D01*
D11*
X50428571Y83000000D02*
X50462857Y83000000D01*
D11*
X50428571Y82885714D02*
X50462857Y82885714D01*
D11*
X50428571Y82771429D02*
X50462857Y82771429D01*
D11*
X50428571Y82657143D02*
X50462857Y82657143D01*
D11*
X50428571Y82542857D02*
X50462857Y82542857D01*
D11*
X50428571Y82428571D02*
X50462857Y82428571D01*
D11*
X50428571Y82314286D02*
X50462857Y82314286D01*
D11*
X50542857Y82314286D02*
X50577143Y82314286D01*
D11*
X50657143Y82314286D02*
X50691429Y82314286D01*
D11*
X50771429Y82314286D02*
X50805714Y82314286D01*
D11*
X50885714Y82314286D02*
X50920000Y82314286D01*
D11*
X51114286Y83000000D02*
X51148571Y83000000D01*
D11*
X51571429Y83000000D02*
X51605714Y83000000D01*
D11*
X51114286Y82885714D02*
X51148571Y82885714D01*
D11*
X51571429Y82885714D02*
X51605714Y82885714D01*
D11*
X51228571Y82771429D02*
X51262857Y82771429D01*
D11*
X51457143Y82771429D02*
X51491429Y82771429D01*
D11*
X51342857Y82657143D02*
X51377143Y82657143D01*
D11*
X51342857Y82542857D02*
X51377143Y82542857D01*
D11*
X51342857Y82428571D02*
X51377143Y82428571D01*
D11*
X51342857Y82314286D02*
X51377143Y82314286D01*
D11*
X52485714Y83000000D02*
X52520000Y83000000D01*
D11*
X52600000Y83000000D02*
X52634286Y83000000D01*
D11*
X52714286Y83000000D02*
X52748571Y83000000D01*
D11*
X52828571Y83000000D02*
X52862857Y83000000D01*
D11*
X52485714Y82885714D02*
X52520000Y82885714D01*
D11*
X52942857Y82885714D02*
X52977143Y82885714D01*
D11*
X52485714Y82771429D02*
X52520000Y82771429D01*
D11*
X52942857Y82771429D02*
X52977143Y82771429D01*
D11*
X52485714Y82657143D02*
X52520000Y82657143D01*
D11*
X52600000Y82657143D02*
X52634286Y82657143D01*
D11*
X52714286Y82657143D02*
X52748571Y82657143D01*
D11*
X52828571Y82657143D02*
X52862857Y82657143D01*
D11*
X52485714Y82542857D02*
X52520000Y82542857D01*
D11*
X52485714Y82428571D02*
X52520000Y82428571D01*
D11*
X52485714Y82314286D02*
X52520000Y82314286D01*
D11*
X53171429Y83000000D02*
X53205714Y83000000D01*
D11*
X53285714Y83000000D02*
X53320000Y83000000D01*
D11*
X53400000Y83000000D02*
X53434286Y83000000D01*
D11*
X53514286Y83000000D02*
X53548571Y83000000D01*
D11*
X53171429Y82885714D02*
X53205714Y82885714D01*
D11*
X53628571Y82885714D02*
X53662857Y82885714D01*
D11*
X53171429Y82771429D02*
X53205714Y82771429D01*
D11*
X53628571Y82771429D02*
X53662857Y82771429D01*
D11*
X53171429Y82657143D02*
X53205714Y82657143D01*
D11*
X53285714Y82657143D02*
X53320000Y82657143D01*
D11*
X53400000Y82657143D02*
X53434286Y82657143D01*
D11*
X53514286Y82657143D02*
X53548571Y82657143D01*
D11*
X53171429Y82542857D02*
X53205714Y82542857D01*
D11*
X53400000Y82542857D02*
X53434286Y82542857D01*
D11*
X53171429Y82428571D02*
X53205714Y82428571D01*
D11*
X53514286Y82428571D02*
X53548571Y82428571D01*
D11*
X53171429Y82314286D02*
X53205714Y82314286D01*
D11*
X53628571Y82314286D02*
X53662857Y82314286D01*
D11*
X53971429Y83000000D02*
X54005714Y83000000D01*
D11*
X54085714Y83000000D02*
X54120000Y83000000D01*
D11*
X54200000Y83000000D02*
X54234286Y83000000D01*
D11*
X53857143Y82885714D02*
X53891429Y82885714D01*
D11*
X54314286Y82885714D02*
X54348571Y82885714D01*
D11*
X53857143Y82771429D02*
X53891429Y82771429D01*
D11*
X54314286Y82771429D02*
X54348571Y82771429D01*
D11*
X53857143Y82657143D02*
X53891429Y82657143D01*
D11*
X54314286Y82657143D02*
X54348571Y82657143D01*
D11*
X53857143Y82542857D02*
X53891429Y82542857D01*
D11*
X54314286Y82542857D02*
X54348571Y82542857D01*
D11*
X53857143Y82428571D02*
X53891429Y82428571D01*
D11*
X54314286Y82428571D02*
X54348571Y82428571D01*
D11*
X53971429Y82314286D02*
X54005714Y82314286D01*
D11*
X54085714Y82314286D02*
X54120000Y82314286D01*
D11*
X54200000Y82314286D02*
X54234286Y82314286D01*
D11*
X54542857Y83000000D02*
X54577143Y83000000D01*
D11*
X54657143Y83000000D02*
X54691429Y83000000D01*
D11*
X54771429Y83000000D02*
X54805714Y83000000D01*
D11*
X54885714Y83000000D02*
X54920000Y83000000D01*
D11*
X55000000Y83000000D02*
X55034286Y83000000D01*
D11*
X54771429Y82885714D02*
X54805714Y82885714D01*
D11*
X54771429Y82771429D02*
X54805714Y82771429D01*
D11*
X54771429Y82657143D02*
X54805714Y82657143D01*
D11*
X54771429Y82542857D02*
X54805714Y82542857D01*
D11*
X54771429Y82428571D02*
X54805714Y82428571D01*
D11*
X54771429Y82314286D02*
X54805714Y82314286D01*
D11*
X55342857Y83000000D02*
X55377143Y83000000D01*
D11*
X55457143Y83000000D02*
X55491429Y83000000D01*
D11*
X55571429Y83000000D02*
X55605714Y83000000D01*
D11*
X55228571Y82885714D02*
X55262857Y82885714D01*
D11*
X55685714Y82885714D02*
X55720000Y82885714D01*
D11*
X55228571Y82771429D02*
X55262857Y82771429D01*
D11*
X55685714Y82771429D02*
X55720000Y82771429D01*
D11*
X55228571Y82657143D02*
X55262857Y82657143D01*
D11*
X55685714Y82657143D02*
X55720000Y82657143D01*
D11*
X55228571Y82542857D02*
X55262857Y82542857D01*
D11*
X55685714Y82542857D02*
X55720000Y82542857D01*
D11*
X55228571Y82428571D02*
X55262857Y82428571D01*
D11*
X55685714Y82428571D02*
X55720000Y82428571D01*
D11*
X55342857Y82314286D02*
X55377143Y82314286D01*
D11*
X55457143Y82314286D02*
X55491429Y82314286D01*
D11*
X55571429Y82314286D02*
X55605714Y82314286D01*
D11*
X55914286Y83000000D02*
X55948571Y83000000D01*
D11*
X56028571Y83000000D02*
X56062857Y83000000D01*
D11*
X56142857Y83000000D02*
X56177143Y83000000D01*
D11*
X56257143Y83000000D02*
X56291429Y83000000D01*
D11*
X56371429Y83000000D02*
X56405714Y83000000D01*
D11*
X56142857Y82885714D02*
X56177143Y82885714D01*
D11*
X56142857Y82771429D02*
X56177143Y82771429D01*
D11*
X56142857Y82657143D02*
X56177143Y82657143D01*
D11*
X56142857Y82542857D02*
X56177143Y82542857D01*
D11*
X56142857Y82428571D02*
X56177143Y82428571D01*
D11*
X56142857Y82314286D02*
X56177143Y82314286D01*
D11*
X56600000Y83000000D02*
X56634286Y83000000D01*
D11*
X57057143Y83000000D02*
X57091429Y83000000D01*
D11*
X56600000Y82885714D02*
X56634286Y82885714D01*
D11*
X57057143Y82885714D02*
X57091429Y82885714D01*
D11*
X56714286Y82771429D02*
X56748571Y82771429D01*
D11*
X56942857Y82771429D02*
X56977143Y82771429D01*
D11*
X56828571Y82657143D02*
X56862857Y82657143D01*
D11*
X56828571Y82542857D02*
X56862857Y82542857D01*
D11*
X56828571Y82428571D02*
X56862857Y82428571D01*
D11*
X56828571Y82314286D02*
X56862857Y82314286D01*
D11*
X57285714Y83000000D02*
X57320000Y83000000D01*
D11*
X57400000Y83000000D02*
X57434286Y83000000D01*
D11*
X57514286Y83000000D02*
X57548571Y83000000D01*
D11*
X57628571Y83000000D02*
X57662857Y83000000D01*
D11*
X57285714Y82885714D02*
X57320000Y82885714D01*
D11*
X57742857Y82885714D02*
X57777143Y82885714D01*
D11*
X57285714Y82771429D02*
X57320000Y82771429D01*
D11*
X57742857Y82771429D02*
X57777143Y82771429D01*
D11*
X57285714Y82657143D02*
X57320000Y82657143D01*
D11*
X57400000Y82657143D02*
X57434286Y82657143D01*
D11*
X57514286Y82657143D02*
X57548571Y82657143D01*
D11*
X57628571Y82657143D02*
X57662857Y82657143D01*
D11*
X57285714Y82542857D02*
X57320000Y82542857D01*
D11*
X57285714Y82428571D02*
X57320000Y82428571D01*
D11*
X57285714Y82314286D02*
X57320000Y82314286D01*
D11*
X57971429Y83000000D02*
X58005714Y83000000D01*
D11*
X58085714Y83000000D02*
X58120000Y83000000D01*
D11*
X58200000Y83000000D02*
X58234286Y83000000D01*
D11*
X58314286Y83000000D02*
X58348571Y83000000D01*
D11*
X58428571Y83000000D02*
X58462857Y83000000D01*
D11*
X57971429Y82885714D02*
X58005714Y82885714D01*
D11*
X57971429Y82771429D02*
X58005714Y82771429D01*
D11*
X57971429Y82657143D02*
X58005714Y82657143D01*
D11*
X58085714Y82657143D02*
X58120000Y82657143D01*
D11*
X58200000Y82657143D02*
X58234286Y82657143D01*
D11*
X58314286Y82657143D02*
X58348571Y82657143D01*
D11*
X57971429Y82542857D02*
X58005714Y82542857D01*
D11*
X57971429Y82428571D02*
X58005714Y82428571D01*
D11*
X57971429Y82314286D02*
X58005714Y82314286D01*
D11*
X58085714Y82314286D02*
X58120000Y82314286D01*
D11*
X58200000Y82314286D02*
X58234286Y82314286D01*
D11*
X58314286Y82314286D02*
X58348571Y82314286D01*
D11*
X58428571Y82314286D02*
X58462857Y82314286D01*
D11*
X13200000Y77700000D02*
X13230000Y77700000D01*
D11*
X13300000Y77700000D02*
X13330000Y77700000D01*
D11*
X13400000Y77700000D02*
X13430000Y77700000D01*
D11*
X13300000Y77600000D02*
X13330000Y77600000D01*
D11*
X13300000Y77500000D02*
X13330000Y77500000D01*
D11*
X13300000Y77400000D02*
X13330000Y77400000D01*
D11*
X13000000Y77300000D02*
X13030000Y77300000D01*
D11*
X13300000Y77300000D02*
X13330000Y77300000D01*
D11*
X13000000Y77200000D02*
X13030000Y77200000D01*
D11*
X13300000Y77200000D02*
X13330000Y77200000D01*
D11*
X13100000Y77100000D02*
X13130000Y77100000D01*
D11*
X13200000Y77100000D02*
X13230000Y77100000D01*
D11*
X13800000Y77700000D02*
X13830000Y77700000D01*
D11*
X13700000Y77600000D02*
X13730000Y77600000D01*
D11*
X13800000Y77600000D02*
X13830000Y77600000D01*
D11*
X13800000Y77500000D02*
X13830000Y77500000D01*
D11*
X13800000Y77400000D02*
X13830000Y77400000D01*
D11*
X13800000Y77300000D02*
X13830000Y77300000D01*
D11*
X13800000Y77200000D02*
X13830000Y77200000D01*
D11*
X13700000Y77100000D02*
X13730000Y77100000D01*
D11*
X13800000Y77100000D02*
X13830000Y77100000D01*
D11*
X13900000Y77100000D02*
X13930000Y77100000D01*
D11*
X36060000Y77700000D02*
X36090000Y77700000D01*
D11*
X36160000Y77700000D02*
X36190000Y77700000D01*
D11*
X36260000Y77700000D02*
X36290000Y77700000D01*
D11*
X36160000Y77600000D02*
X36190000Y77600000D01*
D11*
X36160000Y77500000D02*
X36190000Y77500000D01*
D11*
X36160000Y77400000D02*
X36190000Y77400000D01*
D11*
X35860000Y77300000D02*
X35890000Y77300000D01*
D11*
X36160000Y77300000D02*
X36190000Y77300000D01*
D11*
X35860000Y77200000D02*
X35890000Y77200000D01*
D11*
X36160000Y77200000D02*
X36190000Y77200000D01*
D11*
X35960000Y77100000D02*
X35990000Y77100000D01*
D11*
X36060000Y77100000D02*
X36090000Y77100000D01*
D11*
X36560000Y77700000D02*
X36590000Y77700000D01*
D11*
X36660000Y77700000D02*
X36690000Y77700000D01*
D11*
X36760000Y77700000D02*
X36790000Y77700000D01*
D11*
X36460000Y77600000D02*
X36490000Y77600000D01*
D11*
X36860000Y77600000D02*
X36890000Y77600000D01*
D11*
X36860000Y77500000D02*
X36890000Y77500000D01*
D11*
X36760000Y77400000D02*
X36790000Y77400000D01*
D11*
X36660000Y77300000D02*
X36690000Y77300000D01*
D11*
X36560000Y77200000D02*
X36590000Y77200000D01*
D11*
X36460000Y77100000D02*
X36490000Y77100000D01*
D11*
X36560000Y77100000D02*
X36590000Y77100000D01*
D11*
X36660000Y77100000D02*
X36690000Y77100000D01*
D11*
X36760000Y77100000D02*
X36790000Y77100000D01*
D11*
X36860000Y77100000D02*
X36890000Y77100000D01*
D11*
X67200000Y15700000D02*
X67230000Y15700000D01*
D11*
X67300000Y15700000D02*
X67330000Y15700000D01*
D11*
X67400000Y15700000D02*
X67430000Y15700000D01*
D11*
X67300000Y15600000D02*
X67330000Y15600000D01*
D11*
X67300000Y15500000D02*
X67330000Y15500000D01*
D11*
X67300000Y15400000D02*
X67330000Y15400000D01*
D11*
X67000000Y15300000D02*
X67030000Y15300000D01*
D11*
X67300000Y15300000D02*
X67330000Y15300000D01*
D11*
X67000000Y15200000D02*
X67030000Y15200000D01*
D11*
X67300000Y15200000D02*
X67330000Y15200000D01*
D11*
X67100000Y15100000D02*
X67130000Y15100000D01*
D11*
X67200000Y15100000D02*
X67230000Y15100000D01*
D11*
X67600000Y15700000D02*
X67630000Y15700000D01*
D11*
X67700000Y15700000D02*
X67730000Y15700000D01*
D11*
X67800000Y15700000D02*
X67830000Y15700000D01*
D11*
X67900000Y15700000D02*
X67930000Y15700000D01*
D11*
X68000000Y15600000D02*
X68030000Y15600000D01*
D11*
X68000000Y15500000D02*
X68030000Y15500000D01*
D11*
X67700000Y15400000D02*
X67730000Y15400000D01*
D11*
X67800000Y15400000D02*
X67830000Y15400000D01*
D11*
X67900000Y15400000D02*
X67930000Y15400000D01*
D11*
X68000000Y15300000D02*
X68030000Y15300000D01*
D11*
X68000000Y15200000D02*
X68030000Y15200000D01*
D11*
X67600000Y15100000D02*
X67630000Y15100000D01*
D11*
X67700000Y15100000D02*
X67730000Y15100000D01*
D11*
X67800000Y15100000D02*
X67830000Y15100000D01*
D11*
X67900000Y15100000D02*
X67930000Y15100000D01*
D11*
X56000000Y15700000D02*
X56030000Y15700000D01*
D11*
X56100000Y15700000D02*
X56130000Y15700000D01*
D11*
X56200000Y15700000D02*
X56230000Y15700000D01*
D11*
X56300000Y15700000D02*
X56330000Y15700000D01*
D11*
X56400000Y15700000D02*
X56430000Y15700000D01*
D11*
X56000000Y15600000D02*
X56030000Y15600000D01*
D11*
X56000000Y15500000D02*
X56030000Y15500000D01*
D11*
X56000000Y15400000D02*
X56030000Y15400000D01*
D11*
X56100000Y15400000D02*
X56130000Y15400000D01*
D11*
X56200000Y15400000D02*
X56230000Y15400000D01*
D11*
X56300000Y15400000D02*
X56330000Y15400000D01*
D11*
X56000000Y15300000D02*
X56030000Y15300000D01*
D11*
X56000000Y15200000D02*
X56030000Y15200000D01*
D11*
X56000000Y15100000D02*
X56030000Y15100000D01*
D11*
X56800000Y15700000D02*
X56830000Y15700000D01*
D11*
X56700000Y15600000D02*
X56730000Y15600000D01*
D11*
X56800000Y15600000D02*
X56830000Y15600000D01*
D11*
X56800000Y15500000D02*
X56830000Y15500000D01*
D11*
X56800000Y15400000D02*
X56830000Y15400000D01*
D11*
X56800000Y15300000D02*
X56830000Y15300000D01*
D11*
X56800000Y15200000D02*
X56830000Y15200000D01*
D11*
X56700000Y15100000D02*
X56730000Y15100000D01*
D11*
X56800000Y15100000D02*
X56830000Y15100000D01*
D11*
X56900000Y15100000D02*
X56930000Y15100000D01*
D11*
X58100000Y26700000D02*
X58130000Y26700000D01*
D11*
X58200000Y26700000D02*
X58230000Y26700000D01*
D11*
X58300000Y26700000D02*
X58330000Y26700000D01*
D11*
X58000000Y26600000D02*
X58030000Y26600000D01*
D11*
X58400000Y26600000D02*
X58430000Y26600000D01*
D11*
X58000000Y26500000D02*
X58030000Y26500000D01*
D11*
X58400000Y26500000D02*
X58430000Y26500000D01*
D11*
X58000000Y26400000D02*
X58030000Y26400000D01*
D11*
X58400000Y26400000D02*
X58430000Y26400000D01*
D11*
X58000000Y26300000D02*
X58030000Y26300000D01*
D11*
X58200000Y26300000D02*
X58230000Y26300000D01*
D11*
X58400000Y26300000D02*
X58430000Y26300000D01*
D11*
X58000000Y26200000D02*
X58030000Y26200000D01*
D11*
X58300000Y26200000D02*
X58330000Y26200000D01*
D11*
X58100000Y26100000D02*
X58130000Y26100000D01*
D11*
X58200000Y26100000D02*
X58230000Y26100000D01*
D11*
X58400000Y26100000D02*
X58430000Y26100000D01*
D11*
X58800000Y26700000D02*
X58830000Y26700000D01*
D11*
X58700000Y26600000D02*
X58730000Y26600000D01*
D11*
X58800000Y26600000D02*
X58830000Y26600000D01*
D11*
X58800000Y26500000D02*
X58830000Y26500000D01*
D11*
X58800000Y26400000D02*
X58830000Y26400000D01*
D11*
X58800000Y26300000D02*
X58830000Y26300000D01*
D11*
X58800000Y26200000D02*
X58830000Y26200000D01*
D11*
X58700000Y26100000D02*
X58730000Y26100000D01*
D11*
X58800000Y26100000D02*
X58830000Y26100000D01*
D11*
X58900000Y26100000D02*
X58930000Y26100000D01*
D11*
X53000000Y26700000D02*
X53030000Y26700000D01*
D11*
X53100000Y26700000D02*
X53130000Y26700000D01*
D11*
X53200000Y26700000D02*
X53230000Y26700000D01*
D11*
X53300000Y26700000D02*
X53330000Y26700000D01*
D11*
X53000000Y26600000D02*
X53030000Y26600000D01*
D11*
X53400000Y26600000D02*
X53430000Y26600000D01*
D11*
X53000000Y26500000D02*
X53030000Y26500000D01*
D11*
X53400000Y26500000D02*
X53430000Y26500000D01*
D11*
X53000000Y26400000D02*
X53030000Y26400000D01*
D11*
X53100000Y26400000D02*
X53130000Y26400000D01*
D11*
X53200000Y26400000D02*
X53230000Y26400000D01*
D11*
X53300000Y26400000D02*
X53330000Y26400000D01*
D11*
X53000000Y26300000D02*
X53030000Y26300000D01*
D11*
X53200000Y26300000D02*
X53230000Y26300000D01*
D11*
X53000000Y26200000D02*
X53030000Y26200000D01*
D11*
X53300000Y26200000D02*
X53330000Y26200000D01*
D11*
X53000000Y26100000D02*
X53030000Y26100000D01*
D11*
X53400000Y26100000D02*
X53430000Y26100000D01*
D11*
X53800000Y26700000D02*
X53830000Y26700000D01*
D11*
X53700000Y26600000D02*
X53730000Y26600000D01*
D11*
X53800000Y26600000D02*
X53830000Y26600000D01*
D11*
X53800000Y26500000D02*
X53830000Y26500000D01*
D11*
X53800000Y26400000D02*
X53830000Y26400000D01*
D11*
X53800000Y26300000D02*
X53830000Y26300000D01*
D11*
X53800000Y26200000D02*
X53830000Y26200000D01*
D11*
X53700000Y26100000D02*
X53730000Y26100000D01*
D11*
X53800000Y26100000D02*
X53830000Y26100000D01*
D11*
X53900000Y26100000D02*
X53930000Y26100000D01*
D11*
X79100000Y23700000D02*
X79130000Y23700000D01*
D11*
X79200000Y23700000D02*
X79230000Y23700000D01*
D11*
X79300000Y23700000D02*
X79330000Y23700000D01*
D11*
X79400000Y23700000D02*
X79430000Y23700000D01*
D11*
X79000000Y23600000D02*
X79030000Y23600000D01*
D11*
X79000000Y23500000D02*
X79030000Y23500000D01*
D11*
X79000000Y23400000D02*
X79030000Y23400000D01*
D11*
X79000000Y23300000D02*
X79030000Y23300000D01*
D11*
X79000000Y23200000D02*
X79030000Y23200000D01*
D11*
X79100000Y23100000D02*
X79130000Y23100000D01*
D11*
X79200000Y23100000D02*
X79230000Y23100000D01*
D11*
X79300000Y23100000D02*
X79330000Y23100000D01*
D11*
X79400000Y23100000D02*
X79430000Y23100000D01*
D11*
X79800000Y23700000D02*
X79830000Y23700000D01*
D11*
X79700000Y23600000D02*
X79730000Y23600000D01*
D11*
X79800000Y23600000D02*
X79830000Y23600000D01*
D11*
X79800000Y23500000D02*
X79830000Y23500000D01*
D11*
X79800000Y23400000D02*
X79830000Y23400000D01*
D11*
X79800000Y23300000D02*
X79830000Y23300000D01*
D11*
X79800000Y23200000D02*
X79830000Y23200000D01*
D11*
X79700000Y23100000D02*
X79730000Y23100000D01*
D11*
X79800000Y23100000D02*
X79830000Y23100000D01*
D11*
X79900000Y23100000D02*
X79930000Y23100000D01*
D11*
X41200000Y16700000D02*
X41230000Y16700000D01*
D11*
X41300000Y16700000D02*
X41330000Y16700000D01*
D11*
X41400000Y16700000D02*
X41430000Y16700000D01*
D11*
X41300000Y16600000D02*
X41330000Y16600000D01*
D11*
X41300000Y16500000D02*
X41330000Y16500000D01*
D11*
X41300000Y16400000D02*
X41330000Y16400000D01*
D11*
X41000000Y16300000D02*
X41030000Y16300000D01*
D11*
X41300000Y16300000D02*
X41330000Y16300000D01*
D11*
X41000000Y16200000D02*
X41030000Y16200000D01*
D11*
X41300000Y16200000D02*
X41330000Y16200000D01*
D11*
X41100000Y16100000D02*
X41130000Y16100000D01*
D11*
X41200000Y16100000D02*
X41230000Y16100000D01*
D11*
X41600000Y16700000D02*
X41630000Y16700000D01*
D11*
X41700000Y16700000D02*
X41730000Y16700000D01*
D11*
X41800000Y16700000D02*
X41830000Y16700000D01*
D11*
X41900000Y16700000D02*
X41930000Y16700000D01*
D11*
X41600000Y16600000D02*
X41630000Y16600000D01*
D11*
X42000000Y16600000D02*
X42030000Y16600000D01*
D11*
X41600000Y16500000D02*
X41630000Y16500000D01*
D11*
X42000000Y16500000D02*
X42030000Y16500000D01*
D11*
X41600000Y16400000D02*
X41630000Y16400000D01*
D11*
X41700000Y16400000D02*
X41730000Y16400000D01*
D11*
X41800000Y16400000D02*
X41830000Y16400000D01*
D11*
X41900000Y16400000D02*
X41930000Y16400000D01*
D11*
X41600000Y16300000D02*
X41630000Y16300000D01*
D11*
X41600000Y16200000D02*
X41630000Y16200000D01*
D11*
X41600000Y16100000D02*
X41630000Y16100000D01*
D11*
X42400000Y16700000D02*
X42430000Y16700000D01*
D11*
X42300000Y16600000D02*
X42330000Y16600000D01*
D11*
X42400000Y16600000D02*
X42430000Y16600000D01*
D11*
X42400000Y16500000D02*
X42430000Y16500000D01*
D11*
X42400000Y16400000D02*
X42430000Y16400000D01*
D11*
X42400000Y16300000D02*
X42430000Y16300000D01*
D11*
X42400000Y16200000D02*
X42430000Y16200000D01*
D11*
X42300000Y16100000D02*
X42330000Y16100000D01*
D11*
X42400000Y16100000D02*
X42430000Y16100000D01*
D11*
X42500000Y16100000D02*
X42530000Y16100000D01*
D11*
X91200000Y78700000D02*
X91230000Y78700000D01*
D11*
X91300000Y78700000D02*
X91330000Y78700000D01*
D11*
X91400000Y78700000D02*
X91430000Y78700000D01*
D11*
X91300000Y78600000D02*
X91330000Y78600000D01*
D11*
X91300000Y78500000D02*
X91330000Y78500000D01*
D11*
X91300000Y78400000D02*
X91330000Y78400000D01*
D11*
X91000000Y78300000D02*
X91030000Y78300000D01*
D11*
X91300000Y78300000D02*
X91330000Y78300000D01*
D11*
X91000000Y78200000D02*
X91030000Y78200000D01*
D11*
X91300000Y78200000D02*
X91330000Y78200000D01*
D11*
X91100000Y78100000D02*
X91130000Y78100000D01*
D11*
X91200000Y78100000D02*
X91230000Y78100000D01*
D11*
X91900000Y78700000D02*
X91930000Y78700000D01*
D11*
X91800000Y78600000D02*
X91830000Y78600000D01*
D11*
X91900000Y78600000D02*
X91930000Y78600000D01*
D11*
X91700000Y78500000D02*
X91730000Y78500000D01*
D11*
X91900000Y78500000D02*
X91930000Y78500000D01*
D11*
X91600000Y78400000D02*
X91630000Y78400000D01*
D11*
X91900000Y78400000D02*
X91930000Y78400000D01*
D11*
X91600000Y78300000D02*
X91630000Y78300000D01*
D11*
X91700000Y78300000D02*
X91730000Y78300000D01*
D11*
X91800000Y78300000D02*
X91830000Y78300000D01*
D11*
X91900000Y78300000D02*
X91930000Y78300000D01*
D11*
X92000000Y78300000D02*
X92030000Y78300000D01*
D11*
X91900000Y78200000D02*
X91930000Y78200000D01*
D11*
X91900000Y78100000D02*
X91930000Y78100000D01*
D11*
X71000000Y72700000D02*
X71030000Y72700000D01*
D11*
X71100000Y72700000D02*
X71130000Y72700000D01*
D11*
X71200000Y72700000D02*
X71230000Y72700000D01*
D11*
X71300000Y72700000D02*
X71330000Y72700000D01*
D11*
X71000000Y72600000D02*
X71030000Y72600000D01*
D11*
X71400000Y72600000D02*
X71430000Y72600000D01*
D11*
X71000000Y72500000D02*
X71030000Y72500000D01*
D11*
X71400000Y72500000D02*
X71430000Y72500000D01*
D11*
X71000000Y72400000D02*
X71030000Y72400000D01*
D11*
X71100000Y72400000D02*
X71130000Y72400000D01*
D11*
X71200000Y72400000D02*
X71230000Y72400000D01*
D11*
X71300000Y72400000D02*
X71330000Y72400000D01*
D11*
X71000000Y72300000D02*
X71030000Y72300000D01*
D11*
X71200000Y72300000D02*
X71230000Y72300000D01*
D11*
X71000000Y72200000D02*
X71030000Y72200000D01*
D11*
X71300000Y72200000D02*
X71330000Y72200000D01*
D11*
X71000000Y72100000D02*
X71030000Y72100000D01*
D11*
X71400000Y72100000D02*
X71430000Y72100000D01*
D11*
X71700000Y72700000D02*
X71730000Y72700000D01*
D11*
X71800000Y72700000D02*
X71830000Y72700000D01*
D11*
X71900000Y72700000D02*
X71930000Y72700000D01*
D11*
X71600000Y72600000D02*
X71630000Y72600000D01*
D11*
X72000000Y72600000D02*
X72030000Y72600000D01*
D11*
X72000000Y72500000D02*
X72030000Y72500000D01*
D11*
X71900000Y72400000D02*
X71930000Y72400000D01*
D11*
X71800000Y72300000D02*
X71830000Y72300000D01*
D11*
X71700000Y72200000D02*
X71730000Y72200000D01*
D11*
X71600000Y72100000D02*
X71630000Y72100000D01*
D11*
X71700000Y72100000D02*
X71730000Y72100000D01*
D11*
X71800000Y72100000D02*
X71830000Y72100000D01*
D11*
X71900000Y72100000D02*
X71930000Y72100000D01*
D11*
X72000000Y72100000D02*
X72030000Y72100000D01*
D11*
X71000000Y66700000D02*
X71030000Y66700000D01*
D11*
X71100000Y66700000D02*
X71130000Y66700000D01*
D11*
X71200000Y66700000D02*
X71230000Y66700000D01*
D11*
X71300000Y66700000D02*
X71330000Y66700000D01*
D11*
X71000000Y66600000D02*
X71030000Y66600000D01*
D11*
X71400000Y66600000D02*
X71430000Y66600000D01*
D11*
X71000000Y66500000D02*
X71030000Y66500000D01*
D11*
X71400000Y66500000D02*
X71430000Y66500000D01*
D11*
X71000000Y66400000D02*
X71030000Y66400000D01*
D11*
X71100000Y66400000D02*
X71130000Y66400000D01*
D11*
X71200000Y66400000D02*
X71230000Y66400000D01*
D11*
X71300000Y66400000D02*
X71330000Y66400000D01*
D11*
X71000000Y66300000D02*
X71030000Y66300000D01*
D11*
X71200000Y66300000D02*
X71230000Y66300000D01*
D11*
X71000000Y66200000D02*
X71030000Y66200000D01*
D11*
X71300000Y66200000D02*
X71330000Y66200000D01*
D11*
X71000000Y66100000D02*
X71030000Y66100000D01*
D11*
X71400000Y66100000D02*
X71430000Y66100000D01*
D11*
X71600000Y66700000D02*
X71630000Y66700000D01*
D11*
X71700000Y66700000D02*
X71730000Y66700000D01*
D11*
X71800000Y66700000D02*
X71830000Y66700000D01*
D11*
X71900000Y66700000D02*
X71930000Y66700000D01*
D11*
X72000000Y66600000D02*
X72030000Y66600000D01*
D11*
X72000000Y66500000D02*
X72030000Y66500000D01*
D11*
X71700000Y66400000D02*
X71730000Y66400000D01*
D11*
X71800000Y66400000D02*
X71830000Y66400000D01*
D11*
X71900000Y66400000D02*
X71930000Y66400000D01*
D11*
X72000000Y66300000D02*
X72030000Y66300000D01*
D11*
X72000000Y66200000D02*
X72030000Y66200000D01*
D11*
X71600000Y66100000D02*
X71630000Y66100000D01*
D11*
X71700000Y66100000D02*
X71730000Y66100000D01*
D11*
X71800000Y66100000D02*
X71830000Y66100000D01*
D11*
X71900000Y66100000D02*
X71930000Y66100000D01*
D11*
X52200000Y77700000D02*
X52230000Y77700000D01*
D11*
X52300000Y77700000D02*
X52330000Y77700000D01*
D11*
X52400000Y77700000D02*
X52430000Y77700000D01*
D11*
X52300000Y77600000D02*
X52330000Y77600000D01*
D11*
X52300000Y77500000D02*
X52330000Y77500000D01*
D11*
X52300000Y77400000D02*
X52330000Y77400000D01*
D11*
X52000000Y77300000D02*
X52030000Y77300000D01*
D11*
X52300000Y77300000D02*
X52330000Y77300000D01*
D11*
X52000000Y77200000D02*
X52030000Y77200000D01*
D11*
X52300000Y77200000D02*
X52330000Y77200000D01*
D11*
X52100000Y77100000D02*
X52130000Y77100000D01*
D11*
X52200000Y77100000D02*
X52230000Y77100000D01*
D11*
X52600000Y77700000D02*
X52630000Y77700000D01*
D11*
X52700000Y77700000D02*
X52730000Y77700000D01*
D11*
X52800000Y77700000D02*
X52830000Y77700000D01*
D11*
X52900000Y77700000D02*
X52930000Y77700000D01*
D11*
X53000000Y77700000D02*
X53030000Y77700000D01*
D11*
X52600000Y77600000D02*
X52630000Y77600000D01*
D11*
X52600000Y77500000D02*
X52630000Y77500000D01*
D11*
X52600000Y77400000D02*
X52630000Y77400000D01*
D11*
X52700000Y77400000D02*
X52730000Y77400000D01*
D11*
X52800000Y77400000D02*
X52830000Y77400000D01*
D11*
X52900000Y77400000D02*
X52930000Y77400000D01*
D11*
X53000000Y77300000D02*
X53030000Y77300000D01*
D11*
X53000000Y77200000D02*
X53030000Y77200000D01*
D11*
X52600000Y77100000D02*
X52630000Y77100000D01*
D11*
X52700000Y77100000D02*
X52730000Y77100000D01*
D11*
X52800000Y77100000D02*
X52830000Y77100000D01*
D11*
X52900000Y77100000D02*
X52930000Y77100000D01*
D11*
X91200000Y49700000D02*
X91230000Y49700000D01*
D11*
X91300000Y49700000D02*
X91330000Y49700000D01*
D11*
X91400000Y49700000D02*
X91430000Y49700000D01*
D11*
X91300000Y49600000D02*
X91330000Y49600000D01*
D11*
X91300000Y49500000D02*
X91330000Y49500000D01*
D11*
X91300000Y49400000D02*
X91330000Y49400000D01*
D11*
X91000000Y49300000D02*
X91030000Y49300000D01*
D11*
X91300000Y49300000D02*
X91330000Y49300000D01*
D11*
X91000000Y49200000D02*
X91030000Y49200000D01*
D11*
X91300000Y49200000D02*
X91330000Y49200000D01*
D11*
X91100000Y49100000D02*
X91130000Y49100000D01*
D11*
X91200000Y49100000D02*
X91230000Y49100000D01*
D11*
X91700000Y49700000D02*
X91730000Y49700000D01*
D11*
X91800000Y49700000D02*
X91830000Y49700000D01*
D11*
X91900000Y49700000D02*
X91930000Y49700000D01*
D11*
X91600000Y49600000D02*
X91630000Y49600000D01*
D11*
X91600000Y49500000D02*
X91630000Y49500000D01*
D11*
X91600000Y49400000D02*
X91630000Y49400000D01*
D11*
X91700000Y49400000D02*
X91730000Y49400000D01*
D11*
X91800000Y49400000D02*
X91830000Y49400000D01*
D11*
X91900000Y49400000D02*
X91930000Y49400000D01*
D11*
X91600000Y49300000D02*
X91630000Y49300000D01*
D11*
X92000000Y49300000D02*
X92030000Y49300000D01*
D11*
X91600000Y49200000D02*
X91630000Y49200000D01*
D11*
X92000000Y49200000D02*
X92030000Y49200000D01*
D11*
X91700000Y49100000D02*
X91730000Y49100000D01*
D11*
X91800000Y49100000D02*
X91830000Y49100000D01*
D11*
X91900000Y49100000D02*
X91930000Y49100000D01*
D11*
X80000000Y39700000D02*
X80030000Y39700000D01*
D11*
X80100000Y39700000D02*
X80130000Y39700000D01*
D11*
X80200000Y39700000D02*
X80230000Y39700000D01*
D11*
X80300000Y39700000D02*
X80330000Y39700000D01*
D11*
X80000000Y39600000D02*
X80030000Y39600000D01*
D11*
X80400000Y39600000D02*
X80430000Y39600000D01*
D11*
X80000000Y39500000D02*
X80030000Y39500000D01*
D11*
X80400000Y39500000D02*
X80430000Y39500000D01*
D11*
X80000000Y39400000D02*
X80030000Y39400000D01*
D11*
X80100000Y39400000D02*
X80130000Y39400000D01*
D11*
X80200000Y39400000D02*
X80230000Y39400000D01*
D11*
X80300000Y39400000D02*
X80330000Y39400000D01*
D11*
X80000000Y39300000D02*
X80030000Y39300000D01*
D11*
X80200000Y39300000D02*
X80230000Y39300000D01*
D11*
X80000000Y39200000D02*
X80030000Y39200000D01*
D11*
X80300000Y39200000D02*
X80330000Y39200000D01*
D11*
X80000000Y39100000D02*
X80030000Y39100000D01*
D11*
X80400000Y39100000D02*
X80430000Y39100000D01*
D11*
X80900000Y39700000D02*
X80930000Y39700000D01*
D11*
X80800000Y39600000D02*
X80830000Y39600000D01*
D11*
X80900000Y39600000D02*
X80930000Y39600000D01*
D11*
X80700000Y39500000D02*
X80730000Y39500000D01*
D11*
X80900000Y39500000D02*
X80930000Y39500000D01*
D11*
X80600000Y39400000D02*
X80630000Y39400000D01*
D11*
X80900000Y39400000D02*
X80930000Y39400000D01*
D11*
X80600000Y39300000D02*
X80630000Y39300000D01*
D11*
X80700000Y39300000D02*
X80730000Y39300000D01*
D11*
X80800000Y39300000D02*
X80830000Y39300000D01*
D11*
X80900000Y39300000D02*
X80930000Y39300000D01*
D11*
X81000000Y39300000D02*
X81030000Y39300000D01*
D11*
X80900000Y39200000D02*
X80930000Y39200000D01*
D11*
X80900000Y39100000D02*
X80930000Y39100000D01*
D11*
X62000000Y49700000D02*
X62030000Y49700000D01*
D11*
X62400000Y49700000D02*
X62430000Y49700000D01*
D11*
X62000000Y49600000D02*
X62030000Y49600000D01*
D11*
X62400000Y49600000D02*
X62430000Y49600000D01*
D11*
X62000000Y49500000D02*
X62030000Y49500000D01*
D11*
X62400000Y49500000D02*
X62430000Y49500000D01*
D11*
X62000000Y49400000D02*
X62030000Y49400000D01*
D11*
X62400000Y49400000D02*
X62430000Y49400000D01*
D11*
X62000000Y49300000D02*
X62030000Y49300000D01*
D11*
X62400000Y49300000D02*
X62430000Y49300000D01*
D11*
X62000000Y49200000D02*
X62030000Y49200000D01*
D11*
X62400000Y49200000D02*
X62430000Y49200000D01*
D11*
X62100000Y49100000D02*
X62130000Y49100000D01*
D11*
X62200000Y49100000D02*
X62230000Y49100000D01*
D11*
X62300000Y49100000D02*
X62330000Y49100000D01*
D11*
X62800000Y49700000D02*
X62830000Y49700000D01*
D11*
X62700000Y49600000D02*
X62730000Y49600000D01*
D11*
X62800000Y49600000D02*
X62830000Y49600000D01*
D11*
X62800000Y49500000D02*
X62830000Y49500000D01*
D11*
X62800000Y49400000D02*
X62830000Y49400000D01*
D11*
X62800000Y49300000D02*
X62830000Y49300000D01*
D11*
X62800000Y49200000D02*
X62830000Y49200000D01*
D11*
X62700000Y49100000D02*
X62730000Y49100000D01*
D11*
X62800000Y49100000D02*
X62830000Y49100000D01*
D11*
X62900000Y49100000D02*
X62930000Y49100000D01*
D11*
X58100000Y53700000D02*
X58130000Y53700000D01*
D11*
X58200000Y53700000D02*
X58230000Y53700000D01*
D11*
X58300000Y53700000D02*
X58330000Y53700000D01*
D11*
X58400000Y53700000D02*
X58430000Y53700000D01*
D11*
X58000000Y53600000D02*
X58030000Y53600000D01*
D11*
X58000000Y53500000D02*
X58030000Y53500000D01*
D11*
X58000000Y53400000D02*
X58030000Y53400000D01*
D11*
X58000000Y53300000D02*
X58030000Y53300000D01*
D11*
X58000000Y53200000D02*
X58030000Y53200000D01*
D11*
X58100000Y53100000D02*
X58130000Y53100000D01*
D11*
X58200000Y53100000D02*
X58230000Y53100000D01*
D11*
X58300000Y53100000D02*
X58330000Y53100000D01*
D11*
X58400000Y53100000D02*
X58430000Y53100000D01*
D11*
X58700000Y53700000D02*
X58730000Y53700000D01*
D11*
X58800000Y53700000D02*
X58830000Y53700000D01*
D11*
X58900000Y53700000D02*
X58930000Y53700000D01*
D11*
X58600000Y53600000D02*
X58630000Y53600000D01*
D11*
X59000000Y53600000D02*
X59030000Y53600000D01*
D11*
X59000000Y53500000D02*
X59030000Y53500000D01*
D11*
X58900000Y53400000D02*
X58930000Y53400000D01*
D11*
X58800000Y53300000D02*
X58830000Y53300000D01*
D11*
X58700000Y53200000D02*
X58730000Y53200000D01*
D11*
X58600000Y53100000D02*
X58630000Y53100000D01*
D11*
X58700000Y53100000D02*
X58730000Y53100000D01*
D11*
X58800000Y53100000D02*
X58830000Y53100000D01*
D11*
X58900000Y53100000D02*
X58930000Y53100000D01*
D11*
X59000000Y53100000D02*
X59030000Y53100000D01*
D11*
X56000000Y45700000D02*
X56030000Y45700000D01*
D11*
X56100000Y45700000D02*
X56130000Y45700000D01*
D11*
X56200000Y45700000D02*
X56230000Y45700000D01*
D11*
X56300000Y45700000D02*
X56330000Y45700000D01*
D11*
X56000000Y45600000D02*
X56030000Y45600000D01*
D11*
X56400000Y45600000D02*
X56430000Y45600000D01*
D11*
X56000000Y45500000D02*
X56030000Y45500000D01*
D11*
X56400000Y45500000D02*
X56430000Y45500000D01*
D11*
X56000000Y45400000D02*
X56030000Y45400000D01*
D11*
X56100000Y45400000D02*
X56130000Y45400000D01*
D11*
X56200000Y45400000D02*
X56230000Y45400000D01*
D11*
X56300000Y45400000D02*
X56330000Y45400000D01*
D11*
X56000000Y45300000D02*
X56030000Y45300000D01*
D11*
X56200000Y45300000D02*
X56230000Y45300000D01*
D11*
X56000000Y45200000D02*
X56030000Y45200000D01*
D11*
X56300000Y45200000D02*
X56330000Y45200000D01*
D11*
X56000000Y45100000D02*
X56030000Y45100000D01*
D11*
X56400000Y45100000D02*
X56430000Y45100000D01*
D11*
X56600000Y45700000D02*
X56630000Y45700000D01*
D11*
X56700000Y45700000D02*
X56730000Y45700000D01*
D11*
X56800000Y45700000D02*
X56830000Y45700000D01*
D11*
X56900000Y45700000D02*
X56930000Y45700000D01*
D11*
X57000000Y45700000D02*
X57030000Y45700000D01*
D11*
X56600000Y45600000D02*
X56630000Y45600000D01*
D11*
X56600000Y45500000D02*
X56630000Y45500000D01*
D11*
X56600000Y45400000D02*
X56630000Y45400000D01*
D11*
X56700000Y45400000D02*
X56730000Y45400000D01*
D11*
X56800000Y45400000D02*
X56830000Y45400000D01*
D11*
X56900000Y45400000D02*
X56930000Y45400000D01*
D11*
X57000000Y45300000D02*
X57030000Y45300000D01*
D11*
X57000000Y45200000D02*
X57030000Y45200000D01*
D11*
X56600000Y45100000D02*
X56630000Y45100000D01*
D11*
X56700000Y45100000D02*
X56730000Y45100000D01*
D11*
X56800000Y45100000D02*
X56830000Y45100000D01*
D11*
X56900000Y45100000D02*
X56930000Y45100000D01*
D11*
X69000000Y51700000D02*
X69030000Y51700000D01*
D11*
X69100000Y51700000D02*
X69130000Y51700000D01*
D11*
X69200000Y51700000D02*
X69230000Y51700000D01*
D11*
X69300000Y51700000D02*
X69330000Y51700000D01*
D11*
X69000000Y51600000D02*
X69030000Y51600000D01*
D11*
X69400000Y51600000D02*
X69430000Y51600000D01*
D11*
X69000000Y51500000D02*
X69030000Y51500000D01*
D11*
X69400000Y51500000D02*
X69430000Y51500000D01*
D11*
X69000000Y51400000D02*
X69030000Y51400000D01*
D11*
X69100000Y51400000D02*
X69130000Y51400000D01*
D11*
X69200000Y51400000D02*
X69230000Y51400000D01*
D11*
X69300000Y51400000D02*
X69330000Y51400000D01*
D11*
X69000000Y51300000D02*
X69030000Y51300000D01*
D11*
X69200000Y51300000D02*
X69230000Y51300000D01*
D11*
X69000000Y51200000D02*
X69030000Y51200000D01*
D11*
X69300000Y51200000D02*
X69330000Y51200000D01*
D11*
X69000000Y51100000D02*
X69030000Y51100000D01*
D11*
X69400000Y51100000D02*
X69430000Y51100000D01*
D11*
X69700000Y51700000D02*
X69730000Y51700000D01*
D11*
X69800000Y51700000D02*
X69830000Y51700000D01*
D11*
X69900000Y51700000D02*
X69930000Y51700000D01*
D11*
X69600000Y51600000D02*
X69630000Y51600000D01*
D11*
X69600000Y51500000D02*
X69630000Y51500000D01*
D11*
X69600000Y51400000D02*
X69630000Y51400000D01*
D11*
X69700000Y51400000D02*
X69730000Y51400000D01*
D11*
X69800000Y51400000D02*
X69830000Y51400000D01*
D11*
X69900000Y51400000D02*
X69930000Y51400000D01*
D11*
X69600000Y51300000D02*
X69630000Y51300000D01*
D11*
X70000000Y51300000D02*
X70030000Y51300000D01*
D11*
X69600000Y51200000D02*
X69630000Y51200000D01*
D11*
X70000000Y51200000D02*
X70030000Y51200000D01*
D11*
X69700000Y51100000D02*
X69730000Y51100000D01*
D11*
X69800000Y51100000D02*
X69830000Y51100000D01*
D11*
X69900000Y51100000D02*
X69930000Y51100000D01*
D11*
X76200000Y53700000D02*
X76230000Y53700000D01*
D11*
X76300000Y53700000D02*
X76330000Y53700000D01*
D11*
X76400000Y53700000D02*
X76430000Y53700000D01*
D11*
X76300000Y53600000D02*
X76330000Y53600000D01*
D11*
X76300000Y53500000D02*
X76330000Y53500000D01*
D11*
X76300000Y53400000D02*
X76330000Y53400000D01*
D11*
X76000000Y53300000D02*
X76030000Y53300000D01*
D11*
X76300000Y53300000D02*
X76330000Y53300000D01*
D11*
X76000000Y53200000D02*
X76030000Y53200000D01*
D11*
X76300000Y53200000D02*
X76330000Y53200000D01*
D11*
X76100000Y53100000D02*
X76130000Y53100000D01*
D11*
X76200000Y53100000D02*
X76230000Y53100000D01*
D11*
X76600000Y53700000D02*
X76630000Y53700000D01*
D11*
X76700000Y53700000D02*
X76730000Y53700000D01*
D11*
X76800000Y53700000D02*
X76830000Y53700000D01*
D11*
X76900000Y53700000D02*
X76930000Y53700000D01*
D11*
X77000000Y53700000D02*
X77030000Y53700000D01*
D11*
X77000000Y53600000D02*
X77030000Y53600000D01*
D11*
X76900000Y53500000D02*
X76930000Y53500000D01*
D11*
X76800000Y53400000D02*
X76830000Y53400000D01*
D11*
X76700000Y53300000D02*
X76730000Y53300000D01*
D11*
X76700000Y53200000D02*
X76730000Y53200000D01*
D11*
X76700000Y53100000D02*
X76730000Y53100000D01*
D11*
X8200000Y16700000D02*
X8230000Y16700000D01*
D11*
X8300000Y16700000D02*
X8330000Y16700000D01*
D11*
X8400000Y16700000D02*
X8430000Y16700000D01*
D11*
X8300000Y16600000D02*
X8330000Y16600000D01*
D11*
X8300000Y16500000D02*
X8330000Y16500000D01*
D11*
X8300000Y16400000D02*
X8330000Y16400000D01*
D11*
X8000000Y16300000D02*
X8030000Y16300000D01*
D11*
X8300000Y16300000D02*
X8330000Y16300000D01*
D11*
X8000000Y16200000D02*
X8030000Y16200000D01*
D11*
X8300000Y16200000D02*
X8330000Y16200000D01*
D11*
X8100000Y16100000D02*
X8130000Y16100000D01*
D11*
X8200000Y16100000D02*
X8230000Y16100000D01*
D11*
X8700000Y16700000D02*
X8730000Y16700000D01*
D11*
X8800000Y16700000D02*
X8830000Y16700000D01*
D11*
X8900000Y16700000D02*
X8930000Y16700000D01*
D11*
X8600000Y16600000D02*
X8630000Y16600000D01*
D11*
X9000000Y16600000D02*
X9030000Y16600000D01*
D11*
X8600000Y16500000D02*
X8630000Y16500000D01*
D11*
X9000000Y16500000D02*
X9030000Y16500000D01*
D11*
X8700000Y16400000D02*
X8730000Y16400000D01*
D11*
X8800000Y16400000D02*
X8830000Y16400000D01*
D11*
X8900000Y16400000D02*
X8930000Y16400000D01*
D11*
X8600000Y16300000D02*
X8630000Y16300000D01*
D11*
X9000000Y16300000D02*
X9030000Y16300000D01*
D11*
X8600000Y16200000D02*
X8630000Y16200000D01*
D11*
X9000000Y16200000D02*
X9030000Y16200000D01*
D11*
X8700000Y16100000D02*
X8730000Y16100000D01*
D11*
X8800000Y16100000D02*
X8830000Y16100000D01*
D11*
X8900000Y16100000D02*
X8930000Y16100000D01*
D11*
X19200000Y16700000D02*
X19230000Y16700000D01*
D11*
X19300000Y16700000D02*
X19330000Y16700000D01*
D11*
X19400000Y16700000D02*
X19430000Y16700000D01*
D11*
X19300000Y16600000D02*
X19330000Y16600000D01*
D11*
X19300000Y16500000D02*
X19330000Y16500000D01*
D11*
X19300000Y16400000D02*
X19330000Y16400000D01*
D11*
X19000000Y16300000D02*
X19030000Y16300000D01*
D11*
X19300000Y16300000D02*
X19330000Y16300000D01*
D11*
X19000000Y16200000D02*
X19030000Y16200000D01*
D11*
X19300000Y16200000D02*
X19330000Y16200000D01*
D11*
X19100000Y16100000D02*
X19130000Y16100000D01*
D11*
X19200000Y16100000D02*
X19230000Y16100000D01*
D11*
X19700000Y16700000D02*
X19730000Y16700000D01*
D11*
X19800000Y16700000D02*
X19830000Y16700000D01*
D11*
X19900000Y16700000D02*
X19930000Y16700000D01*
D11*
X19600000Y16600000D02*
X19630000Y16600000D01*
D11*
X20000000Y16600000D02*
X20030000Y16600000D01*
D11*
X19600000Y16500000D02*
X19630000Y16500000D01*
D11*
X20000000Y16500000D02*
X20030000Y16500000D01*
D11*
X19700000Y16400000D02*
X19730000Y16400000D01*
D11*
X19800000Y16400000D02*
X19830000Y16400000D01*
D11*
X19900000Y16400000D02*
X19930000Y16400000D01*
D11*
X20000000Y16400000D02*
X20030000Y16400000D01*
D11*
X20000000Y16300000D02*
X20030000Y16300000D01*
D11*
X20000000Y16200000D02*
X20030000Y16200000D01*
D11*
X19700000Y16100000D02*
X19730000Y16100000D01*
D11*
X19800000Y16100000D02*
X19830000Y16100000D01*
D11*
X19900000Y16100000D02*
X19930000Y16100000D01*
D11*
X30200000Y16700000D02*
X30230000Y16700000D01*
D11*
X30300000Y16700000D02*
X30330000Y16700000D01*
D11*
X30400000Y16700000D02*
X30430000Y16700000D01*
D11*
X30300000Y16600000D02*
X30330000Y16600000D01*
D11*
X30300000Y16500000D02*
X30330000Y16500000D01*
D11*
X30300000Y16400000D02*
X30330000Y16400000D01*
D11*
X30000000Y16300000D02*
X30030000Y16300000D01*
D11*
X30300000Y16300000D02*
X30330000Y16300000D01*
D11*
X30000000Y16200000D02*
X30030000Y16200000D01*
D11*
X30300000Y16200000D02*
X30330000Y16200000D01*
D11*
X30100000Y16100000D02*
X30130000Y16100000D01*
D11*
X30200000Y16100000D02*
X30230000Y16100000D01*
D11*
X30800000Y16700000D02*
X30830000Y16700000D01*
D11*
X30700000Y16600000D02*
X30730000Y16600000D01*
D11*
X30800000Y16600000D02*
X30830000Y16600000D01*
D11*
X30800000Y16500000D02*
X30830000Y16500000D01*
D11*
X30800000Y16400000D02*
X30830000Y16400000D01*
D11*
X30800000Y16300000D02*
X30830000Y16300000D01*
D11*
X30800000Y16200000D02*
X30830000Y16200000D01*
D11*
X30700000Y16100000D02*
X30730000Y16100000D01*
D11*
X30800000Y16100000D02*
X30830000Y16100000D01*
D11*
X30900000Y16100000D02*
X30930000Y16100000D01*
D11*
X31300000Y16700000D02*
X31330000Y16700000D01*
D11*
X31400000Y16700000D02*
X31430000Y16700000D01*
D11*
X31500000Y16700000D02*
X31530000Y16700000D01*
D11*
X31200000Y16600000D02*
X31230000Y16600000D01*
D11*
X31600000Y16600000D02*
X31630000Y16600000D01*
D11*
X31200000Y16500000D02*
X31230000Y16500000D01*
D11*
X31500000Y16500000D02*
X31530000Y16500000D01*
D11*
X31600000Y16500000D02*
X31630000Y16500000D01*
D11*
X31200000Y16400000D02*
X31230000Y16400000D01*
D11*
X31400000Y16400000D02*
X31430000Y16400000D01*
D11*
X31600000Y16400000D02*
X31630000Y16400000D01*
D11*
X31200000Y16300000D02*
X31230000Y16300000D01*
D11*
X31300000Y16300000D02*
X31330000Y16300000D01*
D11*
X31600000Y16300000D02*
X31630000Y16300000D01*
D11*
X31200000Y16200000D02*
X31230000Y16200000D01*
D11*
X31600000Y16200000D02*
X31630000Y16200000D01*
D11*
X31300000Y16100000D02*
X31330000Y16100000D01*
D11*
X31400000Y16100000D02*
X31430000Y16100000D01*
D11*
X31500000Y16100000D02*
X31530000Y16100000D01*
D11*
X47800000Y31700000D02*
X47830000Y31700000D01*
D11*
X47900000Y31700000D02*
X47930000Y31700000D01*
D11*
X48000000Y31700000D02*
X48030000Y31700000D01*
D11*
X48000000Y31600000D02*
X48030000Y31600000D01*
D11*
X47900000Y31500000D02*
X47930000Y31500000D01*
D11*
X47800000Y31400000D02*
X47830000Y31400000D01*
D11*
X47700000Y31100000D02*
X47730000Y31100000D01*
D11*
X45000000Y40700000D02*
X45030000Y40700000D01*
D11*
X45100000Y40700000D02*
X45130000Y40700000D01*
D11*
X45200000Y40700000D02*
X45230000Y40700000D01*
D11*
X45300000Y40700000D02*
X45330000Y40700000D01*
D11*
X45000000Y40600000D02*
X45030000Y40600000D01*
D11*
X45400000Y40600000D02*
X45430000Y40600000D01*
D11*
X45000000Y40500000D02*
X45030000Y40500000D01*
D11*
X45400000Y40500000D02*
X45430000Y40500000D01*
D11*
X45000000Y40400000D02*
X45030000Y40400000D01*
D11*
X45100000Y40400000D02*
X45130000Y40400000D01*
D11*
X45200000Y40400000D02*
X45230000Y40400000D01*
D11*
X45300000Y40400000D02*
X45330000Y40400000D01*
D11*
X45000000Y40300000D02*
X45030000Y40300000D01*
D11*
X45200000Y40300000D02*
X45230000Y40300000D01*
D11*
X45000000Y40200000D02*
X45030000Y40200000D01*
D11*
X45300000Y40200000D02*
X45330000Y40200000D01*
D11*
X45000000Y40100000D02*
X45030000Y40100000D01*
D11*
X45400000Y40100000D02*
X45430000Y40100000D01*
D11*
X45700000Y40700000D02*
X45730000Y40700000D01*
D11*
X45800000Y40700000D02*
X45830000Y40700000D01*
D11*
X45900000Y40700000D02*
X45930000Y40700000D01*
D11*
X45600000Y40600000D02*
X45630000Y40600000D01*
D11*
X46000000Y40600000D02*
X46030000Y40600000D01*
D11*
X45600000Y40500000D02*
X45630000Y40500000D01*
D11*
X46000000Y40500000D02*
X46030000Y40500000D01*
D11*
X45700000Y40400000D02*
X45730000Y40400000D01*
D11*
X45800000Y40400000D02*
X45830000Y40400000D01*
D11*
X45900000Y40400000D02*
X45930000Y40400000D01*
D11*
X45600000Y40300000D02*
X45630000Y40300000D01*
D11*
X46000000Y40300000D02*
X46030000Y40300000D01*
D11*
X45600000Y40200000D02*
X45630000Y40200000D01*
D11*
X46000000Y40200000D02*
X46030000Y40200000D01*
D11*
X45700000Y40100000D02*
X45730000Y40100000D01*
D11*
X45800000Y40100000D02*
X45830000Y40100000D01*
D11*
X45900000Y40100000D02*
X45930000Y40100000D01*
D11*
X45000000Y35700000D02*
X45030000Y35700000D01*
D11*
X45100000Y35700000D02*
X45130000Y35700000D01*
D11*
X45200000Y35700000D02*
X45230000Y35700000D01*
D11*
X45300000Y35700000D02*
X45330000Y35700000D01*
D11*
X45000000Y35600000D02*
X45030000Y35600000D01*
D11*
X45400000Y35600000D02*
X45430000Y35600000D01*
D11*
X45000000Y35500000D02*
X45030000Y35500000D01*
D11*
X45400000Y35500000D02*
X45430000Y35500000D01*
D11*
X45000000Y35400000D02*
X45030000Y35400000D01*
D11*
X45100000Y35400000D02*
X45130000Y35400000D01*
D11*
X45200000Y35400000D02*
X45230000Y35400000D01*
D11*
X45300000Y35400000D02*
X45330000Y35400000D01*
D11*
X45000000Y35300000D02*
X45030000Y35300000D01*
D11*
X45200000Y35300000D02*
X45230000Y35300000D01*
D11*
X45000000Y35200000D02*
X45030000Y35200000D01*
D11*
X45300000Y35200000D02*
X45330000Y35200000D01*
D11*
X45000000Y35100000D02*
X45030000Y35100000D01*
D11*
X45400000Y35100000D02*
X45430000Y35100000D01*
D11*
X45700000Y35700000D02*
X45730000Y35700000D01*
D11*
X45800000Y35700000D02*
X45830000Y35700000D01*
D11*
X45900000Y35700000D02*
X45930000Y35700000D01*
D11*
X45600000Y35600000D02*
X45630000Y35600000D01*
D11*
X46000000Y35600000D02*
X46030000Y35600000D01*
D11*
X45600000Y35500000D02*
X45630000Y35500000D01*
D11*
X46000000Y35500000D02*
X46030000Y35500000D01*
D11*
X45700000Y35400000D02*
X45730000Y35400000D01*
D11*
X45800000Y35400000D02*
X45830000Y35400000D01*
D11*
X45900000Y35400000D02*
X45930000Y35400000D01*
D11*
X46000000Y35400000D02*
X46030000Y35400000D01*
D11*
X46000000Y35300000D02*
X46030000Y35300000D01*
D11*
X46000000Y35200000D02*
X46030000Y35200000D01*
D11*
X45700000Y35100000D02*
X45730000Y35100000D01*
D11*
X45800000Y35100000D02*
X45830000Y35100000D01*
D11*
X45900000Y35100000D02*
X45930000Y35100000D01*
D11*
X53100000Y58700000D02*
X53130000Y58700000D01*
D11*
X53200000Y58700000D02*
X53230000Y58700000D01*
D11*
X53300000Y58700000D02*
X53330000Y58700000D01*
D11*
X53400000Y58700000D02*
X53430000Y58700000D01*
D11*
X53000000Y58600000D02*
X53030000Y58600000D01*
D11*
X53000000Y58500000D02*
X53030000Y58500000D01*
D11*
X53000000Y58400000D02*
X53030000Y58400000D01*
D11*
X53000000Y58300000D02*
X53030000Y58300000D01*
D11*
X53000000Y58200000D02*
X53030000Y58200000D01*
D11*
X53100000Y58100000D02*
X53130000Y58100000D01*
D11*
X53200000Y58100000D02*
X53230000Y58100000D01*
D11*
X53300000Y58100000D02*
X53330000Y58100000D01*
D11*
X53400000Y58100000D02*
X53430000Y58100000D01*
D11*
X53600000Y58700000D02*
X53630000Y58700000D01*
D11*
X53700000Y58700000D02*
X53730000Y58700000D01*
D11*
X53800000Y58700000D02*
X53830000Y58700000D01*
D11*
X53900000Y58700000D02*
X53930000Y58700000D01*
D11*
X54000000Y58600000D02*
X54030000Y58600000D01*
D11*
X54000000Y58500000D02*
X54030000Y58500000D01*
D11*
X53700000Y58400000D02*
X53730000Y58400000D01*
D11*
X53800000Y58400000D02*
X53830000Y58400000D01*
D11*
X53900000Y58400000D02*
X53930000Y58400000D01*
D11*
X54000000Y58300000D02*
X54030000Y58300000D01*
D11*
X54000000Y58200000D02*
X54030000Y58200000D01*
D11*
X53600000Y58100000D02*
X53630000Y58100000D01*
D11*
X53700000Y58100000D02*
X53730000Y58100000D01*
D11*
X53800000Y58100000D02*
X53830000Y58100000D01*
D11*
X53900000Y58100000D02*
X53930000Y58100000D01*
D11*
X68000000Y32700000D02*
X68030000Y32700000D01*
D11*
X68100000Y32700000D02*
X68130000Y32700000D01*
D11*
X68200000Y32700000D02*
X68230000Y32700000D01*
D11*
X68300000Y32700000D02*
X68330000Y32700000D01*
D11*
X68400000Y32700000D02*
X68430000Y32700000D01*
D11*
X68200000Y32600000D02*
X68230000Y32600000D01*
D11*
X68200000Y32500000D02*
X68230000Y32500000D01*
D11*
X68200000Y32400000D02*
X68230000Y32400000D01*
D11*
X68200000Y32300000D02*
X68230000Y32300000D01*
D11*
X68200000Y32200000D02*
X68230000Y32200000D01*
D11*
X68200000Y32100000D02*
X68230000Y32100000D01*
D11*
X68600000Y32700000D02*
X68630000Y32700000D01*
D11*
X68700000Y32700000D02*
X68730000Y32700000D01*
D11*
X68800000Y32700000D02*
X68830000Y32700000D01*
D11*
X68900000Y32700000D02*
X68930000Y32700000D01*
D11*
X68600000Y32600000D02*
X68630000Y32600000D01*
D11*
X69000000Y32600000D02*
X69030000Y32600000D01*
D11*
X68600000Y32500000D02*
X68630000Y32500000D01*
D11*
X69000000Y32500000D02*
X69030000Y32500000D01*
D11*
X68600000Y32400000D02*
X68630000Y32400000D01*
D11*
X68700000Y32400000D02*
X68730000Y32400000D01*
D11*
X68800000Y32400000D02*
X68830000Y32400000D01*
D11*
X68900000Y32400000D02*
X68930000Y32400000D01*
D11*
X68600000Y32300000D02*
X68630000Y32300000D01*
D11*
X68600000Y32200000D02*
X68630000Y32200000D01*
D11*
X68600000Y32100000D02*
X68630000Y32100000D01*
D11*
X69400000Y32700000D02*
X69430000Y32700000D01*
D11*
X69300000Y32600000D02*
X69330000Y32600000D01*
D11*
X69400000Y32600000D02*
X69430000Y32600000D01*
D11*
X69400000Y32500000D02*
X69430000Y32500000D01*
D11*
X69400000Y32400000D02*
X69430000Y32400000D01*
D11*
X69400000Y32300000D02*
X69430000Y32300000D01*
D11*
X69400000Y32200000D02*
X69430000Y32200000D01*
D11*
X69300000Y32100000D02*
X69330000Y32100000D01*
D11*
X69400000Y32100000D02*
X69430000Y32100000D01*
D11*
X69500000Y32100000D02*
X69530000Y32100000D01*
D11*
X75000000Y32700000D02*
X75030000Y32700000D01*
D11*
X75100000Y32700000D02*
X75130000Y32700000D01*
D11*
X75200000Y32700000D02*
X75230000Y32700000D01*
D11*
X75300000Y32700000D02*
X75330000Y32700000D01*
D11*
X75400000Y32700000D02*
X75430000Y32700000D01*
D11*
X75200000Y32600000D02*
X75230000Y32600000D01*
D11*
X75200000Y32500000D02*
X75230000Y32500000D01*
D11*
X75200000Y32400000D02*
X75230000Y32400000D01*
D11*
X75200000Y32300000D02*
X75230000Y32300000D01*
D11*
X75200000Y32200000D02*
X75230000Y32200000D01*
D11*
X75200000Y32100000D02*
X75230000Y32100000D01*
D11*
X75600000Y32700000D02*
X75630000Y32700000D01*
D11*
X75700000Y32700000D02*
X75730000Y32700000D01*
D11*
X75800000Y32700000D02*
X75830000Y32700000D01*
D11*
X75900000Y32700000D02*
X75930000Y32700000D01*
D11*
X75600000Y32600000D02*
X75630000Y32600000D01*
D11*
X76000000Y32600000D02*
X76030000Y32600000D01*
D11*
X75600000Y32500000D02*
X75630000Y32500000D01*
D11*
X76000000Y32500000D02*
X76030000Y32500000D01*
D11*
X75600000Y32400000D02*
X75630000Y32400000D01*
D11*
X75700000Y32400000D02*
X75730000Y32400000D01*
D11*
X75800000Y32400000D02*
X75830000Y32400000D01*
D11*
X75900000Y32400000D02*
X75930000Y32400000D01*
D11*
X75600000Y32300000D02*
X75630000Y32300000D01*
D11*
X75600000Y32200000D02*
X75630000Y32200000D01*
D11*
X75600000Y32100000D02*
X75630000Y32100000D01*
D11*
X76300000Y32700000D02*
X76330000Y32700000D01*
D11*
X76400000Y32700000D02*
X76430000Y32700000D01*
D11*
X76500000Y32700000D02*
X76530000Y32700000D01*
D11*
X76200000Y32600000D02*
X76230000Y32600000D01*
D11*
X76600000Y32600000D02*
X76630000Y32600000D01*
D11*
X76600000Y32500000D02*
X76630000Y32500000D01*
D11*
X76500000Y32400000D02*
X76530000Y32400000D01*
D11*
X76400000Y32300000D02*
X76430000Y32300000D01*
D11*
X76300000Y32200000D02*
X76330000Y32200000D01*
D11*
X76200000Y32100000D02*
X76230000Y32100000D01*
D11*
X76300000Y32100000D02*
X76330000Y32100000D01*
D11*
X76400000Y32100000D02*
X76430000Y32100000D01*
D11*
X76500000Y32100000D02*
X76530000Y32100000D01*
D11*
X76600000Y32100000D02*
X76630000Y32100000D01*
D11*
X45000000Y57700000D02*
X45030000Y57700000D01*
D11*
X45100000Y57700000D02*
X45130000Y57700000D01*
D11*
X45200000Y57700000D02*
X45230000Y57700000D01*
D11*
X45300000Y57700000D02*
X45330000Y57700000D01*
D11*
X45400000Y57700000D02*
X45430000Y57700000D01*
D11*
X45200000Y57600000D02*
X45230000Y57600000D01*
D11*
X45200000Y57500000D02*
X45230000Y57500000D01*
D11*
X45200000Y57400000D02*
X45230000Y57400000D01*
D11*
X45200000Y57300000D02*
X45230000Y57300000D01*
D11*
X45200000Y57200000D02*
X45230000Y57200000D01*
D11*
X45200000Y57100000D02*
X45230000Y57100000D01*
D11*
X45600000Y57700000D02*
X45630000Y57700000D01*
D11*
X45700000Y57700000D02*
X45730000Y57700000D01*
D11*
X45800000Y57700000D02*
X45830000Y57700000D01*
D11*
X45900000Y57700000D02*
X45930000Y57700000D01*
D11*
X45600000Y57600000D02*
X45630000Y57600000D01*
D11*
X46000000Y57600000D02*
X46030000Y57600000D01*
D11*
X45600000Y57500000D02*
X45630000Y57500000D01*
D11*
X46000000Y57500000D02*
X46030000Y57500000D01*
D11*
X45600000Y57400000D02*
X45630000Y57400000D01*
D11*
X45700000Y57400000D02*
X45730000Y57400000D01*
D11*
X45800000Y57400000D02*
X45830000Y57400000D01*
D11*
X45900000Y57400000D02*
X45930000Y57400000D01*
D11*
X45600000Y57300000D02*
X45630000Y57300000D01*
D11*
X45600000Y57200000D02*
X45630000Y57200000D01*
D11*
X45600000Y57100000D02*
X45630000Y57100000D01*
D11*
X46200000Y57700000D02*
X46230000Y57700000D01*
D11*
X46300000Y57700000D02*
X46330000Y57700000D01*
D11*
X46400000Y57700000D02*
X46430000Y57700000D01*
D11*
X46500000Y57700000D02*
X46530000Y57700000D01*
D11*
X46600000Y57600000D02*
X46630000Y57600000D01*
D11*
X46600000Y57500000D02*
X46630000Y57500000D01*
D11*
X46300000Y57400000D02*
X46330000Y57400000D01*
D11*
X46400000Y57400000D02*
X46430000Y57400000D01*
D11*
X46500000Y57400000D02*
X46530000Y57400000D01*
D11*
X46600000Y57300000D02*
X46630000Y57300000D01*
D11*
X46600000Y57200000D02*
X46630000Y57200000D01*
D11*
X46200000Y57100000D02*
X46230000Y57100000D01*
D11*
X46300000Y57100000D02*
X46330000Y57100000D01*
D11*
X46400000Y57100000D02*
X46430000Y57100000D01*
D11*
X46500000Y57100000D02*
X46530000Y57100000D01*
D11*
X70000000Y44700000D02*
X70030000Y44700000D01*
D11*
X70100000Y44700000D02*
X70130000Y44700000D01*
D11*
X70200000Y44700000D02*
X70230000Y44700000D01*
D11*
X70300000Y44700000D02*
X70330000Y44700000D01*
D11*
X70400000Y44700000D02*
X70430000Y44700000D01*
D11*
X70200000Y44600000D02*
X70230000Y44600000D01*
D11*
X70200000Y44500000D02*
X70230000Y44500000D01*
D11*
X70200000Y44400000D02*
X70230000Y44400000D01*
D11*
X70200000Y44300000D02*
X70230000Y44300000D01*
D11*
X70200000Y44200000D02*
X70230000Y44200000D01*
D11*
X70200000Y44100000D02*
X70230000Y44100000D01*
D11*
X70600000Y44700000D02*
X70630000Y44700000D01*
D11*
X70700000Y44700000D02*
X70730000Y44700000D01*
D11*
X70800000Y44700000D02*
X70830000Y44700000D01*
D11*
X70900000Y44700000D02*
X70930000Y44700000D01*
D11*
X70600000Y44600000D02*
X70630000Y44600000D01*
D11*
X71000000Y44600000D02*
X71030000Y44600000D01*
D11*
X70600000Y44500000D02*
X70630000Y44500000D01*
D11*
X71000000Y44500000D02*
X71030000Y44500000D01*
D11*
X70600000Y44400000D02*
X70630000Y44400000D01*
D11*
X70700000Y44400000D02*
X70730000Y44400000D01*
D11*
X70800000Y44400000D02*
X70830000Y44400000D01*
D11*
X70900000Y44400000D02*
X70930000Y44400000D01*
D11*
X70600000Y44300000D02*
X70630000Y44300000D01*
D11*
X70600000Y44200000D02*
X70630000Y44200000D01*
D11*
X70600000Y44100000D02*
X70630000Y44100000D01*
D11*
X71500000Y44700000D02*
X71530000Y44700000D01*
D11*
X71400000Y44600000D02*
X71430000Y44600000D01*
D11*
X71500000Y44600000D02*
X71530000Y44600000D01*
D11*
X71300000Y44500000D02*
X71330000Y44500000D01*
D11*
X71500000Y44500000D02*
X71530000Y44500000D01*
D11*
X71200000Y44400000D02*
X71230000Y44400000D01*
D11*
X71500000Y44400000D02*
X71530000Y44400000D01*
D11*
X71200000Y44300000D02*
X71230000Y44300000D01*
D11*
X71300000Y44300000D02*
X71330000Y44300000D01*
D11*
X71400000Y44300000D02*
X71430000Y44300000D01*
D11*
X71500000Y44300000D02*
X71530000Y44300000D01*
D11*
X71600000Y44300000D02*
X71630000Y44300000D01*
D11*
X71500000Y44200000D02*
X71530000Y44200000D01*
D11*
X71500000Y44100000D02*
X71530000Y44100000D01*
M02*
