M48
; DRILL file {KiCad 9.0.9} date 2026-09-16T16:33:33+0000
; FORMAT={-:-/ absolute / metric / decimal}
; #@! TF.CreationDate,2026-09-16T16:33:33+00:00
; #@! TF.GenerationSoftware,Kicad,Pcbnew,9.0.9
; #@! TF.FileFunction,Plated,1,2,PTH
FMAT,2
METRIC
; #@! TA.AperFunction,Plated,PTH,ViaDrill
T1C0.350
; #@! TA.AperFunction,Plated,PTH,ComponentDrill
T2C1.000
; #@! TA.AperFunction,Plated,PTH,ComponentDrill
T3C1.300
%
G90
G05
T1
X11.8Y-31.2
X14.6Y-74.4
X15.4Y-54.8
X16.2Y-66.8
X17.2Y-70.0
X17.2Y-72.8
X29.2Y-70.0
X29.2Y-75.2
X29.8Y-62.6
X30.2Y-75.2
X31.4Y-72.4
X32.2Y-50.8
X32.2Y-55.6
X33.0Y-71.6
X33.8Y-53.2
X33.8Y-54.8
X34.6Y-59.2
X38.4Y-54.4
X40.0Y-53.4
X41.0Y-53.4
X41.4Y-58.4
X41.4Y-61.2
X42.0Y-53.4
X42.8Y-62.4
X43.0Y-53.4
X43.0Y-56.0
X44.0Y-53.4
X46.0Y-48.8
X47.0Y-53.4
X47.0Y-56.0
X51.4Y-20.2
X54.0Y-32.2
X55.0Y-67.0
X55.2Y-27.8
X56.0Y-28.4
X56.0Y-32.2
X56.0Y-53.2
X56.6Y-29.2
X57.0Y-37.6
X57.0Y-49.2
X57.8Y-29.2
X58.0Y-48.0
X58.0Y-51.2
X60.0Y-68.0
X62.0Y-45.2
X63.0Y-43.8
X64.0Y-45.2
X64.8Y-44.0
X69.0Y-53.2
X80.8Y-54.4
X82.0Y-48.2
X82.0Y-54.0
X94.6Y-17.6
T2
X9.0Y-77.0
X9.0Y-79.5
X14.0Y-16.0
X14.0Y-18.54
X14.0Y-21.08
X14.0Y-23.62
X14.0Y-26.16
X14.0Y-28.7
X14.0Y-31.24
X14.0Y-33.78
X14.0Y-36.32
X14.0Y-38.86
X14.0Y-41.4
X14.0Y-43.94
X14.0Y-46.48
X14.0Y-49.02
X14.0Y-51.56
X14.0Y-54.1
X14.0Y-56.64
X14.0Y-59.18
X14.0Y-61.72
X14.0Y-64.26
X14.0Y-66.8
X14.0Y-69.34
X20.0Y-77.0
X20.0Y-79.5
X31.0Y-77.0
X31.0Y-79.5
X36.86Y-16.0
X36.86Y-18.54
X36.86Y-21.08
X36.86Y-23.62
X36.86Y-26.16
X36.86Y-28.7
X36.86Y-31.24
X36.86Y-33.78
X36.86Y-36.32
X36.86Y-38.86
X36.86Y-41.4
X36.86Y-43.94
X36.86Y-46.48
X36.86Y-49.02
X36.86Y-51.56
X36.86Y-54.1
X36.86Y-56.64
X36.86Y-59.18
X36.86Y-61.72
X36.86Y-64.26
X36.86Y-66.8
X36.86Y-69.34
X42.0Y-77.0
X44.54Y-77.0
X46.0Y-36.0
X53.0Y-16.0
X53.0Y-18.5
X53.0Y-21.0
X53.0Y-23.5
X53.0Y-26.0
X53.0Y-28.5
X57.0Y-78.0
X62.08Y-78.0
X69.0Y-61.0
X71.0Y-49.0
X76.0Y-61.0
X77.0Y-40.0
X77.0Y-42.5
X77.0Y-45.0
X80.0Y-70.0
X85.0Y-70.0
X92.0Y-15.0
X92.0Y-17.5
X92.0Y-20.0
X92.0Y-22.5
X92.0Y-25.0
X92.0Y-27.5
X92.0Y-30.0
X92.0Y-32.5
X92.0Y-44.0
X92.0Y-46.5
X92.0Y-49.0
X92.0Y-51.5
X92.0Y-54.0
X92.0Y-56.5
T3
X72.0Y-82.0
X77.08Y-82.0
M30
