%TF.GenerationSoftware,KiCad,Pcbnew,9.0.9*%
%TF.CreationDate,2026-09-16T16:33:32+00:00*%
%TF.ProjectId,aether-carrier,61657468-6572-42d6-9361-72726965722e,rev?*%
%TF.SameCoordinates,Original*%
%TF.FileFunction,Copper,L1,Top*%
%TF.FilePolarity,Positive*%
%FSLAX46Y46*%
G04 Gerber Fmt 4.6, Leading zero omitted, Abs format (unit mm)*
G04 Created by KiCad (PCBNEW 9.0.9) date 2026-09-16 16:33:32*
%MOMM*%
%LPD*%
G01*
G04 APERTURE LIST*
%TA.AperFunction,ComponentPad*%
%ADD10R,1.800000X1.800000*%
%TD*%
%TA.AperFunction,ComponentPad*%
%ADD11C,1.800000*%
%TD*%
%TA.AperFunction,ComponentPad*%
%ADD12R,2.800000X2.800000*%
%TD*%
%TA.AperFunction,ComponentPad*%
%ADD13C,2.800000*%
%TD*%
%TA.AperFunction,ComponentPad*%
%ADD14C,2.400000*%
%TD*%
%TA.AperFunction,SMDPad,CuDef*%
%ADD15R,0.900000X1.100000*%
%TD*%
%TA.AperFunction,SMDPad,CuDef*%
%ADD16R,1.200000X1.400000*%
%TD*%
%TA.AperFunction,ComponentPad*%
%ADD17R,2.400000X2.400000*%
%TD*%
%TA.AperFunction,ComponentPad*%
%ADD18R,1.850000X1.850000*%
%TD*%
%TA.AperFunction,ComponentPad*%
%ADD19C,1.850000*%
%TD*%
%TA.AperFunction,SMDPad,CuDef*%
%ADD20R,0.650000X1.200000*%
%TD*%
%TA.AperFunction,ComponentPad*%
%ADD21C,2.000000*%
%TD*%
%TA.AperFunction,ViaPad*%
%ADD22C,0.700000*%
%TD*%
%TA.AperFunction,Conductor*%
%ADD23C,0.300000*%
%TD*%
%TA.AperFunction,Conductor*%
%ADD24C,0.800000*%
%TD*%
%TA.AperFunction,Conductor*%
%ADD25C,0.600000*%
%TD*%
%TA.AperFunction,Conductor*%
%ADD26C,0.500000*%
%TD*%
G04 APERTURE END LIST*
D10*
%TO.P,J1,1*%
%TO.N,3V3*%
X14000000Y-16000000D03*
D11*
%TO.P,J1,2*%
X14000000Y-18540000D03*
%TO.P,J1,3*%
%TO.N,unconnected-(J1-NC_EN-Pad3)*%
X14000000Y-21080000D03*
%TO.P,J1,4*%
%TO.N,MIC_BCLK*%
X14000000Y-23620000D03*
%TO.P,J1,5*%
%TO.N,MIC_WS*%
X14000000Y-26160000D03*
%TO.P,J1,6*%
%TO.N,MIC_SD*%
X14000000Y-28700000D03*
%TO.P,J1,7*%
%TO.N,LCD_BL*%
X14000000Y-31240000D03*
%TO.P,J1,8*%
%TO.N,AMP_SD*%
X14000000Y-33780000D03*
%TO.P,J1,9*%
%TO.N,AMP_BCLK*%
X14000000Y-36320000D03*
%TO.P,J1,10*%
%TO.N,AMP_WS*%
X14000000Y-38860000D03*
%TO.P,J1,11*%
%TO.N,AMP_DIN*%
X14000000Y-41400000D03*
%TO.P,J1,12*%
%TO.N,LCD_RST*%
X14000000Y-43940000D03*
%TO.P,J1,13*%
%TO.N,unconnected-(J1-NC_GPIO3-Pad13)*%
X14000000Y-46480000D03*
%TO.P,J1,14*%
%TO.N,unconnected-(J1-NC_GPIO46-Pad14)*%
X14000000Y-49020000D03*
%TO.P,J1,15*%
%TO.N,LCD_DC*%
X14000000Y-51560000D03*
%TO.P,J1,16*%
%TO.N,LCD_CS*%
X14000000Y-54100000D03*
%TO.P,J1,17*%
%TO.N,LCD_MOSI*%
X14000000Y-56640000D03*
%TO.P,J1,18*%
%TO.N,LCD_SCK*%
X14000000Y-59180000D03*
%TO.P,J1,19*%
%TO.N,NEXT*%
X14000000Y-61720000D03*
%TO.P,J1,20*%
%TO.N,PTT*%
X14000000Y-64260000D03*
%TO.P,J1,21*%
%TO.N,DEV_5V*%
X14000000Y-66800000D03*
%TO.P,J1,22*%
%TO.N,GND*%
X14000000Y-69340000D03*
%TD*%
D10*
%TO.P,J2,1*%
%TO.N,GND*%
X36860000Y-16000000D03*
D11*
%TO.P,J2,2*%
%TO.N,unconnected-(J2-NC_TX43-Pad2)*%
X36860000Y-18540000D03*
%TO.P,J2,3*%
%TO.N,unconnected-(J2-NC_RX44-Pad3)*%
X36860000Y-21080000D03*
%TO.P,J2,4*%
%TO.N,unconnected-(J2-NC_GPIO1-Pad4)*%
X36860000Y-23620000D03*
%TO.P,J2,5*%
%TO.N,unconnected-(J2-NC_GPIO2-Pad5)*%
X36860000Y-26160000D03*
%TO.P,J2,6*%
%TO.N,unconnected-(J2-NC_GPIO42-Pad6)*%
X36860000Y-28700000D03*
%TO.P,J2,7*%
%TO.N,unconnected-(J2-NC_GPIO41-Pad7)*%
X36860000Y-31240000D03*
%TO.P,J2,8*%
%TO.N,unconnected-(J2-NC_GPIO40-Pad8)*%
X36860000Y-33780000D03*
%TO.P,J2,9*%
%TO.N,unconnected-(J2-NC_GPIO39-Pad9)*%
X36860000Y-36320000D03*
%TO.P,J2,10*%
%TO.N,unconnected-(J2-NC_GPIO38-Pad10)*%
X36860000Y-38860000D03*
%TO.P,J2,11*%
%TO.N,unconnected-(J2-NC_GPIO37-Pad11)*%
X36860000Y-41400000D03*
%TO.P,J2,12*%
%TO.N,unconnected-(J2-NC_GPIO36-Pad12)*%
X36860000Y-43940000D03*
%TO.P,J2,13*%
%TO.N,unconnected-(J2-NC_GPIO35-Pad13)*%
X36860000Y-46480000D03*
%TO.P,J2,14*%
%TO.N,unconnected-(J2-NC_GPIO0-Pad14)*%
X36860000Y-49020000D03*
%TO.P,J2,15*%
%TO.N,unconnected-(J2-NC_GPIO45-Pad15)*%
X36860000Y-51560000D03*
%TO.P,J2,16*%
%TO.N,unconnected-(J2-NC_GPIO48-Pad16)*%
X36860000Y-54100000D03*
%TO.P,J2,17*%
%TO.N,REC_LED*%
X36860000Y-56640000D03*
%TO.P,J2,18*%
%TO.N,LED_DATA*%
X36860000Y-59180000D03*
%TO.P,J2,19*%
%TO.N,unconnected-(J2-NC_USB20-Pad19)*%
X36860000Y-61720000D03*
%TO.P,J2,20*%
%TO.N,unconnected-(J2-NC_USB19-Pad20)*%
X36860000Y-64260000D03*
%TO.P,J2,21*%
%TO.N,GND*%
X36860000Y-66800000D03*
%TO.P,J2,22*%
X36860000Y-69340000D03*
%TD*%
D12*
%TO.P,J3,1*%
%TO.N,VIN5*%
X72000000Y-82000000D03*
D13*
%TO.P,J3,2*%
%TO.N,GND*%
X77080000Y-82000000D03*
%TD*%
D14*
%TO.P,F1,1*%
%TO.N,VIN5*%
X57000000Y-78000000D03*
%TO.P,F1,2*%
%TO.N,FUSED5*%
X62080000Y-78000000D03*
%TD*%
D15*
%TO.P,Q1,1*%
%TO.N,Q_GATE*%
X58050000Y-68000000D03*
%TO.P,Q1,2*%
%TO.N,5V_SYS*%
X59950000Y-68000000D03*
%TO.P,Q1,3*%
%TO.N,FUSED5*%
X59000000Y-66000000D03*
%TD*%
D16*
%TO.P,R1,1*%
%TO.N,Q_GATE*%
X53000000Y-67000000D03*
%TO.P,R1,2*%
%TO.N,GND*%
X55000000Y-67000000D03*
%TD*%
D17*
%TO.P,C1,1*%
%TO.N,5V_SYS*%
X80000000Y-70000000D03*
D14*
%TO.P,C1,2*%
%TO.N,GND*%
X85000000Y-70000000D03*
%TD*%
D11*
%TO.P,JP1,1*%
%TO.N,5V_SYS*%
X42000000Y-77000000D03*
%TO.P,JP1,2*%
%TO.N,DEV_5V*%
X44540000Y-77000000D03*
%TD*%
D18*
%TO.P,J4,1*%
%TO.N,5V_SYS*%
X92000000Y-15000000D03*
D19*
%TO.P,J4,2*%
%TO.N,GND*%
X92000000Y-17500000D03*
%TO.P,J4,3*%
%TO.N,LCD_SCK_R*%
X92000000Y-20000000D03*
%TO.P,J4,4*%
%TO.N,LCD_MOSI_R*%
X92000000Y-22500000D03*
%TO.P,J4,5*%
%TO.N,LCD_CS*%
X92000000Y-25000000D03*
%TO.P,J4,6*%
%TO.N,LCD_DC*%
X92000000Y-27500000D03*
%TO.P,J4,7*%
%TO.N,LCD_RST*%
X92000000Y-30000000D03*
%TO.P,J4,8*%
%TO.N,LCD_BL*%
X92000000Y-32500000D03*
%TD*%
D16*
%TO.P,R2,1*%
%TO.N,LCD_SCK*%
X71000000Y-21000000D03*
%TO.P,R2,2*%
%TO.N,LCD_SCK_R*%
X73000000Y-21000000D03*
%TD*%
%TO.P,R3,1*%
%TO.N,LCD_MOSI*%
X71000000Y-27000000D03*
%TO.P,R3,2*%
%TO.N,LCD_MOSI_R*%
X73000000Y-27000000D03*
%TD*%
D18*
%TO.P,J5,1*%
%TO.N,3V3*%
X53000000Y-16000000D03*
D19*
%TO.P,J5,2*%
%TO.N,GND*%
X53000000Y-18500000D03*
%TO.P,J5,3*%
%TO.N,MIC_BCLK*%
X53000000Y-21000000D03*
%TO.P,J5,4*%
%TO.N,MIC_WS*%
X53000000Y-23500000D03*
%TO.P,J5,5*%
%TO.N,MIC_SD*%
X53000000Y-26000000D03*
%TO.P,J5,6*%
%TO.N,GND*%
X53000000Y-28500000D03*
%TD*%
D18*
%TO.P,J6,1*%
%TO.N,5V_SYS*%
X92000000Y-44000000D03*
D19*
%TO.P,J6,2*%
%TO.N,GND*%
X92000000Y-46500000D03*
%TO.P,J6,3*%
%TO.N,AMP_BCLK*%
X92000000Y-49000000D03*
%TO.P,J6,4*%
%TO.N,AMP_WS*%
X92000000Y-51500000D03*
%TO.P,J6,5*%
%TO.N,AMP_DIN*%
X92000000Y-54000000D03*
%TO.P,J6,6*%
%TO.N,AMP_SD*%
X92000000Y-56500000D03*
%TD*%
D16*
%TO.P,R4,1*%
%TO.N,AMP_SD*%
X80000000Y-54000000D03*
%TO.P,R4,2*%
%TO.N,GND*%
X82000000Y-54000000D03*
%TD*%
D20*
%TO.P,U1,1*%
%TO.N,GND*%
X62050000Y-45100000D03*
%TO.P,U1,2*%
%TO.N,LED_DATA*%
X63000000Y-45100000D03*
%TO.P,U1,3*%
%TO.N,GND*%
X63950000Y-45100000D03*
%TO.P,U1,4*%
%TO.N,LED_5V_BUF*%
X63950000Y-42900000D03*
%TO.P,U1,5*%
%TO.N,5V_SYS*%
X62050000Y-42900000D03*
%TD*%
D16*
%TO.P,C2,1*%
%TO.N,5V_SYS*%
X58000000Y-40000000D03*
%TO.P,C2,2*%
%TO.N,GND*%
X60000000Y-40000000D03*
%TD*%
%TO.P,R5,1*%
%TO.N,LED_DATA*%
X56000000Y-48000000D03*
%TO.P,R5,2*%
%TO.N,GND*%
X58000000Y-48000000D03*
%TD*%
%TO.P,R6,1*%
%TO.N,LED_5V_BUF*%
X69000000Y-42000000D03*
%TO.P,R6,2*%
%TO.N,LED_DIN*%
X71000000Y-42000000D03*
%TD*%
D18*
%TO.P,J7,1*%
%TO.N,5V_SYS*%
X77000000Y-40000000D03*
D19*
%TO.P,J7,2*%
%TO.N,GND*%
X77000000Y-42500000D03*
%TO.P,J7,3*%
%TO.N,LED_DIN*%
X77000000Y-45000000D03*
%TD*%
D18*
%TO.P,J8,1*%
%TO.N,PTT*%
X9000000Y-77000000D03*
D19*
%TO.P,J8,2*%
%TO.N,GND*%
X9000000Y-79500000D03*
%TD*%
D18*
%TO.P,J9,1*%
%TO.N,NEXT*%
X20000000Y-77000000D03*
D19*
%TO.P,J9,2*%
%TO.N,GND*%
X20000000Y-79500000D03*
%TD*%
D18*
%TO.P,J10,1*%
%TO.N,REC_ANODE*%
X31000000Y-77000000D03*
D19*
%TO.P,J10,2*%
%TO.N,GND*%
X31000000Y-79500000D03*
%TD*%
D16*
%TO.P,R7,1*%
%TO.N,REC_LED*%
X47000000Y-62000000D03*
%TO.P,R7,2*%
%TO.N,REC_ANODE*%
X49000000Y-62000000D03*
%TD*%
%TO.P,R8,1*%
%TO.N,PTT*%
X45000000Y-53000000D03*
%TO.P,R8,2*%
%TO.N,3V3*%
X47000000Y-53000000D03*
%TD*%
%TO.P,R9,1*%
%TO.N,NEXT*%
X45000000Y-58000000D03*
%TO.P,R9,2*%
%TO.N,3V3*%
X47000000Y-58000000D03*
%TD*%
%TO.P,C3,1*%
%TO.N,3V3*%
X53000000Y-35000000D03*
%TO.P,C3,2*%
%TO.N,GND*%
X55000000Y-35000000D03*
%TD*%
D21*
%TO.P,TP1,1*%
%TO.N,5V_SYS*%
X69000000Y-61000000D03*
%TD*%
%TO.P,TP2,1*%
%TO.N,GND*%
X76000000Y-61000000D03*
%TD*%
%TO.P,TP3,1*%
%TO.N,3V3*%
X46000000Y-36000000D03*
%TD*%
%TO.P,TP4,1*%
%TO.N,LED_DIN*%
X71000000Y-49000000D03*
%TD*%
D22*
%TO.N,AMP_SD*%
X38400000Y-54400000D03*
X80800000Y-54400000D03*
%TO.N,LCD_BL*%
X11800000Y-31200000D03*
%TO.N,LED_DATA*%
X34600000Y-59200000D03*
X43000000Y-56000000D03*
X43000000Y-53400000D03*
%TO.N,AMP_WS*%
X33800000Y-53200000D03*
X33800000Y-54800000D03*
%TO.N,LCD_DC*%
X15400000Y-54800000D03*
%TO.N,AMP_BCLK*%
X32200000Y-50800000D03*
X32200000Y-55600000D03*
X33000000Y-71600000D03*
%TO.N,LCD_MOSI*%
X31400000Y-72400000D03*
X40000000Y-53400000D03*
%TO.N,MIC_SD*%
X41000000Y-53400000D03*
X55200000Y-27800000D03*
%TO.N,MIC_WS*%
X42000000Y-53400000D03*
X56000000Y-28400000D03*
%TO.N,NEXT*%
X41400000Y-61200000D03*
X41400000Y-58400000D03*
%TO.N,PTT*%
X14600000Y-74400000D03*
X44000000Y-53400000D03*
%TO.N,REC_LED*%
X29800000Y-62600000D03*
X30200000Y-75200000D03*
X42800000Y-62400000D03*
%TO.N,5V_SYS*%
X60000000Y-68000000D03*
X69000000Y-53200000D03*
X64800000Y-44000000D03*
X63000000Y-43800000D03*
%TO.N,DEV_5V*%
X16200000Y-66800000D03*
%TO.N,GND*%
X17200000Y-70000000D03*
X17200000Y-72800000D03*
X29200000Y-75200000D03*
X29200000Y-70000000D03*
X55000000Y-67000000D03*
X58000000Y-51200000D03*
X58000000Y-48000000D03*
X62000000Y-45200000D03*
X64000000Y-45200000D03*
X56600000Y-29200000D03*
X51400000Y-20200000D03*
X82000000Y-48200000D03*
X82000000Y-54000000D03*
X94600000Y-17600000D03*
%TO.N,3V3*%
X56000000Y-53200000D03*
X57000000Y-49200000D03*
X57000000Y-37600000D03*
X57800000Y-29200000D03*
X56000000Y-32200000D03*
X54000000Y-32200000D03*
X46000000Y-48800000D03*
X47000000Y-53400000D03*
X47000000Y-56000000D03*
%TD*%
D23*
%TO.N,AMP_DIN*%
X14000000Y-41400000D02*
X14000000Y-42600000D01*
X14000000Y-42600000D02*
X14600000Y-42600000D01*
X14600000Y-42600000D02*
X14600000Y-42800000D01*
X14600000Y-42800000D02*
X15000000Y-42800000D01*
X15000000Y-42800000D02*
X15000000Y-43000000D01*
X15000000Y-43000000D02*
X15200000Y-43000000D01*
X15200000Y-43000000D02*
X15200000Y-43400000D01*
X15200000Y-43400000D02*
X15400000Y-43400000D01*
X15400000Y-43400000D02*
X15400000Y-54000000D01*
X15400000Y-54000000D02*
X35400000Y-54000000D01*
X35400000Y-54000000D02*
X35400000Y-69600000D01*
X35400000Y-69600000D02*
X35600000Y-69600000D01*
X35600000Y-69600000D02*
X35600000Y-70200000D01*
X35600000Y-70200000D02*
X35800000Y-70200000D01*
X35800000Y-70200000D02*
X35800000Y-70400000D01*
X35800000Y-70400000D02*
X36000000Y-70400000D01*
X36000000Y-70400000D02*
X36000000Y-70600000D01*
X36000000Y-70600000D02*
X36600000Y-70600000D01*
X36600000Y-70600000D02*
X36600000Y-70800000D01*
X36600000Y-70800000D02*
X37200000Y-70800000D01*
X37200000Y-70800000D02*
X37200000Y-70600000D01*
X37200000Y-70600000D02*
X37600000Y-70600000D01*
X37600000Y-70600000D02*
X37600000Y-70400000D01*
X37600000Y-70400000D02*
X38000000Y-70400000D01*
X38000000Y-70400000D02*
X38000000Y-70000000D01*
X38000000Y-70000000D02*
X38200000Y-70000000D01*
X38200000Y-70000000D02*
X38200000Y-55200000D01*
X38200000Y-55200000D02*
X83000000Y-55200000D01*
X83000000Y-55200000D02*
X83000000Y-54000000D01*
X83000000Y-54000000D02*
X92000000Y-54000000D01*
%TO.N,LCD_SCK*%
X14000000Y-59180000D02*
X14000000Y-59200000D01*
X14000000Y-59200000D02*
X14000000Y-58000000D01*
X14000000Y-58000000D02*
X13400000Y-58000000D01*
X13400000Y-58000000D02*
X13400000Y-57800000D01*
X13400000Y-57800000D02*
X13000000Y-57800000D01*
X13000000Y-57800000D02*
X13000000Y-57600000D01*
X13000000Y-57600000D02*
X12800000Y-57600000D01*
X12800000Y-57600000D02*
X12800000Y-57200000D01*
X12800000Y-57200000D02*
X12600000Y-57200000D01*
X12600000Y-57200000D02*
X12600000Y-14800000D01*
X12600000Y-14800000D02*
X12800000Y-14800000D01*
X12800000Y-14800000D02*
X12800000Y-14600000D01*
X12800000Y-14600000D02*
X54200000Y-14600000D01*
X54200000Y-14600000D02*
X54200000Y-14800000D01*
X54200000Y-14800000D02*
X54400000Y-14800000D01*
X54400000Y-14800000D02*
X54400000Y-21000000D01*
X54400000Y-21000000D02*
X71000000Y-21000000D01*
%TO.N,AMP_SD*%
X38400000Y-54400000D02*
X38400000Y-54200000D01*
X38400000Y-54200000D02*
X48000000Y-54200000D01*
X48000000Y-54200000D02*
X48000000Y-54000000D01*
X48000000Y-54000000D02*
X80000000Y-54000000D01*
X80000000Y-54000000D02*
X80000000Y-54400000D01*
X80000000Y-54400000D02*
X80800000Y-54400000D01*
%TO.N,LCD_BL*%
X11800000Y-31200000D02*
X12000000Y-31200000D01*
X12000000Y-31200000D02*
X12000000Y-14400000D01*
X12000000Y-14400000D02*
X12200000Y-14400000D01*
X12200000Y-14400000D02*
X12200000Y-14200000D01*
X12200000Y-14200000D02*
X12400000Y-14200000D01*
X12400000Y-14200000D02*
X12400000Y-14000000D01*
X12400000Y-14000000D02*
X54600000Y-14000000D01*
X54600000Y-14000000D02*
X54600000Y-14200000D01*
X54600000Y-14200000D02*
X54800000Y-14200000D01*
X54800000Y-14200000D02*
X54800000Y-14400000D01*
X54800000Y-14400000D02*
X55000000Y-14400000D01*
X55000000Y-14400000D02*
X55000000Y-19800000D01*
X55000000Y-19800000D02*
X72000000Y-19800000D01*
X72000000Y-19800000D02*
X72000000Y-32400000D01*
X72000000Y-32400000D02*
X92000000Y-32400000D01*
X92000000Y-32400000D02*
X92000000Y-32500000D01*
%TO.N,LED_DATA*%
X34600000Y-59200000D02*
X34800000Y-59200000D01*
X34800000Y-59200000D02*
X34800000Y-70000000D01*
X34800000Y-70000000D02*
X35000000Y-70000000D01*
X35000000Y-70000000D02*
X35000000Y-70600000D01*
X35000000Y-70600000D02*
X35200000Y-70600000D01*
X35200000Y-70600000D02*
X35200000Y-70800000D01*
X35200000Y-70800000D02*
X35400000Y-70800000D01*
X35400000Y-70800000D02*
X35400000Y-71000000D01*
X35400000Y-71000000D02*
X35600000Y-71000000D01*
X35600000Y-71000000D02*
X35600000Y-71200000D01*
X35600000Y-71200000D02*
X36200000Y-71200000D01*
X36200000Y-71200000D02*
X36200000Y-71400000D01*
X36200000Y-71400000D02*
X37600000Y-71400000D01*
X37600000Y-71400000D02*
X37600000Y-71200000D01*
X37600000Y-71200000D02*
X38000000Y-71200000D01*
X38000000Y-71200000D02*
X38000000Y-71000000D01*
X38000000Y-71000000D02*
X38400000Y-71000000D01*
X38400000Y-71000000D02*
X38400000Y-70800000D01*
X38400000Y-70800000D02*
X38600000Y-70800000D01*
X38600000Y-70800000D02*
X38600000Y-70400000D01*
X38600000Y-70400000D02*
X38800000Y-70400000D01*
X38800000Y-70400000D02*
X38800000Y-56000000D01*
X38800000Y-56000000D02*
X43000000Y-56000000D01*
X43000000Y-53400000D02*
X43000000Y-48000000D01*
X43000000Y-48000000D02*
X56000000Y-48000000D01*
X56000000Y-48000000D02*
X56000000Y-46200000D01*
X56000000Y-46200000D02*
X62800000Y-46200000D01*
X62800000Y-46200000D02*
X62800000Y-45200000D01*
X62800000Y-45200000D02*
X63000000Y-45200000D01*
X63000000Y-45200000D02*
X63000000Y-45100000D01*
%TO.N,AMP_WS*%
X14000000Y-38860000D02*
X14000000Y-38800000D01*
X14000000Y-38800000D02*
X14000000Y-40000000D01*
X14000000Y-40000000D02*
X14600000Y-40000000D01*
X14600000Y-40000000D02*
X14600000Y-40200000D01*
X14600000Y-40200000D02*
X15000000Y-40200000D01*
X15000000Y-40200000D02*
X15000000Y-40400000D01*
X15000000Y-40400000D02*
X15200000Y-40400000D01*
X15200000Y-40400000D02*
X15200000Y-40800000D01*
X15200000Y-40800000D02*
X15400000Y-40800000D01*
X15400000Y-40800000D02*
X15400000Y-42400000D01*
X15400000Y-42400000D02*
X15600000Y-42400000D01*
X15600000Y-42400000D02*
X15600000Y-42600000D01*
X15600000Y-42600000D02*
X15800000Y-42600000D01*
X15800000Y-42600000D02*
X15800000Y-43000000D01*
X15800000Y-43000000D02*
X16000000Y-43000000D01*
X16000000Y-43000000D02*
X16000000Y-51600000D01*
X16000000Y-51600000D02*
X33800000Y-51600000D01*
X33800000Y-51600000D02*
X33800000Y-53200000D01*
X33800000Y-54800000D02*
X33800000Y-59800000D01*
X33800000Y-59800000D02*
X34000000Y-59800000D01*
X34000000Y-59800000D02*
X34000000Y-60000000D01*
X34000000Y-60000000D02*
X34200000Y-60000000D01*
X34200000Y-60000000D02*
X34200000Y-70400000D01*
X34200000Y-70400000D02*
X34400000Y-70400000D01*
X34400000Y-70400000D02*
X34400000Y-71000000D01*
X34400000Y-71000000D02*
X34600000Y-71000000D01*
X34600000Y-71000000D02*
X34600000Y-71200000D01*
X34600000Y-71200000D02*
X34800000Y-71200000D01*
X34800000Y-71200000D02*
X34800000Y-71400000D01*
X34800000Y-71400000D02*
X35000000Y-71400000D01*
X35000000Y-71400000D02*
X35000000Y-71600000D01*
X35000000Y-71600000D02*
X35200000Y-71600000D01*
X35200000Y-71600000D02*
X35200000Y-71800000D01*
X35200000Y-71800000D02*
X35800000Y-71800000D01*
X35800000Y-71800000D02*
X35800000Y-72000000D01*
X35800000Y-72000000D02*
X38000000Y-72000000D01*
X38000000Y-72000000D02*
X38000000Y-71800000D01*
X38000000Y-71800000D02*
X38400000Y-71800000D01*
X38400000Y-71800000D02*
X38400000Y-71600000D01*
X38400000Y-71600000D02*
X38800000Y-71600000D01*
X38800000Y-71600000D02*
X38800000Y-71400000D01*
X38800000Y-71400000D02*
X39000000Y-71400000D01*
X39000000Y-71400000D02*
X39000000Y-71200000D01*
X39000000Y-71200000D02*
X39200000Y-71200000D01*
X39200000Y-71200000D02*
X39200000Y-70800000D01*
X39200000Y-70800000D02*
X39400000Y-70800000D01*
X39400000Y-70800000D02*
X39400000Y-59200000D01*
X39400000Y-59200000D02*
X48000000Y-59200000D01*
X48000000Y-59200000D02*
X48000000Y-58000000D01*
X48000000Y-58000000D02*
X92200000Y-58000000D01*
X92200000Y-58000000D02*
X92200000Y-57800000D01*
X92200000Y-57800000D02*
X92800000Y-57800000D01*
X92800000Y-57800000D02*
X92800000Y-57600000D01*
X92800000Y-57600000D02*
X93000000Y-57600000D01*
X93000000Y-57600000D02*
X93000000Y-57400000D01*
X93000000Y-57400000D02*
X93200000Y-57400000D01*
X93200000Y-57400000D02*
X93200000Y-57200000D01*
X93200000Y-57200000D02*
X93400000Y-57200000D01*
X93400000Y-57200000D02*
X93400000Y-53400000D01*
X93400000Y-53400000D02*
X93200000Y-53400000D01*
X93200000Y-53400000D02*
X93200000Y-53000000D01*
X93200000Y-53000000D02*
X93000000Y-53000000D01*
X93000000Y-53000000D02*
X93000000Y-52800000D01*
X93000000Y-52800000D02*
X92600000Y-52800000D01*
X92600000Y-52800000D02*
X92600000Y-52600000D01*
X92600000Y-52600000D02*
X92000000Y-52600000D01*
X92000000Y-52600000D02*
X92000000Y-51600000D01*
X92000000Y-51600000D02*
X92000000Y-51500000D01*
%TO.N,LCD_DC*%
X15400000Y-54800000D02*
X33000000Y-54800000D01*
X33000000Y-54800000D02*
X33000000Y-55400000D01*
X33000000Y-55400000D02*
X33200000Y-55400000D01*
X33200000Y-55400000D02*
X33200000Y-60200000D01*
X33200000Y-60200000D02*
X33400000Y-60200000D01*
X33400000Y-60200000D02*
X33400000Y-60400000D01*
X33400000Y-60400000D02*
X33600000Y-60400000D01*
X33600000Y-60400000D02*
X33600000Y-70800000D01*
X33600000Y-70800000D02*
X33800000Y-70800000D01*
X33800000Y-70800000D02*
X33800000Y-71400000D01*
X33800000Y-71400000D02*
X34000000Y-71400000D01*
X34000000Y-71400000D02*
X34000000Y-71600000D01*
X34000000Y-71600000D02*
X34200000Y-71600000D01*
X34200000Y-71600000D02*
X34200000Y-71800000D01*
X34200000Y-71800000D02*
X34400000Y-71800000D01*
X34400000Y-71800000D02*
X34400000Y-72000000D01*
X34400000Y-72000000D02*
X34600000Y-72000000D01*
X34600000Y-72000000D02*
X34600000Y-72200000D01*
X34600000Y-72200000D02*
X34800000Y-72200000D01*
X34800000Y-72200000D02*
X34800000Y-72400000D01*
X34800000Y-72400000D02*
X35400000Y-72400000D01*
X35400000Y-72400000D02*
X35400000Y-72600000D01*
X35400000Y-72600000D02*
X38400000Y-72600000D01*
X38400000Y-72600000D02*
X38400000Y-72400000D01*
X38400000Y-72400000D02*
X38800000Y-72400000D01*
X38800000Y-72400000D02*
X38800000Y-72200000D01*
X38800000Y-72200000D02*
X39200000Y-72200000D01*
X39200000Y-72200000D02*
X39200000Y-72000000D01*
X39200000Y-72000000D02*
X39400000Y-72000000D01*
X39400000Y-72000000D02*
X39400000Y-71800000D01*
X39400000Y-71800000D02*
X39600000Y-71800000D01*
X39600000Y-71800000D02*
X39600000Y-71600000D01*
X39600000Y-71600000D02*
X39800000Y-71600000D01*
X39800000Y-71600000D02*
X39800000Y-71200000D01*
X39800000Y-71200000D02*
X40000000Y-71200000D01*
X40000000Y-71200000D02*
X40000000Y-59800000D01*
X40000000Y-59800000D02*
X48400000Y-59800000D01*
X48400000Y-59800000D02*
X48400000Y-59600000D01*
X48400000Y-59600000D02*
X48600000Y-59600000D01*
X48600000Y-59600000D02*
X48600000Y-58600000D01*
X48600000Y-58600000D02*
X92600000Y-58600000D01*
X92600000Y-58600000D02*
X92600000Y-58400000D01*
X92600000Y-58400000D02*
X93200000Y-58400000D01*
X93200000Y-58400000D02*
X93200000Y-58200000D01*
X93200000Y-58200000D02*
X93400000Y-58200000D01*
X93400000Y-58200000D02*
X93400000Y-58000000D01*
X93400000Y-58000000D02*
X93600000Y-58000000D01*
X93600000Y-58000000D02*
X93600000Y-57800000D01*
X93600000Y-57800000D02*
X93800000Y-57800000D01*
X93800000Y-57800000D02*
X93800000Y-57600000D01*
X93800000Y-57600000D02*
X94000000Y-57600000D01*
X94000000Y-57600000D02*
X94000000Y-53000000D01*
X94000000Y-53000000D02*
X93800000Y-53000000D01*
X93800000Y-53000000D02*
X93800000Y-52600000D01*
X93800000Y-52600000D02*
X93600000Y-52600000D01*
X93600000Y-52600000D02*
X93600000Y-52400000D01*
X93600000Y-52400000D02*
X93400000Y-52400000D01*
X93400000Y-52400000D02*
X93400000Y-29400000D01*
X93400000Y-29400000D02*
X93200000Y-29400000D01*
X93200000Y-29400000D02*
X93200000Y-29000000D01*
X93200000Y-29000000D02*
X93000000Y-29000000D01*
X93000000Y-29000000D02*
X93000000Y-28800000D01*
X93000000Y-28800000D02*
X92600000Y-28800000D01*
X92600000Y-28800000D02*
X92600000Y-28600000D01*
X92600000Y-28600000D02*
X92000000Y-28600000D01*
X92000000Y-28600000D02*
X92000000Y-27600000D01*
X92000000Y-27600000D02*
X92000000Y-27500000D01*
%TO.N,LED_5V_BUF*%
X63950000Y-42900000D02*
X64000000Y-42800000D01*
X64000000Y-42800000D02*
X64000000Y-42000000D01*
X64000000Y-42000000D02*
X69000000Y-42000000D01*
%TO.N,LED_DIN*%
X71000000Y-42000000D02*
X71000000Y-49000000D01*
X71000000Y-42000000D02*
X71000000Y-45000000D01*
X71000000Y-45000000D02*
X77000000Y-45000000D01*
%TO.N,Q_GATE*%
X58050000Y-68000000D02*
X58000000Y-68000000D01*
X58000000Y-68000000D02*
X56000000Y-68000000D01*
X56000000Y-68000000D02*
X56000000Y-68200000D01*
X56000000Y-68200000D02*
X53000000Y-68200000D01*
X53000000Y-68200000D02*
X53000000Y-67000000D01*
%TO.N,AMP_BCLK*%
X14000000Y-36320000D02*
X14000000Y-36400000D01*
X14000000Y-36400000D02*
X14000000Y-37400000D01*
X14000000Y-37400000D02*
X14400000Y-37400000D01*
X14400000Y-37400000D02*
X14400000Y-37600000D01*
X14400000Y-37600000D02*
X14800000Y-37600000D01*
X14800000Y-37600000D02*
X14800000Y-37800000D01*
X14800000Y-37800000D02*
X15000000Y-37800000D01*
X15000000Y-37800000D02*
X15000000Y-38000000D01*
X15000000Y-38000000D02*
X15200000Y-38000000D01*
X15200000Y-38000000D02*
X15200000Y-38400000D01*
X15200000Y-38400000D02*
X15400000Y-38400000D01*
X15400000Y-38400000D02*
X15400000Y-39800000D01*
X15400000Y-39800000D02*
X15600000Y-39800000D01*
X15600000Y-39800000D02*
X15600000Y-40000000D01*
X15600000Y-40000000D02*
X15800000Y-40000000D01*
X15800000Y-40000000D02*
X15800000Y-40400000D01*
X15800000Y-40400000D02*
X16000000Y-40400000D01*
X16000000Y-40400000D02*
X16000000Y-42000000D01*
X16000000Y-42000000D02*
X16200000Y-42000000D01*
X16200000Y-42000000D02*
X16200000Y-42200000D01*
X16200000Y-42200000D02*
X16400000Y-42200000D01*
X16400000Y-42200000D02*
X16400000Y-42600000D01*
X16400000Y-42600000D02*
X16600000Y-42600000D01*
X16600000Y-42600000D02*
X16600000Y-49000000D01*
X16600000Y-49000000D02*
X32200000Y-49000000D01*
X32200000Y-49000000D02*
X32200000Y-50800000D01*
X32200000Y-55600000D02*
X32400000Y-55600000D01*
X32400000Y-55600000D02*
X32400000Y-55800000D01*
X32400000Y-55800000D02*
X32600000Y-55800000D01*
X32600000Y-55800000D02*
X32600000Y-60600000D01*
X32600000Y-60600000D02*
X32800000Y-60600000D01*
X32800000Y-60600000D02*
X32800000Y-60800000D01*
X32800000Y-60800000D02*
X33000000Y-60800000D01*
X33000000Y-60800000D02*
X33000000Y-71600000D01*
%TO.N,LCD_CS*%
X14000000Y-54100000D02*
X14000000Y-54000000D01*
X14000000Y-54000000D02*
X14600000Y-54000000D01*
X14600000Y-54000000D02*
X14600000Y-55400000D01*
X14600000Y-55400000D02*
X14800000Y-55400000D01*
X14800000Y-55400000D02*
X14800000Y-55600000D01*
X14800000Y-55600000D02*
X31400000Y-55600000D01*
X31400000Y-55600000D02*
X31400000Y-56200000D01*
X31400000Y-56200000D02*
X31600000Y-56200000D01*
X31600000Y-56200000D02*
X31600000Y-56400000D01*
X31600000Y-56400000D02*
X32000000Y-56400000D01*
X32000000Y-56400000D02*
X32000000Y-61000000D01*
X32000000Y-61000000D02*
X32200000Y-61000000D01*
X32200000Y-61000000D02*
X32200000Y-72200000D01*
X32200000Y-72200000D02*
X32400000Y-72200000D01*
X32400000Y-72200000D02*
X32400000Y-72400000D01*
X32400000Y-72400000D02*
X34000000Y-72400000D01*
X34000000Y-72400000D02*
X34000000Y-72600000D01*
X34000000Y-72600000D02*
X34200000Y-72600000D01*
X34200000Y-72600000D02*
X34200000Y-72800000D01*
X34200000Y-72800000D02*
X34400000Y-72800000D01*
X34400000Y-72800000D02*
X34400000Y-73000000D01*
X34400000Y-73000000D02*
X35000000Y-73000000D01*
X35000000Y-73000000D02*
X35000000Y-73200000D01*
X35000000Y-73200000D02*
X38800000Y-73200000D01*
X38800000Y-73200000D02*
X38800000Y-73000000D01*
X38800000Y-73000000D02*
X39200000Y-73000000D01*
X39200000Y-73000000D02*
X39200000Y-72800000D01*
X39200000Y-72800000D02*
X39600000Y-72800000D01*
X39600000Y-72800000D02*
X39600000Y-72600000D01*
X39600000Y-72600000D02*
X39800000Y-72600000D01*
X39800000Y-72600000D02*
X39800000Y-72400000D01*
X39800000Y-72400000D02*
X40000000Y-72400000D01*
X40000000Y-72400000D02*
X40000000Y-72200000D01*
X40000000Y-72200000D02*
X40200000Y-72200000D01*
X40200000Y-72200000D02*
X40200000Y-72000000D01*
X40200000Y-72000000D02*
X40400000Y-72000000D01*
X40400000Y-72000000D02*
X40400000Y-71600000D01*
X40400000Y-71600000D02*
X40600000Y-71600000D01*
X40600000Y-71600000D02*
X40600000Y-60400000D01*
X40600000Y-60400000D02*
X48800000Y-60400000D01*
X48800000Y-60400000D02*
X48800000Y-60200000D01*
X48800000Y-60200000D02*
X49000000Y-60200000D01*
X49000000Y-60200000D02*
X49000000Y-60000000D01*
X49000000Y-60000000D02*
X49200000Y-60000000D01*
X49200000Y-60000000D02*
X49200000Y-59200000D01*
X49200000Y-59200000D02*
X93000000Y-59200000D01*
X93000000Y-59200000D02*
X93000000Y-59000000D01*
X93000000Y-59000000D02*
X93600000Y-59000000D01*
X93600000Y-59000000D02*
X93600000Y-58800000D01*
X93600000Y-58800000D02*
X93800000Y-58800000D01*
X93800000Y-58800000D02*
X93800000Y-58600000D01*
X93800000Y-58600000D02*
X94000000Y-58600000D01*
X94000000Y-58600000D02*
X94000000Y-58400000D01*
X94000000Y-58400000D02*
X94200000Y-58400000D01*
X94200000Y-58400000D02*
X94200000Y-58200000D01*
X94200000Y-58200000D02*
X94400000Y-58200000D01*
X94400000Y-58200000D02*
X94400000Y-58000000D01*
X94400000Y-58000000D02*
X94600000Y-58000000D01*
X94600000Y-58000000D02*
X94600000Y-52600000D01*
X94600000Y-52600000D02*
X94400000Y-52600000D01*
X94400000Y-52600000D02*
X94400000Y-52200000D01*
X94400000Y-52200000D02*
X94200000Y-52200000D01*
X94200000Y-52200000D02*
X94200000Y-52000000D01*
X94200000Y-52000000D02*
X94000000Y-52000000D01*
X94000000Y-52000000D02*
X94000000Y-29000000D01*
X94000000Y-29000000D02*
X93800000Y-29000000D01*
X93800000Y-29000000D02*
X93800000Y-28600000D01*
X93800000Y-28600000D02*
X93600000Y-28600000D01*
X93600000Y-28600000D02*
X93600000Y-28400000D01*
X93600000Y-28400000D02*
X93400000Y-28400000D01*
X93400000Y-28400000D02*
X93400000Y-26800000D01*
X93400000Y-26800000D02*
X93200000Y-26800000D01*
X93200000Y-26800000D02*
X93200000Y-26600000D01*
X93200000Y-26600000D02*
X93000000Y-26600000D01*
X93000000Y-26600000D02*
X93000000Y-26400000D01*
X93000000Y-26400000D02*
X92800000Y-26400000D01*
X92800000Y-26400000D02*
X92800000Y-26200000D01*
X92800000Y-26200000D02*
X92200000Y-26200000D01*
X92200000Y-26200000D02*
X92200000Y-26000000D01*
X92200000Y-26000000D02*
X92000000Y-26000000D01*
X92000000Y-26000000D02*
X92000000Y-25000000D01*
%TO.N,LCD_MOSI*%
X14000000Y-56640000D02*
X14000000Y-56600000D01*
X14000000Y-56600000D02*
X31000000Y-56600000D01*
X31000000Y-56600000D02*
X31000000Y-56800000D01*
X31000000Y-56800000D02*
X31200000Y-56800000D01*
X31200000Y-56800000D02*
X31200000Y-57000000D01*
X31200000Y-57000000D02*
X31400000Y-57000000D01*
X31400000Y-57000000D02*
X31400000Y-72400000D01*
X40000000Y-53400000D02*
X40000000Y-30000000D01*
X40000000Y-30000000D02*
X53200000Y-30000000D01*
X53200000Y-30000000D02*
X53200000Y-29800000D01*
X53200000Y-29800000D02*
X53800000Y-29800000D01*
X53800000Y-29800000D02*
X53800000Y-29600000D01*
X53800000Y-29600000D02*
X54000000Y-29600000D01*
X54000000Y-29600000D02*
X54000000Y-29400000D01*
X54000000Y-29400000D02*
X54200000Y-29400000D01*
X54200000Y-29400000D02*
X54200000Y-29200000D01*
X54200000Y-29200000D02*
X54400000Y-29200000D01*
X54400000Y-29200000D02*
X54400000Y-27000000D01*
X54400000Y-27000000D02*
X71000000Y-27000000D01*
%TO.N,LCD_MOSI_R*%
X92000000Y-22500000D02*
X92000000Y-22400000D01*
X92000000Y-22400000D02*
X73000000Y-22400000D01*
X73000000Y-22400000D02*
X73000000Y-27000000D01*
%TO.N,LCD_SCK_R*%
X92000000Y-20000000D02*
X73000000Y-20000000D01*
X73000000Y-20000000D02*
X73000000Y-21000000D01*
%TO.N,MIC_SD*%
X41000000Y-53400000D02*
X41000000Y-30600000D01*
X41000000Y-30600000D02*
X53600000Y-30600000D01*
X53600000Y-30600000D02*
X53600000Y-30400000D01*
X53600000Y-30400000D02*
X54200000Y-30400000D01*
X54200000Y-30400000D02*
X54200000Y-30200000D01*
X54200000Y-30200000D02*
X54400000Y-30200000D01*
X54400000Y-30200000D02*
X54400000Y-30000000D01*
X54400000Y-30000000D02*
X54600000Y-30000000D01*
X54600000Y-30000000D02*
X54600000Y-29800000D01*
X54600000Y-29800000D02*
X54800000Y-29800000D01*
X54800000Y-29800000D02*
X54800000Y-29600000D01*
X54800000Y-29600000D02*
X55000000Y-29600000D01*
X55000000Y-29600000D02*
X55000000Y-27800000D01*
X55000000Y-27800000D02*
X55200000Y-27800000D01*
%TO.N,MIC_WS*%
X42000000Y-53400000D02*
X42000000Y-31200000D01*
X42000000Y-31200000D02*
X54000000Y-31200000D01*
X54000000Y-31200000D02*
X54000000Y-31000000D01*
X54000000Y-31000000D02*
X54600000Y-31000000D01*
X54600000Y-31000000D02*
X54600000Y-30800000D01*
X54600000Y-30800000D02*
X54800000Y-30800000D01*
X54800000Y-30800000D02*
X54800000Y-30600000D01*
X54800000Y-30600000D02*
X55000000Y-30600000D01*
X55000000Y-30600000D02*
X55000000Y-30400000D01*
X55000000Y-30400000D02*
X55200000Y-30400000D01*
X55200000Y-30400000D02*
X55200000Y-30200000D01*
X55200000Y-30200000D02*
X55400000Y-30200000D01*
X55400000Y-30200000D02*
X55400000Y-30000000D01*
X55400000Y-30000000D02*
X55600000Y-30000000D01*
X55600000Y-30000000D02*
X55600000Y-28600000D01*
X55600000Y-28600000D02*
X55800000Y-28600000D01*
X55800000Y-28600000D02*
X55800000Y-28400000D01*
X55800000Y-28400000D02*
X56000000Y-28400000D01*
%TO.N,NEXT*%
X14000000Y-61720000D02*
X14000000Y-61800000D01*
X14000000Y-61800000D02*
X14000000Y-62800000D01*
X14000000Y-62800000D02*
X14400000Y-62800000D01*
X14400000Y-62800000D02*
X14400000Y-63000000D01*
X14400000Y-63000000D02*
X14800000Y-63000000D01*
X14800000Y-63000000D02*
X14800000Y-63200000D01*
X14800000Y-63200000D02*
X15000000Y-63200000D01*
X15000000Y-63200000D02*
X15000000Y-63400000D01*
X15000000Y-63400000D02*
X15200000Y-63400000D01*
X15200000Y-63400000D02*
X15200000Y-63800000D01*
X15200000Y-63800000D02*
X15400000Y-63800000D01*
X15400000Y-63800000D02*
X15400000Y-77000000D01*
X15400000Y-77000000D02*
X20000000Y-77000000D01*
X14000000Y-61720000D02*
X14000000Y-61800000D01*
X14000000Y-61800000D02*
X30600000Y-61800000D01*
X30600000Y-61800000D02*
X30600000Y-73000000D01*
X30600000Y-73000000D02*
X30800000Y-73000000D01*
X30800000Y-73000000D02*
X30800000Y-73200000D01*
X30800000Y-73200000D02*
X33800000Y-73200000D01*
X33800000Y-73200000D02*
X33800000Y-73400000D01*
X33800000Y-73400000D02*
X34000000Y-73400000D01*
X34000000Y-73400000D02*
X34000000Y-73600000D01*
X34000000Y-73600000D02*
X34600000Y-73600000D01*
X34600000Y-73600000D02*
X34600000Y-73800000D01*
X34600000Y-73800000D02*
X39200000Y-73800000D01*
X39200000Y-73800000D02*
X39200000Y-73600000D01*
X39200000Y-73600000D02*
X39600000Y-73600000D01*
X39600000Y-73600000D02*
X39600000Y-73400000D01*
X39600000Y-73400000D02*
X40000000Y-73400000D01*
X40000000Y-73400000D02*
X40000000Y-73200000D01*
X40000000Y-73200000D02*
X40200000Y-73200000D01*
X40200000Y-73200000D02*
X40200000Y-73000000D01*
X40200000Y-73000000D02*
X40400000Y-73000000D01*
X40400000Y-73000000D02*
X40400000Y-72800000D01*
X40400000Y-72800000D02*
X40600000Y-72800000D01*
X40600000Y-72800000D02*
X40600000Y-72600000D01*
X40600000Y-72600000D02*
X40800000Y-72600000D01*
X40800000Y-72600000D02*
X40800000Y-72400000D01*
X40800000Y-72400000D02*
X41000000Y-72400000D01*
X41000000Y-72400000D02*
X41000000Y-72000000D01*
X41000000Y-72000000D02*
X41200000Y-72000000D01*
X41200000Y-72000000D02*
X41200000Y-61200000D01*
X41200000Y-61200000D02*
X41400000Y-61200000D01*
X41400000Y-58400000D02*
X41400000Y-58000000D01*
X41400000Y-58000000D02*
X45000000Y-58000000D01*
%TO.N,PTT*%
X14000000Y-64260000D02*
X14000000Y-64200000D01*
X14000000Y-64200000D02*
X9000000Y-64200000D01*
X9000000Y-64200000D02*
X9000000Y-77000000D01*
X14000000Y-64260000D02*
X14000000Y-64200000D01*
X14000000Y-64200000D02*
X12600000Y-64200000D01*
X12600000Y-64200000D02*
X12600000Y-69800000D01*
X12600000Y-69800000D02*
X12800000Y-69800000D01*
X12800000Y-69800000D02*
X12800000Y-70200000D01*
X12800000Y-70200000D02*
X13000000Y-70200000D01*
X13000000Y-70200000D02*
X13000000Y-70400000D01*
X13000000Y-70400000D02*
X13200000Y-70400000D01*
X13200000Y-70400000D02*
X13200000Y-70600000D01*
X13200000Y-70600000D02*
X13600000Y-70600000D01*
X13600000Y-70600000D02*
X13600000Y-70800000D01*
X13600000Y-70800000D02*
X14600000Y-70800000D01*
X14600000Y-70800000D02*
X14600000Y-74400000D01*
X44000000Y-53400000D02*
X44000000Y-53000000D01*
X44000000Y-53000000D02*
X45000000Y-53000000D01*
%TO.N,REC_ANODE*%
X31000000Y-77000000D02*
X31000000Y-74400000D01*
X31000000Y-74400000D02*
X39600000Y-74400000D01*
X39600000Y-74400000D02*
X39600000Y-74200000D01*
X39600000Y-74200000D02*
X40000000Y-74200000D01*
X40000000Y-74200000D02*
X40000000Y-74000000D01*
X40000000Y-74000000D02*
X40400000Y-74000000D01*
X40400000Y-74000000D02*
X40400000Y-73800000D01*
X40400000Y-73800000D02*
X40600000Y-73800000D01*
X40600000Y-73800000D02*
X40600000Y-73600000D01*
X40600000Y-73600000D02*
X40800000Y-73600000D01*
X40800000Y-73600000D02*
X40800000Y-73400000D01*
X40800000Y-73400000D02*
X41000000Y-73400000D01*
X41000000Y-73400000D02*
X41000000Y-73200000D01*
X41000000Y-73200000D02*
X41200000Y-73200000D01*
X41200000Y-73200000D02*
X41200000Y-73000000D01*
X41200000Y-73000000D02*
X41400000Y-73000000D01*
X41400000Y-73000000D02*
X41400000Y-72800000D01*
X41400000Y-72800000D02*
X41600000Y-72800000D01*
X41600000Y-72800000D02*
X41600000Y-72400000D01*
X41600000Y-72400000D02*
X41800000Y-72400000D01*
X41800000Y-72400000D02*
X41800000Y-63200000D01*
X41800000Y-63200000D02*
X48000000Y-63200000D01*
X48000000Y-63200000D02*
X48000000Y-62000000D01*
X48000000Y-62000000D02*
X49000000Y-62000000D01*
%TO.N,REC_LED*%
X29800000Y-62600000D02*
X30000000Y-62600000D01*
X30000000Y-62600000D02*
X30000000Y-73400000D01*
X30000000Y-73400000D02*
X30200000Y-73400000D01*
X30200000Y-73400000D02*
X30200000Y-75200000D01*
X42800000Y-62400000D02*
X42800000Y-62000000D01*
X42800000Y-62000000D02*
X47000000Y-62000000D01*
D24*
%TO.N,VIN5*%
X72000000Y-82000000D02*
X57000000Y-82000000D01*
X57000000Y-82000000D02*
X57000000Y-78000000D01*
%TO.N,FUSED5*%
X62080000Y-78000000D02*
X62000000Y-78000000D01*
X62000000Y-78000000D02*
X61200000Y-78000000D01*
X61200000Y-78000000D02*
X61200000Y-67200000D01*
X61200000Y-67200000D02*
X61000000Y-67200000D01*
X61000000Y-67200000D02*
X61000000Y-66800000D01*
X61000000Y-66800000D02*
X59000000Y-66800000D01*
X59000000Y-66800000D02*
X59000000Y-66000000D01*
%TO.N,5V_SYS*%
X59950000Y-68000000D02*
X60000000Y-68000000D01*
X69000000Y-61000000D02*
X69000000Y-70000000D01*
X69000000Y-70000000D02*
X80000000Y-70000000D01*
X69000000Y-53200000D02*
X65000000Y-53200000D01*
X65000000Y-53200000D02*
X65000000Y-44000000D01*
X65000000Y-44000000D02*
X64800000Y-44000000D01*
X63000000Y-43800000D02*
X62000000Y-43800000D01*
X62000000Y-43800000D02*
X62000000Y-42800000D01*
X62000000Y-42800000D02*
X62050000Y-42900000D01*
X62050000Y-42900000D02*
X62000000Y-42800000D01*
X62000000Y-42800000D02*
X58000000Y-42800000D01*
X58000000Y-42800000D02*
X58000000Y-40000000D01*
X62050000Y-42900000D02*
X62000000Y-42800000D01*
X62000000Y-42800000D02*
X62000000Y-40000000D01*
X62000000Y-40000000D02*
X77000000Y-40000000D01*
X77000000Y-40000000D02*
X77000000Y-40800000D01*
X77000000Y-40800000D02*
X77600000Y-40800000D01*
X77600000Y-40800000D02*
X77600000Y-41000000D01*
X77600000Y-41000000D02*
X78000000Y-41000000D01*
X78000000Y-41000000D02*
X78000000Y-41200000D01*
X78000000Y-41200000D02*
X78200000Y-41200000D01*
X78200000Y-41200000D02*
X78200000Y-41400000D01*
X78200000Y-41400000D02*
X78400000Y-41400000D01*
X78400000Y-41400000D02*
X78400000Y-41800000D01*
X78400000Y-41800000D02*
X78600000Y-41800000D01*
X78600000Y-41800000D02*
X78600000Y-44000000D01*
X78600000Y-44000000D02*
X92000000Y-44000000D01*
X59950000Y-68000000D02*
X60000000Y-68000000D01*
X60000000Y-68000000D02*
X59200000Y-68000000D01*
X59200000Y-68000000D02*
X59200000Y-69000000D01*
X59200000Y-69000000D02*
X59000000Y-69000000D01*
X59000000Y-69000000D02*
X59000000Y-69200000D01*
X59000000Y-69200000D02*
X42600000Y-69200000D01*
X42600000Y-69200000D02*
X42600000Y-73000000D01*
X42600000Y-73000000D02*
X42400000Y-73000000D01*
X42400000Y-73000000D02*
X42400000Y-73400000D01*
X42400000Y-73400000D02*
X42200000Y-73400000D01*
X42200000Y-73400000D02*
X42200000Y-73600000D01*
X42200000Y-73600000D02*
X42000000Y-73600000D01*
X42000000Y-73600000D02*
X42000000Y-77000000D01*
%TO.N,DEV_5V*%
X16200000Y-66800000D02*
X16200000Y-75400000D01*
X16200000Y-75400000D02*
X21400000Y-75400000D01*
X21400000Y-75400000D02*
X21400000Y-75600000D01*
X21400000Y-75600000D02*
X21600000Y-75600000D01*
X21600000Y-75600000D02*
X21600000Y-77000000D01*
X21600000Y-77000000D02*
X29400000Y-77000000D01*
X29400000Y-77000000D02*
X29400000Y-80200000D01*
X29400000Y-80200000D02*
X29600000Y-80200000D01*
X29600000Y-80200000D02*
X29600000Y-80600000D01*
X29600000Y-80600000D02*
X29800000Y-80600000D01*
X29800000Y-80600000D02*
X29800000Y-80800000D01*
X29800000Y-80800000D02*
X30000000Y-80800000D01*
X30000000Y-80800000D02*
X30000000Y-81000000D01*
X30000000Y-81000000D02*
X30400000Y-81000000D01*
X30400000Y-81000000D02*
X30400000Y-81200000D01*
X30400000Y-81200000D02*
X31600000Y-81200000D01*
X31600000Y-81200000D02*
X31600000Y-81000000D01*
X31600000Y-81000000D02*
X32000000Y-81000000D01*
X32000000Y-81000000D02*
X32000000Y-80800000D01*
X32000000Y-80800000D02*
X32200000Y-80800000D01*
X32200000Y-80800000D02*
X32200000Y-80600000D01*
X32200000Y-80600000D02*
X32400000Y-80600000D01*
X32400000Y-80600000D02*
X32400000Y-80200000D01*
X32400000Y-80200000D02*
X32600000Y-80200000D01*
X32600000Y-80200000D02*
X32600000Y-78600000D01*
X32600000Y-78600000D02*
X42800000Y-78600000D01*
X42800000Y-78600000D02*
X42800000Y-78400000D01*
X42800000Y-78400000D02*
X43000000Y-78400000D01*
X43000000Y-78400000D02*
X43000000Y-78200000D01*
X43000000Y-78200000D02*
X43200000Y-78200000D01*
X43200000Y-78200000D02*
X43200000Y-78000000D01*
X43200000Y-78000000D02*
X43400000Y-78000000D01*
X43400000Y-78000000D02*
X43400000Y-77800000D01*
X43400000Y-77800000D02*
X43600000Y-77800000D01*
X43600000Y-77800000D02*
X43600000Y-77000000D01*
X43600000Y-77000000D02*
X44600000Y-77000000D01*
X44600000Y-77000000D02*
X44540000Y-77000000D01*
D25*
%TO.N,GND*%
X17200000Y-70000000D02*
X17200000Y-72800000D01*
X29200000Y-75200000D02*
X29200000Y-70000000D01*
X29200000Y-70000000D02*
X29200000Y-75200000D01*
X58000000Y-51200000D02*
X58000000Y-48000000D01*
X62000000Y-45200000D02*
X62050000Y-45100000D01*
X62050000Y-45100000D02*
X62000000Y-45200000D01*
X64000000Y-45200000D02*
X63950000Y-45100000D01*
X62050000Y-45100000D02*
X62000000Y-45200000D01*
X62000000Y-45200000D02*
X60000000Y-45200000D01*
X60000000Y-45200000D02*
X60000000Y-43800000D01*
X60000000Y-43800000D02*
X57400000Y-43800000D01*
X57400000Y-43800000D02*
X57400000Y-43600000D01*
X57400000Y-43600000D02*
X57200000Y-43600000D01*
X57200000Y-43600000D02*
X57200000Y-43400000D01*
X57200000Y-43400000D02*
X57000000Y-43400000D01*
X57000000Y-43400000D02*
X57000000Y-41200000D01*
X57000000Y-41200000D02*
X56800000Y-41200000D01*
X56800000Y-41200000D02*
X56800000Y-38800000D01*
X56800000Y-38800000D02*
X57200000Y-38800000D01*
X57200000Y-38800000D02*
X57200000Y-38600000D01*
X57200000Y-38600000D02*
X58800000Y-38600000D01*
X58800000Y-38600000D02*
X58800000Y-38800000D01*
X58800000Y-38800000D02*
X59200000Y-38800000D01*
X59200000Y-38800000D02*
X59200000Y-40000000D01*
X59200000Y-40000000D02*
X60000000Y-40000000D01*
X60000000Y-40000000D02*
X59200000Y-40000000D01*
X59200000Y-40000000D02*
X59200000Y-38800000D01*
X59200000Y-38800000D02*
X58800000Y-38800000D01*
X58800000Y-38800000D02*
X58800000Y-38600000D01*
X58800000Y-38600000D02*
X55000000Y-38600000D01*
X55000000Y-38600000D02*
X55000000Y-35000000D01*
X55000000Y-35000000D02*
X55000000Y-31600000D01*
X55000000Y-31600000D02*
X55200000Y-31600000D01*
X55200000Y-31600000D02*
X55200000Y-31400000D01*
X55200000Y-31400000D02*
X55400000Y-31400000D01*
X55400000Y-31400000D02*
X55400000Y-31200000D01*
X55400000Y-31200000D02*
X55600000Y-31200000D01*
X55600000Y-31200000D02*
X55600000Y-31000000D01*
X55600000Y-31000000D02*
X55800000Y-31000000D01*
X55800000Y-31000000D02*
X55800000Y-30800000D01*
X55800000Y-30800000D02*
X56000000Y-30800000D01*
X56000000Y-30800000D02*
X56000000Y-30600000D01*
X56000000Y-30600000D02*
X56200000Y-30600000D01*
X56200000Y-30600000D02*
X56200000Y-30400000D01*
X56200000Y-30400000D02*
X56400000Y-30400000D01*
X56400000Y-30400000D02*
X56400000Y-29200000D01*
X56400000Y-29200000D02*
X56600000Y-29200000D01*
X51400000Y-20200000D02*
X51400000Y-28400000D01*
X51400000Y-28400000D02*
X53000000Y-28400000D01*
X53000000Y-28400000D02*
X53000000Y-28500000D01*
X53000000Y-28500000D02*
X53000000Y-28400000D01*
X53000000Y-28400000D02*
X53000000Y-27600000D01*
X53000000Y-27600000D02*
X52400000Y-27600000D01*
X52400000Y-27600000D02*
X52400000Y-27400000D01*
X52400000Y-27400000D02*
X52000000Y-27400000D01*
X52000000Y-27400000D02*
X52000000Y-27200000D01*
X52000000Y-27200000D02*
X51800000Y-27200000D01*
X51800000Y-27200000D02*
X51800000Y-27000000D01*
X51800000Y-27000000D02*
X51600000Y-27000000D01*
X51600000Y-27000000D02*
X51600000Y-26600000D01*
X51600000Y-26600000D02*
X51400000Y-26600000D01*
X51400000Y-26600000D02*
X51400000Y-18400000D01*
X51400000Y-18400000D02*
X53000000Y-18400000D01*
X53000000Y-18400000D02*
X53000000Y-18500000D01*
X63950000Y-45100000D02*
X64000000Y-45200000D01*
X82000000Y-48200000D02*
X82000000Y-54000000D01*
X82000000Y-54000000D02*
X82000000Y-46400000D01*
X82000000Y-46400000D02*
X92000000Y-46400000D01*
X92000000Y-46400000D02*
X92000000Y-46500000D01*
X53000000Y-18500000D02*
X53000000Y-18400000D01*
X53000000Y-18400000D02*
X38400000Y-18400000D01*
X38400000Y-18400000D02*
X38400000Y-18000000D01*
X38400000Y-18000000D02*
X38200000Y-18000000D01*
X38200000Y-18000000D02*
X38200000Y-17600000D01*
X38200000Y-17600000D02*
X38000000Y-17600000D01*
X38000000Y-17600000D02*
X38000000Y-17400000D01*
X38000000Y-17400000D02*
X37800000Y-17400000D01*
X37800000Y-17400000D02*
X37800000Y-17200000D01*
X37800000Y-17200000D02*
X37400000Y-17200000D01*
X37400000Y-17200000D02*
X37400000Y-17000000D01*
X37400000Y-17000000D02*
X36800000Y-17000000D01*
X36800000Y-17000000D02*
X36800000Y-16000000D01*
X36800000Y-16000000D02*
X36860000Y-16000000D01*
X94600000Y-17600000D02*
X92000000Y-17600000D01*
X92000000Y-17600000D02*
X92000000Y-17500000D01*
D26*
%TO.N,3V3*%
X14000000Y-16000000D02*
X14000000Y-18600000D01*
X14000000Y-18600000D02*
X14000000Y-18540000D01*
X56000000Y-53200000D02*
X56000000Y-49200000D01*
X56000000Y-49200000D02*
X57000000Y-49200000D01*
X57000000Y-37600000D02*
X57000000Y-31000000D01*
X57000000Y-31000000D02*
X57200000Y-31000000D01*
X57200000Y-31000000D02*
X57200000Y-29800000D01*
X57200000Y-29800000D02*
X57400000Y-29800000D01*
X57400000Y-29800000D02*
X57400000Y-29600000D01*
X57400000Y-29600000D02*
X57600000Y-29600000D01*
X57600000Y-29600000D02*
X57600000Y-29200000D01*
X57600000Y-29200000D02*
X57800000Y-29200000D01*
X57800000Y-29200000D02*
X57600000Y-29200000D01*
X57600000Y-29200000D02*
X57600000Y-29600000D01*
X57600000Y-29600000D02*
X57400000Y-29600000D01*
X57400000Y-29600000D02*
X57400000Y-29800000D01*
X57400000Y-29800000D02*
X57200000Y-29800000D01*
X57200000Y-29800000D02*
X57200000Y-31000000D01*
X57200000Y-31000000D02*
X57000000Y-31000000D01*
X57000000Y-31000000D02*
X57000000Y-31200000D01*
X57000000Y-31200000D02*
X56800000Y-31200000D01*
X56800000Y-31200000D02*
X56800000Y-31400000D01*
X56800000Y-31400000D02*
X56600000Y-31400000D01*
X56600000Y-31400000D02*
X56600000Y-31600000D01*
X56600000Y-31600000D02*
X56400000Y-31600000D01*
X56400000Y-31600000D02*
X56400000Y-31800000D01*
X56400000Y-31800000D02*
X56200000Y-31800000D01*
X56200000Y-31800000D02*
X56200000Y-32000000D01*
X56200000Y-32000000D02*
X56000000Y-32000000D01*
X56000000Y-32000000D02*
X56000000Y-32200000D01*
X54000000Y-32200000D02*
X53000000Y-32200000D01*
X53000000Y-32200000D02*
X53000000Y-35000000D01*
X53000000Y-35000000D02*
X46000000Y-35000000D01*
X46000000Y-35000000D02*
X46000000Y-36000000D01*
X46000000Y-48800000D02*
X46000000Y-52000000D01*
X46000000Y-52000000D02*
X46200000Y-52000000D01*
X46200000Y-52000000D02*
X46200000Y-53000000D01*
X46200000Y-53000000D02*
X47000000Y-53000000D01*
X47000000Y-53000000D02*
X47000000Y-53400000D01*
X47000000Y-56000000D02*
X47000000Y-58000000D01*
%TD*%
M02*
