%TF.GenerationSoftware,KiCad,Pcbnew,9.0.9*%
%TF.CreationDate,2026-09-16T16:33:32+00:00*%
%TF.ProjectId,aether-carrier,61657468-6572-42d6-9361-72726965722e,rev?*%
%TF.SameCoordinates,Original*%
%TF.FileFunction,Legend,Top*%
%TF.FilePolarity,Positive*%
%FSLAX46Y46*%
G04 Gerber Fmt 4.6, Leading zero omitted, Abs format (unit mm)*
G04 Created by KiCad (PCBNEW 9.0.9) date 2026-09-16 16:33:32*
%MOMM*%
%LPD*%
G01*
G04 APERTURE LIST*
%ADD10C,0.200000*%
%ADD11C,0.150000*%
G04 APERTURE END LIST*
D10*
X57799998Y-6237266D02*
X58466665Y-6237266D01*
X57666665Y-6637266D02*
X58133332Y-5237266D01*
X58133332Y-5237266D02*
X58599998Y-6637266D01*
X59066665Y-5903933D02*
X59533332Y-5903933D01*
X59733332Y-6637266D02*
X59066665Y-6637266D01*
X59066665Y-6637266D02*
X59066665Y-5237266D01*
X59066665Y-5237266D02*
X59733332Y-5237266D01*
X60133332Y-5237266D02*
X60933332Y-5237266D01*
X60533332Y-6637266D02*
X60533332Y-5237266D01*
X61399999Y-6637266D02*
X61399999Y-5237266D01*
X61399999Y-5903933D02*
X62199999Y-5903933D01*
X62199999Y-6637266D02*
X62199999Y-5237266D01*
X62866666Y-5903933D02*
X63333333Y-5903933D01*
X63533333Y-6637266D02*
X62866666Y-6637266D01*
X62866666Y-6637266D02*
X62866666Y-5237266D01*
X62866666Y-5237266D02*
X63533333Y-5237266D01*
X64933333Y-6637266D02*
X64466666Y-5970600D01*
X64133333Y-6637266D02*
X64133333Y-5237266D01*
X64133333Y-5237266D02*
X64666666Y-5237266D01*
X64666666Y-5237266D02*
X64800000Y-5303933D01*
X64800000Y-5303933D02*
X64866666Y-5370600D01*
X64866666Y-5370600D02*
X64933333Y-5503933D01*
X64933333Y-5503933D02*
X64933333Y-5703933D01*
X64933333Y-5703933D02*
X64866666Y-5837266D01*
X64866666Y-5837266D02*
X64800000Y-5903933D01*
X64800000Y-5903933D02*
X64666666Y-5970600D01*
X64666666Y-5970600D02*
X64133333Y-5970600D01*
X66866667Y-5237266D02*
X67133333Y-5237266D01*
X67133333Y-5237266D02*
X67266667Y-5303933D01*
X67266667Y-5303933D02*
X67400000Y-5437266D01*
X67400000Y-5437266D02*
X67466667Y-5703933D01*
X67466667Y-5703933D02*
X67466667Y-6170600D01*
X67466667Y-6170600D02*
X67400000Y-6437266D01*
X67400000Y-6437266D02*
X67266667Y-6570600D01*
X67266667Y-6570600D02*
X67133333Y-6637266D01*
X67133333Y-6637266D02*
X66866667Y-6637266D01*
X66866667Y-6637266D02*
X66733333Y-6570600D01*
X66733333Y-6570600D02*
X66600000Y-6437266D01*
X66600000Y-6437266D02*
X66533333Y-6170600D01*
X66533333Y-6170600D02*
X66533333Y-5703933D01*
X66533333Y-5703933D02*
X66600000Y-5437266D01*
X66600000Y-5437266D02*
X66733333Y-5303933D01*
X66733333Y-5303933D02*
X66866667Y-5237266D01*
X68866667Y-6637266D02*
X68400000Y-5970600D01*
X68066667Y-6637266D02*
X68066667Y-5237266D01*
X68066667Y-5237266D02*
X68600000Y-5237266D01*
X68600000Y-5237266D02*
X68733334Y-5303933D01*
X68733334Y-5303933D02*
X68800000Y-5370600D01*
X68800000Y-5370600D02*
X68866667Y-5503933D01*
X68866667Y-5503933D02*
X68866667Y-5703933D01*
X68866667Y-5703933D02*
X68800000Y-5837266D01*
X68800000Y-5837266D02*
X68733334Y-5903933D01*
X68733334Y-5903933D02*
X68600000Y-5970600D01*
X68600000Y-5970600D02*
X68066667Y-5970600D01*
X69933334Y-5903933D02*
X70133334Y-5970600D01*
X70133334Y-5970600D02*
X70200000Y-6037266D01*
X70200000Y-6037266D02*
X70266667Y-6170600D01*
X70266667Y-6170600D02*
X70266667Y-6370600D01*
X70266667Y-6370600D02*
X70200000Y-6503933D01*
X70200000Y-6503933D02*
X70133334Y-6570600D01*
X70133334Y-6570600D02*
X70000000Y-6637266D01*
X70000000Y-6637266D02*
X69466667Y-6637266D01*
X69466667Y-6637266D02*
X69466667Y-5237266D01*
X69466667Y-5237266D02*
X69933334Y-5237266D01*
X69933334Y-5237266D02*
X70066667Y-5303933D01*
X70066667Y-5303933D02*
X70133334Y-5370600D01*
X70133334Y-5370600D02*
X70200000Y-5503933D01*
X70200000Y-5503933D02*
X70200000Y-5637266D01*
X70200000Y-5637266D02*
X70133334Y-5770600D01*
X70133334Y-5770600D02*
X70066667Y-5837266D01*
X70066667Y-5837266D02*
X69933334Y-5903933D01*
X69933334Y-5903933D02*
X69466667Y-5903933D01*
X72933334Y-5170600D02*
X71733334Y-6970600D01*
X75266668Y-6637266D02*
X74800001Y-5970600D01*
X74466668Y-6637266D02*
X74466668Y-5237266D01*
X74466668Y-5237266D02*
X75000001Y-5237266D01*
X75000001Y-5237266D02*
X75133335Y-5303933D01*
X75133335Y-5303933D02*
X75200001Y-5370600D01*
X75200001Y-5370600D02*
X75266668Y-5503933D01*
X75266668Y-5503933D02*
X75266668Y-5703933D01*
X75266668Y-5703933D02*
X75200001Y-5837266D01*
X75200001Y-5837266D02*
X75133335Y-5903933D01*
X75133335Y-5903933D02*
X75000001Y-5970600D01*
X75000001Y-5970600D02*
X74466668Y-5970600D01*
X75866668Y-5903933D02*
X76333335Y-5903933D01*
X76533335Y-6637266D02*
X75866668Y-6637266D01*
X75866668Y-6637266D02*
X75866668Y-5237266D01*
X75866668Y-5237266D02*
X76533335Y-5237266D01*
X76933335Y-5237266D02*
X77400002Y-6637266D01*
X77400002Y-6637266D02*
X77866668Y-5237266D01*
X79866669Y-5903933D02*
X80066669Y-5970600D01*
X80066669Y-5970600D02*
X80133335Y-6037266D01*
X80133335Y-6037266D02*
X80200002Y-6170600D01*
X80200002Y-6170600D02*
X80200002Y-6370600D01*
X80200002Y-6370600D02*
X80133335Y-6503933D01*
X80133335Y-6503933D02*
X80066669Y-6570600D01*
X80066669Y-6570600D02*
X79933335Y-6637266D01*
X79933335Y-6637266D02*
X79400002Y-6637266D01*
X79400002Y-6637266D02*
X79400002Y-5237266D01*
X79400002Y-5237266D02*
X79866669Y-5237266D01*
X79866669Y-5237266D02*
X80000002Y-5303933D01*
X80000002Y-5303933D02*
X80066669Y-5370600D01*
X80066669Y-5370600D02*
X80133335Y-5503933D01*
X80133335Y-5503933D02*
X80133335Y-5637266D01*
X80133335Y-5637266D02*
X80066669Y-5770600D01*
X80066669Y-5770600D02*
X80000002Y-5837266D01*
X80000002Y-5837266D02*
X79866669Y-5903933D01*
X79866669Y-5903933D02*
X79400002Y-5903933D01*
D11*
X60976189Y-9454819D02*
X60499999Y-9454819D01*
X60499999Y-9454819D02*
X60452380Y-9931009D01*
X60452380Y-9931009D02*
X60499999Y-9883390D01*
X60499999Y-9883390D02*
X60595237Y-9835771D01*
X60595237Y-9835771D02*
X60833332Y-9835771D01*
X60833332Y-9835771D02*
X60928570Y-9883390D01*
X60928570Y-9883390D02*
X60976189Y-9931009D01*
X60976189Y-9931009D02*
X61023808Y-10026247D01*
X61023808Y-10026247D02*
X61023808Y-10264342D01*
X61023808Y-10264342D02*
X60976189Y-10359580D01*
X60976189Y-10359580D02*
X60928570Y-10407200D01*
X60928570Y-10407200D02*
X60833332Y-10454819D01*
X60833332Y-10454819D02*
X60595237Y-10454819D01*
X60595237Y-10454819D02*
X60499999Y-10407200D01*
X60499999Y-10407200D02*
X60452380Y-10359580D01*
X61309523Y-9454819D02*
X61642856Y-10454819D01*
X61642856Y-10454819D02*
X61976189Y-9454819D01*
X63261904Y-9454819D02*
X63452380Y-9454819D01*
X63452380Y-9454819D02*
X63547618Y-9502438D01*
X63547618Y-9502438D02*
X63642856Y-9597676D01*
X63642856Y-9597676D02*
X63690475Y-9788152D01*
X63690475Y-9788152D02*
X63690475Y-10121485D01*
X63690475Y-10121485D02*
X63642856Y-10311961D01*
X63642856Y-10311961D02*
X63547618Y-10407200D01*
X63547618Y-10407200D02*
X63452380Y-10454819D01*
X63452380Y-10454819D02*
X63261904Y-10454819D01*
X63261904Y-10454819D02*
X63166666Y-10407200D01*
X63166666Y-10407200D02*
X63071428Y-10311961D01*
X63071428Y-10311961D02*
X63023809Y-10121485D01*
X63023809Y-10121485D02*
X63023809Y-9788152D01*
X63023809Y-9788152D02*
X63071428Y-9597676D01*
X63071428Y-9597676D02*
X63166666Y-9502438D01*
X63166666Y-9502438D02*
X63261904Y-9454819D01*
X64119047Y-10454819D02*
X64119047Y-9454819D01*
X64119047Y-9454819D02*
X64690475Y-10454819D01*
X64690475Y-10454819D02*
X64690475Y-9454819D01*
X65642856Y-10454819D02*
X65166666Y-10454819D01*
X65166666Y-10454819D02*
X65166666Y-9454819D01*
X66166666Y-9978628D02*
X66166666Y-10454819D01*
X65833333Y-9454819D02*
X66166666Y-9978628D01*
X66166666Y-9978628D02*
X66499999Y-9454819D01*
X67595238Y-10073866D02*
X68357143Y-10073866D01*
X69595238Y-10454819D02*
X69595238Y-9454819D01*
X69595238Y-9454819D02*
X69976190Y-9454819D01*
X69976190Y-9454819D02*
X70071428Y-9502438D01*
X70071428Y-9502438D02*
X70119047Y-9550057D01*
X70119047Y-9550057D02*
X70166666Y-9645295D01*
X70166666Y-9645295D02*
X70166666Y-9788152D01*
X70166666Y-9788152D02*
X70119047Y-9883390D01*
X70119047Y-9883390D02*
X70071428Y-9931009D01*
X70071428Y-9931009D02*
X69976190Y-9978628D01*
X69976190Y-9978628D02*
X69595238Y-9978628D01*
X71166666Y-10454819D02*
X70833333Y-9978628D01*
X70595238Y-10454819D02*
X70595238Y-9454819D01*
X70595238Y-9454819D02*
X70976190Y-9454819D01*
X70976190Y-9454819D02*
X71071428Y-9502438D01*
X71071428Y-9502438D02*
X71119047Y-9550057D01*
X71119047Y-9550057D02*
X71166666Y-9645295D01*
X71166666Y-9645295D02*
X71166666Y-9788152D01*
X71166666Y-9788152D02*
X71119047Y-9883390D01*
X71119047Y-9883390D02*
X71071428Y-9931009D01*
X71071428Y-9931009D02*
X70976190Y-9978628D01*
X70976190Y-9978628D02*
X70595238Y-9978628D01*
X71785714Y-9454819D02*
X71976190Y-9454819D01*
X71976190Y-9454819D02*
X72071428Y-9502438D01*
X72071428Y-9502438D02*
X72166666Y-9597676D01*
X72166666Y-9597676D02*
X72214285Y-9788152D01*
X72214285Y-9788152D02*
X72214285Y-10121485D01*
X72214285Y-10121485D02*
X72166666Y-10311961D01*
X72166666Y-10311961D02*
X72071428Y-10407200D01*
X72071428Y-10407200D02*
X71976190Y-10454819D01*
X71976190Y-10454819D02*
X71785714Y-10454819D01*
X71785714Y-10454819D02*
X71690476Y-10407200D01*
X71690476Y-10407200D02*
X71595238Y-10311961D01*
X71595238Y-10311961D02*
X71547619Y-10121485D01*
X71547619Y-10121485D02*
X71547619Y-9788152D01*
X71547619Y-9788152D02*
X71595238Y-9597676D01*
X71595238Y-9597676D02*
X71690476Y-9502438D01*
X71690476Y-9502438D02*
X71785714Y-9454819D01*
X72500000Y-9454819D02*
X73071428Y-9454819D01*
X72785714Y-10454819D02*
X72785714Y-9454819D01*
X73595238Y-9454819D02*
X73785714Y-9454819D01*
X73785714Y-9454819D02*
X73880952Y-9502438D01*
X73880952Y-9502438D02*
X73976190Y-9597676D01*
X73976190Y-9597676D02*
X74023809Y-9788152D01*
X74023809Y-9788152D02*
X74023809Y-10121485D01*
X74023809Y-10121485D02*
X73976190Y-10311961D01*
X73976190Y-10311961D02*
X73880952Y-10407200D01*
X73880952Y-10407200D02*
X73785714Y-10454819D01*
X73785714Y-10454819D02*
X73595238Y-10454819D01*
X73595238Y-10454819D02*
X73500000Y-10407200D01*
X73500000Y-10407200D02*
X73404762Y-10311961D01*
X73404762Y-10311961D02*
X73357143Y-10121485D01*
X73357143Y-10121485D02*
X73357143Y-9788152D01*
X73357143Y-9788152D02*
X73404762Y-9597676D01*
X73404762Y-9597676D02*
X73500000Y-9502438D01*
X73500000Y-9502438D02*
X73595238Y-9454819D01*
X74309524Y-9454819D02*
X74880952Y-9454819D01*
X74595238Y-10454819D02*
X74595238Y-9454819D01*
X75404762Y-9978628D02*
X75404762Y-10454819D01*
X75071429Y-9454819D02*
X75404762Y-9978628D01*
X75404762Y-9978628D02*
X75738095Y-9454819D01*
X76071429Y-10454819D02*
X76071429Y-9454819D01*
X76071429Y-9454819D02*
X76452381Y-9454819D01*
X76452381Y-9454819D02*
X76547619Y-9502438D01*
X76547619Y-9502438D02*
X76595238Y-9550057D01*
X76595238Y-9550057D02*
X76642857Y-9645295D01*
X76642857Y-9645295D02*
X76642857Y-9788152D01*
X76642857Y-9788152D02*
X76595238Y-9883390D01*
X76595238Y-9883390D02*
X76547619Y-9931009D01*
X76547619Y-9931009D02*
X76452381Y-9978628D01*
X76452381Y-9978628D02*
X76071429Y-9978628D01*
X77071429Y-9931009D02*
X77404762Y-9931009D01*
X77547619Y-10454819D02*
X77071429Y-10454819D01*
X77071429Y-10454819D02*
X77071429Y-9454819D01*
X77071429Y-9454819D02*
X77547619Y-9454819D01*
X13666666Y-11954819D02*
X13666666Y-12669104D01*
X13666666Y-12669104D02*
X13619047Y-12811961D01*
X13619047Y-12811961D02*
X13523809Y-12907200D01*
X13523809Y-12907200D02*
X13380952Y-12954819D01*
X13380952Y-12954819D02*
X13285714Y-12954819D01*
X14666666Y-12954819D02*
X14095238Y-12954819D01*
X14380952Y-12954819D02*
X14380952Y-11954819D01*
X14380952Y-11954819D02*
X14285714Y-12097676D01*
X14285714Y-12097676D02*
X14190476Y-12192914D01*
X14190476Y-12192914D02*
X14095238Y-12240533D01*
X36526666Y-11954819D02*
X36526666Y-12669104D01*
X36526666Y-12669104D02*
X36479047Y-12811961D01*
X36479047Y-12811961D02*
X36383809Y-12907200D01*
X36383809Y-12907200D02*
X36240952Y-12954819D01*
X36240952Y-12954819D02*
X36145714Y-12954819D01*
X36955238Y-12050057D02*
X37002857Y-12002438D01*
X37002857Y-12002438D02*
X37098095Y-11954819D01*
X37098095Y-11954819D02*
X37336190Y-11954819D01*
X37336190Y-11954819D02*
X37431428Y-12002438D01*
X37431428Y-12002438D02*
X37479047Y-12050057D01*
X37479047Y-12050057D02*
X37526666Y-12145295D01*
X37526666Y-12145295D02*
X37526666Y-12240533D01*
X37526666Y-12240533D02*
X37479047Y-12383390D01*
X37479047Y-12383390D02*
X36907619Y-12954819D01*
X36907619Y-12954819D02*
X37526666Y-12954819D01*
X71666666Y-77954819D02*
X71666666Y-78669104D01*
X71666666Y-78669104D02*
X71619047Y-78811961D01*
X71619047Y-78811961D02*
X71523809Y-78907200D01*
X71523809Y-78907200D02*
X71380952Y-78954819D01*
X71380952Y-78954819D02*
X71285714Y-78954819D01*
X72047619Y-77954819D02*
X72666666Y-77954819D01*
X72666666Y-77954819D02*
X72333333Y-78335771D01*
X72333333Y-78335771D02*
X72476190Y-78335771D01*
X72476190Y-78335771D02*
X72571428Y-78383390D01*
X72571428Y-78383390D02*
X72619047Y-78431009D01*
X72619047Y-78431009D02*
X72666666Y-78526247D01*
X72666666Y-78526247D02*
X72666666Y-78764342D01*
X72666666Y-78764342D02*
X72619047Y-78859580D01*
X72619047Y-78859580D02*
X72571428Y-78907200D01*
X72571428Y-78907200D02*
X72476190Y-78954819D01*
X72476190Y-78954819D02*
X72190476Y-78954819D01*
X72190476Y-78954819D02*
X72095238Y-78907200D01*
X72095238Y-78907200D02*
X72047619Y-78859580D01*
X56666666Y-74431009D02*
X56333333Y-74431009D01*
X56333333Y-74954819D02*
X56333333Y-73954819D01*
X56333333Y-73954819D02*
X56809523Y-73954819D01*
X57714285Y-74954819D02*
X57142857Y-74954819D01*
X57428571Y-74954819D02*
X57428571Y-73954819D01*
X57428571Y-73954819D02*
X57333333Y-74097676D01*
X57333333Y-74097676D02*
X57238095Y-74192914D01*
X57238095Y-74192914D02*
X57142857Y-74240533D01*
X58904761Y-64050057D02*
X58809523Y-64002438D01*
X58809523Y-64002438D02*
X58714285Y-63907200D01*
X58714285Y-63907200D02*
X58571428Y-63764342D01*
X58571428Y-63764342D02*
X58476190Y-63716723D01*
X58476190Y-63716723D02*
X58380952Y-63716723D01*
X58428571Y-63954819D02*
X58333333Y-63907200D01*
X58333333Y-63907200D02*
X58238095Y-63811961D01*
X58238095Y-63811961D02*
X58190476Y-63621485D01*
X58190476Y-63621485D02*
X58190476Y-63288152D01*
X58190476Y-63288152D02*
X58238095Y-63097676D01*
X58238095Y-63097676D02*
X58333333Y-63002438D01*
X58333333Y-63002438D02*
X58428571Y-62954819D01*
X58428571Y-62954819D02*
X58619047Y-62954819D01*
X58619047Y-62954819D02*
X58714285Y-63002438D01*
X58714285Y-63002438D02*
X58809523Y-63097676D01*
X58809523Y-63097676D02*
X58857142Y-63288152D01*
X58857142Y-63288152D02*
X58857142Y-63621485D01*
X58857142Y-63621485D02*
X58809523Y-63811961D01*
X58809523Y-63811961D02*
X58714285Y-63907200D01*
X58714285Y-63907200D02*
X58619047Y-63954819D01*
X58619047Y-63954819D02*
X58428571Y-63954819D01*
X59809523Y-63954819D02*
X59238095Y-63954819D01*
X59523809Y-63954819D02*
X59523809Y-62954819D01*
X59523809Y-62954819D02*
X59428571Y-63097676D01*
X59428571Y-63097676D02*
X59333333Y-63192914D01*
X59333333Y-63192914D02*
X59238095Y-63240533D01*
X53833333Y-63954819D02*
X53500000Y-63478628D01*
X53261905Y-63954819D02*
X53261905Y-62954819D01*
X53261905Y-62954819D02*
X53642857Y-62954819D01*
X53642857Y-62954819D02*
X53738095Y-63002438D01*
X53738095Y-63002438D02*
X53785714Y-63050057D01*
X53785714Y-63050057D02*
X53833333Y-63145295D01*
X53833333Y-63145295D02*
X53833333Y-63288152D01*
X53833333Y-63288152D02*
X53785714Y-63383390D01*
X53785714Y-63383390D02*
X53738095Y-63431009D01*
X53738095Y-63431009D02*
X53642857Y-63478628D01*
X53642857Y-63478628D02*
X53261905Y-63478628D01*
X54785714Y-63954819D02*
X54214286Y-63954819D01*
X54500000Y-63954819D02*
X54500000Y-62954819D01*
X54500000Y-62954819D02*
X54404762Y-63097676D01*
X54404762Y-63097676D02*
X54309524Y-63192914D01*
X54309524Y-63192914D02*
X54214286Y-63240533D01*
X79833333Y-66859580D02*
X79785714Y-66907200D01*
X79785714Y-66907200D02*
X79642857Y-66954819D01*
X79642857Y-66954819D02*
X79547619Y-66954819D01*
X79547619Y-66954819D02*
X79404762Y-66907200D01*
X79404762Y-66907200D02*
X79309524Y-66811961D01*
X79309524Y-66811961D02*
X79261905Y-66716723D01*
X79261905Y-66716723D02*
X79214286Y-66526247D01*
X79214286Y-66526247D02*
X79214286Y-66383390D01*
X79214286Y-66383390D02*
X79261905Y-66192914D01*
X79261905Y-66192914D02*
X79309524Y-66097676D01*
X79309524Y-66097676D02*
X79404762Y-66002438D01*
X79404762Y-66002438D02*
X79547619Y-65954819D01*
X79547619Y-65954819D02*
X79642857Y-65954819D01*
X79642857Y-65954819D02*
X79785714Y-66002438D01*
X79785714Y-66002438D02*
X79833333Y-66050057D01*
X80785714Y-66954819D02*
X80214286Y-66954819D01*
X80500000Y-66954819D02*
X80500000Y-65954819D01*
X80500000Y-65954819D02*
X80404762Y-66097676D01*
X80404762Y-66097676D02*
X80309524Y-66192914D01*
X80309524Y-66192914D02*
X80214286Y-66240533D01*
X41166666Y-72954819D02*
X41166666Y-73669104D01*
X41166666Y-73669104D02*
X41119047Y-73811961D01*
X41119047Y-73811961D02*
X41023809Y-73907200D01*
X41023809Y-73907200D02*
X40880952Y-73954819D01*
X40880952Y-73954819D02*
X40785714Y-73954819D01*
X41642857Y-73954819D02*
X41642857Y-72954819D01*
X41642857Y-72954819D02*
X42023809Y-72954819D01*
X42023809Y-72954819D02*
X42119047Y-73002438D01*
X42119047Y-73002438D02*
X42166666Y-73050057D01*
X42166666Y-73050057D02*
X42214285Y-73145295D01*
X42214285Y-73145295D02*
X42214285Y-73288152D01*
X42214285Y-73288152D02*
X42166666Y-73383390D01*
X42166666Y-73383390D02*
X42119047Y-73431009D01*
X42119047Y-73431009D02*
X42023809Y-73478628D01*
X42023809Y-73478628D02*
X41642857Y-73478628D01*
X43166666Y-73954819D02*
X42595238Y-73954819D01*
X42880952Y-73954819D02*
X42880952Y-72954819D01*
X42880952Y-72954819D02*
X42785714Y-73097676D01*
X42785714Y-73097676D02*
X42690476Y-73192914D01*
X42690476Y-73192914D02*
X42595238Y-73240533D01*
X91666666Y-10954819D02*
X91666666Y-11669104D01*
X91666666Y-11669104D02*
X91619047Y-11811961D01*
X91619047Y-11811961D02*
X91523809Y-11907200D01*
X91523809Y-11907200D02*
X91380952Y-11954819D01*
X91380952Y-11954819D02*
X91285714Y-11954819D01*
X92571428Y-11288152D02*
X92571428Y-11954819D01*
X92333333Y-10907200D02*
X92095238Y-11621485D01*
X92095238Y-11621485D02*
X92714285Y-11621485D01*
X71833333Y-17954819D02*
X71500000Y-17478628D01*
X71261905Y-17954819D02*
X71261905Y-16954819D01*
X71261905Y-16954819D02*
X71642857Y-16954819D01*
X71642857Y-16954819D02*
X71738095Y-17002438D01*
X71738095Y-17002438D02*
X71785714Y-17050057D01*
X71785714Y-17050057D02*
X71833333Y-17145295D01*
X71833333Y-17145295D02*
X71833333Y-17288152D01*
X71833333Y-17288152D02*
X71785714Y-17383390D01*
X71785714Y-17383390D02*
X71738095Y-17431009D01*
X71738095Y-17431009D02*
X71642857Y-17478628D01*
X71642857Y-17478628D02*
X71261905Y-17478628D01*
X72214286Y-17050057D02*
X72261905Y-17002438D01*
X72261905Y-17002438D02*
X72357143Y-16954819D01*
X72357143Y-16954819D02*
X72595238Y-16954819D01*
X72595238Y-16954819D02*
X72690476Y-17002438D01*
X72690476Y-17002438D02*
X72738095Y-17050057D01*
X72738095Y-17050057D02*
X72785714Y-17145295D01*
X72785714Y-17145295D02*
X72785714Y-17240533D01*
X72785714Y-17240533D02*
X72738095Y-17383390D01*
X72738095Y-17383390D02*
X72166667Y-17954819D01*
X72166667Y-17954819D02*
X72785714Y-17954819D01*
X71833333Y-23954819D02*
X71500000Y-23478628D01*
X71261905Y-23954819D02*
X71261905Y-22954819D01*
X71261905Y-22954819D02*
X71642857Y-22954819D01*
X71642857Y-22954819D02*
X71738095Y-23002438D01*
X71738095Y-23002438D02*
X71785714Y-23050057D01*
X71785714Y-23050057D02*
X71833333Y-23145295D01*
X71833333Y-23145295D02*
X71833333Y-23288152D01*
X71833333Y-23288152D02*
X71785714Y-23383390D01*
X71785714Y-23383390D02*
X71738095Y-23431009D01*
X71738095Y-23431009D02*
X71642857Y-23478628D01*
X71642857Y-23478628D02*
X71261905Y-23478628D01*
X72166667Y-22954819D02*
X72785714Y-22954819D01*
X72785714Y-22954819D02*
X72452381Y-23335771D01*
X72452381Y-23335771D02*
X72595238Y-23335771D01*
X72595238Y-23335771D02*
X72690476Y-23383390D01*
X72690476Y-23383390D02*
X72738095Y-23431009D01*
X72738095Y-23431009D02*
X72785714Y-23526247D01*
X72785714Y-23526247D02*
X72785714Y-23764342D01*
X72785714Y-23764342D02*
X72738095Y-23859580D01*
X72738095Y-23859580D02*
X72690476Y-23907200D01*
X72690476Y-23907200D02*
X72595238Y-23954819D01*
X72595238Y-23954819D02*
X72309524Y-23954819D01*
X72309524Y-23954819D02*
X72214286Y-23907200D01*
X72214286Y-23907200D02*
X72166667Y-23859580D01*
X52666666Y-11954819D02*
X52666666Y-12669104D01*
X52666666Y-12669104D02*
X52619047Y-12811961D01*
X52619047Y-12811961D02*
X52523809Y-12907200D01*
X52523809Y-12907200D02*
X52380952Y-12954819D01*
X52380952Y-12954819D02*
X52285714Y-12954819D01*
X53619047Y-11954819D02*
X53142857Y-11954819D01*
X53142857Y-11954819D02*
X53095238Y-12431009D01*
X53095238Y-12431009D02*
X53142857Y-12383390D01*
X53142857Y-12383390D02*
X53238095Y-12335771D01*
X53238095Y-12335771D02*
X53476190Y-12335771D01*
X53476190Y-12335771D02*
X53571428Y-12383390D01*
X53571428Y-12383390D02*
X53619047Y-12431009D01*
X53619047Y-12431009D02*
X53666666Y-12526247D01*
X53666666Y-12526247D02*
X53666666Y-12764342D01*
X53666666Y-12764342D02*
X53619047Y-12859580D01*
X53619047Y-12859580D02*
X53571428Y-12907200D01*
X53571428Y-12907200D02*
X53476190Y-12954819D01*
X53476190Y-12954819D02*
X53238095Y-12954819D01*
X53238095Y-12954819D02*
X53142857Y-12907200D01*
X53142857Y-12907200D02*
X53095238Y-12859580D01*
X91666666Y-39954819D02*
X91666666Y-40669104D01*
X91666666Y-40669104D02*
X91619047Y-40811961D01*
X91619047Y-40811961D02*
X91523809Y-40907200D01*
X91523809Y-40907200D02*
X91380952Y-40954819D01*
X91380952Y-40954819D02*
X91285714Y-40954819D01*
X92571428Y-39954819D02*
X92380952Y-39954819D01*
X92380952Y-39954819D02*
X92285714Y-40002438D01*
X92285714Y-40002438D02*
X92238095Y-40050057D01*
X92238095Y-40050057D02*
X92142857Y-40192914D01*
X92142857Y-40192914D02*
X92095238Y-40383390D01*
X92095238Y-40383390D02*
X92095238Y-40764342D01*
X92095238Y-40764342D02*
X92142857Y-40859580D01*
X92142857Y-40859580D02*
X92190476Y-40907200D01*
X92190476Y-40907200D02*
X92285714Y-40954819D01*
X92285714Y-40954819D02*
X92476190Y-40954819D01*
X92476190Y-40954819D02*
X92571428Y-40907200D01*
X92571428Y-40907200D02*
X92619047Y-40859580D01*
X92619047Y-40859580D02*
X92666666Y-40764342D01*
X92666666Y-40764342D02*
X92666666Y-40526247D01*
X92666666Y-40526247D02*
X92619047Y-40431009D01*
X92619047Y-40431009D02*
X92571428Y-40383390D01*
X92571428Y-40383390D02*
X92476190Y-40335771D01*
X92476190Y-40335771D02*
X92285714Y-40335771D01*
X92285714Y-40335771D02*
X92190476Y-40383390D01*
X92190476Y-40383390D02*
X92142857Y-40431009D01*
X92142857Y-40431009D02*
X92095238Y-40526247D01*
X80833333Y-50954819D02*
X80500000Y-50478628D01*
X80261905Y-50954819D02*
X80261905Y-49954819D01*
X80261905Y-49954819D02*
X80642857Y-49954819D01*
X80642857Y-49954819D02*
X80738095Y-50002438D01*
X80738095Y-50002438D02*
X80785714Y-50050057D01*
X80785714Y-50050057D02*
X80833333Y-50145295D01*
X80833333Y-50145295D02*
X80833333Y-50288152D01*
X80833333Y-50288152D02*
X80785714Y-50383390D01*
X80785714Y-50383390D02*
X80738095Y-50431009D01*
X80738095Y-50431009D02*
X80642857Y-50478628D01*
X80642857Y-50478628D02*
X80261905Y-50478628D01*
X81690476Y-50288152D02*
X81690476Y-50954819D01*
X81452381Y-49907200D02*
X81214286Y-50621485D01*
X81214286Y-50621485D02*
X81833333Y-50621485D01*
X62238095Y-39954819D02*
X62238095Y-40764342D01*
X62238095Y-40764342D02*
X62285714Y-40859580D01*
X62285714Y-40859580D02*
X62333333Y-40907200D01*
X62333333Y-40907200D02*
X62428571Y-40954819D01*
X62428571Y-40954819D02*
X62619047Y-40954819D01*
X62619047Y-40954819D02*
X62714285Y-40907200D01*
X62714285Y-40907200D02*
X62761904Y-40859580D01*
X62761904Y-40859580D02*
X62809523Y-40764342D01*
X62809523Y-40764342D02*
X62809523Y-39954819D01*
X63809523Y-40954819D02*
X63238095Y-40954819D01*
X63523809Y-40954819D02*
X63523809Y-39954819D01*
X63523809Y-39954819D02*
X63428571Y-40097676D01*
X63428571Y-40097676D02*
X63333333Y-40192914D01*
X63333333Y-40192914D02*
X63238095Y-40240533D01*
X58833333Y-36859580D02*
X58785714Y-36907200D01*
X58785714Y-36907200D02*
X58642857Y-36954819D01*
X58642857Y-36954819D02*
X58547619Y-36954819D01*
X58547619Y-36954819D02*
X58404762Y-36907200D01*
X58404762Y-36907200D02*
X58309524Y-36811961D01*
X58309524Y-36811961D02*
X58261905Y-36716723D01*
X58261905Y-36716723D02*
X58214286Y-36526247D01*
X58214286Y-36526247D02*
X58214286Y-36383390D01*
X58214286Y-36383390D02*
X58261905Y-36192914D01*
X58261905Y-36192914D02*
X58309524Y-36097676D01*
X58309524Y-36097676D02*
X58404762Y-36002438D01*
X58404762Y-36002438D02*
X58547619Y-35954819D01*
X58547619Y-35954819D02*
X58642857Y-35954819D01*
X58642857Y-35954819D02*
X58785714Y-36002438D01*
X58785714Y-36002438D02*
X58833333Y-36050057D01*
X59214286Y-36050057D02*
X59261905Y-36002438D01*
X59261905Y-36002438D02*
X59357143Y-35954819D01*
X59357143Y-35954819D02*
X59595238Y-35954819D01*
X59595238Y-35954819D02*
X59690476Y-36002438D01*
X59690476Y-36002438D02*
X59738095Y-36050057D01*
X59738095Y-36050057D02*
X59785714Y-36145295D01*
X59785714Y-36145295D02*
X59785714Y-36240533D01*
X59785714Y-36240533D02*
X59738095Y-36383390D01*
X59738095Y-36383390D02*
X59166667Y-36954819D01*
X59166667Y-36954819D02*
X59785714Y-36954819D01*
X56833333Y-44954819D02*
X56500000Y-44478628D01*
X56261905Y-44954819D02*
X56261905Y-43954819D01*
X56261905Y-43954819D02*
X56642857Y-43954819D01*
X56642857Y-43954819D02*
X56738095Y-44002438D01*
X56738095Y-44002438D02*
X56785714Y-44050057D01*
X56785714Y-44050057D02*
X56833333Y-44145295D01*
X56833333Y-44145295D02*
X56833333Y-44288152D01*
X56833333Y-44288152D02*
X56785714Y-44383390D01*
X56785714Y-44383390D02*
X56738095Y-44431009D01*
X56738095Y-44431009D02*
X56642857Y-44478628D01*
X56642857Y-44478628D02*
X56261905Y-44478628D01*
X57738095Y-43954819D02*
X57261905Y-43954819D01*
X57261905Y-43954819D02*
X57214286Y-44431009D01*
X57214286Y-44431009D02*
X57261905Y-44383390D01*
X57261905Y-44383390D02*
X57357143Y-44335771D01*
X57357143Y-44335771D02*
X57595238Y-44335771D01*
X57595238Y-44335771D02*
X57690476Y-44383390D01*
X57690476Y-44383390D02*
X57738095Y-44431009D01*
X57738095Y-44431009D02*
X57785714Y-44526247D01*
X57785714Y-44526247D02*
X57785714Y-44764342D01*
X57785714Y-44764342D02*
X57738095Y-44859580D01*
X57738095Y-44859580D02*
X57690476Y-44907200D01*
X57690476Y-44907200D02*
X57595238Y-44954819D01*
X57595238Y-44954819D02*
X57357143Y-44954819D01*
X57357143Y-44954819D02*
X57261905Y-44907200D01*
X57261905Y-44907200D02*
X57214286Y-44859580D01*
X69833333Y-38954819D02*
X69500000Y-38478628D01*
X69261905Y-38954819D02*
X69261905Y-37954819D01*
X69261905Y-37954819D02*
X69642857Y-37954819D01*
X69642857Y-37954819D02*
X69738095Y-38002438D01*
X69738095Y-38002438D02*
X69785714Y-38050057D01*
X69785714Y-38050057D02*
X69833333Y-38145295D01*
X69833333Y-38145295D02*
X69833333Y-38288152D01*
X69833333Y-38288152D02*
X69785714Y-38383390D01*
X69785714Y-38383390D02*
X69738095Y-38431009D01*
X69738095Y-38431009D02*
X69642857Y-38478628D01*
X69642857Y-38478628D02*
X69261905Y-38478628D01*
X70690476Y-37954819D02*
X70500000Y-37954819D01*
X70500000Y-37954819D02*
X70404762Y-38002438D01*
X70404762Y-38002438D02*
X70357143Y-38050057D01*
X70357143Y-38050057D02*
X70261905Y-38192914D01*
X70261905Y-38192914D02*
X70214286Y-38383390D01*
X70214286Y-38383390D02*
X70214286Y-38764342D01*
X70214286Y-38764342D02*
X70261905Y-38859580D01*
X70261905Y-38859580D02*
X70309524Y-38907200D01*
X70309524Y-38907200D02*
X70404762Y-38954819D01*
X70404762Y-38954819D02*
X70595238Y-38954819D01*
X70595238Y-38954819D02*
X70690476Y-38907200D01*
X70690476Y-38907200D02*
X70738095Y-38859580D01*
X70738095Y-38859580D02*
X70785714Y-38764342D01*
X70785714Y-38764342D02*
X70785714Y-38526247D01*
X70785714Y-38526247D02*
X70738095Y-38431009D01*
X70738095Y-38431009D02*
X70690476Y-38383390D01*
X70690476Y-38383390D02*
X70595238Y-38335771D01*
X70595238Y-38335771D02*
X70404762Y-38335771D01*
X70404762Y-38335771D02*
X70309524Y-38383390D01*
X70309524Y-38383390D02*
X70261905Y-38431009D01*
X70261905Y-38431009D02*
X70214286Y-38526247D01*
X76666666Y-35954819D02*
X76666666Y-36669104D01*
X76666666Y-36669104D02*
X76619047Y-36811961D01*
X76619047Y-36811961D02*
X76523809Y-36907200D01*
X76523809Y-36907200D02*
X76380952Y-36954819D01*
X76380952Y-36954819D02*
X76285714Y-36954819D01*
X77047619Y-35954819D02*
X77714285Y-35954819D01*
X77714285Y-35954819D02*
X77285714Y-36954819D01*
X8666666Y-72954819D02*
X8666666Y-73669104D01*
X8666666Y-73669104D02*
X8619047Y-73811961D01*
X8619047Y-73811961D02*
X8523809Y-73907200D01*
X8523809Y-73907200D02*
X8380952Y-73954819D01*
X8380952Y-73954819D02*
X8285714Y-73954819D01*
X9285714Y-73383390D02*
X9190476Y-73335771D01*
X9190476Y-73335771D02*
X9142857Y-73288152D01*
X9142857Y-73288152D02*
X9095238Y-73192914D01*
X9095238Y-73192914D02*
X9095238Y-73145295D01*
X9095238Y-73145295D02*
X9142857Y-73050057D01*
X9142857Y-73050057D02*
X9190476Y-73002438D01*
X9190476Y-73002438D02*
X9285714Y-72954819D01*
X9285714Y-72954819D02*
X9476190Y-72954819D01*
X9476190Y-72954819D02*
X9571428Y-73002438D01*
X9571428Y-73002438D02*
X9619047Y-73050057D01*
X9619047Y-73050057D02*
X9666666Y-73145295D01*
X9666666Y-73145295D02*
X9666666Y-73192914D01*
X9666666Y-73192914D02*
X9619047Y-73288152D01*
X9619047Y-73288152D02*
X9571428Y-73335771D01*
X9571428Y-73335771D02*
X9476190Y-73383390D01*
X9476190Y-73383390D02*
X9285714Y-73383390D01*
X9285714Y-73383390D02*
X9190476Y-73431009D01*
X9190476Y-73431009D02*
X9142857Y-73478628D01*
X9142857Y-73478628D02*
X9095238Y-73573866D01*
X9095238Y-73573866D02*
X9095238Y-73764342D01*
X9095238Y-73764342D02*
X9142857Y-73859580D01*
X9142857Y-73859580D02*
X9190476Y-73907200D01*
X9190476Y-73907200D02*
X9285714Y-73954819D01*
X9285714Y-73954819D02*
X9476190Y-73954819D01*
X9476190Y-73954819D02*
X9571428Y-73907200D01*
X9571428Y-73907200D02*
X9619047Y-73859580D01*
X9619047Y-73859580D02*
X9666666Y-73764342D01*
X9666666Y-73764342D02*
X9666666Y-73573866D01*
X9666666Y-73573866D02*
X9619047Y-73478628D01*
X9619047Y-73478628D02*
X9571428Y-73431009D01*
X9571428Y-73431009D02*
X9476190Y-73383390D01*
X19666666Y-72954819D02*
X19666666Y-73669104D01*
X19666666Y-73669104D02*
X19619047Y-73811961D01*
X19619047Y-73811961D02*
X19523809Y-73907200D01*
X19523809Y-73907200D02*
X19380952Y-73954819D01*
X19380952Y-73954819D02*
X19285714Y-73954819D01*
X20190476Y-73954819D02*
X20380952Y-73954819D01*
X20380952Y-73954819D02*
X20476190Y-73907200D01*
X20476190Y-73907200D02*
X20523809Y-73859580D01*
X20523809Y-73859580D02*
X20619047Y-73716723D01*
X20619047Y-73716723D02*
X20666666Y-73526247D01*
X20666666Y-73526247D02*
X20666666Y-73145295D01*
X20666666Y-73145295D02*
X20619047Y-73050057D01*
X20619047Y-73050057D02*
X20571428Y-73002438D01*
X20571428Y-73002438D02*
X20476190Y-72954819D01*
X20476190Y-72954819D02*
X20285714Y-72954819D01*
X20285714Y-72954819D02*
X20190476Y-73002438D01*
X20190476Y-73002438D02*
X20142857Y-73050057D01*
X20142857Y-73050057D02*
X20095238Y-73145295D01*
X20095238Y-73145295D02*
X20095238Y-73383390D01*
X20095238Y-73383390D02*
X20142857Y-73478628D01*
X20142857Y-73478628D02*
X20190476Y-73526247D01*
X20190476Y-73526247D02*
X20285714Y-73573866D01*
X20285714Y-73573866D02*
X20476190Y-73573866D01*
X20476190Y-73573866D02*
X20571428Y-73526247D01*
X20571428Y-73526247D02*
X20619047Y-73478628D01*
X20619047Y-73478628D02*
X20666666Y-73383390D01*
X30190476Y-72954819D02*
X30190476Y-73669104D01*
X30190476Y-73669104D02*
X30142857Y-73811961D01*
X30142857Y-73811961D02*
X30047619Y-73907200D01*
X30047619Y-73907200D02*
X29904762Y-73954819D01*
X29904762Y-73954819D02*
X29809524Y-73954819D01*
X31190476Y-73954819D02*
X30619048Y-73954819D01*
X30904762Y-73954819D02*
X30904762Y-72954819D01*
X30904762Y-72954819D02*
X30809524Y-73097676D01*
X30809524Y-73097676D02*
X30714286Y-73192914D01*
X30714286Y-73192914D02*
X30619048Y-73240533D01*
X31809524Y-72954819D02*
X31904762Y-72954819D01*
X31904762Y-72954819D02*
X32000000Y-73002438D01*
X32000000Y-73002438D02*
X32047619Y-73050057D01*
X32047619Y-73050057D02*
X32095238Y-73145295D01*
X32095238Y-73145295D02*
X32142857Y-73335771D01*
X32142857Y-73335771D02*
X32142857Y-73573866D01*
X32142857Y-73573866D02*
X32095238Y-73764342D01*
X32095238Y-73764342D02*
X32047619Y-73859580D01*
X32047619Y-73859580D02*
X32000000Y-73907200D01*
X32000000Y-73907200D02*
X31904762Y-73954819D01*
X31904762Y-73954819D02*
X31809524Y-73954819D01*
X31809524Y-73954819D02*
X31714286Y-73907200D01*
X31714286Y-73907200D02*
X31666667Y-73859580D01*
X31666667Y-73859580D02*
X31619048Y-73764342D01*
X31619048Y-73764342D02*
X31571429Y-73573866D01*
X31571429Y-73573866D02*
X31571429Y-73335771D01*
X31571429Y-73335771D02*
X31619048Y-73145295D01*
X31619048Y-73145295D02*
X31666667Y-73050057D01*
X31666667Y-73050057D02*
X31714286Y-73002438D01*
X31714286Y-73002438D02*
X31809524Y-72954819D01*
X47833333Y-60454819D02*
X47500000Y-59978628D01*
X47261905Y-60454819D02*
X47261905Y-59454819D01*
X47261905Y-59454819D02*
X47642857Y-59454819D01*
X47642857Y-59454819D02*
X47738095Y-59502438D01*
X47738095Y-59502438D02*
X47785714Y-59550057D01*
X47785714Y-59550057D02*
X47833333Y-59645295D01*
X47833333Y-59645295D02*
X47833333Y-59788152D01*
X47833333Y-59788152D02*
X47785714Y-59883390D01*
X47785714Y-59883390D02*
X47738095Y-59931009D01*
X47738095Y-59931009D02*
X47642857Y-59978628D01*
X47642857Y-59978628D02*
X47261905Y-59978628D01*
X48166667Y-59454819D02*
X48833333Y-59454819D01*
X48833333Y-59454819D02*
X48404762Y-60454819D01*
X45833333Y-49954819D02*
X45500000Y-49478628D01*
X45261905Y-49954819D02*
X45261905Y-48954819D01*
X45261905Y-48954819D02*
X45642857Y-48954819D01*
X45642857Y-48954819D02*
X45738095Y-49002438D01*
X45738095Y-49002438D02*
X45785714Y-49050057D01*
X45785714Y-49050057D02*
X45833333Y-49145295D01*
X45833333Y-49145295D02*
X45833333Y-49288152D01*
X45833333Y-49288152D02*
X45785714Y-49383390D01*
X45785714Y-49383390D02*
X45738095Y-49431009D01*
X45738095Y-49431009D02*
X45642857Y-49478628D01*
X45642857Y-49478628D02*
X45261905Y-49478628D01*
X46404762Y-49383390D02*
X46309524Y-49335771D01*
X46309524Y-49335771D02*
X46261905Y-49288152D01*
X46261905Y-49288152D02*
X46214286Y-49192914D01*
X46214286Y-49192914D02*
X46214286Y-49145295D01*
X46214286Y-49145295D02*
X46261905Y-49050057D01*
X46261905Y-49050057D02*
X46309524Y-49002438D01*
X46309524Y-49002438D02*
X46404762Y-48954819D01*
X46404762Y-48954819D02*
X46595238Y-48954819D01*
X46595238Y-48954819D02*
X46690476Y-49002438D01*
X46690476Y-49002438D02*
X46738095Y-49050057D01*
X46738095Y-49050057D02*
X46785714Y-49145295D01*
X46785714Y-49145295D02*
X46785714Y-49192914D01*
X46785714Y-49192914D02*
X46738095Y-49288152D01*
X46738095Y-49288152D02*
X46690476Y-49335771D01*
X46690476Y-49335771D02*
X46595238Y-49383390D01*
X46595238Y-49383390D02*
X46404762Y-49383390D01*
X46404762Y-49383390D02*
X46309524Y-49431009D01*
X46309524Y-49431009D02*
X46261905Y-49478628D01*
X46261905Y-49478628D02*
X46214286Y-49573866D01*
X46214286Y-49573866D02*
X46214286Y-49764342D01*
X46214286Y-49764342D02*
X46261905Y-49859580D01*
X46261905Y-49859580D02*
X46309524Y-49907200D01*
X46309524Y-49907200D02*
X46404762Y-49954819D01*
X46404762Y-49954819D02*
X46595238Y-49954819D01*
X46595238Y-49954819D02*
X46690476Y-49907200D01*
X46690476Y-49907200D02*
X46738095Y-49859580D01*
X46738095Y-49859580D02*
X46785714Y-49764342D01*
X46785714Y-49764342D02*
X46785714Y-49573866D01*
X46785714Y-49573866D02*
X46738095Y-49478628D01*
X46738095Y-49478628D02*
X46690476Y-49431009D01*
X46690476Y-49431009D02*
X46595238Y-49383390D01*
X45833333Y-54954819D02*
X45500000Y-54478628D01*
X45261905Y-54954819D02*
X45261905Y-53954819D01*
X45261905Y-53954819D02*
X45642857Y-53954819D01*
X45642857Y-53954819D02*
X45738095Y-54002438D01*
X45738095Y-54002438D02*
X45785714Y-54050057D01*
X45785714Y-54050057D02*
X45833333Y-54145295D01*
X45833333Y-54145295D02*
X45833333Y-54288152D01*
X45833333Y-54288152D02*
X45785714Y-54383390D01*
X45785714Y-54383390D02*
X45738095Y-54431009D01*
X45738095Y-54431009D02*
X45642857Y-54478628D01*
X45642857Y-54478628D02*
X45261905Y-54478628D01*
X46309524Y-54954819D02*
X46500000Y-54954819D01*
X46500000Y-54954819D02*
X46595238Y-54907200D01*
X46595238Y-54907200D02*
X46642857Y-54859580D01*
X46642857Y-54859580D02*
X46738095Y-54716723D01*
X46738095Y-54716723D02*
X46785714Y-54526247D01*
X46785714Y-54526247D02*
X46785714Y-54145295D01*
X46785714Y-54145295D02*
X46738095Y-54050057D01*
X46738095Y-54050057D02*
X46690476Y-54002438D01*
X46690476Y-54002438D02*
X46595238Y-53954819D01*
X46595238Y-53954819D02*
X46404762Y-53954819D01*
X46404762Y-53954819D02*
X46309524Y-54002438D01*
X46309524Y-54002438D02*
X46261905Y-54050057D01*
X46261905Y-54050057D02*
X46214286Y-54145295D01*
X46214286Y-54145295D02*
X46214286Y-54383390D01*
X46214286Y-54383390D02*
X46261905Y-54478628D01*
X46261905Y-54478628D02*
X46309524Y-54526247D01*
X46309524Y-54526247D02*
X46404762Y-54573866D01*
X46404762Y-54573866D02*
X46595238Y-54573866D01*
X46595238Y-54573866D02*
X46690476Y-54526247D01*
X46690476Y-54526247D02*
X46738095Y-54478628D01*
X46738095Y-54478628D02*
X46785714Y-54383390D01*
X53833333Y-31859580D02*
X53785714Y-31907200D01*
X53785714Y-31907200D02*
X53642857Y-31954819D01*
X53642857Y-31954819D02*
X53547619Y-31954819D01*
X53547619Y-31954819D02*
X53404762Y-31907200D01*
X53404762Y-31907200D02*
X53309524Y-31811961D01*
X53309524Y-31811961D02*
X53261905Y-31716723D01*
X53261905Y-31716723D02*
X53214286Y-31526247D01*
X53214286Y-31526247D02*
X53214286Y-31383390D01*
X53214286Y-31383390D02*
X53261905Y-31192914D01*
X53261905Y-31192914D02*
X53309524Y-31097676D01*
X53309524Y-31097676D02*
X53404762Y-31002438D01*
X53404762Y-31002438D02*
X53547619Y-30954819D01*
X53547619Y-30954819D02*
X53642857Y-30954819D01*
X53642857Y-30954819D02*
X53785714Y-31002438D01*
X53785714Y-31002438D02*
X53833333Y-31050057D01*
X54166667Y-30954819D02*
X54785714Y-30954819D01*
X54785714Y-30954819D02*
X54452381Y-31335771D01*
X54452381Y-31335771D02*
X54595238Y-31335771D01*
X54595238Y-31335771D02*
X54690476Y-31383390D01*
X54690476Y-31383390D02*
X54738095Y-31431009D01*
X54738095Y-31431009D02*
X54785714Y-31526247D01*
X54785714Y-31526247D02*
X54785714Y-31764342D01*
X54785714Y-31764342D02*
X54738095Y-31859580D01*
X54738095Y-31859580D02*
X54690476Y-31907200D01*
X54690476Y-31907200D02*
X54595238Y-31954819D01*
X54595238Y-31954819D02*
X54309524Y-31954819D01*
X54309524Y-31954819D02*
X54214286Y-31907200D01*
X54214286Y-31907200D02*
X54166667Y-31859580D01*
X67738095Y-56954819D02*
X68309523Y-56954819D01*
X68023809Y-57954819D02*
X68023809Y-56954819D01*
X68642857Y-57954819D02*
X68642857Y-56954819D01*
X68642857Y-56954819D02*
X69023809Y-56954819D01*
X69023809Y-56954819D02*
X69119047Y-57002438D01*
X69119047Y-57002438D02*
X69166666Y-57050057D01*
X69166666Y-57050057D02*
X69214285Y-57145295D01*
X69214285Y-57145295D02*
X69214285Y-57288152D01*
X69214285Y-57288152D02*
X69166666Y-57383390D01*
X69166666Y-57383390D02*
X69119047Y-57431009D01*
X69119047Y-57431009D02*
X69023809Y-57478628D01*
X69023809Y-57478628D02*
X68642857Y-57478628D01*
X70166666Y-57954819D02*
X69595238Y-57954819D01*
X69880952Y-57954819D02*
X69880952Y-56954819D01*
X69880952Y-56954819D02*
X69785714Y-57097676D01*
X69785714Y-57097676D02*
X69690476Y-57192914D01*
X69690476Y-57192914D02*
X69595238Y-57240533D01*
X74738095Y-56954819D02*
X75309523Y-56954819D01*
X75023809Y-57954819D02*
X75023809Y-56954819D01*
X75642857Y-57954819D02*
X75642857Y-56954819D01*
X75642857Y-56954819D02*
X76023809Y-56954819D01*
X76023809Y-56954819D02*
X76119047Y-57002438D01*
X76119047Y-57002438D02*
X76166666Y-57050057D01*
X76166666Y-57050057D02*
X76214285Y-57145295D01*
X76214285Y-57145295D02*
X76214285Y-57288152D01*
X76214285Y-57288152D02*
X76166666Y-57383390D01*
X76166666Y-57383390D02*
X76119047Y-57431009D01*
X76119047Y-57431009D02*
X76023809Y-57478628D01*
X76023809Y-57478628D02*
X75642857Y-57478628D01*
X76595238Y-57050057D02*
X76642857Y-57002438D01*
X76642857Y-57002438D02*
X76738095Y-56954819D01*
X76738095Y-56954819D02*
X76976190Y-56954819D01*
X76976190Y-56954819D02*
X77071428Y-57002438D01*
X77071428Y-57002438D02*
X77119047Y-57050057D01*
X77119047Y-57050057D02*
X77166666Y-57145295D01*
X77166666Y-57145295D02*
X77166666Y-57240533D01*
X77166666Y-57240533D02*
X77119047Y-57383390D01*
X77119047Y-57383390D02*
X76547619Y-57954819D01*
X76547619Y-57954819D02*
X77166666Y-57954819D01*
X44738095Y-31954819D02*
X45309523Y-31954819D01*
X45023809Y-32954819D02*
X45023809Y-31954819D01*
X45642857Y-32954819D02*
X45642857Y-31954819D01*
X45642857Y-31954819D02*
X46023809Y-31954819D01*
X46023809Y-31954819D02*
X46119047Y-32002438D01*
X46119047Y-32002438D02*
X46166666Y-32050057D01*
X46166666Y-32050057D02*
X46214285Y-32145295D01*
X46214285Y-32145295D02*
X46214285Y-32288152D01*
X46214285Y-32288152D02*
X46166666Y-32383390D01*
X46166666Y-32383390D02*
X46119047Y-32431009D01*
X46119047Y-32431009D02*
X46023809Y-32478628D01*
X46023809Y-32478628D02*
X45642857Y-32478628D01*
X46547619Y-31954819D02*
X47166666Y-31954819D01*
X47166666Y-31954819D02*
X46833333Y-32335771D01*
X46833333Y-32335771D02*
X46976190Y-32335771D01*
X46976190Y-32335771D02*
X47071428Y-32383390D01*
X47071428Y-32383390D02*
X47119047Y-32431009D01*
X47119047Y-32431009D02*
X47166666Y-32526247D01*
X47166666Y-32526247D02*
X47166666Y-32764342D01*
X47166666Y-32764342D02*
X47119047Y-32859580D01*
X47119047Y-32859580D02*
X47071428Y-32907200D01*
X47071428Y-32907200D02*
X46976190Y-32954819D01*
X46976190Y-32954819D02*
X46690476Y-32954819D01*
X46690476Y-32954819D02*
X46595238Y-32907200D01*
X46595238Y-32907200D02*
X46547619Y-32859580D01*
X69738095Y-44954819D02*
X70309523Y-44954819D01*
X70023809Y-45954819D02*
X70023809Y-44954819D01*
X70642857Y-45954819D02*
X70642857Y-44954819D01*
X70642857Y-44954819D02*
X71023809Y-44954819D01*
X71023809Y-44954819D02*
X71119047Y-45002438D01*
X71119047Y-45002438D02*
X71166666Y-45050057D01*
X71166666Y-45050057D02*
X71214285Y-45145295D01*
X71214285Y-45145295D02*
X71214285Y-45288152D01*
X71214285Y-45288152D02*
X71166666Y-45383390D01*
X71166666Y-45383390D02*
X71119047Y-45431009D01*
X71119047Y-45431009D02*
X71023809Y-45478628D01*
X71023809Y-45478628D02*
X70642857Y-45478628D01*
X72071428Y-45288152D02*
X72071428Y-45954819D01*
X71833333Y-44907200D02*
X71595238Y-45621485D01*
X71595238Y-45621485D02*
X72214285Y-45621485D01*
M02*
