%TF.GenerationSoftware,KiCad,Pcbnew,9.0.9*%
%TF.CreationDate,2026-09-16T16:33:32+00:00*%
%TF.ProjectId,aether-carrier,61657468-6572-42d6-9361-72726965722e,rev?*%
%TF.SameCoordinates,Original*%
%TF.FileFunction,Soldermask,Bot*%
%TF.FilePolarity,Negative*%
%FSLAX46Y46*%
G04 Gerber Fmt 4.6, Leading zero omitted, Abs format (unit mm)*
G04 Created by KiCad (PCBNEW 9.0.9) date 2026-09-16 16:33:32*
%MOMM*%
%LPD*%
G01*
G04 APERTURE LIST*
G04 APERTURE END LIST*
G36*
X4118894Y-84355086D02*
G01*
X4129458Y-84355086D01*
X4181477Y-84363325D01*
X4321877Y-84381809D01*
X4356138Y-84390989D01*
X4385185Y-84395590D01*
X4441045Y-84413740D01*
X4530338Y-84437666D01*
X4587309Y-84461264D01*
X4631428Y-84475599D01*
X4672755Y-84496656D01*
X4729733Y-84520257D01*
X4809803Y-84566485D01*
X4862123Y-84593144D01*
X4885909Y-84610425D01*
X4916624Y-84628159D01*
X5028975Y-84714369D01*
X5071589Y-84745330D01*
X5079058Y-84752799D01*
X5087848Y-84759544D01*
X5240455Y-84912151D01*
X5247199Y-84920940D01*
X5254670Y-84928411D01*
X5285634Y-84971030D01*
X5371840Y-85083375D01*
X5389572Y-85114087D01*
X5406856Y-85137877D01*
X5433517Y-85190203D01*
X5479742Y-85270266D01*
X5503340Y-85327237D01*
X5524401Y-85368572D01*
X5538738Y-85412696D01*
X5562333Y-85469661D01*
X5586255Y-85558941D01*
X5604410Y-85614815D01*
X5609011Y-85643867D01*
X5618190Y-85678122D01*
X5636673Y-85818514D01*
X5644914Y-85870542D01*
X5644914Y-85881105D01*
X5646360Y-85892089D01*
X5646360Y-86107910D01*
X5644914Y-86118893D01*
X5644914Y-86129458D01*
X5636672Y-86181490D01*
X5618190Y-86321877D01*
X5609011Y-86356129D01*
X5604410Y-86385185D01*
X5586254Y-86441063D01*
X5562333Y-86530338D01*
X5538739Y-86587298D01*
X5524401Y-86631428D01*
X5503337Y-86672766D01*
X5479742Y-86729733D01*
X5433521Y-86809788D01*
X5406856Y-86862123D01*
X5389569Y-86885916D01*
X5371840Y-86916624D01*
X5285648Y-87028950D01*
X5254670Y-87071589D01*
X5247195Y-87079063D01*
X5240455Y-87087848D01*
X5087848Y-87240455D01*
X5079063Y-87247195D01*
X5071589Y-87254670D01*
X5028950Y-87285648D01*
X4916624Y-87371840D01*
X4885916Y-87389569D01*
X4862123Y-87406856D01*
X4809788Y-87433521D01*
X4729733Y-87479742D01*
X4672766Y-87503337D01*
X4631428Y-87524401D01*
X4587298Y-87538739D01*
X4530338Y-87562333D01*
X4441063Y-87586254D01*
X4385185Y-87604410D01*
X4356129Y-87609011D01*
X4321877Y-87618190D01*
X4181490Y-87636672D01*
X4129458Y-87644914D01*
X4118893Y-87644914D01*
X4107910Y-87646360D01*
X3892090Y-87646360D01*
X3881107Y-87644914D01*
X3870542Y-87644914D01*
X3818511Y-87636672D01*
X3678122Y-87618190D01*
X3643867Y-87609011D01*
X3614815Y-87604410D01*
X3558941Y-87586255D01*
X3469661Y-87562333D01*
X3412696Y-87538738D01*
X3368572Y-87524401D01*
X3327237Y-87503340D01*
X3270266Y-87479742D01*
X3190203Y-87433517D01*
X3137877Y-87406856D01*
X3114087Y-87389572D01*
X3083375Y-87371840D01*
X2971030Y-87285634D01*
X2928411Y-87254670D01*
X2920940Y-87247199D01*
X2912151Y-87240455D01*
X2759544Y-87087848D01*
X2752799Y-87079058D01*
X2745330Y-87071589D01*
X2714369Y-87028975D01*
X2628159Y-86916624D01*
X2610425Y-86885909D01*
X2593144Y-86862123D01*
X2566485Y-86809803D01*
X2520257Y-86729733D01*
X2496656Y-86672755D01*
X2475599Y-86631428D01*
X2461264Y-86587309D01*
X2437666Y-86530338D01*
X2413740Y-86441045D01*
X2395590Y-86385185D01*
X2390989Y-86356138D01*
X2381809Y-86321877D01*
X2363325Y-86181477D01*
X2355086Y-86129458D01*
X2355086Y-86118893D01*
X2353640Y-86107910D01*
X2353640Y-85892089D01*
X2355086Y-85881105D01*
X2355086Y-85870542D01*
X2363324Y-85818527D01*
X2381809Y-85678122D01*
X2390989Y-85643858D01*
X2395590Y-85614815D01*
X2413738Y-85558959D01*
X2437666Y-85469661D01*
X2461265Y-85412685D01*
X2475599Y-85368572D01*
X2496654Y-85327248D01*
X2520257Y-85270266D01*
X2566489Y-85190188D01*
X2593144Y-85137877D01*
X2610423Y-85114094D01*
X2628159Y-85083375D01*
X2714383Y-84971005D01*
X2745330Y-84928411D01*
X2752796Y-84920944D01*
X2759544Y-84912151D01*
X2912151Y-84759544D01*
X2920944Y-84752796D01*
X2928411Y-84745330D01*
X2971005Y-84714383D01*
X3083375Y-84628159D01*
X3114094Y-84610423D01*
X3137877Y-84593144D01*
X3190188Y-84566489D01*
X3270266Y-84520257D01*
X3327248Y-84496654D01*
X3368572Y-84475599D01*
X3412685Y-84461265D01*
X3469661Y-84437666D01*
X3558959Y-84413738D01*
X3614815Y-84395590D01*
X3643858Y-84390989D01*
X3678122Y-84381809D01*
X3818524Y-84363324D01*
X3870542Y-84355086D01*
X3881106Y-84355086D01*
X3892090Y-84353640D01*
X4107910Y-84353640D01*
X4118894Y-84355086D01*
G37*
G36*
X96118894Y-84355086D02*
G01*
X96129458Y-84355086D01*
X96181477Y-84363325D01*
X96321877Y-84381809D01*
X96356138Y-84390989D01*
X96385185Y-84395590D01*
X96441045Y-84413740D01*
X96530338Y-84437666D01*
X96587309Y-84461264D01*
X96631428Y-84475599D01*
X96672755Y-84496656D01*
X96729733Y-84520257D01*
X96809803Y-84566485D01*
X96862123Y-84593144D01*
X96885909Y-84610425D01*
X96916624Y-84628159D01*
X97028975Y-84714369D01*
X97071589Y-84745330D01*
X97079058Y-84752799D01*
X97087848Y-84759544D01*
X97240455Y-84912151D01*
X97247199Y-84920940D01*
X97254670Y-84928411D01*
X97285634Y-84971030D01*
X97371840Y-85083375D01*
X97389572Y-85114087D01*
X97406856Y-85137877D01*
X97433517Y-85190203D01*
X97479742Y-85270266D01*
X97503340Y-85327237D01*
X97524401Y-85368572D01*
X97538738Y-85412696D01*
X97562333Y-85469661D01*
X97586255Y-85558941D01*
X97604410Y-85614815D01*
X97609011Y-85643867D01*
X97618190Y-85678122D01*
X97636673Y-85818514D01*
X97644914Y-85870542D01*
X97644914Y-85881105D01*
X97646360Y-85892089D01*
X97646360Y-86107910D01*
X97644914Y-86118893D01*
X97644914Y-86129458D01*
X97636672Y-86181490D01*
X97618190Y-86321877D01*
X97609011Y-86356129D01*
X97604410Y-86385185D01*
X97586254Y-86441063D01*
X97562333Y-86530338D01*
X97538739Y-86587298D01*
X97524401Y-86631428D01*
X97503337Y-86672766D01*
X97479742Y-86729733D01*
X97433521Y-86809788D01*
X97406856Y-86862123D01*
X97389569Y-86885916D01*
X97371840Y-86916624D01*
X97285648Y-87028950D01*
X97254670Y-87071589D01*
X97247195Y-87079063D01*
X97240455Y-87087848D01*
X97087848Y-87240455D01*
X97079063Y-87247195D01*
X97071589Y-87254670D01*
X97028950Y-87285648D01*
X96916624Y-87371840D01*
X96885916Y-87389569D01*
X96862123Y-87406856D01*
X96809788Y-87433521D01*
X96729733Y-87479742D01*
X96672766Y-87503337D01*
X96631428Y-87524401D01*
X96587298Y-87538739D01*
X96530338Y-87562333D01*
X96441063Y-87586254D01*
X96385185Y-87604410D01*
X96356129Y-87609011D01*
X96321877Y-87618190D01*
X96181490Y-87636672D01*
X96129458Y-87644914D01*
X96118893Y-87644914D01*
X96107910Y-87646360D01*
X95892090Y-87646360D01*
X95881107Y-87644914D01*
X95870542Y-87644914D01*
X95818511Y-87636672D01*
X95678122Y-87618190D01*
X95643867Y-87609011D01*
X95614815Y-87604410D01*
X95558941Y-87586255D01*
X95469661Y-87562333D01*
X95412696Y-87538738D01*
X95368572Y-87524401D01*
X95327237Y-87503340D01*
X95270266Y-87479742D01*
X95190203Y-87433517D01*
X95137877Y-87406856D01*
X95114087Y-87389572D01*
X95083375Y-87371840D01*
X94971030Y-87285634D01*
X94928411Y-87254670D01*
X94920940Y-87247199D01*
X94912151Y-87240455D01*
X94759544Y-87087848D01*
X94752799Y-87079058D01*
X94745330Y-87071589D01*
X94714369Y-87028975D01*
X94628159Y-86916624D01*
X94610425Y-86885909D01*
X94593144Y-86862123D01*
X94566485Y-86809803D01*
X94520257Y-86729733D01*
X94496656Y-86672755D01*
X94475599Y-86631428D01*
X94461264Y-86587309D01*
X94437666Y-86530338D01*
X94413740Y-86441045D01*
X94395590Y-86385185D01*
X94390989Y-86356138D01*
X94381809Y-86321877D01*
X94363325Y-86181477D01*
X94355086Y-86129458D01*
X94355086Y-86118893D01*
X94353640Y-86107910D01*
X94353640Y-85892089D01*
X94355086Y-85881105D01*
X94355086Y-85870542D01*
X94363324Y-85818527D01*
X94381809Y-85678122D01*
X94390989Y-85643858D01*
X94395590Y-85614815D01*
X94413738Y-85558959D01*
X94437666Y-85469661D01*
X94461265Y-85412685D01*
X94475599Y-85368572D01*
X94496654Y-85327248D01*
X94520257Y-85270266D01*
X94566489Y-85190188D01*
X94593144Y-85137877D01*
X94610423Y-85114094D01*
X94628159Y-85083375D01*
X94714383Y-84971005D01*
X94745330Y-84928411D01*
X94752796Y-84920944D01*
X94759544Y-84912151D01*
X94912151Y-84759544D01*
X94920944Y-84752796D01*
X94928411Y-84745330D01*
X94971005Y-84714383D01*
X95083375Y-84628159D01*
X95114094Y-84610423D01*
X95137877Y-84593144D01*
X95190188Y-84566489D01*
X95270266Y-84520257D01*
X95327248Y-84496654D01*
X95368572Y-84475599D01*
X95412685Y-84461265D01*
X95469661Y-84437666D01*
X95558959Y-84413738D01*
X95614815Y-84395590D01*
X95643858Y-84390989D01*
X95678122Y-84381809D01*
X95818524Y-84363324D01*
X95870542Y-84355086D01*
X95881106Y-84355086D01*
X95892090Y-84353640D01*
X96107910Y-84353640D01*
X96118894Y-84355086D01*
G37*
G36*
X73419134Y-80553806D02*
G01*
X73435355Y-80564645D01*
X73446194Y-80580866D01*
X73450000Y-80600000D01*
X73450000Y-83400000D01*
X73446194Y-83419134D01*
X73435355Y-83435355D01*
X73419134Y-83446194D01*
X73400000Y-83450000D01*
X70600000Y-83450000D01*
X70580866Y-83446194D01*
X70564645Y-83435355D01*
X70553806Y-83419134D01*
X70550000Y-83400000D01*
X70550000Y-80600000D01*
X70553806Y-80580866D01*
X70564645Y-80564645D01*
X70580866Y-80553806D01*
X70600000Y-80550000D01*
X73400000Y-80550000D01*
X73419134Y-80553806D01*
G37*
G36*
X77418496Y-80590064D02*
G01*
X77634891Y-80660375D01*
X77837623Y-80763672D01*
X78021700Y-80897411D01*
X78182589Y-81058300D01*
X78316328Y-81242377D01*
X78419625Y-81445109D01*
X78489936Y-81661504D01*
X78525530Y-81886234D01*
X78525530Y-82113766D01*
X78489936Y-82338496D01*
X78419625Y-82554891D01*
X78316328Y-82757623D01*
X78182589Y-82941700D01*
X78021700Y-83102589D01*
X77837623Y-83236328D01*
X77634891Y-83339625D01*
X77418496Y-83409936D01*
X77193766Y-83445530D01*
X76966234Y-83445530D01*
X76741504Y-83409936D01*
X76525109Y-83339625D01*
X76322377Y-83236328D01*
X76138300Y-83102589D01*
X75977411Y-82941700D01*
X75843672Y-82757623D01*
X75740375Y-82554891D01*
X75670064Y-82338496D01*
X75634470Y-82113766D01*
X75634470Y-81886234D01*
X75670064Y-81661504D01*
X75740375Y-81445109D01*
X75843672Y-81242377D01*
X75977411Y-81058300D01*
X76138300Y-80897411D01*
X76322377Y-80763672D01*
X76525109Y-80660375D01*
X76741504Y-80590064D01*
X76966234Y-80554470D01*
X77193766Y-80554470D01*
X77418496Y-80590064D01*
G37*
G36*
X9283028Y-78566983D02*
G01*
X9459612Y-78640127D01*
X9618533Y-78746315D01*
X9753685Y-78881467D01*
X9859873Y-79040388D01*
X9933017Y-79216972D01*
X9970305Y-79404433D01*
X9970305Y-79595567D01*
X9933017Y-79783028D01*
X9859873Y-79959612D01*
X9753685Y-80118533D01*
X9618533Y-80253685D01*
X9459612Y-80359873D01*
X9283028Y-80433017D01*
X9095567Y-80470305D01*
X8904433Y-80470305D01*
X8716972Y-80433017D01*
X8540388Y-80359873D01*
X8381467Y-80253685D01*
X8246315Y-80118533D01*
X8140127Y-79959612D01*
X8066983Y-79783028D01*
X8029695Y-79595567D01*
X8029695Y-79404433D01*
X8066983Y-79216972D01*
X8140127Y-79040388D01*
X8246315Y-78881467D01*
X8381467Y-78746315D01*
X8540388Y-78640127D01*
X8716972Y-78566983D01*
X8904433Y-78529695D01*
X9095567Y-78529695D01*
X9283028Y-78566983D01*
G37*
G36*
X20283028Y-78566983D02*
G01*
X20459612Y-78640127D01*
X20618533Y-78746315D01*
X20753685Y-78881467D01*
X20859873Y-79040388D01*
X20933017Y-79216972D01*
X20970305Y-79404433D01*
X20970305Y-79595567D01*
X20933017Y-79783028D01*
X20859873Y-79959612D01*
X20753685Y-80118533D01*
X20618533Y-80253685D01*
X20459612Y-80359873D01*
X20283028Y-80433017D01*
X20095567Y-80470305D01*
X19904433Y-80470305D01*
X19716972Y-80433017D01*
X19540388Y-80359873D01*
X19381467Y-80253685D01*
X19246315Y-80118533D01*
X19140127Y-79959612D01*
X19066983Y-79783028D01*
X19029695Y-79595567D01*
X19029695Y-79404433D01*
X19066983Y-79216972D01*
X19140127Y-79040388D01*
X19246315Y-78881467D01*
X19381467Y-78746315D01*
X19540388Y-78640127D01*
X19716972Y-78566983D01*
X19904433Y-78529695D01*
X20095567Y-78529695D01*
X20283028Y-78566983D01*
G37*
G36*
X31283028Y-78566983D02*
G01*
X31459612Y-78640127D01*
X31618533Y-78746315D01*
X31753685Y-78881467D01*
X31859873Y-79040388D01*
X31933017Y-79216972D01*
X31970305Y-79404433D01*
X31970305Y-79595567D01*
X31933017Y-79783028D01*
X31859873Y-79959612D01*
X31753685Y-80118533D01*
X31618533Y-80253685D01*
X31459612Y-80359873D01*
X31283028Y-80433017D01*
X31095567Y-80470305D01*
X30904433Y-80470305D01*
X30716972Y-80433017D01*
X30540388Y-80359873D01*
X30381467Y-80253685D01*
X30246315Y-80118533D01*
X30140127Y-79959612D01*
X30066983Y-79783028D01*
X30029695Y-79595567D01*
X30029695Y-79404433D01*
X30066983Y-79216972D01*
X30140127Y-79040388D01*
X30246315Y-78881467D01*
X30381467Y-78746315D01*
X30540388Y-78640127D01*
X30716972Y-78566983D01*
X30904433Y-78529695D01*
X31095567Y-78529695D01*
X31283028Y-78566983D01*
G37*
G36*
X57291807Y-76784538D02*
G01*
X57478354Y-76845151D01*
X57653123Y-76934200D01*
X57811810Y-77049493D01*
X57950507Y-77188190D01*
X58065800Y-77346877D01*
X58154849Y-77521646D01*
X58215462Y-77708193D01*
X58246147Y-77901926D01*
X58246147Y-78098074D01*
X58215462Y-78291807D01*
X58154849Y-78478354D01*
X58065800Y-78653123D01*
X57950507Y-78811810D01*
X57811810Y-78950507D01*
X57653123Y-79065800D01*
X57478354Y-79154849D01*
X57291807Y-79215462D01*
X57098074Y-79246147D01*
X56901926Y-79246147D01*
X56708193Y-79215462D01*
X56521646Y-79154849D01*
X56346877Y-79065800D01*
X56188190Y-78950507D01*
X56049493Y-78811810D01*
X55934200Y-78653123D01*
X55845151Y-78478354D01*
X55784538Y-78291807D01*
X55753853Y-78098074D01*
X55753853Y-77901926D01*
X55784538Y-77708193D01*
X55845151Y-77521646D01*
X55934200Y-77346877D01*
X56049493Y-77188190D01*
X56188190Y-77049493D01*
X56346877Y-76934200D01*
X56521646Y-76845151D01*
X56708193Y-76784538D01*
X56901926Y-76753853D01*
X57098074Y-76753853D01*
X57291807Y-76784538D01*
G37*
G36*
X62371807Y-76784538D02*
G01*
X62558354Y-76845151D01*
X62733123Y-76934200D01*
X62891810Y-77049493D01*
X63030507Y-77188190D01*
X63145800Y-77346877D01*
X63234849Y-77521646D01*
X63295462Y-77708193D01*
X63326147Y-77901926D01*
X63326147Y-78098074D01*
X63295462Y-78291807D01*
X63234849Y-78478354D01*
X63145800Y-78653123D01*
X63030507Y-78811810D01*
X62891810Y-78950507D01*
X62733123Y-79065800D01*
X62558354Y-79154849D01*
X62371807Y-79215462D01*
X62178074Y-79246147D01*
X61981926Y-79246147D01*
X61788193Y-79215462D01*
X61601646Y-79154849D01*
X61426877Y-79065800D01*
X61268190Y-78950507D01*
X61129493Y-78811810D01*
X61014200Y-78653123D01*
X60925151Y-78478354D01*
X60864538Y-78291807D01*
X60833853Y-78098074D01*
X60833853Y-77901926D01*
X60864538Y-77708193D01*
X60925151Y-77521646D01*
X61014200Y-77346877D01*
X61129493Y-77188190D01*
X61268190Y-77049493D01*
X61426877Y-76934200D01*
X61601646Y-76845151D01*
X61788193Y-76784538D01*
X61981926Y-76753853D01*
X62178074Y-76753853D01*
X62371807Y-76784538D01*
G37*
G36*
X9944134Y-76028806D02*
G01*
X9960355Y-76039645D01*
X9971194Y-76055866D01*
X9975000Y-76075000D01*
X9975000Y-77925000D01*
X9971194Y-77944134D01*
X9960355Y-77960355D01*
X9944134Y-77971194D01*
X9925000Y-77975000D01*
X8075000Y-77975000D01*
X8055866Y-77971194D01*
X8039645Y-77960355D01*
X8028806Y-77944134D01*
X8025000Y-77925000D01*
X8025000Y-76075000D01*
X8028806Y-76055866D01*
X8039645Y-76039645D01*
X8055866Y-76028806D01*
X8075000Y-76025000D01*
X9925000Y-76025000D01*
X9944134Y-76028806D01*
G37*
G36*
X20944134Y-76028806D02*
G01*
X20960355Y-76039645D01*
X20971194Y-76055866D01*
X20975000Y-76075000D01*
X20975000Y-77925000D01*
X20971194Y-77944134D01*
X20960355Y-77960355D01*
X20944134Y-77971194D01*
X20925000Y-77975000D01*
X19075000Y-77975000D01*
X19055866Y-77971194D01*
X19039645Y-77960355D01*
X19028806Y-77944134D01*
X19025000Y-77925000D01*
X19025000Y-76075000D01*
X19028806Y-76055866D01*
X19039645Y-76039645D01*
X19055866Y-76028806D01*
X19075000Y-76025000D01*
X20925000Y-76025000D01*
X20944134Y-76028806D01*
G37*
G36*
X31944134Y-76028806D02*
G01*
X31960355Y-76039645D01*
X31971194Y-76055866D01*
X31975000Y-76075000D01*
X31975000Y-77925000D01*
X31971194Y-77944134D01*
X31960355Y-77960355D01*
X31944134Y-77971194D01*
X31925000Y-77975000D01*
X30075000Y-77975000D01*
X30055866Y-77971194D01*
X30039645Y-77960355D01*
X30028806Y-77944134D01*
X30025000Y-77925000D01*
X30025000Y-76075000D01*
X30028806Y-76055866D01*
X30039645Y-76039645D01*
X30055866Y-76028806D01*
X30075000Y-76025000D01*
X31925000Y-76025000D01*
X31944134Y-76028806D01*
G37*
G36*
X42275770Y-76090907D02*
G01*
X42447827Y-76162175D01*
X42602674Y-76265640D01*
X42734360Y-76397326D01*
X42837825Y-76552173D01*
X42909093Y-76724230D01*
X42945425Y-76906884D01*
X42945425Y-77093116D01*
X42909093Y-77275770D01*
X42837825Y-77447827D01*
X42734360Y-77602674D01*
X42602674Y-77734360D01*
X42447827Y-77837825D01*
X42275770Y-77909093D01*
X42093116Y-77945425D01*
X41906884Y-77945425D01*
X41724230Y-77909093D01*
X41552173Y-77837825D01*
X41397326Y-77734360D01*
X41265640Y-77602674D01*
X41162175Y-77447827D01*
X41090907Y-77275770D01*
X41054575Y-77093116D01*
X41054575Y-76906884D01*
X41090907Y-76724230D01*
X41162175Y-76552173D01*
X41265640Y-76397326D01*
X41397326Y-76265640D01*
X41552173Y-76162175D01*
X41724230Y-76090907D01*
X41906884Y-76054575D01*
X42093116Y-76054575D01*
X42275770Y-76090907D01*
G37*
G36*
X44815770Y-76090907D02*
G01*
X44987827Y-76162175D01*
X45142674Y-76265640D01*
X45274360Y-76397326D01*
X45377825Y-76552173D01*
X45449093Y-76724230D01*
X45485425Y-76906884D01*
X45485425Y-77093116D01*
X45449093Y-77275770D01*
X45377825Y-77447827D01*
X45274360Y-77602674D01*
X45142674Y-77734360D01*
X44987827Y-77837825D01*
X44815770Y-77909093D01*
X44633116Y-77945425D01*
X44446884Y-77945425D01*
X44264230Y-77909093D01*
X44092173Y-77837825D01*
X43937326Y-77734360D01*
X43805640Y-77602674D01*
X43702175Y-77447827D01*
X43630907Y-77275770D01*
X43594575Y-77093116D01*
X43594575Y-76906884D01*
X43630907Y-76724230D01*
X43702175Y-76552173D01*
X43805640Y-76397326D01*
X43937326Y-76265640D01*
X44092173Y-76162175D01*
X44264230Y-76090907D01*
X44446884Y-76054575D01*
X44633116Y-76054575D01*
X44815770Y-76090907D01*
G37*
G36*
X81219134Y-68753806D02*
G01*
X81235355Y-68764645D01*
X81246194Y-68780866D01*
X81250000Y-68800000D01*
X81250000Y-71200000D01*
X81246194Y-71219134D01*
X81235355Y-71235355D01*
X81219134Y-71246194D01*
X81200000Y-71250000D01*
X78800000Y-71250000D01*
X78780866Y-71246194D01*
X78764645Y-71235355D01*
X78753806Y-71219134D01*
X78750000Y-71200000D01*
X78750000Y-68800000D01*
X78753806Y-68780866D01*
X78764645Y-68764645D01*
X78780866Y-68753806D01*
X78800000Y-68750000D01*
X81200000Y-68750000D01*
X81219134Y-68753806D01*
G37*
G36*
X85291807Y-68784538D02*
G01*
X85478354Y-68845151D01*
X85653123Y-68934200D01*
X85811810Y-69049493D01*
X85950507Y-69188190D01*
X86065800Y-69346877D01*
X86154849Y-69521646D01*
X86215462Y-69708193D01*
X86246147Y-69901926D01*
X86246147Y-70098074D01*
X86215462Y-70291807D01*
X86154849Y-70478354D01*
X86065800Y-70653123D01*
X85950507Y-70811810D01*
X85811810Y-70950507D01*
X85653123Y-71065800D01*
X85478354Y-71154849D01*
X85291807Y-71215462D01*
X85098074Y-71246147D01*
X84901926Y-71246147D01*
X84708193Y-71215462D01*
X84521646Y-71154849D01*
X84346877Y-71065800D01*
X84188190Y-70950507D01*
X84049493Y-70811810D01*
X83934200Y-70653123D01*
X83845151Y-70478354D01*
X83784538Y-70291807D01*
X83753853Y-70098074D01*
X83753853Y-69901926D01*
X83784538Y-69708193D01*
X83845151Y-69521646D01*
X83934200Y-69346877D01*
X84049493Y-69188190D01*
X84188190Y-69049493D01*
X84346877Y-68934200D01*
X84521646Y-68845151D01*
X84708193Y-68784538D01*
X84901926Y-68753853D01*
X85098074Y-68753853D01*
X85291807Y-68784538D01*
G37*
G36*
X14275770Y-68430907D02*
G01*
X14447827Y-68502175D01*
X14602674Y-68605640D01*
X14734360Y-68737326D01*
X14837825Y-68892173D01*
X14909093Y-69064230D01*
X14945425Y-69246884D01*
X14945425Y-69433116D01*
X14909093Y-69615770D01*
X14837825Y-69787827D01*
X14734360Y-69942674D01*
X14602674Y-70074360D01*
X14447827Y-70177825D01*
X14275770Y-70249093D01*
X14093116Y-70285425D01*
X13906884Y-70285425D01*
X13724230Y-70249093D01*
X13552173Y-70177825D01*
X13397326Y-70074360D01*
X13265640Y-69942674D01*
X13162175Y-69787827D01*
X13090907Y-69615770D01*
X13054575Y-69433116D01*
X13054575Y-69246884D01*
X13090907Y-69064230D01*
X13162175Y-68892173D01*
X13265640Y-68737326D01*
X13397326Y-68605640D01*
X13552173Y-68502175D01*
X13724230Y-68430907D01*
X13906884Y-68394575D01*
X14093116Y-68394575D01*
X14275770Y-68430907D01*
G37*
G36*
X37135770Y-68430907D02*
G01*
X37307827Y-68502175D01*
X37462674Y-68605640D01*
X37594360Y-68737326D01*
X37697825Y-68892173D01*
X37769093Y-69064230D01*
X37805425Y-69246884D01*
X37805425Y-69433116D01*
X37769093Y-69615770D01*
X37697825Y-69787827D01*
X37594360Y-69942674D01*
X37462674Y-70074360D01*
X37307827Y-70177825D01*
X37135770Y-70249093D01*
X36953116Y-70285425D01*
X36766884Y-70285425D01*
X36584230Y-70249093D01*
X36412173Y-70177825D01*
X36257326Y-70074360D01*
X36125640Y-69942674D01*
X36022175Y-69787827D01*
X35950907Y-69615770D01*
X35914575Y-69433116D01*
X35914575Y-69246884D01*
X35950907Y-69064230D01*
X36022175Y-68892173D01*
X36125640Y-68737326D01*
X36257326Y-68605640D01*
X36412173Y-68502175D01*
X36584230Y-68430907D01*
X36766884Y-68394575D01*
X36953116Y-68394575D01*
X37135770Y-68430907D01*
G37*
G36*
X14275770Y-65890907D02*
G01*
X14447827Y-65962175D01*
X14602674Y-66065640D01*
X14734360Y-66197326D01*
X14837825Y-66352173D01*
X14909093Y-66524230D01*
X14945425Y-66706884D01*
X14945425Y-66893116D01*
X14909093Y-67075770D01*
X14837825Y-67247827D01*
X14734360Y-67402674D01*
X14602674Y-67534360D01*
X14447827Y-67637825D01*
X14275770Y-67709093D01*
X14093116Y-67745425D01*
X13906884Y-67745425D01*
X13724230Y-67709093D01*
X13552173Y-67637825D01*
X13397326Y-67534360D01*
X13265640Y-67402674D01*
X13162175Y-67247827D01*
X13090907Y-67075770D01*
X13054575Y-66893116D01*
X13054575Y-66706884D01*
X13090907Y-66524230D01*
X13162175Y-66352173D01*
X13265640Y-66197326D01*
X13397326Y-66065640D01*
X13552173Y-65962175D01*
X13724230Y-65890907D01*
X13906884Y-65854575D01*
X14093116Y-65854575D01*
X14275770Y-65890907D01*
G37*
G36*
X37135770Y-65890907D02*
G01*
X37307827Y-65962175D01*
X37462674Y-66065640D01*
X37594360Y-66197326D01*
X37697825Y-66352173D01*
X37769093Y-66524230D01*
X37805425Y-66706884D01*
X37805425Y-66893116D01*
X37769093Y-67075770D01*
X37697825Y-67247827D01*
X37594360Y-67402674D01*
X37462674Y-67534360D01*
X37307827Y-67637825D01*
X37135770Y-67709093D01*
X36953116Y-67745425D01*
X36766884Y-67745425D01*
X36584230Y-67709093D01*
X36412173Y-67637825D01*
X36257326Y-67534360D01*
X36125640Y-67402674D01*
X36022175Y-67247827D01*
X35950907Y-67075770D01*
X35914575Y-66893116D01*
X35914575Y-66706884D01*
X35950907Y-66524230D01*
X36022175Y-66352173D01*
X36125640Y-66197326D01*
X36257326Y-66065640D01*
X36412173Y-65962175D01*
X36584230Y-65890907D01*
X36766884Y-65854575D01*
X36953116Y-65854575D01*
X37135770Y-65890907D01*
G37*
G36*
X14275770Y-63350907D02*
G01*
X14447827Y-63422175D01*
X14602674Y-63525640D01*
X14734360Y-63657326D01*
X14837825Y-63812173D01*
X14909093Y-63984230D01*
X14945425Y-64166884D01*
X14945425Y-64353116D01*
X14909093Y-64535770D01*
X14837825Y-64707827D01*
X14734360Y-64862674D01*
X14602674Y-64994360D01*
X14447827Y-65097825D01*
X14275770Y-65169093D01*
X14093116Y-65205425D01*
X13906884Y-65205425D01*
X13724230Y-65169093D01*
X13552173Y-65097825D01*
X13397326Y-64994360D01*
X13265640Y-64862674D01*
X13162175Y-64707827D01*
X13090907Y-64535770D01*
X13054575Y-64353116D01*
X13054575Y-64166884D01*
X13090907Y-63984230D01*
X13162175Y-63812173D01*
X13265640Y-63657326D01*
X13397326Y-63525640D01*
X13552173Y-63422175D01*
X13724230Y-63350907D01*
X13906884Y-63314575D01*
X14093116Y-63314575D01*
X14275770Y-63350907D01*
G37*
G36*
X37135770Y-63350907D02*
G01*
X37307827Y-63422175D01*
X37462674Y-63525640D01*
X37594360Y-63657326D01*
X37697825Y-63812173D01*
X37769093Y-63984230D01*
X37805425Y-64166884D01*
X37805425Y-64353116D01*
X37769093Y-64535770D01*
X37697825Y-64707827D01*
X37594360Y-64862674D01*
X37462674Y-64994360D01*
X37307827Y-65097825D01*
X37135770Y-65169093D01*
X36953116Y-65205425D01*
X36766884Y-65205425D01*
X36584230Y-65169093D01*
X36412173Y-65097825D01*
X36257326Y-64994360D01*
X36125640Y-64862674D01*
X36022175Y-64707827D01*
X35950907Y-64535770D01*
X35914575Y-64353116D01*
X35914575Y-64166884D01*
X35950907Y-63984230D01*
X36022175Y-63812173D01*
X36125640Y-63657326D01*
X36257326Y-63525640D01*
X36412173Y-63422175D01*
X36584230Y-63350907D01*
X36766884Y-63314575D01*
X36953116Y-63314575D01*
X37135770Y-63350907D01*
G37*
G36*
X14275770Y-60810907D02*
G01*
X14447827Y-60882175D01*
X14602674Y-60985640D01*
X14734360Y-61117326D01*
X14837825Y-61272173D01*
X14909093Y-61444230D01*
X14945425Y-61626884D01*
X14945425Y-61813116D01*
X14909093Y-61995770D01*
X14837825Y-62167827D01*
X14734360Y-62322674D01*
X14602674Y-62454360D01*
X14447827Y-62557825D01*
X14275770Y-62629093D01*
X14093116Y-62665425D01*
X13906884Y-62665425D01*
X13724230Y-62629093D01*
X13552173Y-62557825D01*
X13397326Y-62454360D01*
X13265640Y-62322674D01*
X13162175Y-62167827D01*
X13090907Y-61995770D01*
X13054575Y-61813116D01*
X13054575Y-61626884D01*
X13090907Y-61444230D01*
X13162175Y-61272173D01*
X13265640Y-61117326D01*
X13397326Y-60985640D01*
X13552173Y-60882175D01*
X13724230Y-60810907D01*
X13906884Y-60774575D01*
X14093116Y-60774575D01*
X14275770Y-60810907D01*
G37*
G36*
X37135770Y-60810907D02*
G01*
X37307827Y-60882175D01*
X37462674Y-60985640D01*
X37594360Y-61117326D01*
X37697825Y-61272173D01*
X37769093Y-61444230D01*
X37805425Y-61626884D01*
X37805425Y-61813116D01*
X37769093Y-61995770D01*
X37697825Y-62167827D01*
X37594360Y-62322674D01*
X37462674Y-62454360D01*
X37307827Y-62557825D01*
X37135770Y-62629093D01*
X36953116Y-62665425D01*
X36766884Y-62665425D01*
X36584230Y-62629093D01*
X36412173Y-62557825D01*
X36257326Y-62454360D01*
X36125640Y-62322674D01*
X36022175Y-62167827D01*
X35950907Y-61995770D01*
X35914575Y-61813116D01*
X35914575Y-61626884D01*
X35950907Y-61444230D01*
X36022175Y-61272173D01*
X36125640Y-61117326D01*
X36257326Y-60985640D01*
X36412173Y-60882175D01*
X36584230Y-60810907D01*
X36766884Y-60774575D01*
X36953116Y-60774575D01*
X37135770Y-60810907D01*
G37*
G36*
X69092885Y-59955056D02*
G01*
X69102918Y-59955056D01*
X69142117Y-59962853D01*
X69245078Y-59979160D01*
X69278200Y-59989922D01*
X69304799Y-59995213D01*
X69342335Y-60010760D01*
X69401762Y-60030070D01*
X69457433Y-60058435D01*
X69494967Y-60073983D01*
X69517517Y-60089050D01*
X69548539Y-60104857D01*
X69632866Y-60166124D01*
X69666113Y-60188339D01*
X69673208Y-60195434D01*
X69681817Y-60201689D01*
X69798310Y-60318182D01*
X69804564Y-60326790D01*
X69811661Y-60333887D01*
X69833878Y-60367138D01*
X69895142Y-60451460D01*
X69910947Y-60482479D01*
X69926017Y-60505033D01*
X69941566Y-60542572D01*
X69969929Y-60598237D01*
X69989235Y-60657657D01*
X70004787Y-60695201D01*
X70010078Y-60721805D01*
X70020839Y-60754921D01*
X70037145Y-60857876D01*
X70044944Y-60897082D01*
X70044944Y-60907114D01*
X70046609Y-60917627D01*
X70046609Y-61082372D01*
X70044944Y-61092884D01*
X70044944Y-61102918D01*
X70037144Y-61142126D01*
X70020839Y-61245078D01*
X70010079Y-61278192D01*
X70004787Y-61304799D01*
X69989234Y-61342346D01*
X69969929Y-61401762D01*
X69941568Y-61457422D01*
X69926017Y-61494967D01*
X69910945Y-61517523D01*
X69895142Y-61548539D01*
X69833887Y-61632849D01*
X69811661Y-61666113D01*
X69804561Y-61673212D01*
X69798310Y-61681817D01*
X69681817Y-61798310D01*
X69673212Y-61804561D01*
X69666113Y-61811661D01*
X69632849Y-61833887D01*
X69548539Y-61895142D01*
X69517523Y-61910945D01*
X69494967Y-61926017D01*
X69457422Y-61941568D01*
X69401762Y-61969929D01*
X69342346Y-61989234D01*
X69304799Y-62004787D01*
X69278192Y-62010079D01*
X69245078Y-62020839D01*
X69142126Y-62037144D01*
X69102918Y-62044944D01*
X69092884Y-62044944D01*
X69082372Y-62046609D01*
X68917628Y-62046609D01*
X68907115Y-62044944D01*
X68897082Y-62044944D01*
X68857874Y-62037145D01*
X68754921Y-62020839D01*
X68721805Y-62010078D01*
X68695201Y-62004787D01*
X68657657Y-61989235D01*
X68598237Y-61969929D01*
X68542572Y-61941566D01*
X68505033Y-61926017D01*
X68482479Y-61910947D01*
X68451460Y-61895142D01*
X68367138Y-61833878D01*
X68333887Y-61811661D01*
X68326790Y-61804564D01*
X68318182Y-61798310D01*
X68201689Y-61681817D01*
X68195434Y-61673208D01*
X68188339Y-61666113D01*
X68166124Y-61632866D01*
X68104857Y-61548539D01*
X68089050Y-61517517D01*
X68073983Y-61494967D01*
X68058435Y-61457433D01*
X68030070Y-61401762D01*
X68010760Y-61342335D01*
X67995213Y-61304799D01*
X67989922Y-61278200D01*
X67979160Y-61245078D01*
X67962853Y-61142117D01*
X67955056Y-61102918D01*
X67955056Y-61092884D01*
X67953391Y-61082372D01*
X67953391Y-60917627D01*
X67955056Y-60907114D01*
X67955056Y-60897082D01*
X67962852Y-60857886D01*
X67979160Y-60754921D01*
X67989922Y-60721797D01*
X67995213Y-60695201D01*
X68010759Y-60657668D01*
X68030070Y-60598237D01*
X68058438Y-60542561D01*
X68073983Y-60505033D01*
X68089048Y-60482486D01*
X68104857Y-60451460D01*
X68166132Y-60367121D01*
X68188339Y-60333887D01*
X68195432Y-60326793D01*
X68201689Y-60318182D01*
X68318182Y-60201689D01*
X68326793Y-60195432D01*
X68333887Y-60188339D01*
X68367121Y-60166132D01*
X68451460Y-60104857D01*
X68482486Y-60089048D01*
X68505033Y-60073983D01*
X68542561Y-60058438D01*
X68598237Y-60030070D01*
X68657668Y-60010759D01*
X68695201Y-59995213D01*
X68721797Y-59989922D01*
X68754921Y-59979160D01*
X68857883Y-59962853D01*
X68897082Y-59955056D01*
X68907115Y-59955056D01*
X68917628Y-59953391D01*
X69082372Y-59953391D01*
X69092885Y-59955056D01*
G37*
G36*
X76092885Y-59955056D02*
G01*
X76102918Y-59955056D01*
X76142117Y-59962853D01*
X76245078Y-59979160D01*
X76278200Y-59989922D01*
X76304799Y-59995213D01*
X76342335Y-60010760D01*
X76401762Y-60030070D01*
X76457433Y-60058435D01*
X76494967Y-60073983D01*
X76517517Y-60089050D01*
X76548539Y-60104857D01*
X76632866Y-60166124D01*
X76666113Y-60188339D01*
X76673208Y-60195434D01*
X76681817Y-60201689D01*
X76798310Y-60318182D01*
X76804564Y-60326790D01*
X76811661Y-60333887D01*
X76833878Y-60367138D01*
X76895142Y-60451460D01*
X76910947Y-60482479D01*
X76926017Y-60505033D01*
X76941566Y-60542572D01*
X76969929Y-60598237D01*
X76989235Y-60657657D01*
X77004787Y-60695201D01*
X77010078Y-60721805D01*
X77020839Y-60754921D01*
X77037145Y-60857876D01*
X77044944Y-60897082D01*
X77044944Y-60907114D01*
X77046609Y-60917627D01*
X77046609Y-61082372D01*
X77044944Y-61092884D01*
X77044944Y-61102918D01*
X77037144Y-61142126D01*
X77020839Y-61245078D01*
X77010079Y-61278192D01*
X77004787Y-61304799D01*
X76989234Y-61342346D01*
X76969929Y-61401762D01*
X76941568Y-61457422D01*
X76926017Y-61494967D01*
X76910945Y-61517523D01*
X76895142Y-61548539D01*
X76833887Y-61632849D01*
X76811661Y-61666113D01*
X76804561Y-61673212D01*
X76798310Y-61681817D01*
X76681817Y-61798310D01*
X76673212Y-61804561D01*
X76666113Y-61811661D01*
X76632849Y-61833887D01*
X76548539Y-61895142D01*
X76517523Y-61910945D01*
X76494967Y-61926017D01*
X76457422Y-61941568D01*
X76401762Y-61969929D01*
X76342346Y-61989234D01*
X76304799Y-62004787D01*
X76278192Y-62010079D01*
X76245078Y-62020839D01*
X76142126Y-62037144D01*
X76102918Y-62044944D01*
X76092884Y-62044944D01*
X76082372Y-62046609D01*
X75917628Y-62046609D01*
X75907115Y-62044944D01*
X75897082Y-62044944D01*
X75857874Y-62037145D01*
X75754921Y-62020839D01*
X75721805Y-62010078D01*
X75695201Y-62004787D01*
X75657657Y-61989235D01*
X75598237Y-61969929D01*
X75542572Y-61941566D01*
X75505033Y-61926017D01*
X75482479Y-61910947D01*
X75451460Y-61895142D01*
X75367138Y-61833878D01*
X75333887Y-61811661D01*
X75326790Y-61804564D01*
X75318182Y-61798310D01*
X75201689Y-61681817D01*
X75195434Y-61673208D01*
X75188339Y-61666113D01*
X75166124Y-61632866D01*
X75104857Y-61548539D01*
X75089050Y-61517517D01*
X75073983Y-61494967D01*
X75058435Y-61457433D01*
X75030070Y-61401762D01*
X75010760Y-61342335D01*
X74995213Y-61304799D01*
X74989922Y-61278200D01*
X74979160Y-61245078D01*
X74962853Y-61142117D01*
X74955056Y-61102918D01*
X74955056Y-61092884D01*
X74953391Y-61082372D01*
X74953391Y-60917627D01*
X74955056Y-60907114D01*
X74955056Y-60897082D01*
X74962852Y-60857886D01*
X74979160Y-60754921D01*
X74989922Y-60721797D01*
X74995213Y-60695201D01*
X75010759Y-60657668D01*
X75030070Y-60598237D01*
X75058438Y-60542561D01*
X75073983Y-60505033D01*
X75089048Y-60482486D01*
X75104857Y-60451460D01*
X75166132Y-60367121D01*
X75188339Y-60333887D01*
X75195432Y-60326793D01*
X75201689Y-60318182D01*
X75318182Y-60201689D01*
X75326793Y-60195432D01*
X75333887Y-60188339D01*
X75367121Y-60166132D01*
X75451460Y-60104857D01*
X75482486Y-60089048D01*
X75505033Y-60073983D01*
X75542561Y-60058438D01*
X75598237Y-60030070D01*
X75657668Y-60010759D01*
X75695201Y-59995213D01*
X75721797Y-59989922D01*
X75754921Y-59979160D01*
X75857883Y-59962853D01*
X75897082Y-59955056D01*
X75907115Y-59955056D01*
X75917628Y-59953391D01*
X76082372Y-59953391D01*
X76092885Y-59955056D01*
G37*
G36*
X14275770Y-58270907D02*
G01*
X14447827Y-58342175D01*
X14602674Y-58445640D01*
X14734360Y-58577326D01*
X14837825Y-58732173D01*
X14909093Y-58904230D01*
X14945425Y-59086884D01*
X14945425Y-59273116D01*
X14909093Y-59455770D01*
X14837825Y-59627827D01*
X14734360Y-59782674D01*
X14602674Y-59914360D01*
X14447827Y-60017825D01*
X14275770Y-60089093D01*
X14093116Y-60125425D01*
X13906884Y-60125425D01*
X13724230Y-60089093D01*
X13552173Y-60017825D01*
X13397326Y-59914360D01*
X13265640Y-59782674D01*
X13162175Y-59627827D01*
X13090907Y-59455770D01*
X13054575Y-59273116D01*
X13054575Y-59086884D01*
X13090907Y-58904230D01*
X13162175Y-58732173D01*
X13265640Y-58577326D01*
X13397326Y-58445640D01*
X13552173Y-58342175D01*
X13724230Y-58270907D01*
X13906884Y-58234575D01*
X14093116Y-58234575D01*
X14275770Y-58270907D01*
G37*
G36*
X37135770Y-58270907D02*
G01*
X37307827Y-58342175D01*
X37462674Y-58445640D01*
X37594360Y-58577326D01*
X37697825Y-58732173D01*
X37769093Y-58904230D01*
X37805425Y-59086884D01*
X37805425Y-59273116D01*
X37769093Y-59455770D01*
X37697825Y-59627827D01*
X37594360Y-59782674D01*
X37462674Y-59914360D01*
X37307827Y-60017825D01*
X37135770Y-60089093D01*
X36953116Y-60125425D01*
X36766884Y-60125425D01*
X36584230Y-60089093D01*
X36412173Y-60017825D01*
X36257326Y-59914360D01*
X36125640Y-59782674D01*
X36022175Y-59627827D01*
X35950907Y-59455770D01*
X35914575Y-59273116D01*
X35914575Y-59086884D01*
X35950907Y-58904230D01*
X36022175Y-58732173D01*
X36125640Y-58577326D01*
X36257326Y-58445640D01*
X36412173Y-58342175D01*
X36584230Y-58270907D01*
X36766884Y-58234575D01*
X36953116Y-58234575D01*
X37135770Y-58270907D01*
G37*
G36*
X14275770Y-55730907D02*
G01*
X14447827Y-55802175D01*
X14602674Y-55905640D01*
X14734360Y-56037326D01*
X14837825Y-56192173D01*
X14909093Y-56364230D01*
X14945425Y-56546884D01*
X14945425Y-56733116D01*
X14909093Y-56915770D01*
X14837825Y-57087827D01*
X14734360Y-57242674D01*
X14602674Y-57374360D01*
X14447827Y-57477825D01*
X14275770Y-57549093D01*
X14093116Y-57585425D01*
X13906884Y-57585425D01*
X13724230Y-57549093D01*
X13552173Y-57477825D01*
X13397326Y-57374360D01*
X13265640Y-57242674D01*
X13162175Y-57087827D01*
X13090907Y-56915770D01*
X13054575Y-56733116D01*
X13054575Y-56546884D01*
X13090907Y-56364230D01*
X13162175Y-56192173D01*
X13265640Y-56037326D01*
X13397326Y-55905640D01*
X13552173Y-55802175D01*
X13724230Y-55730907D01*
X13906884Y-55694575D01*
X14093116Y-55694575D01*
X14275770Y-55730907D01*
G37*
G36*
X37135770Y-55730907D02*
G01*
X37307827Y-55802175D01*
X37462674Y-55905640D01*
X37594360Y-56037326D01*
X37697825Y-56192173D01*
X37769093Y-56364230D01*
X37805425Y-56546884D01*
X37805425Y-56733116D01*
X37769093Y-56915770D01*
X37697825Y-57087827D01*
X37594360Y-57242674D01*
X37462674Y-57374360D01*
X37307827Y-57477825D01*
X37135770Y-57549093D01*
X36953116Y-57585425D01*
X36766884Y-57585425D01*
X36584230Y-57549093D01*
X36412173Y-57477825D01*
X36257326Y-57374360D01*
X36125640Y-57242674D01*
X36022175Y-57087827D01*
X35950907Y-56915770D01*
X35914575Y-56733116D01*
X35914575Y-56546884D01*
X35950907Y-56364230D01*
X36022175Y-56192173D01*
X36125640Y-56037326D01*
X36257326Y-55905640D01*
X36412173Y-55802175D01*
X36584230Y-55730907D01*
X36766884Y-55694575D01*
X36953116Y-55694575D01*
X37135770Y-55730907D01*
G37*
G36*
X92283028Y-55566983D02*
G01*
X92459612Y-55640127D01*
X92618533Y-55746315D01*
X92753685Y-55881467D01*
X92859873Y-56040388D01*
X92933017Y-56216972D01*
X92970305Y-56404433D01*
X92970305Y-56595567D01*
X92933017Y-56783028D01*
X92859873Y-56959612D01*
X92753685Y-57118533D01*
X92618533Y-57253685D01*
X92459612Y-57359873D01*
X92283028Y-57433017D01*
X92095567Y-57470305D01*
X91904433Y-57470305D01*
X91716972Y-57433017D01*
X91540388Y-57359873D01*
X91381467Y-57253685D01*
X91246315Y-57118533D01*
X91140127Y-56959612D01*
X91066983Y-56783028D01*
X91029695Y-56595567D01*
X91029695Y-56404433D01*
X91066983Y-56216972D01*
X91140127Y-56040388D01*
X91246315Y-55881467D01*
X91381467Y-55746315D01*
X91540388Y-55640127D01*
X91716972Y-55566983D01*
X91904433Y-55529695D01*
X92095567Y-55529695D01*
X92283028Y-55566983D01*
G37*
G36*
X14275770Y-53190907D02*
G01*
X14447827Y-53262175D01*
X14602674Y-53365640D01*
X14734360Y-53497326D01*
X14837825Y-53652173D01*
X14909093Y-53824230D01*
X14945425Y-54006884D01*
X14945425Y-54193116D01*
X14909093Y-54375770D01*
X14837825Y-54547827D01*
X14734360Y-54702674D01*
X14602674Y-54834360D01*
X14447827Y-54937825D01*
X14275770Y-55009093D01*
X14093116Y-55045425D01*
X13906884Y-55045425D01*
X13724230Y-55009093D01*
X13552173Y-54937825D01*
X13397326Y-54834360D01*
X13265640Y-54702674D01*
X13162175Y-54547827D01*
X13090907Y-54375770D01*
X13054575Y-54193116D01*
X13054575Y-54006884D01*
X13090907Y-53824230D01*
X13162175Y-53652173D01*
X13265640Y-53497326D01*
X13397326Y-53365640D01*
X13552173Y-53262175D01*
X13724230Y-53190907D01*
X13906884Y-53154575D01*
X14093116Y-53154575D01*
X14275770Y-53190907D01*
G37*
G36*
X37135770Y-53190907D02*
G01*
X37307827Y-53262175D01*
X37462674Y-53365640D01*
X37594360Y-53497326D01*
X37697825Y-53652173D01*
X37769093Y-53824230D01*
X37805425Y-54006884D01*
X37805425Y-54193116D01*
X37769093Y-54375770D01*
X37697825Y-54547827D01*
X37594360Y-54702674D01*
X37462674Y-54834360D01*
X37307827Y-54937825D01*
X37135770Y-55009093D01*
X36953116Y-55045425D01*
X36766884Y-55045425D01*
X36584230Y-55009093D01*
X36412173Y-54937825D01*
X36257326Y-54834360D01*
X36125640Y-54702674D01*
X36022175Y-54547827D01*
X35950907Y-54375770D01*
X35914575Y-54193116D01*
X35914575Y-54006884D01*
X35950907Y-53824230D01*
X36022175Y-53652173D01*
X36125640Y-53497326D01*
X36257326Y-53365640D01*
X36412173Y-53262175D01*
X36584230Y-53190907D01*
X36766884Y-53154575D01*
X36953116Y-53154575D01*
X37135770Y-53190907D01*
G37*
G36*
X92283028Y-53066983D02*
G01*
X92459612Y-53140127D01*
X92618533Y-53246315D01*
X92753685Y-53381467D01*
X92859873Y-53540388D01*
X92933017Y-53716972D01*
X92970305Y-53904433D01*
X92970305Y-54095567D01*
X92933017Y-54283028D01*
X92859873Y-54459612D01*
X92753685Y-54618533D01*
X92618533Y-54753685D01*
X92459612Y-54859873D01*
X92283028Y-54933017D01*
X92095567Y-54970305D01*
X91904433Y-54970305D01*
X91716972Y-54933017D01*
X91540388Y-54859873D01*
X91381467Y-54753685D01*
X91246315Y-54618533D01*
X91140127Y-54459612D01*
X91066983Y-54283028D01*
X91029695Y-54095567D01*
X91029695Y-53904433D01*
X91066983Y-53716972D01*
X91140127Y-53540388D01*
X91246315Y-53381467D01*
X91381467Y-53246315D01*
X91540388Y-53140127D01*
X91716972Y-53066983D01*
X91904433Y-53029695D01*
X92095567Y-53029695D01*
X92283028Y-53066983D01*
G37*
G36*
X14275770Y-50650907D02*
G01*
X14447827Y-50722175D01*
X14602674Y-50825640D01*
X14734360Y-50957326D01*
X14837825Y-51112173D01*
X14909093Y-51284230D01*
X14945425Y-51466884D01*
X14945425Y-51653116D01*
X14909093Y-51835770D01*
X14837825Y-52007827D01*
X14734360Y-52162674D01*
X14602674Y-52294360D01*
X14447827Y-52397825D01*
X14275770Y-52469093D01*
X14093116Y-52505425D01*
X13906884Y-52505425D01*
X13724230Y-52469093D01*
X13552173Y-52397825D01*
X13397326Y-52294360D01*
X13265640Y-52162674D01*
X13162175Y-52007827D01*
X13090907Y-51835770D01*
X13054575Y-51653116D01*
X13054575Y-51466884D01*
X13090907Y-51284230D01*
X13162175Y-51112173D01*
X13265640Y-50957326D01*
X13397326Y-50825640D01*
X13552173Y-50722175D01*
X13724230Y-50650907D01*
X13906884Y-50614575D01*
X14093116Y-50614575D01*
X14275770Y-50650907D01*
G37*
G36*
X37135770Y-50650907D02*
G01*
X37307827Y-50722175D01*
X37462674Y-50825640D01*
X37594360Y-50957326D01*
X37697825Y-51112173D01*
X37769093Y-51284230D01*
X37805425Y-51466884D01*
X37805425Y-51653116D01*
X37769093Y-51835770D01*
X37697825Y-52007827D01*
X37594360Y-52162674D01*
X37462674Y-52294360D01*
X37307827Y-52397825D01*
X37135770Y-52469093D01*
X36953116Y-52505425D01*
X36766884Y-52505425D01*
X36584230Y-52469093D01*
X36412173Y-52397825D01*
X36257326Y-52294360D01*
X36125640Y-52162674D01*
X36022175Y-52007827D01*
X35950907Y-51835770D01*
X35914575Y-51653116D01*
X35914575Y-51466884D01*
X35950907Y-51284230D01*
X36022175Y-51112173D01*
X36125640Y-50957326D01*
X36257326Y-50825640D01*
X36412173Y-50722175D01*
X36584230Y-50650907D01*
X36766884Y-50614575D01*
X36953116Y-50614575D01*
X37135770Y-50650907D01*
G37*
G36*
X92283028Y-50566983D02*
G01*
X92459612Y-50640127D01*
X92618533Y-50746315D01*
X92753685Y-50881467D01*
X92859873Y-51040388D01*
X92933017Y-51216972D01*
X92970305Y-51404433D01*
X92970305Y-51595567D01*
X92933017Y-51783028D01*
X92859873Y-51959612D01*
X92753685Y-52118533D01*
X92618533Y-52253685D01*
X92459612Y-52359873D01*
X92283028Y-52433017D01*
X92095567Y-52470305D01*
X91904433Y-52470305D01*
X91716972Y-52433017D01*
X91540388Y-52359873D01*
X91381467Y-52253685D01*
X91246315Y-52118533D01*
X91140127Y-51959612D01*
X91066983Y-51783028D01*
X91029695Y-51595567D01*
X91029695Y-51404433D01*
X91066983Y-51216972D01*
X91140127Y-51040388D01*
X91246315Y-50881467D01*
X91381467Y-50746315D01*
X91540388Y-50640127D01*
X91716972Y-50566983D01*
X91904433Y-50529695D01*
X92095567Y-50529695D01*
X92283028Y-50566983D01*
G37*
G36*
X71092885Y-47955056D02*
G01*
X71102918Y-47955056D01*
X71142117Y-47962853D01*
X71245078Y-47979160D01*
X71278200Y-47989922D01*
X71304799Y-47995213D01*
X71342335Y-48010760D01*
X71401762Y-48030070D01*
X71457433Y-48058435D01*
X71494967Y-48073983D01*
X71517517Y-48089050D01*
X71548539Y-48104857D01*
X71632866Y-48166124D01*
X71666113Y-48188339D01*
X71673208Y-48195434D01*
X71681817Y-48201689D01*
X71798310Y-48318182D01*
X71804564Y-48326790D01*
X71811661Y-48333887D01*
X71833878Y-48367138D01*
X71895142Y-48451460D01*
X71910947Y-48482479D01*
X71926017Y-48505033D01*
X71941566Y-48542572D01*
X71969929Y-48598237D01*
X71989235Y-48657657D01*
X72004787Y-48695201D01*
X72010078Y-48721805D01*
X72020839Y-48754921D01*
X72037145Y-48857876D01*
X72044944Y-48897082D01*
X72044944Y-48907114D01*
X72046609Y-48917627D01*
X72046609Y-49082372D01*
X72044944Y-49092884D01*
X72044944Y-49102918D01*
X72037144Y-49142126D01*
X72020839Y-49245078D01*
X72010079Y-49278192D01*
X72004787Y-49304799D01*
X71989234Y-49342346D01*
X71969929Y-49401762D01*
X71941568Y-49457422D01*
X71926017Y-49494967D01*
X71910945Y-49517523D01*
X71895142Y-49548539D01*
X71833887Y-49632849D01*
X71811661Y-49666113D01*
X71804561Y-49673212D01*
X71798310Y-49681817D01*
X71681817Y-49798310D01*
X71673212Y-49804561D01*
X71666113Y-49811661D01*
X71632849Y-49833887D01*
X71548539Y-49895142D01*
X71517523Y-49910945D01*
X71494967Y-49926017D01*
X71457422Y-49941568D01*
X71401762Y-49969929D01*
X71342346Y-49989234D01*
X71304799Y-50004787D01*
X71278192Y-50010079D01*
X71245078Y-50020839D01*
X71142126Y-50037144D01*
X71102918Y-50044944D01*
X71092884Y-50044944D01*
X71082372Y-50046609D01*
X70917628Y-50046609D01*
X70907115Y-50044944D01*
X70897082Y-50044944D01*
X70857874Y-50037145D01*
X70754921Y-50020839D01*
X70721805Y-50010078D01*
X70695201Y-50004787D01*
X70657657Y-49989235D01*
X70598237Y-49969929D01*
X70542572Y-49941566D01*
X70505033Y-49926017D01*
X70482479Y-49910947D01*
X70451460Y-49895142D01*
X70367138Y-49833878D01*
X70333887Y-49811661D01*
X70326790Y-49804564D01*
X70318182Y-49798310D01*
X70201689Y-49681817D01*
X70195434Y-49673208D01*
X70188339Y-49666113D01*
X70166124Y-49632866D01*
X70104857Y-49548539D01*
X70089050Y-49517517D01*
X70073983Y-49494967D01*
X70058435Y-49457433D01*
X70030070Y-49401762D01*
X70010760Y-49342335D01*
X69995213Y-49304799D01*
X69989922Y-49278200D01*
X69979160Y-49245078D01*
X69962853Y-49142117D01*
X69955056Y-49102918D01*
X69955056Y-49092884D01*
X69953391Y-49082372D01*
X69953391Y-48917627D01*
X69955056Y-48907114D01*
X69955056Y-48897082D01*
X69962852Y-48857886D01*
X69979160Y-48754921D01*
X69989922Y-48721797D01*
X69995213Y-48695201D01*
X70010759Y-48657668D01*
X70030070Y-48598237D01*
X70058438Y-48542561D01*
X70073983Y-48505033D01*
X70089048Y-48482486D01*
X70104857Y-48451460D01*
X70166132Y-48367121D01*
X70188339Y-48333887D01*
X70195432Y-48326793D01*
X70201689Y-48318182D01*
X70318182Y-48201689D01*
X70326793Y-48195432D01*
X70333887Y-48188339D01*
X70367121Y-48166132D01*
X70451460Y-48104857D01*
X70482486Y-48089048D01*
X70505033Y-48073983D01*
X70542561Y-48058438D01*
X70598237Y-48030070D01*
X70657668Y-48010759D01*
X70695201Y-47995213D01*
X70721797Y-47989922D01*
X70754921Y-47979160D01*
X70857883Y-47962853D01*
X70897082Y-47955056D01*
X70907115Y-47955056D01*
X70917628Y-47953391D01*
X71082372Y-47953391D01*
X71092885Y-47955056D01*
G37*
G36*
X92283028Y-48066983D02*
G01*
X92459612Y-48140127D01*
X92618533Y-48246315D01*
X92753685Y-48381467D01*
X92859873Y-48540388D01*
X92933017Y-48716972D01*
X92970305Y-48904433D01*
X92970305Y-49095567D01*
X92933017Y-49283028D01*
X92859873Y-49459612D01*
X92753685Y-49618533D01*
X92618533Y-49753685D01*
X92459612Y-49859873D01*
X92283028Y-49933017D01*
X92095567Y-49970305D01*
X91904433Y-49970305D01*
X91716972Y-49933017D01*
X91540388Y-49859873D01*
X91381467Y-49753685D01*
X91246315Y-49618533D01*
X91140127Y-49459612D01*
X91066983Y-49283028D01*
X91029695Y-49095567D01*
X91029695Y-48904433D01*
X91066983Y-48716972D01*
X91140127Y-48540388D01*
X91246315Y-48381467D01*
X91381467Y-48246315D01*
X91540388Y-48140127D01*
X91716972Y-48066983D01*
X91904433Y-48029695D01*
X92095567Y-48029695D01*
X92283028Y-48066983D01*
G37*
G36*
X14275770Y-48110907D02*
G01*
X14447827Y-48182175D01*
X14602674Y-48285640D01*
X14734360Y-48417326D01*
X14837825Y-48572173D01*
X14909093Y-48744230D01*
X14945425Y-48926884D01*
X14945425Y-49113116D01*
X14909093Y-49295770D01*
X14837825Y-49467827D01*
X14734360Y-49622674D01*
X14602674Y-49754360D01*
X14447827Y-49857825D01*
X14275770Y-49929093D01*
X14093116Y-49965425D01*
X13906884Y-49965425D01*
X13724230Y-49929093D01*
X13552173Y-49857825D01*
X13397326Y-49754360D01*
X13265640Y-49622674D01*
X13162175Y-49467827D01*
X13090907Y-49295770D01*
X13054575Y-49113116D01*
X13054575Y-48926884D01*
X13090907Y-48744230D01*
X13162175Y-48572173D01*
X13265640Y-48417326D01*
X13397326Y-48285640D01*
X13552173Y-48182175D01*
X13724230Y-48110907D01*
X13906884Y-48074575D01*
X14093116Y-48074575D01*
X14275770Y-48110907D01*
G37*
G36*
X37135770Y-48110907D02*
G01*
X37307827Y-48182175D01*
X37462674Y-48285640D01*
X37594360Y-48417326D01*
X37697825Y-48572173D01*
X37769093Y-48744230D01*
X37805425Y-48926884D01*
X37805425Y-49113116D01*
X37769093Y-49295770D01*
X37697825Y-49467827D01*
X37594360Y-49622674D01*
X37462674Y-49754360D01*
X37307827Y-49857825D01*
X37135770Y-49929093D01*
X36953116Y-49965425D01*
X36766884Y-49965425D01*
X36584230Y-49929093D01*
X36412173Y-49857825D01*
X36257326Y-49754360D01*
X36125640Y-49622674D01*
X36022175Y-49467827D01*
X35950907Y-49295770D01*
X35914575Y-49113116D01*
X35914575Y-48926884D01*
X35950907Y-48744230D01*
X36022175Y-48572173D01*
X36125640Y-48417326D01*
X36257326Y-48285640D01*
X36412173Y-48182175D01*
X36584230Y-48110907D01*
X36766884Y-48074575D01*
X36953116Y-48074575D01*
X37135770Y-48110907D01*
G37*
G36*
X92283028Y-45566983D02*
G01*
X92459612Y-45640127D01*
X92618533Y-45746315D01*
X92753685Y-45881467D01*
X92859873Y-46040388D01*
X92933017Y-46216972D01*
X92970305Y-46404433D01*
X92970305Y-46595567D01*
X92933017Y-46783028D01*
X92859873Y-46959612D01*
X92753685Y-47118533D01*
X92618533Y-47253685D01*
X92459612Y-47359873D01*
X92283028Y-47433017D01*
X92095567Y-47470305D01*
X91904433Y-47470305D01*
X91716972Y-47433017D01*
X91540388Y-47359873D01*
X91381467Y-47253685D01*
X91246315Y-47118533D01*
X91140127Y-46959612D01*
X91066983Y-46783028D01*
X91029695Y-46595567D01*
X91029695Y-46404433D01*
X91066983Y-46216972D01*
X91140127Y-46040388D01*
X91246315Y-45881467D01*
X91381467Y-45746315D01*
X91540388Y-45640127D01*
X91716972Y-45566983D01*
X91904433Y-45529695D01*
X92095567Y-45529695D01*
X92283028Y-45566983D01*
G37*
G36*
X14275770Y-45570907D02*
G01*
X14447827Y-45642175D01*
X14602674Y-45745640D01*
X14734360Y-45877326D01*
X14837825Y-46032173D01*
X14909093Y-46204230D01*
X14945425Y-46386884D01*
X14945425Y-46573116D01*
X14909093Y-46755770D01*
X14837825Y-46927827D01*
X14734360Y-47082674D01*
X14602674Y-47214360D01*
X14447827Y-47317825D01*
X14275770Y-47389093D01*
X14093116Y-47425425D01*
X13906884Y-47425425D01*
X13724230Y-47389093D01*
X13552173Y-47317825D01*
X13397326Y-47214360D01*
X13265640Y-47082674D01*
X13162175Y-46927827D01*
X13090907Y-46755770D01*
X13054575Y-46573116D01*
X13054575Y-46386884D01*
X13090907Y-46204230D01*
X13162175Y-46032173D01*
X13265640Y-45877326D01*
X13397326Y-45745640D01*
X13552173Y-45642175D01*
X13724230Y-45570907D01*
X13906884Y-45534575D01*
X14093116Y-45534575D01*
X14275770Y-45570907D01*
G37*
G36*
X37135770Y-45570907D02*
G01*
X37307827Y-45642175D01*
X37462674Y-45745640D01*
X37594360Y-45877326D01*
X37697825Y-46032173D01*
X37769093Y-46204230D01*
X37805425Y-46386884D01*
X37805425Y-46573116D01*
X37769093Y-46755770D01*
X37697825Y-46927827D01*
X37594360Y-47082674D01*
X37462674Y-47214360D01*
X37307827Y-47317825D01*
X37135770Y-47389093D01*
X36953116Y-47425425D01*
X36766884Y-47425425D01*
X36584230Y-47389093D01*
X36412173Y-47317825D01*
X36257326Y-47214360D01*
X36125640Y-47082674D01*
X36022175Y-46927827D01*
X35950907Y-46755770D01*
X35914575Y-46573116D01*
X35914575Y-46386884D01*
X35950907Y-46204230D01*
X36022175Y-46032173D01*
X36125640Y-45877326D01*
X36257326Y-45745640D01*
X36412173Y-45642175D01*
X36584230Y-45570907D01*
X36766884Y-45534575D01*
X36953116Y-45534575D01*
X37135770Y-45570907D01*
G37*
G36*
X77283028Y-44066983D02*
G01*
X77459612Y-44140127D01*
X77618533Y-44246315D01*
X77753685Y-44381467D01*
X77859873Y-44540388D01*
X77933017Y-44716972D01*
X77970305Y-44904433D01*
X77970305Y-45095567D01*
X77933017Y-45283028D01*
X77859873Y-45459612D01*
X77753685Y-45618533D01*
X77618533Y-45753685D01*
X77459612Y-45859873D01*
X77283028Y-45933017D01*
X77095567Y-45970305D01*
X76904433Y-45970305D01*
X76716972Y-45933017D01*
X76540388Y-45859873D01*
X76381467Y-45753685D01*
X76246315Y-45618533D01*
X76140127Y-45459612D01*
X76066983Y-45283028D01*
X76029695Y-45095567D01*
X76029695Y-44904433D01*
X76066983Y-44716972D01*
X76140127Y-44540388D01*
X76246315Y-44381467D01*
X76381467Y-44246315D01*
X76540388Y-44140127D01*
X76716972Y-44066983D01*
X76904433Y-44029695D01*
X77095567Y-44029695D01*
X77283028Y-44066983D01*
G37*
G36*
X92944134Y-43028806D02*
G01*
X92960355Y-43039645D01*
X92971194Y-43055866D01*
X92975000Y-43075000D01*
X92975000Y-44925000D01*
X92971194Y-44944134D01*
X92960355Y-44960355D01*
X92944134Y-44971194D01*
X92925000Y-44975000D01*
X91075000Y-44975000D01*
X91055866Y-44971194D01*
X91039645Y-44960355D01*
X91028806Y-44944134D01*
X91025000Y-44925000D01*
X91025000Y-43075000D01*
X91028806Y-43055866D01*
X91039645Y-43039645D01*
X91055866Y-43028806D01*
X91075000Y-43025000D01*
X92925000Y-43025000D01*
X92944134Y-43028806D01*
G37*
G36*
X14275770Y-43030907D02*
G01*
X14447827Y-43102175D01*
X14602674Y-43205640D01*
X14734360Y-43337326D01*
X14837825Y-43492173D01*
X14909093Y-43664230D01*
X14945425Y-43846884D01*
X14945425Y-44033116D01*
X14909093Y-44215770D01*
X14837825Y-44387827D01*
X14734360Y-44542674D01*
X14602674Y-44674360D01*
X14447827Y-44777825D01*
X14275770Y-44849093D01*
X14093116Y-44885425D01*
X13906884Y-44885425D01*
X13724230Y-44849093D01*
X13552173Y-44777825D01*
X13397326Y-44674360D01*
X13265640Y-44542674D01*
X13162175Y-44387827D01*
X13090907Y-44215770D01*
X13054575Y-44033116D01*
X13054575Y-43846884D01*
X13090907Y-43664230D01*
X13162175Y-43492173D01*
X13265640Y-43337326D01*
X13397326Y-43205640D01*
X13552173Y-43102175D01*
X13724230Y-43030907D01*
X13906884Y-42994575D01*
X14093116Y-42994575D01*
X14275770Y-43030907D01*
G37*
G36*
X37135770Y-43030907D02*
G01*
X37307827Y-43102175D01*
X37462674Y-43205640D01*
X37594360Y-43337326D01*
X37697825Y-43492173D01*
X37769093Y-43664230D01*
X37805425Y-43846884D01*
X37805425Y-44033116D01*
X37769093Y-44215770D01*
X37697825Y-44387827D01*
X37594360Y-44542674D01*
X37462674Y-44674360D01*
X37307827Y-44777825D01*
X37135770Y-44849093D01*
X36953116Y-44885425D01*
X36766884Y-44885425D01*
X36584230Y-44849093D01*
X36412173Y-44777825D01*
X36257326Y-44674360D01*
X36125640Y-44542674D01*
X36022175Y-44387827D01*
X35950907Y-44215770D01*
X35914575Y-44033116D01*
X35914575Y-43846884D01*
X35950907Y-43664230D01*
X36022175Y-43492173D01*
X36125640Y-43337326D01*
X36257326Y-43205640D01*
X36412173Y-43102175D01*
X36584230Y-43030907D01*
X36766884Y-42994575D01*
X36953116Y-42994575D01*
X37135770Y-43030907D01*
G37*
G36*
X77283028Y-41566983D02*
G01*
X77459612Y-41640127D01*
X77618533Y-41746315D01*
X77753685Y-41881467D01*
X77859873Y-42040388D01*
X77933017Y-42216972D01*
X77970305Y-42404433D01*
X77970305Y-42595567D01*
X77933017Y-42783028D01*
X77859873Y-42959612D01*
X77753685Y-43118533D01*
X77618533Y-43253685D01*
X77459612Y-43359873D01*
X77283028Y-43433017D01*
X77095567Y-43470305D01*
X76904433Y-43470305D01*
X76716972Y-43433017D01*
X76540388Y-43359873D01*
X76381467Y-43253685D01*
X76246315Y-43118533D01*
X76140127Y-42959612D01*
X76066983Y-42783028D01*
X76029695Y-42595567D01*
X76029695Y-42404433D01*
X76066983Y-42216972D01*
X76140127Y-42040388D01*
X76246315Y-41881467D01*
X76381467Y-41746315D01*
X76540388Y-41640127D01*
X76716972Y-41566983D01*
X76904433Y-41529695D01*
X77095567Y-41529695D01*
X77283028Y-41566983D01*
G37*
G36*
X14275770Y-40490907D02*
G01*
X14447827Y-40562175D01*
X14602674Y-40665640D01*
X14734360Y-40797326D01*
X14837825Y-40952173D01*
X14909093Y-41124230D01*
X14945425Y-41306884D01*
X14945425Y-41493116D01*
X14909093Y-41675770D01*
X14837825Y-41847827D01*
X14734360Y-42002674D01*
X14602674Y-42134360D01*
X14447827Y-42237825D01*
X14275770Y-42309093D01*
X14093116Y-42345425D01*
X13906884Y-42345425D01*
X13724230Y-42309093D01*
X13552173Y-42237825D01*
X13397326Y-42134360D01*
X13265640Y-42002674D01*
X13162175Y-41847827D01*
X13090907Y-41675770D01*
X13054575Y-41493116D01*
X13054575Y-41306884D01*
X13090907Y-41124230D01*
X13162175Y-40952173D01*
X13265640Y-40797326D01*
X13397326Y-40665640D01*
X13552173Y-40562175D01*
X13724230Y-40490907D01*
X13906884Y-40454575D01*
X14093116Y-40454575D01*
X14275770Y-40490907D01*
G37*
G36*
X37135770Y-40490907D02*
G01*
X37307827Y-40562175D01*
X37462674Y-40665640D01*
X37594360Y-40797326D01*
X37697825Y-40952173D01*
X37769093Y-41124230D01*
X37805425Y-41306884D01*
X37805425Y-41493116D01*
X37769093Y-41675770D01*
X37697825Y-41847827D01*
X37594360Y-42002674D01*
X37462674Y-42134360D01*
X37307827Y-42237825D01*
X37135770Y-42309093D01*
X36953116Y-42345425D01*
X36766884Y-42345425D01*
X36584230Y-42309093D01*
X36412173Y-42237825D01*
X36257326Y-42134360D01*
X36125640Y-42002674D01*
X36022175Y-41847827D01*
X35950907Y-41675770D01*
X35914575Y-41493116D01*
X35914575Y-41306884D01*
X35950907Y-41124230D01*
X36022175Y-40952173D01*
X36125640Y-40797326D01*
X36257326Y-40665640D01*
X36412173Y-40562175D01*
X36584230Y-40490907D01*
X36766884Y-40454575D01*
X36953116Y-40454575D01*
X37135770Y-40490907D01*
G37*
G36*
X77944134Y-39028806D02*
G01*
X77960355Y-39039645D01*
X77971194Y-39055866D01*
X77975000Y-39075000D01*
X77975000Y-40925000D01*
X77971194Y-40944134D01*
X77960355Y-40960355D01*
X77944134Y-40971194D01*
X77925000Y-40975000D01*
X76075000Y-40975000D01*
X76055866Y-40971194D01*
X76039645Y-40960355D01*
X76028806Y-40944134D01*
X76025000Y-40925000D01*
X76025000Y-39075000D01*
X76028806Y-39055866D01*
X76039645Y-39039645D01*
X76055866Y-39028806D01*
X76075000Y-39025000D01*
X77925000Y-39025000D01*
X77944134Y-39028806D01*
G37*
G36*
X14275770Y-37950907D02*
G01*
X14447827Y-38022175D01*
X14602674Y-38125640D01*
X14734360Y-38257326D01*
X14837825Y-38412173D01*
X14909093Y-38584230D01*
X14945425Y-38766884D01*
X14945425Y-38953116D01*
X14909093Y-39135770D01*
X14837825Y-39307827D01*
X14734360Y-39462674D01*
X14602674Y-39594360D01*
X14447827Y-39697825D01*
X14275770Y-39769093D01*
X14093116Y-39805425D01*
X13906884Y-39805425D01*
X13724230Y-39769093D01*
X13552173Y-39697825D01*
X13397326Y-39594360D01*
X13265640Y-39462674D01*
X13162175Y-39307827D01*
X13090907Y-39135770D01*
X13054575Y-38953116D01*
X13054575Y-38766884D01*
X13090907Y-38584230D01*
X13162175Y-38412173D01*
X13265640Y-38257326D01*
X13397326Y-38125640D01*
X13552173Y-38022175D01*
X13724230Y-37950907D01*
X13906884Y-37914575D01*
X14093116Y-37914575D01*
X14275770Y-37950907D01*
G37*
G36*
X37135770Y-37950907D02*
G01*
X37307827Y-38022175D01*
X37462674Y-38125640D01*
X37594360Y-38257326D01*
X37697825Y-38412173D01*
X37769093Y-38584230D01*
X37805425Y-38766884D01*
X37805425Y-38953116D01*
X37769093Y-39135770D01*
X37697825Y-39307827D01*
X37594360Y-39462674D01*
X37462674Y-39594360D01*
X37307827Y-39697825D01*
X37135770Y-39769093D01*
X36953116Y-39805425D01*
X36766884Y-39805425D01*
X36584230Y-39769093D01*
X36412173Y-39697825D01*
X36257326Y-39594360D01*
X36125640Y-39462674D01*
X36022175Y-39307827D01*
X35950907Y-39135770D01*
X35914575Y-38953116D01*
X35914575Y-38766884D01*
X35950907Y-38584230D01*
X36022175Y-38412173D01*
X36125640Y-38257326D01*
X36257326Y-38125640D01*
X36412173Y-38022175D01*
X36584230Y-37950907D01*
X36766884Y-37914575D01*
X36953116Y-37914575D01*
X37135770Y-37950907D01*
G37*
G36*
X14275770Y-35410907D02*
G01*
X14447827Y-35482175D01*
X14602674Y-35585640D01*
X14734360Y-35717326D01*
X14837825Y-35872173D01*
X14909093Y-36044230D01*
X14945425Y-36226884D01*
X14945425Y-36413116D01*
X14909093Y-36595770D01*
X14837825Y-36767827D01*
X14734360Y-36922674D01*
X14602674Y-37054360D01*
X14447827Y-37157825D01*
X14275770Y-37229093D01*
X14093116Y-37265425D01*
X13906884Y-37265425D01*
X13724230Y-37229093D01*
X13552173Y-37157825D01*
X13397326Y-37054360D01*
X13265640Y-36922674D01*
X13162175Y-36767827D01*
X13090907Y-36595770D01*
X13054575Y-36413116D01*
X13054575Y-36226884D01*
X13090907Y-36044230D01*
X13162175Y-35872173D01*
X13265640Y-35717326D01*
X13397326Y-35585640D01*
X13552173Y-35482175D01*
X13724230Y-35410907D01*
X13906884Y-35374575D01*
X14093116Y-35374575D01*
X14275770Y-35410907D01*
G37*
G36*
X37135770Y-35410907D02*
G01*
X37307827Y-35482175D01*
X37462674Y-35585640D01*
X37594360Y-35717326D01*
X37697825Y-35872173D01*
X37769093Y-36044230D01*
X37805425Y-36226884D01*
X37805425Y-36413116D01*
X37769093Y-36595770D01*
X37697825Y-36767827D01*
X37594360Y-36922674D01*
X37462674Y-37054360D01*
X37307827Y-37157825D01*
X37135770Y-37229093D01*
X36953116Y-37265425D01*
X36766884Y-37265425D01*
X36584230Y-37229093D01*
X36412173Y-37157825D01*
X36257326Y-37054360D01*
X36125640Y-36922674D01*
X36022175Y-36767827D01*
X35950907Y-36595770D01*
X35914575Y-36413116D01*
X35914575Y-36226884D01*
X35950907Y-36044230D01*
X36022175Y-35872173D01*
X36125640Y-35717326D01*
X36257326Y-35585640D01*
X36412173Y-35482175D01*
X36584230Y-35410907D01*
X36766884Y-35374575D01*
X36953116Y-35374575D01*
X37135770Y-35410907D01*
G37*
G36*
X46092885Y-34955056D02*
G01*
X46102918Y-34955056D01*
X46142117Y-34962853D01*
X46245078Y-34979160D01*
X46278200Y-34989922D01*
X46304799Y-34995213D01*
X46342335Y-35010760D01*
X46401762Y-35030070D01*
X46457433Y-35058435D01*
X46494967Y-35073983D01*
X46517517Y-35089050D01*
X46548539Y-35104857D01*
X46632866Y-35166124D01*
X46666113Y-35188339D01*
X46673208Y-35195434D01*
X46681817Y-35201689D01*
X46798310Y-35318182D01*
X46804564Y-35326790D01*
X46811661Y-35333887D01*
X46833878Y-35367138D01*
X46895142Y-35451460D01*
X46910947Y-35482479D01*
X46926017Y-35505033D01*
X46941566Y-35542572D01*
X46969929Y-35598237D01*
X46989235Y-35657657D01*
X47004787Y-35695201D01*
X47010078Y-35721805D01*
X47020839Y-35754921D01*
X47037145Y-35857876D01*
X47044944Y-35897082D01*
X47044944Y-35907114D01*
X47046609Y-35917627D01*
X47046609Y-36082372D01*
X47044944Y-36092884D01*
X47044944Y-36102918D01*
X47037144Y-36142126D01*
X47020839Y-36245078D01*
X47010079Y-36278192D01*
X47004787Y-36304799D01*
X46989234Y-36342346D01*
X46969929Y-36401762D01*
X46941568Y-36457422D01*
X46926017Y-36494967D01*
X46910945Y-36517523D01*
X46895142Y-36548539D01*
X46833887Y-36632849D01*
X46811661Y-36666113D01*
X46804561Y-36673212D01*
X46798310Y-36681817D01*
X46681817Y-36798310D01*
X46673212Y-36804561D01*
X46666113Y-36811661D01*
X46632849Y-36833887D01*
X46548539Y-36895142D01*
X46517523Y-36910945D01*
X46494967Y-36926017D01*
X46457422Y-36941568D01*
X46401762Y-36969929D01*
X46342346Y-36989234D01*
X46304799Y-37004787D01*
X46278192Y-37010079D01*
X46245078Y-37020839D01*
X46142126Y-37037144D01*
X46102918Y-37044944D01*
X46092884Y-37044944D01*
X46082372Y-37046609D01*
X45917628Y-37046609D01*
X45907115Y-37044944D01*
X45897082Y-37044944D01*
X45857874Y-37037145D01*
X45754921Y-37020839D01*
X45721805Y-37010078D01*
X45695201Y-37004787D01*
X45657657Y-36989235D01*
X45598237Y-36969929D01*
X45542572Y-36941566D01*
X45505033Y-36926017D01*
X45482479Y-36910947D01*
X45451460Y-36895142D01*
X45367138Y-36833878D01*
X45333887Y-36811661D01*
X45326790Y-36804564D01*
X45318182Y-36798310D01*
X45201689Y-36681817D01*
X45195434Y-36673208D01*
X45188339Y-36666113D01*
X45166124Y-36632866D01*
X45104857Y-36548539D01*
X45089050Y-36517517D01*
X45073983Y-36494967D01*
X45058435Y-36457433D01*
X45030070Y-36401762D01*
X45010760Y-36342335D01*
X44995213Y-36304799D01*
X44989922Y-36278200D01*
X44979160Y-36245078D01*
X44962853Y-36142117D01*
X44955056Y-36102918D01*
X44955056Y-36092884D01*
X44953391Y-36082372D01*
X44953391Y-35917627D01*
X44955056Y-35907114D01*
X44955056Y-35897082D01*
X44962852Y-35857886D01*
X44979160Y-35754921D01*
X44989922Y-35721797D01*
X44995213Y-35695201D01*
X45010759Y-35657668D01*
X45030070Y-35598237D01*
X45058438Y-35542561D01*
X45073983Y-35505033D01*
X45089048Y-35482486D01*
X45104857Y-35451460D01*
X45166132Y-35367121D01*
X45188339Y-35333887D01*
X45195432Y-35326793D01*
X45201689Y-35318182D01*
X45318182Y-35201689D01*
X45326793Y-35195432D01*
X45333887Y-35188339D01*
X45367121Y-35166132D01*
X45451460Y-35104857D01*
X45482486Y-35089048D01*
X45505033Y-35073983D01*
X45542561Y-35058438D01*
X45598237Y-35030070D01*
X45657668Y-35010759D01*
X45695201Y-34995213D01*
X45721797Y-34989922D01*
X45754921Y-34979160D01*
X45857883Y-34962853D01*
X45897082Y-34955056D01*
X45907115Y-34955056D01*
X45917628Y-34953391D01*
X46082372Y-34953391D01*
X46092885Y-34955056D01*
G37*
G36*
X14275770Y-32870907D02*
G01*
X14447827Y-32942175D01*
X14602674Y-33045640D01*
X14734360Y-33177326D01*
X14837825Y-33332173D01*
X14909093Y-33504230D01*
X14945425Y-33686884D01*
X14945425Y-33873116D01*
X14909093Y-34055770D01*
X14837825Y-34227827D01*
X14734360Y-34382674D01*
X14602674Y-34514360D01*
X14447827Y-34617825D01*
X14275770Y-34689093D01*
X14093116Y-34725425D01*
X13906884Y-34725425D01*
X13724230Y-34689093D01*
X13552173Y-34617825D01*
X13397326Y-34514360D01*
X13265640Y-34382674D01*
X13162175Y-34227827D01*
X13090907Y-34055770D01*
X13054575Y-33873116D01*
X13054575Y-33686884D01*
X13090907Y-33504230D01*
X13162175Y-33332173D01*
X13265640Y-33177326D01*
X13397326Y-33045640D01*
X13552173Y-32942175D01*
X13724230Y-32870907D01*
X13906884Y-32834575D01*
X14093116Y-32834575D01*
X14275770Y-32870907D01*
G37*
G36*
X37135770Y-32870907D02*
G01*
X37307827Y-32942175D01*
X37462674Y-33045640D01*
X37594360Y-33177326D01*
X37697825Y-33332173D01*
X37769093Y-33504230D01*
X37805425Y-33686884D01*
X37805425Y-33873116D01*
X37769093Y-34055770D01*
X37697825Y-34227827D01*
X37594360Y-34382674D01*
X37462674Y-34514360D01*
X37307827Y-34617825D01*
X37135770Y-34689093D01*
X36953116Y-34725425D01*
X36766884Y-34725425D01*
X36584230Y-34689093D01*
X36412173Y-34617825D01*
X36257326Y-34514360D01*
X36125640Y-34382674D01*
X36022175Y-34227827D01*
X35950907Y-34055770D01*
X35914575Y-33873116D01*
X35914575Y-33686884D01*
X35950907Y-33504230D01*
X36022175Y-33332173D01*
X36125640Y-33177326D01*
X36257326Y-33045640D01*
X36412173Y-32942175D01*
X36584230Y-32870907D01*
X36766884Y-32834575D01*
X36953116Y-32834575D01*
X37135770Y-32870907D01*
G37*
G36*
X92283028Y-31566983D02*
G01*
X92459612Y-31640127D01*
X92618533Y-31746315D01*
X92753685Y-31881467D01*
X92859873Y-32040388D01*
X92933017Y-32216972D01*
X92970305Y-32404433D01*
X92970305Y-32595567D01*
X92933017Y-32783028D01*
X92859873Y-32959612D01*
X92753685Y-33118533D01*
X92618533Y-33253685D01*
X92459612Y-33359873D01*
X92283028Y-33433017D01*
X92095567Y-33470305D01*
X91904433Y-33470305D01*
X91716972Y-33433017D01*
X91540388Y-33359873D01*
X91381467Y-33253685D01*
X91246315Y-33118533D01*
X91140127Y-32959612D01*
X91066983Y-32783028D01*
X91029695Y-32595567D01*
X91029695Y-32404433D01*
X91066983Y-32216972D01*
X91140127Y-32040388D01*
X91246315Y-31881467D01*
X91381467Y-31746315D01*
X91540388Y-31640127D01*
X91716972Y-31566983D01*
X91904433Y-31529695D01*
X92095567Y-31529695D01*
X92283028Y-31566983D01*
G37*
G36*
X14275770Y-30330907D02*
G01*
X14447827Y-30402175D01*
X14602674Y-30505640D01*
X14734360Y-30637326D01*
X14837825Y-30792173D01*
X14909093Y-30964230D01*
X14945425Y-31146884D01*
X14945425Y-31333116D01*
X14909093Y-31515770D01*
X14837825Y-31687827D01*
X14734360Y-31842674D01*
X14602674Y-31974360D01*
X14447827Y-32077825D01*
X14275770Y-32149093D01*
X14093116Y-32185425D01*
X13906884Y-32185425D01*
X13724230Y-32149093D01*
X13552173Y-32077825D01*
X13397326Y-31974360D01*
X13265640Y-31842674D01*
X13162175Y-31687827D01*
X13090907Y-31515770D01*
X13054575Y-31333116D01*
X13054575Y-31146884D01*
X13090907Y-30964230D01*
X13162175Y-30792173D01*
X13265640Y-30637326D01*
X13397326Y-30505640D01*
X13552173Y-30402175D01*
X13724230Y-30330907D01*
X13906884Y-30294575D01*
X14093116Y-30294575D01*
X14275770Y-30330907D01*
G37*
G36*
X37135770Y-30330907D02*
G01*
X37307827Y-30402175D01*
X37462674Y-30505640D01*
X37594360Y-30637326D01*
X37697825Y-30792173D01*
X37769093Y-30964230D01*
X37805425Y-31146884D01*
X37805425Y-31333116D01*
X37769093Y-31515770D01*
X37697825Y-31687827D01*
X37594360Y-31842674D01*
X37462674Y-31974360D01*
X37307827Y-32077825D01*
X37135770Y-32149093D01*
X36953116Y-32185425D01*
X36766884Y-32185425D01*
X36584230Y-32149093D01*
X36412173Y-32077825D01*
X36257326Y-31974360D01*
X36125640Y-31842674D01*
X36022175Y-31687827D01*
X35950907Y-31515770D01*
X35914575Y-31333116D01*
X35914575Y-31146884D01*
X35950907Y-30964230D01*
X36022175Y-30792173D01*
X36125640Y-30637326D01*
X36257326Y-30505640D01*
X36412173Y-30402175D01*
X36584230Y-30330907D01*
X36766884Y-30294575D01*
X36953116Y-30294575D01*
X37135770Y-30330907D01*
G37*
G36*
X92283028Y-29066983D02*
G01*
X92459612Y-29140127D01*
X92618533Y-29246315D01*
X92753685Y-29381467D01*
X92859873Y-29540388D01*
X92933017Y-29716972D01*
X92970305Y-29904433D01*
X92970305Y-30095567D01*
X92933017Y-30283028D01*
X92859873Y-30459612D01*
X92753685Y-30618533D01*
X92618533Y-30753685D01*
X92459612Y-30859873D01*
X92283028Y-30933017D01*
X92095567Y-30970305D01*
X91904433Y-30970305D01*
X91716972Y-30933017D01*
X91540388Y-30859873D01*
X91381467Y-30753685D01*
X91246315Y-30618533D01*
X91140127Y-30459612D01*
X91066983Y-30283028D01*
X91029695Y-30095567D01*
X91029695Y-29904433D01*
X91066983Y-29716972D01*
X91140127Y-29540388D01*
X91246315Y-29381467D01*
X91381467Y-29246315D01*
X91540388Y-29140127D01*
X91716972Y-29066983D01*
X91904433Y-29029695D01*
X92095567Y-29029695D01*
X92283028Y-29066983D01*
G37*
G36*
X14275770Y-27790907D02*
G01*
X14447827Y-27862175D01*
X14602674Y-27965640D01*
X14734360Y-28097326D01*
X14837825Y-28252173D01*
X14909093Y-28424230D01*
X14945425Y-28606884D01*
X14945425Y-28793116D01*
X14909093Y-28975770D01*
X14837825Y-29147827D01*
X14734360Y-29302674D01*
X14602674Y-29434360D01*
X14447827Y-29537825D01*
X14275770Y-29609093D01*
X14093116Y-29645425D01*
X13906884Y-29645425D01*
X13724230Y-29609093D01*
X13552173Y-29537825D01*
X13397326Y-29434360D01*
X13265640Y-29302674D01*
X13162175Y-29147827D01*
X13090907Y-28975770D01*
X13054575Y-28793116D01*
X13054575Y-28606884D01*
X13090907Y-28424230D01*
X13162175Y-28252173D01*
X13265640Y-28097326D01*
X13397326Y-27965640D01*
X13552173Y-27862175D01*
X13724230Y-27790907D01*
X13906884Y-27754575D01*
X14093116Y-27754575D01*
X14275770Y-27790907D01*
G37*
G36*
X37135770Y-27790907D02*
G01*
X37307827Y-27862175D01*
X37462674Y-27965640D01*
X37594360Y-28097326D01*
X37697825Y-28252173D01*
X37769093Y-28424230D01*
X37805425Y-28606884D01*
X37805425Y-28793116D01*
X37769093Y-28975770D01*
X37697825Y-29147827D01*
X37594360Y-29302674D01*
X37462674Y-29434360D01*
X37307827Y-29537825D01*
X37135770Y-29609093D01*
X36953116Y-29645425D01*
X36766884Y-29645425D01*
X36584230Y-29609093D01*
X36412173Y-29537825D01*
X36257326Y-29434360D01*
X36125640Y-29302674D01*
X36022175Y-29147827D01*
X35950907Y-28975770D01*
X35914575Y-28793116D01*
X35914575Y-28606884D01*
X35950907Y-28424230D01*
X36022175Y-28252173D01*
X36125640Y-28097326D01*
X36257326Y-27965640D01*
X36412173Y-27862175D01*
X36584230Y-27790907D01*
X36766884Y-27754575D01*
X36953116Y-27754575D01*
X37135770Y-27790907D01*
G37*
G36*
X53283028Y-27566983D02*
G01*
X53459612Y-27640127D01*
X53618533Y-27746315D01*
X53753685Y-27881467D01*
X53859873Y-28040388D01*
X53933017Y-28216972D01*
X53970305Y-28404433D01*
X53970305Y-28595567D01*
X53933017Y-28783028D01*
X53859873Y-28959612D01*
X53753685Y-29118533D01*
X53618533Y-29253685D01*
X53459612Y-29359873D01*
X53283028Y-29433017D01*
X53095567Y-29470305D01*
X52904433Y-29470305D01*
X52716972Y-29433017D01*
X52540388Y-29359873D01*
X52381467Y-29253685D01*
X52246315Y-29118533D01*
X52140127Y-28959612D01*
X52066983Y-28783028D01*
X52029695Y-28595567D01*
X52029695Y-28404433D01*
X52066983Y-28216972D01*
X52140127Y-28040388D01*
X52246315Y-27881467D01*
X52381467Y-27746315D01*
X52540388Y-27640127D01*
X52716972Y-27566983D01*
X52904433Y-27529695D01*
X53095567Y-27529695D01*
X53283028Y-27566983D01*
G37*
G36*
X92283028Y-26566983D02*
G01*
X92459612Y-26640127D01*
X92618533Y-26746315D01*
X92753685Y-26881467D01*
X92859873Y-27040388D01*
X92933017Y-27216972D01*
X92970305Y-27404433D01*
X92970305Y-27595567D01*
X92933017Y-27783028D01*
X92859873Y-27959612D01*
X92753685Y-28118533D01*
X92618533Y-28253685D01*
X92459612Y-28359873D01*
X92283028Y-28433017D01*
X92095567Y-28470305D01*
X91904433Y-28470305D01*
X91716972Y-28433017D01*
X91540388Y-28359873D01*
X91381467Y-28253685D01*
X91246315Y-28118533D01*
X91140127Y-27959612D01*
X91066983Y-27783028D01*
X91029695Y-27595567D01*
X91029695Y-27404433D01*
X91066983Y-27216972D01*
X91140127Y-27040388D01*
X91246315Y-26881467D01*
X91381467Y-26746315D01*
X91540388Y-26640127D01*
X91716972Y-26566983D01*
X91904433Y-26529695D01*
X92095567Y-26529695D01*
X92283028Y-26566983D01*
G37*
G36*
X14275770Y-25250907D02*
G01*
X14447827Y-25322175D01*
X14602674Y-25425640D01*
X14734360Y-25557326D01*
X14837825Y-25712173D01*
X14909093Y-25884230D01*
X14945425Y-26066884D01*
X14945425Y-26253116D01*
X14909093Y-26435770D01*
X14837825Y-26607827D01*
X14734360Y-26762674D01*
X14602674Y-26894360D01*
X14447827Y-26997825D01*
X14275770Y-27069093D01*
X14093116Y-27105425D01*
X13906884Y-27105425D01*
X13724230Y-27069093D01*
X13552173Y-26997825D01*
X13397326Y-26894360D01*
X13265640Y-26762674D01*
X13162175Y-26607827D01*
X13090907Y-26435770D01*
X13054575Y-26253116D01*
X13054575Y-26066884D01*
X13090907Y-25884230D01*
X13162175Y-25712173D01*
X13265640Y-25557326D01*
X13397326Y-25425640D01*
X13552173Y-25322175D01*
X13724230Y-25250907D01*
X13906884Y-25214575D01*
X14093116Y-25214575D01*
X14275770Y-25250907D01*
G37*
G36*
X37135770Y-25250907D02*
G01*
X37307827Y-25322175D01*
X37462674Y-25425640D01*
X37594360Y-25557326D01*
X37697825Y-25712173D01*
X37769093Y-25884230D01*
X37805425Y-26066884D01*
X37805425Y-26253116D01*
X37769093Y-26435770D01*
X37697825Y-26607827D01*
X37594360Y-26762674D01*
X37462674Y-26894360D01*
X37307827Y-26997825D01*
X37135770Y-27069093D01*
X36953116Y-27105425D01*
X36766884Y-27105425D01*
X36584230Y-27069093D01*
X36412173Y-26997825D01*
X36257326Y-26894360D01*
X36125640Y-26762674D01*
X36022175Y-26607827D01*
X35950907Y-26435770D01*
X35914575Y-26253116D01*
X35914575Y-26066884D01*
X35950907Y-25884230D01*
X36022175Y-25712173D01*
X36125640Y-25557326D01*
X36257326Y-25425640D01*
X36412173Y-25322175D01*
X36584230Y-25250907D01*
X36766884Y-25214575D01*
X36953116Y-25214575D01*
X37135770Y-25250907D01*
G37*
G36*
X53283028Y-25066983D02*
G01*
X53459612Y-25140127D01*
X53618533Y-25246315D01*
X53753685Y-25381467D01*
X53859873Y-25540388D01*
X53933017Y-25716972D01*
X53970305Y-25904433D01*
X53970305Y-26095567D01*
X53933017Y-26283028D01*
X53859873Y-26459612D01*
X53753685Y-26618533D01*
X53618533Y-26753685D01*
X53459612Y-26859873D01*
X53283028Y-26933017D01*
X53095567Y-26970305D01*
X52904433Y-26970305D01*
X52716972Y-26933017D01*
X52540388Y-26859873D01*
X52381467Y-26753685D01*
X52246315Y-26618533D01*
X52140127Y-26459612D01*
X52066983Y-26283028D01*
X52029695Y-26095567D01*
X52029695Y-25904433D01*
X52066983Y-25716972D01*
X52140127Y-25540388D01*
X52246315Y-25381467D01*
X52381467Y-25246315D01*
X52540388Y-25140127D01*
X52716972Y-25066983D01*
X52904433Y-25029695D01*
X53095567Y-25029695D01*
X53283028Y-25066983D01*
G37*
G36*
X92283028Y-24066983D02*
G01*
X92459612Y-24140127D01*
X92618533Y-24246315D01*
X92753685Y-24381467D01*
X92859873Y-24540388D01*
X92933017Y-24716972D01*
X92970305Y-24904433D01*
X92970305Y-25095567D01*
X92933017Y-25283028D01*
X92859873Y-25459612D01*
X92753685Y-25618533D01*
X92618533Y-25753685D01*
X92459612Y-25859873D01*
X92283028Y-25933017D01*
X92095567Y-25970305D01*
X91904433Y-25970305D01*
X91716972Y-25933017D01*
X91540388Y-25859873D01*
X91381467Y-25753685D01*
X91246315Y-25618533D01*
X91140127Y-25459612D01*
X91066983Y-25283028D01*
X91029695Y-25095567D01*
X91029695Y-24904433D01*
X91066983Y-24716972D01*
X91140127Y-24540388D01*
X91246315Y-24381467D01*
X91381467Y-24246315D01*
X91540388Y-24140127D01*
X91716972Y-24066983D01*
X91904433Y-24029695D01*
X92095567Y-24029695D01*
X92283028Y-24066983D01*
G37*
G36*
X14275770Y-22710907D02*
G01*
X14447827Y-22782175D01*
X14602674Y-22885640D01*
X14734360Y-23017326D01*
X14837825Y-23172173D01*
X14909093Y-23344230D01*
X14945425Y-23526884D01*
X14945425Y-23713116D01*
X14909093Y-23895770D01*
X14837825Y-24067827D01*
X14734360Y-24222674D01*
X14602674Y-24354360D01*
X14447827Y-24457825D01*
X14275770Y-24529093D01*
X14093116Y-24565425D01*
X13906884Y-24565425D01*
X13724230Y-24529093D01*
X13552173Y-24457825D01*
X13397326Y-24354360D01*
X13265640Y-24222674D01*
X13162175Y-24067827D01*
X13090907Y-23895770D01*
X13054575Y-23713116D01*
X13054575Y-23526884D01*
X13090907Y-23344230D01*
X13162175Y-23172173D01*
X13265640Y-23017326D01*
X13397326Y-22885640D01*
X13552173Y-22782175D01*
X13724230Y-22710907D01*
X13906884Y-22674575D01*
X14093116Y-22674575D01*
X14275770Y-22710907D01*
G37*
G36*
X37135770Y-22710907D02*
G01*
X37307827Y-22782175D01*
X37462674Y-22885640D01*
X37594360Y-23017326D01*
X37697825Y-23172173D01*
X37769093Y-23344230D01*
X37805425Y-23526884D01*
X37805425Y-23713116D01*
X37769093Y-23895770D01*
X37697825Y-24067827D01*
X37594360Y-24222674D01*
X37462674Y-24354360D01*
X37307827Y-24457825D01*
X37135770Y-24529093D01*
X36953116Y-24565425D01*
X36766884Y-24565425D01*
X36584230Y-24529093D01*
X36412173Y-24457825D01*
X36257326Y-24354360D01*
X36125640Y-24222674D01*
X36022175Y-24067827D01*
X35950907Y-23895770D01*
X35914575Y-23713116D01*
X35914575Y-23526884D01*
X35950907Y-23344230D01*
X36022175Y-23172173D01*
X36125640Y-23017326D01*
X36257326Y-22885640D01*
X36412173Y-22782175D01*
X36584230Y-22710907D01*
X36766884Y-22674575D01*
X36953116Y-22674575D01*
X37135770Y-22710907D01*
G37*
G36*
X53283028Y-22566983D02*
G01*
X53459612Y-22640127D01*
X53618533Y-22746315D01*
X53753685Y-22881467D01*
X53859873Y-23040388D01*
X53933017Y-23216972D01*
X53970305Y-23404433D01*
X53970305Y-23595567D01*
X53933017Y-23783028D01*
X53859873Y-23959612D01*
X53753685Y-24118533D01*
X53618533Y-24253685D01*
X53459612Y-24359873D01*
X53283028Y-24433017D01*
X53095567Y-24470305D01*
X52904433Y-24470305D01*
X52716972Y-24433017D01*
X52540388Y-24359873D01*
X52381467Y-24253685D01*
X52246315Y-24118533D01*
X52140127Y-23959612D01*
X52066983Y-23783028D01*
X52029695Y-23595567D01*
X52029695Y-23404433D01*
X52066983Y-23216972D01*
X52140127Y-23040388D01*
X52246315Y-22881467D01*
X52381467Y-22746315D01*
X52540388Y-22640127D01*
X52716972Y-22566983D01*
X52904433Y-22529695D01*
X53095567Y-22529695D01*
X53283028Y-22566983D01*
G37*
G36*
X92283028Y-21566983D02*
G01*
X92459612Y-21640127D01*
X92618533Y-21746315D01*
X92753685Y-21881467D01*
X92859873Y-22040388D01*
X92933017Y-22216972D01*
X92970305Y-22404433D01*
X92970305Y-22595567D01*
X92933017Y-22783028D01*
X92859873Y-22959612D01*
X92753685Y-23118533D01*
X92618533Y-23253685D01*
X92459612Y-23359873D01*
X92283028Y-23433017D01*
X92095567Y-23470305D01*
X91904433Y-23470305D01*
X91716972Y-23433017D01*
X91540388Y-23359873D01*
X91381467Y-23253685D01*
X91246315Y-23118533D01*
X91140127Y-22959612D01*
X91066983Y-22783028D01*
X91029695Y-22595567D01*
X91029695Y-22404433D01*
X91066983Y-22216972D01*
X91140127Y-22040388D01*
X91246315Y-21881467D01*
X91381467Y-21746315D01*
X91540388Y-21640127D01*
X91716972Y-21566983D01*
X91904433Y-21529695D01*
X92095567Y-21529695D01*
X92283028Y-21566983D01*
G37*
G36*
X14275770Y-20170907D02*
G01*
X14447827Y-20242175D01*
X14602674Y-20345640D01*
X14734360Y-20477326D01*
X14837825Y-20632173D01*
X14909093Y-20804230D01*
X14945425Y-20986884D01*
X14945425Y-21173116D01*
X14909093Y-21355770D01*
X14837825Y-21527827D01*
X14734360Y-21682674D01*
X14602674Y-21814360D01*
X14447827Y-21917825D01*
X14275770Y-21989093D01*
X14093116Y-22025425D01*
X13906884Y-22025425D01*
X13724230Y-21989093D01*
X13552173Y-21917825D01*
X13397326Y-21814360D01*
X13265640Y-21682674D01*
X13162175Y-21527827D01*
X13090907Y-21355770D01*
X13054575Y-21173116D01*
X13054575Y-20986884D01*
X13090907Y-20804230D01*
X13162175Y-20632173D01*
X13265640Y-20477326D01*
X13397326Y-20345640D01*
X13552173Y-20242175D01*
X13724230Y-20170907D01*
X13906884Y-20134575D01*
X14093116Y-20134575D01*
X14275770Y-20170907D01*
G37*
G36*
X37135770Y-20170907D02*
G01*
X37307827Y-20242175D01*
X37462674Y-20345640D01*
X37594360Y-20477326D01*
X37697825Y-20632173D01*
X37769093Y-20804230D01*
X37805425Y-20986884D01*
X37805425Y-21173116D01*
X37769093Y-21355770D01*
X37697825Y-21527827D01*
X37594360Y-21682674D01*
X37462674Y-21814360D01*
X37307827Y-21917825D01*
X37135770Y-21989093D01*
X36953116Y-22025425D01*
X36766884Y-22025425D01*
X36584230Y-21989093D01*
X36412173Y-21917825D01*
X36257326Y-21814360D01*
X36125640Y-21682674D01*
X36022175Y-21527827D01*
X35950907Y-21355770D01*
X35914575Y-21173116D01*
X35914575Y-20986884D01*
X35950907Y-20804230D01*
X36022175Y-20632173D01*
X36125640Y-20477326D01*
X36257326Y-20345640D01*
X36412173Y-20242175D01*
X36584230Y-20170907D01*
X36766884Y-20134575D01*
X36953116Y-20134575D01*
X37135770Y-20170907D01*
G37*
G36*
X53283028Y-20066983D02*
G01*
X53459612Y-20140127D01*
X53618533Y-20246315D01*
X53753685Y-20381467D01*
X53859873Y-20540388D01*
X53933017Y-20716972D01*
X53970305Y-20904433D01*
X53970305Y-21095567D01*
X53933017Y-21283028D01*
X53859873Y-21459612D01*
X53753685Y-21618533D01*
X53618533Y-21753685D01*
X53459612Y-21859873D01*
X53283028Y-21933017D01*
X53095567Y-21970305D01*
X52904433Y-21970305D01*
X52716972Y-21933017D01*
X52540388Y-21859873D01*
X52381467Y-21753685D01*
X52246315Y-21618533D01*
X52140127Y-21459612D01*
X52066983Y-21283028D01*
X52029695Y-21095567D01*
X52029695Y-20904433D01*
X52066983Y-20716972D01*
X52140127Y-20540388D01*
X52246315Y-20381467D01*
X52381467Y-20246315D01*
X52540388Y-20140127D01*
X52716972Y-20066983D01*
X52904433Y-20029695D01*
X53095567Y-20029695D01*
X53283028Y-20066983D01*
G37*
G36*
X92283028Y-19066983D02*
G01*
X92459612Y-19140127D01*
X92618533Y-19246315D01*
X92753685Y-19381467D01*
X92859873Y-19540388D01*
X92933017Y-19716972D01*
X92970305Y-19904433D01*
X92970305Y-20095567D01*
X92933017Y-20283028D01*
X92859873Y-20459612D01*
X92753685Y-20618533D01*
X92618533Y-20753685D01*
X92459612Y-20859873D01*
X92283028Y-20933017D01*
X92095567Y-20970305D01*
X91904433Y-20970305D01*
X91716972Y-20933017D01*
X91540388Y-20859873D01*
X91381467Y-20753685D01*
X91246315Y-20618533D01*
X91140127Y-20459612D01*
X91066983Y-20283028D01*
X91029695Y-20095567D01*
X91029695Y-19904433D01*
X91066983Y-19716972D01*
X91140127Y-19540388D01*
X91246315Y-19381467D01*
X91381467Y-19246315D01*
X91540388Y-19140127D01*
X91716972Y-19066983D01*
X91904433Y-19029695D01*
X92095567Y-19029695D01*
X92283028Y-19066983D01*
G37*
G36*
X14275770Y-17630907D02*
G01*
X14447827Y-17702175D01*
X14602674Y-17805640D01*
X14734360Y-17937326D01*
X14837825Y-18092173D01*
X14909093Y-18264230D01*
X14945425Y-18446884D01*
X14945425Y-18633116D01*
X14909093Y-18815770D01*
X14837825Y-18987827D01*
X14734360Y-19142674D01*
X14602674Y-19274360D01*
X14447827Y-19377825D01*
X14275770Y-19449093D01*
X14093116Y-19485425D01*
X13906884Y-19485425D01*
X13724230Y-19449093D01*
X13552173Y-19377825D01*
X13397326Y-19274360D01*
X13265640Y-19142674D01*
X13162175Y-18987827D01*
X13090907Y-18815770D01*
X13054575Y-18633116D01*
X13054575Y-18446884D01*
X13090907Y-18264230D01*
X13162175Y-18092173D01*
X13265640Y-17937326D01*
X13397326Y-17805640D01*
X13552173Y-17702175D01*
X13724230Y-17630907D01*
X13906884Y-17594575D01*
X14093116Y-17594575D01*
X14275770Y-17630907D01*
G37*
G36*
X37135770Y-17630907D02*
G01*
X37307827Y-17702175D01*
X37462674Y-17805640D01*
X37594360Y-17937326D01*
X37697825Y-18092173D01*
X37769093Y-18264230D01*
X37805425Y-18446884D01*
X37805425Y-18633116D01*
X37769093Y-18815770D01*
X37697825Y-18987827D01*
X37594360Y-19142674D01*
X37462674Y-19274360D01*
X37307827Y-19377825D01*
X37135770Y-19449093D01*
X36953116Y-19485425D01*
X36766884Y-19485425D01*
X36584230Y-19449093D01*
X36412173Y-19377825D01*
X36257326Y-19274360D01*
X36125640Y-19142674D01*
X36022175Y-18987827D01*
X35950907Y-18815770D01*
X35914575Y-18633116D01*
X35914575Y-18446884D01*
X35950907Y-18264230D01*
X36022175Y-18092173D01*
X36125640Y-17937326D01*
X36257326Y-17805640D01*
X36412173Y-17702175D01*
X36584230Y-17630907D01*
X36766884Y-17594575D01*
X36953116Y-17594575D01*
X37135770Y-17630907D01*
G37*
G36*
X53283028Y-17566983D02*
G01*
X53459612Y-17640127D01*
X53618533Y-17746315D01*
X53753685Y-17881467D01*
X53859873Y-18040388D01*
X53933017Y-18216972D01*
X53970305Y-18404433D01*
X53970305Y-18595567D01*
X53933017Y-18783028D01*
X53859873Y-18959612D01*
X53753685Y-19118533D01*
X53618533Y-19253685D01*
X53459612Y-19359873D01*
X53283028Y-19433017D01*
X53095567Y-19470305D01*
X52904433Y-19470305D01*
X52716972Y-19433017D01*
X52540388Y-19359873D01*
X52381467Y-19253685D01*
X52246315Y-19118533D01*
X52140127Y-18959612D01*
X52066983Y-18783028D01*
X52029695Y-18595567D01*
X52029695Y-18404433D01*
X52066983Y-18216972D01*
X52140127Y-18040388D01*
X52246315Y-17881467D01*
X52381467Y-17746315D01*
X52540388Y-17640127D01*
X52716972Y-17566983D01*
X52904433Y-17529695D01*
X53095567Y-17529695D01*
X53283028Y-17566983D01*
G37*
G36*
X92283028Y-16566983D02*
G01*
X92459612Y-16640127D01*
X92618533Y-16746315D01*
X92753685Y-16881467D01*
X92859873Y-17040388D01*
X92933017Y-17216972D01*
X92970305Y-17404433D01*
X92970305Y-17595567D01*
X92933017Y-17783028D01*
X92859873Y-17959612D01*
X92753685Y-18118533D01*
X92618533Y-18253685D01*
X92459612Y-18359873D01*
X92283028Y-18433017D01*
X92095567Y-18470305D01*
X91904433Y-18470305D01*
X91716972Y-18433017D01*
X91540388Y-18359873D01*
X91381467Y-18253685D01*
X91246315Y-18118533D01*
X91140127Y-17959612D01*
X91066983Y-17783028D01*
X91029695Y-17595567D01*
X91029695Y-17404433D01*
X91066983Y-17216972D01*
X91140127Y-17040388D01*
X91246315Y-16881467D01*
X91381467Y-16746315D01*
X91540388Y-16640127D01*
X91716972Y-16566983D01*
X91904433Y-16529695D01*
X92095567Y-16529695D01*
X92283028Y-16566983D01*
G37*
G36*
X53944134Y-15028806D02*
G01*
X53960355Y-15039645D01*
X53971194Y-15055866D01*
X53975000Y-15075000D01*
X53975000Y-16925000D01*
X53971194Y-16944134D01*
X53960355Y-16960355D01*
X53944134Y-16971194D01*
X53925000Y-16975000D01*
X52075000Y-16975000D01*
X52055866Y-16971194D01*
X52039645Y-16960355D01*
X52028806Y-16944134D01*
X52025000Y-16925000D01*
X52025000Y-15075000D01*
X52028806Y-15055866D01*
X52039645Y-15039645D01*
X52055866Y-15028806D01*
X52075000Y-15025000D01*
X53925000Y-15025000D01*
X53944134Y-15028806D01*
G37*
G36*
X14919134Y-15053806D02*
G01*
X14935355Y-15064645D01*
X14946194Y-15080866D01*
X14950000Y-15100000D01*
X14950000Y-16900000D01*
X14946194Y-16919134D01*
X14935355Y-16935355D01*
X14919134Y-16946194D01*
X14900000Y-16950000D01*
X13100000Y-16950000D01*
X13080866Y-16946194D01*
X13064645Y-16935355D01*
X13053806Y-16919134D01*
X13050000Y-16900000D01*
X13050000Y-15100000D01*
X13053806Y-15080866D01*
X13064645Y-15064645D01*
X13080866Y-15053806D01*
X13100000Y-15050000D01*
X14900000Y-15050000D01*
X14919134Y-15053806D01*
G37*
G36*
X37779134Y-15053806D02*
G01*
X37795355Y-15064645D01*
X37806194Y-15080866D01*
X37810000Y-15100000D01*
X37810000Y-16900000D01*
X37806194Y-16919134D01*
X37795355Y-16935355D01*
X37779134Y-16946194D01*
X37760000Y-16950000D01*
X35960000Y-16950000D01*
X35940866Y-16946194D01*
X35924645Y-16935355D01*
X35913806Y-16919134D01*
X35910000Y-16900000D01*
X35910000Y-15100000D01*
X35913806Y-15080866D01*
X35924645Y-15064645D01*
X35940866Y-15053806D01*
X35960000Y-15050000D01*
X37760000Y-15050000D01*
X37779134Y-15053806D01*
G37*
G36*
X92944134Y-14028806D02*
G01*
X92960355Y-14039645D01*
X92971194Y-14055866D01*
X92975000Y-14075000D01*
X92975000Y-15925000D01*
X92971194Y-15944134D01*
X92960355Y-15960355D01*
X92944134Y-15971194D01*
X92925000Y-15975000D01*
X91075000Y-15975000D01*
X91055866Y-15971194D01*
X91039645Y-15960355D01*
X91028806Y-15944134D01*
X91025000Y-15925000D01*
X91025000Y-14075000D01*
X91028806Y-14055866D01*
X91039645Y-14039645D01*
X91055866Y-14028806D01*
X91075000Y-14025000D01*
X92925000Y-14025000D01*
X92944134Y-14028806D01*
G37*
G36*
X4118894Y-2355086D02*
G01*
X4129458Y-2355086D01*
X4181477Y-2363325D01*
X4321877Y-2381809D01*
X4356138Y-2390989D01*
X4385185Y-2395590D01*
X4441045Y-2413740D01*
X4530338Y-2437666D01*
X4587309Y-2461264D01*
X4631428Y-2475599D01*
X4672755Y-2496656D01*
X4729733Y-2520257D01*
X4809803Y-2566485D01*
X4862123Y-2593144D01*
X4885909Y-2610425D01*
X4916624Y-2628159D01*
X5028975Y-2714369D01*
X5071589Y-2745330D01*
X5079058Y-2752799D01*
X5087848Y-2759544D01*
X5240455Y-2912151D01*
X5247199Y-2920940D01*
X5254670Y-2928411D01*
X5285634Y-2971030D01*
X5371840Y-3083375D01*
X5389572Y-3114087D01*
X5406856Y-3137877D01*
X5433517Y-3190203D01*
X5479742Y-3270266D01*
X5503340Y-3327237D01*
X5524401Y-3368572D01*
X5538738Y-3412696D01*
X5562333Y-3469661D01*
X5586255Y-3558941D01*
X5604410Y-3614815D01*
X5609011Y-3643867D01*
X5618190Y-3678122D01*
X5636673Y-3818514D01*
X5644914Y-3870542D01*
X5644914Y-3881105D01*
X5646360Y-3892089D01*
X5646360Y-4107910D01*
X5644914Y-4118893D01*
X5644914Y-4129458D01*
X5636672Y-4181490D01*
X5618190Y-4321877D01*
X5609011Y-4356129D01*
X5604410Y-4385185D01*
X5586254Y-4441063D01*
X5562333Y-4530338D01*
X5538739Y-4587298D01*
X5524401Y-4631428D01*
X5503337Y-4672766D01*
X5479742Y-4729733D01*
X5433521Y-4809788D01*
X5406856Y-4862123D01*
X5389569Y-4885916D01*
X5371840Y-4916624D01*
X5285648Y-5028950D01*
X5254670Y-5071589D01*
X5247195Y-5079063D01*
X5240455Y-5087848D01*
X5087848Y-5240455D01*
X5079063Y-5247195D01*
X5071589Y-5254670D01*
X5028950Y-5285648D01*
X4916624Y-5371840D01*
X4885916Y-5389569D01*
X4862123Y-5406856D01*
X4809788Y-5433521D01*
X4729733Y-5479742D01*
X4672766Y-5503337D01*
X4631428Y-5524401D01*
X4587298Y-5538739D01*
X4530338Y-5562333D01*
X4441063Y-5586254D01*
X4385185Y-5604410D01*
X4356129Y-5609011D01*
X4321877Y-5618190D01*
X4181490Y-5636672D01*
X4129458Y-5644914D01*
X4118893Y-5644914D01*
X4107910Y-5646360D01*
X3892090Y-5646360D01*
X3881107Y-5644914D01*
X3870542Y-5644914D01*
X3818511Y-5636672D01*
X3678122Y-5618190D01*
X3643867Y-5609011D01*
X3614815Y-5604410D01*
X3558941Y-5586255D01*
X3469661Y-5562333D01*
X3412696Y-5538738D01*
X3368572Y-5524401D01*
X3327237Y-5503340D01*
X3270266Y-5479742D01*
X3190203Y-5433517D01*
X3137877Y-5406856D01*
X3114087Y-5389572D01*
X3083375Y-5371840D01*
X2971030Y-5285634D01*
X2928411Y-5254670D01*
X2920940Y-5247199D01*
X2912151Y-5240455D01*
X2759544Y-5087848D01*
X2752799Y-5079058D01*
X2745330Y-5071589D01*
X2714369Y-5028975D01*
X2628159Y-4916624D01*
X2610425Y-4885909D01*
X2593144Y-4862123D01*
X2566485Y-4809803D01*
X2520257Y-4729733D01*
X2496656Y-4672755D01*
X2475599Y-4631428D01*
X2461264Y-4587309D01*
X2437666Y-4530338D01*
X2413740Y-4441045D01*
X2395590Y-4385185D01*
X2390989Y-4356138D01*
X2381809Y-4321877D01*
X2363325Y-4181477D01*
X2355086Y-4129458D01*
X2355086Y-4118893D01*
X2353640Y-4107910D01*
X2353640Y-3892089D01*
X2355086Y-3881105D01*
X2355086Y-3870542D01*
X2363324Y-3818527D01*
X2381809Y-3678122D01*
X2390989Y-3643858D01*
X2395590Y-3614815D01*
X2413738Y-3558959D01*
X2437666Y-3469661D01*
X2461265Y-3412685D01*
X2475599Y-3368572D01*
X2496654Y-3327248D01*
X2520257Y-3270266D01*
X2566489Y-3190188D01*
X2593144Y-3137877D01*
X2610423Y-3114094D01*
X2628159Y-3083375D01*
X2714383Y-2971005D01*
X2745330Y-2928411D01*
X2752796Y-2920944D01*
X2759544Y-2912151D01*
X2912151Y-2759544D01*
X2920944Y-2752796D01*
X2928411Y-2745330D01*
X2971005Y-2714383D01*
X3083375Y-2628159D01*
X3114094Y-2610423D01*
X3137877Y-2593144D01*
X3190188Y-2566489D01*
X3270266Y-2520257D01*
X3327248Y-2496654D01*
X3368572Y-2475599D01*
X3412685Y-2461265D01*
X3469661Y-2437666D01*
X3558959Y-2413738D01*
X3614815Y-2395590D01*
X3643858Y-2390989D01*
X3678122Y-2381809D01*
X3818524Y-2363324D01*
X3870542Y-2355086D01*
X3881106Y-2355086D01*
X3892090Y-2353640D01*
X4107910Y-2353640D01*
X4118894Y-2355086D01*
G37*
G36*
X96118894Y-2355086D02*
G01*
X96129458Y-2355086D01*
X96181477Y-2363325D01*
X96321877Y-2381809D01*
X96356138Y-2390989D01*
X96385185Y-2395590D01*
X96441045Y-2413740D01*
X96530338Y-2437666D01*
X96587309Y-2461264D01*
X96631428Y-2475599D01*
X96672755Y-2496656D01*
X96729733Y-2520257D01*
X96809803Y-2566485D01*
X96862123Y-2593144D01*
X96885909Y-2610425D01*
X96916624Y-2628159D01*
X97028975Y-2714369D01*
X97071589Y-2745330D01*
X97079058Y-2752799D01*
X97087848Y-2759544D01*
X97240455Y-2912151D01*
X97247199Y-2920940D01*
X97254670Y-2928411D01*
X97285634Y-2971030D01*
X97371840Y-3083375D01*
X97389572Y-3114087D01*
X97406856Y-3137877D01*
X97433517Y-3190203D01*
X97479742Y-3270266D01*
X97503340Y-3327237D01*
X97524401Y-3368572D01*
X97538738Y-3412696D01*
X97562333Y-3469661D01*
X97586255Y-3558941D01*
X97604410Y-3614815D01*
X97609011Y-3643867D01*
X97618190Y-3678122D01*
X97636673Y-3818514D01*
X97644914Y-3870542D01*
X97644914Y-3881105D01*
X97646360Y-3892089D01*
X97646360Y-4107910D01*
X97644914Y-4118893D01*
X97644914Y-4129458D01*
X97636672Y-4181490D01*
X97618190Y-4321877D01*
X97609011Y-4356129D01*
X97604410Y-4385185D01*
X97586254Y-4441063D01*
X97562333Y-4530338D01*
X97538739Y-4587298D01*
X97524401Y-4631428D01*
X97503337Y-4672766D01*
X97479742Y-4729733D01*
X97433521Y-4809788D01*
X97406856Y-4862123D01*
X97389569Y-4885916D01*
X97371840Y-4916624D01*
X97285648Y-5028950D01*
X97254670Y-5071589D01*
X97247195Y-5079063D01*
X97240455Y-5087848D01*
X97087848Y-5240455D01*
X97079063Y-5247195D01*
X97071589Y-5254670D01*
X97028950Y-5285648D01*
X96916624Y-5371840D01*
X96885916Y-5389569D01*
X96862123Y-5406856D01*
X96809788Y-5433521D01*
X96729733Y-5479742D01*
X96672766Y-5503337D01*
X96631428Y-5524401D01*
X96587298Y-5538739D01*
X96530338Y-5562333D01*
X96441063Y-5586254D01*
X96385185Y-5604410D01*
X96356129Y-5609011D01*
X96321877Y-5618190D01*
X96181490Y-5636672D01*
X96129458Y-5644914D01*
X96118893Y-5644914D01*
X96107910Y-5646360D01*
X95892090Y-5646360D01*
X95881107Y-5644914D01*
X95870542Y-5644914D01*
X95818511Y-5636672D01*
X95678122Y-5618190D01*
X95643867Y-5609011D01*
X95614815Y-5604410D01*
X95558941Y-5586255D01*
X95469661Y-5562333D01*
X95412696Y-5538738D01*
X95368572Y-5524401D01*
X95327237Y-5503340D01*
X95270266Y-5479742D01*
X95190203Y-5433517D01*
X95137877Y-5406856D01*
X95114087Y-5389572D01*
X95083375Y-5371840D01*
X94971030Y-5285634D01*
X94928411Y-5254670D01*
X94920940Y-5247199D01*
X94912151Y-5240455D01*
X94759544Y-5087848D01*
X94752799Y-5079058D01*
X94745330Y-5071589D01*
X94714369Y-5028975D01*
X94628159Y-4916624D01*
X94610425Y-4885909D01*
X94593144Y-4862123D01*
X94566485Y-4809803D01*
X94520257Y-4729733D01*
X94496656Y-4672755D01*
X94475599Y-4631428D01*
X94461264Y-4587309D01*
X94437666Y-4530338D01*
X94413740Y-4441045D01*
X94395590Y-4385185D01*
X94390989Y-4356138D01*
X94381809Y-4321877D01*
X94363325Y-4181477D01*
X94355086Y-4129458D01*
X94355086Y-4118893D01*
X94353640Y-4107910D01*
X94353640Y-3892089D01*
X94355086Y-3881105D01*
X94355086Y-3870542D01*
X94363324Y-3818527D01*
X94381809Y-3678122D01*
X94390989Y-3643858D01*
X94395590Y-3614815D01*
X94413738Y-3558959D01*
X94437666Y-3469661D01*
X94461265Y-3412685D01*
X94475599Y-3368572D01*
X94496654Y-3327248D01*
X94520257Y-3270266D01*
X94566489Y-3190188D01*
X94593144Y-3137877D01*
X94610423Y-3114094D01*
X94628159Y-3083375D01*
X94714383Y-2971005D01*
X94745330Y-2928411D01*
X94752796Y-2920944D01*
X94759544Y-2912151D01*
X94912151Y-2759544D01*
X94920944Y-2752796D01*
X94928411Y-2745330D01*
X94971005Y-2714383D01*
X95083375Y-2628159D01*
X95114094Y-2610423D01*
X95137877Y-2593144D01*
X95190188Y-2566489D01*
X95270266Y-2520257D01*
X95327248Y-2496654D01*
X95368572Y-2475599D01*
X95412685Y-2461265D01*
X95469661Y-2437666D01*
X95558959Y-2413738D01*
X95614815Y-2395590D01*
X95643858Y-2390989D01*
X95678122Y-2381809D01*
X95818524Y-2363324D01*
X95870542Y-2355086D01*
X95881106Y-2355086D01*
X95892090Y-2353640D01*
X96107910Y-2353640D01*
X96118894Y-2355086D01*
G37*
M02*
