0
SECTION
2
HEADER
9
$INSUNITS
70
4
0
ENDSEC
0
SECTION
2
ENTITIES
0
LINE
8
OUTLINE
10
0
20
0
11
120
21
0
0
LINE
8
OUTLINE
10
120
20
0
11
120
21
110
0
LINE
8
OUTLINE
10
120
20
110
11
0
21
110
0
LINE
8
OUTLINE
10
0
20
110
11
0
21
0
0
CIRCLE
8
HOLES
10
14
20
96
40
1.6
0
CIRCLE
8
HOLES
10
106
20
96
40
1.6
0
CIRCLE
8
HOLES
10
14
20
14
40
1.6
0
CIRCLE
8
HOLES
10
106
20
14
40
1.6
0
LINE
8
OUTLINE
10
77
20
39
11
81
21
39
0
LINE
8
OUTLINE
10
79
20
37
11
79
21
41
0
LINE
8
OUTLINE
10
84
20
39
11
88
21
39
0
LINE
8
OUTLINE
10
86
20
37
11
86
21
41
0
LINE
8
OUTLINE
10
54
20
64
11
58
21
64
0
LINE
8
OUTLINE
10
56
20
62
11
56
21
66
0
LINE
8
OUTLINE
10
79
20
51
11
83
21
51
0
LINE
8
OUTLINE
10
81
20
49
11
81
21
53
0
ENDSEC
0
EOF
